<?xml version="1.0" encoding="UTF-8"?>
<svg id="Layer_3" data-name="Layer 3" xmlns="http://www.w3.org/2000/svg" version="1.1" viewBox="0 0 1024 1024">
  <defs>
    <style>
      .cls-1 {
        stroke-width: 2px;
      }

      .cls-1, .cls-2, .cls-3 {
        stroke: #fff;
        stroke-miterlimit: 10;
      }

      .cls-1, .cls-3 {
        fill: none;
      }

      .cls-2 {
        stroke-width: 1px;
      }

      .cls-2, .cls-4 {
        fill: #fff;
      }

      .cls-5 {
        fill: #ae1917;
      }

      .cls-5, .cls-4 {
        stroke-width: 0px;
      }

      .cls-3 {
        stroke-width: 6px;
      }
    </style>
  </defs>
  <circle class="cls-5" cx="516.5" cy="521.5" r="492.5"/>
  <g>
    <g>
      <path class="cls-4" d="M521,952.7h-.4c-1,0-1.8-.8-1.8-1.8,0-1,.8-1.7,1.8-1.8,1,0,2,.8,2,1.8,0,1-.6,1.8-1.6,1.8ZM535.4,952.3c-1,0-1.8-.7-1.8-1.7,0-1,.7-1.8,1.7-1.9,1.1,0,2,.7,2.1,1.7,0,1-.5,1.8-1.5,1.9h-.4s0,0,0,0ZM506.2,952.7s0,0,0,0h-.4c-1,0-1.8-.9-1.7-1.9,0-1,.9-1.8,1.9-1.7,1,0,1.9.8,1.9,1.8,0,1-.6,1.8-1.6,1.8ZM550.2,951.4c-.9,0-1.8-.7-1.8-1.7,0-1,.7-1.9,1.7-1.9.9-.1,2,.6,2.1,1.6,0,1-.5,1.8-1.5,1.9h-.4s0,0-.1,0ZM491.5,952.1c0,0-.1,0-.2,0h-.3c-1,0-1.8-.9-1.7-1.9,0-1,.9-1.8,1.9-1.7h.4c1,0,1.7.9,1.7,1.9,0,.9-.8,1.7-1.8,1.7ZM564.9,950c-.9,0-1.7-.6-1.8-1.6-.1-1,.5-1.9,1.5-2h.4c1-.1,1.9.6,2,1.5.1,1-.6,1.9-1.6,2h-.3c0,0-.1,0-.2,0ZM476.7,951c0,0-.1,0-.2,0h-.3c-1,0-1.7-1-1.7-1.9,0-1,.9-1.7,1.9-1.7h.4c1,.1,1.7,1,1.6,2,0,.9-.9,1.6-1.8,1.6ZM579.6,948.1c-.9,0-1.7-.6-1.8-1.5-.2-1,.5-1.9,1.5-2.1h.4c.9-.2,1.9.5,2,1.5.1,1-.6,1.9-1.5,2h-.3c0,0-.2,0-.3,0ZM462,949.4c0,0-.2,0-.3,0h-.4c-1-.2-1.7-1.1-1.6-2.1.1-1,1-1.7,2-1.6,1,.1,1.9,1,1.7,2-.1.9-.7,1.6-1.6,1.6ZM594.1,945.7c-.9,0-1.7-.6-1.8-1.5-.2-1,.5-1.9,1.5-2.1,1-.2,2.1.4,2.3,1.4.2,1-.3,1.9-1.3,2.1h-.4c0,0-.2,0-.3.1ZM447.4,947.3c-.1,0-.2,0-.3,0h-.4c-1-.2-1.7-1.1-1.5-2.1.2-1,1.1-1.7,2.1-1.5h.4c1,.2,1.7,1.1,1.5,2.1-.1.9-.9,1.5-1.7,1.5ZM608.6,942.8c-.9,0-1.6-.6-1.8-1.4-.2-1,.4-1.9,1.4-2.1,1-.2,2.1.4,2.3,1.3.2,1-.2,1.9-1.2,2.1h-.4c-.1.1-.2.1-.3.1ZM432.8,944.8c-.1,0-.2,0-.3,0,0,0-.4,0-.4,0-1-.2-1.6-1.2-1.4-2.1.2-1,1.2-1.6,2.1-1.4,1,.2,1.7,1.2,1.6,2.2-.2.8-.8,1.5-1.6,1.5ZM623,939.4c-.8,0-1.6-.5-1.8-1.4-.2-1,.3-1.9,1.3-2.2,1-.3,2.1.3,2.4,1.2.3,1-.2,1.9-1.1,2.2h-.4c-.1.1-.3.1-.4.1ZM418.4,941.7c-.1,0-.3,0-.4,0h-.4c-1-.3-1.6-1.3-1.3-2.3.2-1,1.2-1.5,2.2-1.3,1,.2,1.7,1.2,1.5,2.2-.2.8-.8,1.4-1.6,1.4ZM637.3,935.5c-.8,0-1.5-.5-1.8-1.3-.3-1,.3-2,1.2-2.2h.3c1-.4,2,.2,2.2,1.1.3,1-.3,2-1.2,2.2h-.3c-.2.1-.3.2-.5.2ZM404.1,938.1c-.2,0-.3,0-.5,0h-.3c-1-.3-1.5-1.3-1.3-2.3.2-1,1.2-1.5,2.2-1.3h.4c1,.4,1.5,1.4,1.2,2.3-.2.8-.9,1.3-1.7,1.3ZM651.4,931.1c-.8,0-1.5-.5-1.7-1.2-.3-.9.2-2,1.1-2.3h.4c.9-.4,2,0,2.3,1,.3.9-.2,2-1.2,2.3h-.3c-.2.2-.4.2-.5.2ZM389.9,934c-.2,0-.4,0-.6,0h-.3c-1-.4-1.5-1.4-1.2-2.3.3-1,1.3-1.5,2.2-1.2h.4c.9.4,1.5,1.4,1.2,2.4-.2.8-.9,1.2-1.7,1.3ZM665.3,926.2c-.7,0-1.4-.4-1.7-1.2-.4-.9.1-2,1-2.3h.4c.9-.5,2,0,2.3.9.3.9-.1,2-1.1,2.3h-.3c-.2.2-.4.2-.6.2ZM375.8,929.4c-.2,0-.4,0-.6-.1h-.3c-.9-.4-1.5-1.4-1.2-2.4.3-.9,1.3-1.5,2.3-1.2h.4c.9.5,1.4,1.5,1.1,2.4-.3.7-.9,1.2-1.7,1.2ZM679.1,920.8c-.7,0-1.4-.4-1.7-1.1-.4-.9,0-2,.9-2.4l.4-.2c.9-.4,2,0,2.3,1,.4.9,0,2-1,2.3h-.3c-.2.2-.5.3-.7.3ZM361.8,924.3c-.2,0-.4,0-.6-.1h-.3c-.9-.5-1.4-1.5-1-2.5.4-.9,1.4-1.4,2.3-1,.9.4,1.6,1.5,1.2,2.4-.3.7-.9,1.2-1.5,1.2ZM692.7,915c-.7,0-1.4-.4-1.7-1-.4-.9,0-2,.9-2.4,0,0,.3-.2.4-.2.9-.4,2,0,2.4.9.4.9,0,2-.9,2.4l-.7-1.6.4,1.8c-.2.1-.5.2-.7.2ZM348,918.8c-.2,0-.4,0-.7-.1h-.3c-.9-.5-1.3-1.6-.9-2.5.4-.9,1.5-1.3,2.4-.9.9.4,1.5,1.5,1.1,2.4-.3.7-.9,1.1-1.5,1.2ZM706,908.7c-.7,0-1.3-.3-1.6-1-.5-.9-.1-2,.8-2.4,0,0,.4-.2.4-.2.9-.4,2,0,2.4.9.4.9,0,2-.9,2.4l-.8-1.6.5,1.8c-.3.1-.5.2-.8.2ZM334.5,912.7c-.2,0-.5,0-.7-.2l-.3-.2c-.9-.4-1.3-1.5-.9-2.4.4-.9,1.5-1.3,2.4-.9.9.4,1.5,1.6,1,2.5-.3.7-.9,1.1-1.5,1.1ZM719.1,902c-.7,0-1.3-.3-1.6-1-.4-.9,0-2,.8-2.4.9-.5,2.1-.2,2.6.6.5.9.3,1.9-.6,2.4l-.4.2c-.3.1-.5.2-.8.2ZM321.2,906.3c-.3,0-.6,0-.8-.2l-.3-.2c-.9-.4-1.2-1.5-.8-2.4.4-.9,1.5-1.3,2.4-.8l.3.2c.9.5,1.2,1.5.8,2.4-.3.6-.9,1-1.6,1ZM732,894.8c-.6,0-1.3-.3-1.6-.9-.5-.9-.2-2,.7-2.5.9-.5,2.1-.3,2.6.6.5.9.4,1.9-.5,2.4,0,0-.3.2-.3.2-.3.2-.6.2-.9.2ZM308.2,899.3c-.3,0-.6,0-.9-.2l-.3-.2c-.9-.5-1.2-1.6-.7-2.4.5-.9,1.6-1.2,2.4-.7l.3.2c.9.5,1.2,1.6.7,2.4-.3.6-.9.9-1.5.9ZM744.6,887.2c-.6,0-1.2-.3-1.6-.9-.5-.9-.2-2,.6-2.5.8-.5,2.1-.4,2.6.5.5.8.4,1.9-.4,2.4l-.4.2c-.3.2-.6.2-.9.3ZM295.2,891.9c-.3,0-.6,0-.8-.2l-.3-.2c-.9-.5-1.1-1.6-.6-2.5.5-.9,1.6-1.1,2.5-.6.9.5,1.3,1.7.8,2.6-.3.6-.9.9-1.5,1ZM757,879.1c-.6,0-1.2-.3-1.5-.8-.6-.8-.3-1.9.5-2.5.8-.6,2.1-.4,2.6.4.6.8.5,1.8-.3,2.4l-.3.2c-.3.2-.6.3-1,.3ZM282.6,884.1c-.3,0-.6,0-.9-.3,0,0-.3-.2-.3-.2-.8-.5-1.1-1.7-.5-2.5.5-.8,1.7-1.1,2.5-.5.8.5,1.2,1.7.7,2.6-.4.6-.9.9-1.5.9ZM769.1,870.7c-.6,0-1.1-.3-1.5-.8-.6-.8-.4-1.9.4-2.5.8-.6,2-.5,2.6.3.6.8.6,1.8-.2,2.4l-.3.2c-.3.2-.7.3-1,.3ZM270.5,875.9c-.4,0-.7,0-1.1-.3l-.3-.2c-.8-.6-1-1.7-.5-2.5.6-.8,1.7-1,2.5-.5l.3.2c.8.6,1,1.7.4,2.5-.3.5-.9.8-1.4.8ZM780.9,861.7c-.5,0-1.1-.2-1.5-.7-.6-.8-.5-1.9.3-2.5.8-.6,2-.6,2.7.2.6.8.6,1.8-.1,2.4,0,0-.2.2-.3.2-.3.3-.7.4-1.1.4ZM258.5,867.3c-.4,0-.8-.1-1.1-.4l-.3-.2c-.8-.6-1-1.7-.4-2.5s1.7-1,2.5-.4l.3.2c.8.6,1,1.7.4,2.5-.3.5-.9.7-1.4.7ZM792.3,852.5c-.5,0-1-.2-1.4-.6-.7-.7-.6-1.9.2-2.5l.3-.3c.8-.6,1.9-.5,2.5.3.6.8.5,1.9-.3,2.5l-.2.2c-.3.3-.7.4-1.2.4ZM246.8,858.2c-.4,0-.8-.1-1.2-.4,0,0-.1-.1-.1-.1-.8-.6-1-1.8-.3-2.6.6-.8,1.7-1,2.5-.3l.3.2c.8.6.9,1.8.3,2.5-.3.4-.9.7-1.4.7ZM803.5,842.8c-.5,0-1-.2-1.4-.6-.7-.7-.6-1.9.1-2.5l.3-.3c.7-.7,1.9-.6,2.5.2.7.7.6,1.9-.2,2.5l-.2.2c-.3.3-.8.5-1.2.5ZM235.4,848.8c-.4,0-.9-.1-1.2-.4l1.2-1.4-1.4,1.2c-.8-.6-.9-1.8-.2-2.5.6-.8,1.8-.9,2.5-.2,0,0,.3.3.3.3.8.6.8,1.8.2,2.5-.3.4-.8.6-1.3.6ZM814.3,832.8c-.5,0-.9-.2-1.3-.5-.7-.7-.7-1.8,0-2.5l.3-.3c.7-.7,1.9-.7,2.5,0,.7.7.7,1.9,0,2.5l-.2.2c-.3.3-.8.5-1.2.5ZM224.4,838.9c-.5,0-.9-.2-1.3-.5l-.2-.2c-.7-.7-.8-1.8-.2-2.5.7-.7,1.8-.8,2.5-.2l.3.3c.7.7.8,1.8,0,2.5-.3.4-.8.6-1.3.6ZM824.8,822.3c-.5,0-.9-.2-1.3-.5-.7-.7-.7-1.8,0-2.5.7-.7,1.9-.9,2.7-.2.7.7.9,1.7.2,2.4l-.3.3c-.3.3-.8.5-1.2.5ZM213.5,828.7c-.4,0-.8-.1-1.1-.4,0,0-.3-.3-.3-.3-.7-.7-.7-1.9,0-2.5.7-.7,1.9-.7,2.5,0,.7.7.8,2,.1,2.7-.4.4-.8.6-1.3.6ZM834.9,811.6c-.4,0-.9-.1-1.3-.5-.7-.7-.8-1.8,0-2.5.7-.7,1.9-.9,2.6-.3.7.7.9,1.7.3,2.4l-.3.3c-.3.4-.8.6-1.3.6ZM203.2,818.1c-.4,0-.8-.2-1.2-.5l-.3-.3c-.7-.7-.6-1.9.1-2.5.7-.7,1.9-.6,2.5.1.7.7.8,2,0,2.7-.4.4-.8.6-1.3.6ZM844.7,800.4c-.4,0-.8-.1-1.2-.4-.8-.6-.9-1.8-.2-2.5l.2-.3c.6-.8,1.8-.9,2.5-.2.8.6.9,1.8.2,2.5l-.2.3c-.3.4-.8.6-1.3.6ZM193.4,807.3c-.5,0-1-.2-1.4-.6l-.2-.3c-.7-.7-.6-1.9.1-2.5s1.9-.6,2.5.1l.3.3c.7.7.6,1.9-.2,2.5-.3.3-.7.4-1.2.4ZM854,789c-.4,0-.8-.1-1.1-.4-.8-.6-1-1.7-.4-2.5,0,0,.3-.3.3-.3.6-.8,1.8-.9,2.5-.3.8.6.9,1.8.3,2.5l-1.4-1.1,1.2,1.4c-.3.5-.9.7-1.4.7ZM183.8,796c-.5,0-1.1-.2-1.4-.7l1.4-1.1-1.6.9c-.6-.8-.6-1.9.2-2.5.8-.6,1.9-.6,2.5.2,0,0,.3.3.3.3.6.8.5,1.9-.3,2.5-.3.3-.7.4-1.1.4ZM863,777.3c-.4,0-.7,0-1.1-.3-.8-.6-1-1.7-.5-2.5l.3-.3c.6-.8,1.7-1,2.5-.4.8.6,1,1.7.4,2.5l-.2.2c-.3.5-.9.8-1.5.8ZM174.4,784.4c-.5,0-.9-.2-1.2-.6,0,0-.2-.3-.3-.3-.6-.8-.4-1.9.4-2.5.8-.6,1.9-.4,2.5.4.6.8.5,2-.2,2.6-.4.3-.8.4-1.2.4ZM871.6,765.2c-.4,0-.7,0-1.1-.3-.8-.6-1-1.7-.5-2.5l.2-.3c.6-.8,1.7-1,2.5-.5.8.6,1,1.7.5,2.5l-.2.3c-.3.5-.9.8-1.5.8ZM165.6,772.6c-.5,0-1-.2-1.3-.6,0,0-.2-.3-.2-.3-.6-.8-.4-1.9.4-2.5.8-.6,1.9-.4,2.5.4.6.8.5,2.1-.3,2.6-.3.2-.7.4-1.1.4ZM879.7,752.8c-.3,0-.7,0-1-.3-.8-.5-1.1-1.7-.5-2.5.5-.8,1.7-1.2,2.6-.7.8.5,1.2,1.5.7,2.3l-.2.3c-.3.5-.9.8-1.5.8ZM157.4,760.5c-.6,0-1.2-.3-1.5-.8l1.5-1-1.7.7c-.6-.8-.3-1.9.5-2.5.8-.6,1.9-.3,2.5.5,0,0,.2.3.2.3.6.8.3,1.9-.5,2.5-.3.2-.6.3-1,.3ZM887.4,740.2c-.3,0-.6,0-.9-.2-.9-.5-1.2-1.6-.7-2.5l.2-.3c.5-.9,1.6-1.1,2.5-.6.9.5,1.1,1.6.6,2.5l-.2.3c-.3.6-.9.9-1.5.9ZM149.2,748c-.5,0-1-.2-1.4-.7,0,0-.2-.3-.2-.4-.5-.9-.2-2,.6-2.5.9-.5,2-.2,2.5.6.5.8.3,2.1-.5,2.6-.3.2-.7.3-1,.3ZM894.7,727.3c-.3,0-.6,0-.9-.2-.9-.5-1.2-1.6-.7-2.5.5-.9,1.6-1.4,2.5-.9.9.5,1.3,1.4.8,2.3l-.2.3c-.3.6-.9.9-1.5.9ZM141.7,735.3c-.6,0-1.1-.2-1.4-.8l-.2-.3c-.5-.9-.2-2,.7-2.4.9-.5,2-.2,2.4.7.5.9.3,2.1-.6,2.6-.3.2-.6.3-1,.3ZM901.6,714.2c-.3,0-.6,0-.8-.2-.9-.4-1.3-1.5-.8-2.4l.2-.3c.5-.9,1.5-1.2,2.4-.8.9.5,1.2,1.5.8,2.4l-.2.3c-.3.6-.9,1-1.6,1ZM134.6,722.3c-.6,0-1.1-.3-1.4-.8,0,0-.2-.3-.2-.4-.4-.9,0-2,.8-2.4.9-.4,2,0,2.4.8.4.9.2,2.1-.7,2.6-.3.2-.6.2-.9.2ZM908,700.8c-.2,0-.5,0-.7-.1-.9-.4-1.3-1.5-.9-2.4l.2-.4c.4-.9,1.5-1.3,2.4-.9.9.4,1.3,1.5.9,2.4v.3c-.4.7-1.1,1.1-1.7,1.1ZM128.1,709.3c-.7,0-1.3-.4-1.7-1l1.6-.8-1.8.5c-.4-.9,0-2,.8-2.4.9-.4,2,0,2.4.8,0,0,.2.3.2.3.4.9,0,2-.9,2.4-.2.1-.5.2-.7.2ZM913.9,687.3c-.2,0-.5,0-.7-.1-.9-.4-1.4-1.4-1-2.3l.2-.4c.4-.9,1.5-1.3,2.4-.9.9.4,1.3,1.5.9,2.4v.3c-.4.7-1,1.1-1.8,1.2ZM122,695.9c-.7,0-1.4-.4-1.7-1.1l1.6-.7-1.8.4c-.4-.9,0-2,.9-2.4.9-.4,2,0,2.4.9,0,0,.1.3.1.3.4.9,0,2-.9,2.4-.2,0-.5.1-.7.2ZM919.3,673.5c-.2,0-.4,0-.6-.1-.9-.3-1.4-1.4-1.1-2.3v-.4c.5-.9,1.5-1.4,2.5-1,.9.4,1.4,1.4,1,2.3v.3c-.4.7-1,1.2-1.8,1.2ZM116.2,682.3c-.7,0-1.4-.4-1.7-1.1v-.3c-.5-.9,0-2,.8-2.4.9-.4,2,0,2.4,1v.4c.5.9,0,2-.9,2.3-.2,0-.4.1-.6.1ZM924.3,659.5c-.2,0-.4,0-.6,0-.9-.3-1.5-1.3-1.2-2.3v-.4c.5-.9,1.5-1.4,2.4-1.1.9.3,1.4,1.4,1.1,2.3v.3c-.3.8-1,1.2-1.8,1.3ZM110.8,668.4c-.7,0-1.3-.3-1.6-1v-.4c-.5-.9,0-2,1-2.3.9-.3,2,.2,2.3,1.1.3.9,0,2.1-1,2.5-.2,0-.5.1-.7.1ZM928.8,645.4c-.2,0-.4,0-.6,0-.9-.3-1.5-1.3-1.2-2.3.3-1,1.3-1.7,2.3-1.4,1,.3,1.6,1.1,1.3,2.1v.4c-.4.8-1.1,1.2-1.8,1.2ZM106,654.4c-.7,0-1.3-.4-1.6-1.1,0,0-.1-.3-.1-.3-.3-.9.2-2,1.2-2.3.9-.3,2,.2,2.3,1.2s-.2,2.1-1.1,2.4c-.2,0-.4.1-.6.1ZM932.8,631.1c-.2,0-.3,0-.5,0-1-.3-1.5-1.3-1.2-2.2.2-1,1.3-1.7,2.2-1.5,1,.2,1.6,1.1,1.3,2v.4c-.3.8-1,1.3-1.8,1.3ZM101.9,640.4c-.8,0-1.5-.5-1.8-1.3l1.7-.5-1.8.2c-.3-1,.3-2,1.2-2.2.9-.3,2,.3,2.2,1.2,0,0,.1.4.1.4.3,1-.3,2-1.3,2.2-.1,0-.3,0-.4,0ZM936.2,616.8c-.1,0-.3,0-.4,0-1-.2-1.6-1.2-1.4-2.1v-.4c.3-1,1.3-1.6,2.2-1.4,1,.2,1.6,1.2,1.4,2.1v.3c-.3.8-1,1.4-1.8,1.4ZM98,626c-.8,0-1.5-.4-1.7-1.2v-.4c-.3-1,.3-1.9,1.2-2.2,1-.2,1.9.4,2.2,1.3.2,1-.3,2.1-1.3,2.3-.2,0-.3,0-.5,0ZM97.3,421c-.1,0-.3,0-.4,0-1-.2-1.6-1-1.4-2,0,0,0-.4,0-.4.2-1,1.2-1.6,2.2-1.3,1,.2,1.5,1.2,1.3,2.2-.2.8-1,1.5-1.8,1.5ZM928.1,396.8c-.8,0-1.5-.5-1.7-1.2v-.4c-.4-1,.1-2,1.1-2.2,1-.3,2,.3,2.2,1.2v.3c.4.9-.1,2-1.1,2.3-.2,0-.4,0-.5,0ZM101.1,406.8c-.2,0-.4,0-.5,0-1-.3-1.5-1.3-1.2-2.2l1.7.5-1.6-.8c.3-1,1.3-1.5,2.2-1.3,1,.3,1.5,1.2,1.3,2.2,0,0-.1.4-.1.4-.2.8-.9,1.3-1.7,1.3ZM923.6,382.8c-.8,0-1.5-.4-1.7-1.2,0,0-.1-.4-.1-.4-.3-.9.2-2,1.1-2.3,1-.3,2,.2,2.3,1.1l-1.7.6,1.8-.3c.3.9-.1,2-1.1,2.3-.2,0-.4.1-.6.1ZM105.3,392.7c-.2,0-.4,0-.6,0-.9-.3-1.5-1.3-1.2-2.3v-.3c.4-.9,1.4-1.5,2.4-1.2.9.3,1.5,1.3,1.2,2.3v.3c-.3.8-1,1.2-1.8,1.3ZM918.6,368.9c-.8,0-1.5-.4-1.7-1.2-.4-.9,0-2.1,1-2.5.9-.4,1.9,0,2.3.9l.2.4c.3.9-.1,2-1.1,2.3-.2,0-.4.1-.6.1ZM110,378.6c-.2,0-.4,0-.6-.1-.9-.3-1.4-1.4-1.1-2.3v-.3c.4-.9,1.5-1.4,2.4-1.1.9.3,1.4,1.4,1.1,2.3v.4c-.4.7-1.1,1.2-1.8,1.2ZM913.1,355.1c-.7,0-1.4-.4-1.7-1.1-.4-.9,0-2.1.9-2.5.9-.4,1.9-.1,2.3.8l.2.4c.4.9,0,2-1,2.3-.2,0-.4.1-.6.1ZM115.1,364.5c-.2,0-.4,0-.6-.1-.9-.4-1.4-1.2-1.1-2.2v-.3c.5-.9,1.6-1.4,2.5-1,.9.4,1.4,1.4,1,2.3-.3.7-1,1.3-1.8,1.3ZM907.1,341.7c-.7,0-1.4-.4-1.7-1.1-.4-.9,0-2.1.8-2.5.9-.4,1.9-.2,2.3.7,0,0,.2.4.2.4.4.9,0,2-.9,2.4-.2,0-.5.1-.7.1ZM120.8,351c-.3,0-.5,0-.8-.2-.9-.4-1.3-1.5-.9-2.4v-.3c.5-.9,1.6-1.3,2.5-1,.9.4,1.3,1.4,1,2.4l-.2.4c-.3.7-.9,1.1-1.6,1.1ZM900.7,328.4c-.7,0-1.3-.4-1.7-1-.4-.9-.1-2.1.7-2.5.9-.4,1.9-.2,2.3.6,0,0,.2.4.2.4.4.9,0,2-.9,2.4-.2.1-.5.2-.7.2ZM126.9,337.5c-.3,0-.6,0-.8-.2-.9-.4-1.3-1.5-.8-2.4v-.3c.6-.9,1.6-1.3,2.5-.9.9.4,1.3,1.5.9,2.4l-.2.4c-.3.6-.9,1-1.6,1ZM893.8,315.3c-.7,0-1.3-.3-1.6-1-.5-.9-.2-2.1.7-2.6.9-.5,1.9-.3,2.3.6,0,0,.2.3.2.4.5.9.1,2-.8,2.4-.3.1-.5.2-.8.2ZM133.5,324.3c-.3,0-.6,0-.9-.2-.9-.5-1.2-1.5-.8-2.4v-.3c.6-.9,1.7-1.2,2.6-.8.9.4,1.2,1.5.8,2.4l-.2.4c-.3.6-.9,1-1.6,1ZM886.5,302.5c-.6,0-1.2-.3-1.6-.9-.5-.9-.3-2.1.5-2.6.9-.5,1.9-.4,2.4.5l.2.3c.5.9.2,2-.6,2.5-.3.2-.6.2-.9.3ZM140.6,311.3c-.3,0-.6,0-.9-.2-.9-.5-1.2-1.6-.7-2.5l.2-.3c.5-.9,1.6-1.2,2.4-.7.9.5,1.2,1.6.7,2.4l-.2.3c-.3.6-.9.9-1.5.9ZM878.8,290c-.6,0-1.2-.3-1.5-.8-.5-.8-.4-2.1.4-2.6.8-.5,1.9-.5,2.4.4l.2.3c.5.8.3,1.9-.5,2.5-.3.2-.6.3-.9.3ZM148.1,298.5c-.3,0-.7,0-1-.3-.8-.5-1.1-1.6-.6-2.5l.2-.3c.5-.9,1.6-1.1,2.5-.6.9.5,1.1,1.6.6,2.5l-.2.3c-.3.5-.9.8-1.5.9ZM870.6,277.7c-.6,0-1.2-.3-1.5-.8l-.2-.3c-.6-.8-.4-1.9.4-2.5.8-.6,1.9-.4,2.5.4l.2.3c.6.8.4,1.9-.5,2.5-.3.2-.6.3-1,.3ZM156,286c-.4,0-.7,0-1-.3-.8-.6-1-1.7-.5-2.5l.2-.3c.5-.8,1.6-1.1,2.5-.5.8.5,1.1,1.6.5,2.5l-.2.3c-.3.5-.9.8-1.5.8ZM862,265.7c-.6,0-1.1-.2-1.5-.7-.6-.8-.5-2.1.3-2.6.8-.6,1.8-.6,2.4.2,0,0,.2.3.2.3.6.8.4,1.9-.4,2.5-.3.2-.7.3-1,.3ZM164.3,273.8c-.4,0-.8-.1-1.1-.3-.8-.6-1-1.7-.4-2.5l.2-.3c.6-.8,1.7-1,2.5-.4.8.6,1,1.7.4,2.5l-.2.3c-.3.5-.9.7-1.4.8ZM853,254c-.6,0-1.1-.2-1.5-.7-.6-.8-.6-2,.2-2.6.8-.6,1.8-.6,2.4.1l.3.3c.6.8.4,1.9-.3,2.5-.3.2-.7.4-1.1.4ZM173.1,261.7c-.4,0-.7,0-1-.3-.8-.6-1.1-1.6-.5-2.4l.2-.3c.6-.8,1.7-.9,2.5-.3.8.6.9,1.7.3,2.5-.4.5-1,.8-1.6.8ZM843.6,242.6c-.5,0-1-.2-1.4-.6-.6-.8-.7-2,0-2.7.8-.6,1.8-.7,2.4,0,0,0,.2.3.2.3.6.8.5,1.9-.2,2.5-.3.3-.7.4-1.1.4ZM182.2,250c-.4,0-.8-.1-1.1-.4-.8-.6-1-1.6-.4-2.4l.2-.3c.6-.8,1.8-.9,2.5-.2.8.6.9,1.8.2,2.5-.4.5-1,.7-1.6.7ZM833.8,231.5c-.5,0-1-.2-1.4-.6-.7-.7-.7-2,0-2.7.7-.7,1.8-.8,2.4,0l.3.3c.7.7.6,1.9-.2,2.5-.3.3-.7.4-1.2.4ZM191.8,238.7c-.4,0-.8-.1-1.1-.4-.8-.7-.9-1.7-.3-2.4l.2-.3c.7-.7,1.8-.8,2.5-.2.7.7.8,1.8.2,2.5-.4.4-1,.7-1.5.7ZM823.6,220.8c-.5,0-.9-.2-1.3-.5,0,0-.3-.3-.3-.3-.7-.7-.7-1.9,0-2.5.7-.7,1.9-.7,2.5,0l-1.3,1.2,1.5-1c.7.7.7,1.8,0,2.5-.3.3-.8.5-1.2.5ZM201.7,228c-.5,0-.9-.2-1.3-.5-.7-.7-.8-1.8,0-2.5l.2-.2c.7-.7,1.8-.8,2.5-.1.7.7.8,1.8.1,2.5l-.3.3c-.3.4-.8.6-1.3.6ZM813.1,210.4c-.4,0-.9-.1-1.3-.5l-.3-.3c-.7-.7-.7-1.8,0-2.5.7-.7,1.8-.7,2.5,0l.2.2c.7.7.8,1.8,0,2.5-.3.4-.8.6-1.3.6ZM211.9,217.3c-.5,0-.9-.2-1.3-.5-.7-.7-.7-1.8,0-2.5l.3-.3c.7-.7,1.8-.7,2.5,0,.7.7.7,1.8,0,2.5l-.3.3c-.3.3-.8.5-1.2.5ZM802.2,200.4c-.4,0-.9-.1-1.2-.5-.7-.7-.9-1.9-.3-2.7.7-.7,1.7-.9,2.4-.3,0,0,.3.2.3.3.7.7.8,1.8.1,2.5-.3.4-.8.6-1.3.6ZM222.7,206.9c-.5,0-1-.2-1.3-.5-.7-.7-.8-1.7,0-2.4l.3-.3c.7-.7,1.9-.6,2.5.1.7.7.6,1.9-.1,2.5-.4.3-.9.5-1.4.5ZM791,190.8c-.4,0-.8-.1-1.2-.4l-.3-.2c-.8-.6-.9-1.8-.2-2.5.6-.8,1.8-.9,2.5-.2l.3.2c.8.6.9,1.8.3,2.5-.3.4-.9.7-1.4.7ZM233.7,197c-.5,0-1-.2-1.4-.6-.6-.7-.7-1.8,0-2.4,0,0,.3-.3.3-.3.8-.6,1.9-.5,2.5.2.6.8.5,1.9-.2,2.5-.4.3-.8.5-1.3.5ZM779.5,181.5c-.4,0-.8-.1-1.2-.4-.8-.6-1.1-1.8-.5-2.6.6-.8,1.6-1,2.4-.4l.3.2c.8.6.9,1.8.3,2.5-.4.4-.9.7-1.4.7ZM244.9,187.7c-.5,0-1.1-.2-1.4-.7-.6-.8-.5-1.9.3-2.5l.3-.2c.8-.6,1.9-.5,2.5.3.6.8.5,1.9-.3,2.5l-.3.2c-.3.3-.7.4-1.1.4ZM767.6,172.7c-.4,0-.7,0-1.1-.3l-.3-.2c-.8-.6-1-1.7-.4-2.5.6-.8,1.7-1,2.5-.4l.3.2c.8.6,1,1.7.4,2.5-.3.5-.9.8-1.4.8ZM256.6,178.4c-.6,0-1.1-.2-1.5-.6-.6-.8-.6-1.8.2-2.4l.3-.2c.8-.6,1.9-.4,2.5.4.6.8.4,1.9-.4,2.5-.3.3-.8.4-1.2.4ZM755.5,164.2c-.4,0-.7,0-1.1-.3-.8-.6-1.2-1.8-.6-2.6.6-.8,1.5-1.1,2.4-.6l.3.2c.8.6,1,1.7.5,2.5-.3.5-.9.8-1.5.8ZM268.4,169.9c-.6,0-1.2-.3-1.5-.8-.6-.8-.4-1.9.5-2.5l.3-.2c.8-.6,1.9-.4,2.5.4.6.8.4,1.9-.4,2.5l-.3.2c-.3.2-.6.3-1,.3ZM743.1,156.2c-.3,0-.7,0-1-.3-.9-.5-1.2-1.7-.7-2.6.5-.8,1.5-1.2,2.3-.7l.3.2c.8.5,1.1,1.7.5,2.5-.3.5-.9.8-1.5.8ZM280.6,161.6c-.6,0-1.2-.3-1.5-.8-.5-.8-.3-1.9.5-2.5l1,1.5-.7-1.7c.8-.6,1.9-.3,2.5.5.6.8.3,1.9-.5,2.5,0,0-.3.2-.3.2-.3.2-.6.3-.9.3ZM730.4,148.6c-.3,0-.6,0-.9-.2l-.3-.2c-.9-.5-1.2-1.6-.7-2.5.5-.9,1.6-1.2,2.5-.7l.3.2c.9.5,1.2,1.6.7,2.5-.3.6-.9.9-1.5.9ZM293.1,153.7c-.6,0-1.2-.3-1.6-.9-.5-.9-.2-2,.6-2.5l.9,1.5-.6-1.7c.8-.5,1.9-.3,2.5.6.5.8.3,2-.6,2.5,0,0-.3.2-.3.2-.3.2-.6.3-.9.3ZM717.4,141.5c-.3,0-.6,0-.9-.2-.9-.5-1.4-1.6-.9-2.5.5-.9,1.4-1.3,2.3-.8l.3.2c.9.5,1.2,1.6.7,2.4-.3.6-.9.9-1.5.9ZM306,146.1c-.7,0-1.3-.3-1.7-.9-.5-.9-.3-1.9.5-2.4l.3-.2c.9-.5,2-.2,2.5.7.5.9.2,2-.7,2.5-.3.2-.6.2-1,.3ZM704.2,134.7c-.3,0-.6,0-.8-.2-.9-.4-1.4-1.6-1-2.5.4-.9,1.4-1.3,2.2-.9l.3.2c.9.4,1.3,1.5.8,2.4-.3.6-.9,1-1.6,1ZM319,139.1c-.7,0-1.4-.3-1.7-.9-.5-.9-.3-1.9.6-2.3l.3-.2c.9-.4,2-.1,2.4.8.5.9.1,2-.8,2.4-.3.1-.6.2-.9.2ZM690.8,128.5c-.3,0-.5,0-.8-.2h-.3c-.9-.6-1.3-1.6-.9-2.5.4-.9,1.5-1.3,2.4-.9h.3c.9.6,1.3,1.6.9,2.5-.3.7-.9,1.1-1.6,1.1ZM332.3,132.6c-.7,0-1.4-.3-1.7-1-.4-.9-.2-1.9.7-2.3l.3-.2c.9-.4,2,0,2.4.9.4.9,0,2-.9,2.4-.3.1-.5.2-.8.2ZM677.1,122.7c-.2,0-.5,0-.7-.1-.9-.4-1.5-1.5-1.2-2.4.4-.9,1.3-1.4,2.2-1.1h.4c.9.5,1.4,1.6,1,2.5-.3.7-.9,1.1-1.6,1.1ZM345.7,126.6c-.7,0-1.5-.3-1.8-1-.4-.9-.1-1.9.8-2.3h.3c.9-.5,2-.1,2.4.8.4.9,0,2-.9,2.4-.2.1-.5.2-.8.2ZM663.3,117.4c-.2,0-.4,0-.6-.1h-.4c-.9-.5-1.4-1.5-1.1-2.4.3-.9,1.4-1.4,2.3-1.1h.3c.9.4,1.4,1.5,1.1,2.4-.3.7-.9,1.2-1.7,1.2ZM359.4,121c-.8,0-1.5-.4-1.8-1.1-.4-.9,0-1.9.9-2.3h.4c.9-.5,2,0,2.3.9.4.9-.1,2-1,2.3-.2,0-.5.1-.7.1ZM649.3,112.6c-.2,0-.4,0-.6,0-.9-.3-1.6-1.4-1.3-2.3.3-.9,1.2-1.5,2.1-1.2h.4c.9.4,1.5,1.4,1.2,2.4-.2.7-.9,1.2-1.7,1.2ZM373,115.9c-.8,0-1.5-.5-1.7-1.2-.3-.9.2-2,1.1-2.3h.3c.9-.4,2,0,2.3,1,.3.9-.1,2-1.1,2.3h-.4c-.2.2-.4.2-.6.2ZM635.1,108.2c-.2,0-.4,0-.5,0-1-.3-1.7-1.3-1.4-2.3.3-1,1.1-1.6,2.1-1.3h.4c1,.4,1.5,1.4,1.2,2.3-.2.8-.9,1.3-1.7,1.3ZM387,111.2c-.8,0-1.5-.5-1.8-1.3-.3-.9.2-2,1.2-2.3h.3c.9-.4,2,.1,2.3,1,.3.9-.2,2-1.1,2.3h-.4c-.2.2-.3.2-.5.2ZM620.8,104.4c-.2,0-.3,0-.5,0h-.4c-1-.3-1.5-1.3-1.3-2.3.2-1,1.2-1.6,2.2-1.3h.4c1,.3,1.5,1.3,1.3,2.3-.2.8-.9,1.3-1.7,1.4ZM401.5,107c-.8,0-1.7-.5-1.9-1.3-.3-1,.1-1.9,1.1-2.2h.4c1-.4,1.9.2,2.2,1.2.3,1-.3,1.9-1.3,2.2-.2,0-.3,0-.5,0ZM606.4,101.1c-.1,0-.3,0-.4,0h-.4c-1-.3-1.6-1.3-1.4-2.2.2-1,1.2-1.6,2.1-1.4h.3c1,.3,1.6,1.2,1.4,2.2-.2.8-.9,1.4-1.7,1.4ZM415.8,103.3c-.9,0-1.7-.5-1.9-1.3-.2-1,.2-1.9,1.1-2.1,0,0,.4,0,.4,0,1-.2,1.9.4,2.2,1.3.2,1-.4,1.9-1.3,2.2-.1,0-.3,0-.4,0ZM591.9,98.2c-.1,0-.2,0-.4,0-1-.2-1.8-1.1-1.6-2.1.2-1,.9-1.7,1.9-1.5h.4c1,.3,1.6,1.2,1.4,2.2-.2.8-.9,1.4-1.7,1.5ZM429.9,100.2c-.9,0-1.6-.6-1.8-1.4-.2-1,.4-1.9,1.4-2.1h.3c1-.3,1.9.3,2.1,1.3.2,1-.4,1.9-1.4,2.1h-.4c-.1,0-.2.1-.3.1ZM577.3,95.9c0,0-.2,0-.3,0-1-.1-1.8-1.1-1.7-2.1.1-1,.9-1.7,1.9-1.6,0,0,.4,0,.4,0,1,.1,1.7,1.1,1.5,2-.1.9-.9,1.5-1.7,1.5ZM444.5,97.5c-.9,0-1.7-.6-1.8-1.5-.2-1,.5-1.9,1.5-2.1h.4c1-.2,1.9.4,2.1,1.4.2,1-.5,1.9-1.5,2.1h-.4c0,0-.2,0-.3,0ZM562.7,94.1c0,0-.1,0-.2,0h-.4c-1-.2-1.7-1-1.6-2,.1-1,1-1.7,2-1.6h.3c1,.1,1.7,1,1.6,2,0,.9-.9,1.6-1.8,1.6ZM459.4,95.3c-.9,0-1.8-.6-2-1.5-.1-1,.4-1.9,1.4-2h.4c1-.2,1.9.5,2,1.5.1,1-.6,1.9-1.6,2,0,0-.1,0-.2,0ZM547.9,92.7c0,0-.1,0-.2,0-1,0-1.9-.9-1.8-1.9,0-1,.7-1.8,1.8-1.7h.4c1,.1,1.7,1,1.6,2,0,.9-.8,1.6-1.8,1.6ZM473.8,93.6c-.9,0-1.7-.7-1.8-1.6,0-1,.6-1.9,1.6-2h.3c1-.2,1.9.6,2,1.6.1,1-.6,1.9-1.6,2h-.4s0,0-.1,0ZM533.2,91.9s0,0-.1,0h-.4c-1,0-1.8-.9-1.7-1.9,0-1,.9-1.8,1.9-1.7h.4c1,0,1.8.9,1.7,1.9,0,1-.8,1.7-1.8,1.7ZM488.9,92.4c-1,0-1.9-.7-2-1.7,0-1,.5-1.8,1.5-1.9h.4c1-.1,1.8.7,1.9,1.7,0,1-.7,1.8-1.7,1.9,0,0,0,0,0,0ZM518.4,91.6s0,0,0,0h-.4c-1,0-1.8-.8-1.8-1.8,0-1,.9-1.8,1.8-1.8h.3c1,0,1.8.8,1.8,1.8,0,1-.8,1.8-1.8,1.8ZM503.6,91.8c-1,0-2-.7-2-1.7,0-1,.6-1.8,1.6-1.9h.4c1,0,1.8.8,1.8,1.8,0,1-.8,1.8-1.8,1.8,0,0,0,0,0,0Z"/>
      <g>
        <path class="cls-4" d="M969.7,385.4c-1.1-1.3-1.4-2.4-1.3-3.9-2.9-9.2-6-18.4-9.4-27.4,0,2.3-.8,4.9-2.4,7.4,0-4.7-.2-8.8-.3-13.1.3.2.6.5.8.7-2-5.1-4.1-10.1-6.3-15.1-.5,1.9-1,3.4-1.5,4.9-.2.6-1.2,1.1-1.8,1.2-.5,0-1.6-.7-1.5-1,.3-1.9.6-3.9,1.5-5.6.3-.6,1.3-.9,2.6-1.4-31.7-72.6-81.6-137-144.9-185.9-85.2-65.9-191.4-101-299.3-98.9-89.3,1.8-176.6,29-250.8,77.6,0,.2,0,.3,0,.5-.7.9-1.3,2.2-2.2,2.7-3.3,1.8-6.6,3.4-10,5-11.1,7.8-21.9,16.1-32.4,24.8-19.1,16-36.8,33.5-53,52.2.5.3,1.1.7,1.9,1.1-3,2.7-5.3,4.8-7.7,7-.2-.2-.3-.4-.5-.6-20.7,24.8-38.8,51.6-54.1,80,1.1,0,2.3.4,3.8,1.3-1.7,2.4-4,3.5-6.1,3.1-20,38.2-35,79.2-43.9,121.6,0,0,29.6-.6,29.6-.6,0,0,0,0,0,0C125.9,222.3,300,80.1,506.5,76c33.6-.7,66.4,2.4,98.1,8.8-.3-.2-.5-.5-.8-.7,4.1-.9,7-1.5,10.7-2.3-.9,3.3-2.8,3.8-4.7,4,81.1,17.3,154.6,56.7,213.2,112.5,1,.5,2,1,3,1.4.7.4,1,1.5,1.5,2.3-.1,0-.3.2-.4.2,16.5,16.1,31.7,33.5,45.5,52.2.1-.7.4-1.4.6-1.5,1.1-.3,2.5-.2,3.7.2,2.2.8,4.2,1.9,6.3,2.9-.2.4-.5.8-.7,1.1-2.1.2-4.2.7-6.3.5-.5,0-1-.3-1.5-.5,2.2,3,4.3,6,6.5,9.1-.2-1.1-.4-2.2-.5-3.3-.1-1,.2-2.1.3-3.1,1.2.3,2.7.3,3.5,1,1.2,1.1,1.9,2.7,3.1,4.6-.5.4-1.2,1.1-2.6,2.4,1.1.7,1.9,1.3,2.4,1.6-.4,1.4-.8,2.8-1.2,4.2,14.9,22.4,27.8,46.4,38.6,71.7,1.5,1.3,3.5,2.4,4.4,4.1,2,4,1.7,9.7,8.8,9.8-.1.4-.2.9-.3,1.3-1.4,1.2-2.9,2.3-5.1,4.1,4.9,13.3,9.3,26.9,13,40.9,0,0,0,.1,0,.1l29.6-.6c-1.7-6.7-3.5-13.4-5.5-20ZM63.6,381.3c1-3.2,1.5-5.3,2.2-7.3.2-.6,1.2-1.1,1.8-1.2.5,0,1.6.7,1.5,1-.3,1.9-.6,3.9-1.5,5.6-.4.8-2,1-4.1,1.9ZM71.3,414c-3.5-2.2-3.6-8-.3-13.1,0,4.7.2,8.8.3,13.1ZM82.4,334.1c-.8-.5-.7-4.2.2-5.2,2.3-2.3,4.9-1.4,7.3,1.9-3.1.8-3.9,5.6-7.5,3.3ZM116.8,277.6c-.6,1.2-1.2,2.5-2,3.5-.6.8-2,1.8-2.6,1.5-1-.4-2-1.6-2.2-2.6-.7-2.6,2.6-6.2,6.2-6.2.2,0,1.2.5,2.1.8-.5,1-.9,2-1.5,3ZM128.9,261.7c-.6-.2-1.5-1.3-1.4-1.6.4-.9,1-1.9,1.8-2.3,1.9-.9,4-1.4,6.3-2.2.6,4.1-2.9,7.2-6.7,6ZM154.5,228.2c-.5,2.5-3.2,5.6-5.2,7.2-2.4,1.9-4.5,4-7.4,6.6.5-3.4.8-5.6,1.3-7.8.1-.6.7-1.5,1.1-1.5,4.3,0,5.1-3.2,6.5-6.2.5-1,2.1-1.5,3.2-2.2.2,1.3.9,2.7.6,3.9ZM260.3,137c-.5-.8-1.7-1.8-1.5-2.2.5-1.3,1.5-2.4,2.5-3.3.3-.2,1.6.9,3.5,2-2.1,1.6-3.3,2.5-4.6,3.5ZM311.1,106.3c-1.2-1.5-2.4-2.9-3.7-4.4.8-.6,1.8-1.9,2.2-1.7,1.4.6,2.6,1.7,4.6,3.1-1.6,1.6-2.4,2.3-3.1,3ZM351.5,96.1c-3.8-.5-7-1-10.2-1.4,1.5-2.1,8.4-5.2,10.2-4.4.9.4,2.3,1.7,2.2,2.1-.6,1.5-1.7,2.9-2.2,3.7ZM392.7,80.7c2.6-4.5,7.4-5.4,11.3-3.3,1.4.8,3.4.6,5.1.9,1.8.3,3.6.7,5.4,1.8-7.2,5.2-14.5-.8-21.7.7ZM423.3,75.9c-1.8,2.3-4.1,3.5-6.8.6-.8-.9-2.9-.4-4.2-1-1.3-.6-2.4-1.7-3.5-2.5,1.2-.7,2.4-2,3.7-2.1,2.3-.3,4.7.4,6.9,0,1.5-.3,2.7-2.1,4.2-3,1.4-.8,3.1-1.2,4.7-1.7.2.4.3.7.5,1.1-1.8,2.9-3.4,6-5.5,8.7ZM431.4,66.7q.1-2.6,7-3.2c.2,3.7-.6,4.1-7,3.2ZM445.8,66.9c5.6-4,17.5-2.7,19.7,2.2-6.7-.8-12.7-1.5-19.7-2.2ZM501.6,70.6c-1.3-1.4-2.3-2.5-3.3-3.5,1.2-.7,2.5-2.1,3.6-2,1.5.1,2.9,1.4,4.3,2.2-1.4,1-2.8,2-4.7,3.4ZM532.3,65.2c1.1-5.5-3.4-4.7-6.2-6.2,5.3-1.1,10-.6,13.9,3.8-1.5,3.7-4.8,1.6-7.6,2.4ZM553.7,68.3c-4.1-.1-7.4-.2-11-.3,3.7-5.9,6.6-5.9,11,.3ZM570.3,75c-2.8-.2-5.5-.8-8.3-1-2.4-.2-4.9.2-7.3,0-1.3-.1-2.5-1-3.7-1.5,1-.9,1.9-2.2,3.2-2.7,1.8-.7,3.8-.7,5.3-1,2.6.6,4.6,1.1,6.6,1.4,1.7.3,3.6.2,5.1.8.8.3,1.2,1.8,1.8,2.8-.9.4-1.8,1.2-2.6,1.2ZM588.3,76c-2.5-.5-4.9-1.6-8.5-2.9,1.6-1,2.6-1.7,3.5-2.4,0-.3,0-.7-.1-1-2.7-.3-5.4-.6-8.1-.9,4.4-2.2,8.8-5.3,12.8.4.4.6,2.2.3,2.6.9.9,1.4,1.4,3.2,2.1,4.8-1.4.4-3,1.4-4.3,1.1ZM611,68.5c-1.8,1.4-3.6,2.9-5.7,3.6-1.4.5-3.3-.4-5-.6,0-.5,0-1.1,0-1.6,3.1-1.5,6.1-3,9.3-4.3.7-.3,1.7.3,2.6.5-.4.9-.6,2-1.2,2.5ZM632.8,86c-1.6.5-3.5.2-4.6.2-1.5-3.2-2.6-5.6-3.7-8,2.8-1.2,9.9,2.1,10.3,4.9.1.9-1.1,2.6-2,2.8ZM643.2,84.7c2.5-1.2,4.9-2.4,7.6-3.7-.8-.8-1.7-1.3-1.7-1.8,0-1,.5-2.8.7-2.8,3.2.2,6.3.6,9.7,1-.8,2.5-1.3,4.3-2,6.6-1.3-.1-2.8-.6-4.1-.4-1.2.1-2.6.6-3.3,1.5-2.2,2.9-3.3,3-6.9-.4ZM657.9,95.5c-.5.5-1.5,1-2.1.8-2-.6-3.8-1.6-6.4-2.6,2.6-1.9,7.2-1.7,8.2,0,.3.5.5,1.6.2,1.9ZM663.5,93.7c-1.4.2-2.8,0-4.5.1.7-3.7,2.3-4.5,5.1-3.5,1.8.7,3.6,1.2,5.4,1.8-2,.5-4,1.2-6,1.5ZM683.4,107.2c-2.8-2-5.6-4-9.7-6.8,3.1-1.4,7-3.7,7.4-3.3,1.9,2.4,2.9,5.6,4.3,8.4-.7.5-1.3,1.1-2,1.6ZM693.4,104.4c-2.3-1.7-4.5-3.5-6.7-5.4-.8-.6-1.9-1.6-1.8-2.2.1-1,1-2.2,1.9-2.7,2.7-1.6,7.6,1.1,7.7,4.3,0,2.7.8,4,3.8,3.9,1.2,0,2.4,1.2,3.6,1.9-1.1.9-2.2,1.8-3.6,2.9-1.9-1-3.5-1.7-4.8-2.7ZM710.2,115.2c-3.9-1.2-6.8-2.1-9.7-3,0-.5.2-.9.3-1.4,3.1-.7,6.3-1.4,9.3.7.6.4.1,2.2.2,3.7ZM719.3,111c-.8,1.5-2.2,2.7-3.5,4.3-1.8-3.2-3.6-5.7-4.8-8.5-.5-1.2.2-2.9.3-4.3,1.2.5,2.7.8,3.7,1.5,1.5,1.1,2.9,2.5,4,4.1.5.7.7,2.2.3,3ZM744.8,134.7c-6.1-1.4-6.6-2.7-3.7-9.3,4,1.6,4.8,3.4,3.7,9.3ZM774.1,156.3c-2.5.2-4-1-3.4-3.6.7-3,1.6-6,2.7-10,3.9,3.9,3.7,8.4,4.8,12.5-1.4.4-2.8,1-4.2,1.1Z"/>
        <g>
          <path class="cls-4" d="M216.5,874.5c-.4-.2-.7-.5-1-.8-.9-1.2-1.2-2.9-2.1-4.1-.8-1.1-2-2.1-3.1-2.9-.2-.1-1.7,1.1-1.7,1.4.4,1.5.8,3.2,1.8,4.4,1.4,1.7,3.2,3,4.8,4.5-.1-.7-.3-1.4-.5-2,.6-.2,1.2-.4,1.8-.6Z"/>
          <path class="cls-4" d="M684.6,944.8c-.5-.3-.9-.5-1.3-.8,0,.7,0,1.3,0,1.8.4-.2.9-.5,1.3-1Z"/>
          <path class="cls-4" d="M952.5,607s0,.1,0,.2c-.2,1.1-.4,2.1-.6,3.2-3.2,15.6-7.2,30.9-11.9,45.8,2-1.5,3.6-3.1,4.2-6.1.3-1.4,3.5-2.3,5.7-3.5,2.7,4.6,2.2,5.9-2.2,6.2-.3,2.4-.5,4.8-.7,6.4-2.9.3-4.9.6-6.8.7-.4,0-.9-.1-1.3-.3-4.8,14.7-10.4,29.1-16.7,43.1.2,0,.4.1.6.3.8.5.7,4.2-.2,5.2-1.1,1.1-2.3,1.5-3.4,1.2-8.6,18.4-18.5,36-29.4,52.9.9.4,1.8,1.5,2.1,2.5.7,2.6-2.6,6.2-6.2,6.2-.2,0-.7-.3-1.3-.5-11.6,17.1-24.4,33.3-38.2,48.5.2.3.5.7.7,1-1.5,1.1-3.1,2.2-4.6,3.2-26.4,28.4-56.3,53.3-89,74.1.3.2.6.4.8.5-.7,1-1.3,3-2,3-4.5.1-7.4,3.1-10.7,5.3-.7.4-1.8.2-2.8.2-53.4,31.2-113.6,51.6-177,58.3-.2,1.6-1.1,1.7-6.9,2.2,0-.6,0-1.1,0-1.6-10.2.9-20.4,1.5-30.7,1.7-209.4,4.1-394.4-139.6-442.3-342.6,0,0,0-.1,0-.1l-29.4.5c4.2,18.8,9.5,37.1,15.7,54.9.6,1.3,1.3,2.7,1.9,4-.1.1-.3.2-.4.3,10.1,27.8,22.8,54.3,37.6,79.3.3-.3.6-.6,1-.9-1.1-.7-1.9-1.3-2.4-1.6,1-3.5,1.9-6.8,2.9-10.5,4.1,3.2,2.4,7.4,2.9,10.9.3,2,.8,4.1,1,6.1.1,1-.2,2.1-.3,3.1-.2,0-.5-.1-.7-.1.5.8,1,1.6,1.5,2.4,1.3-.2,2.6-.3,3.9-.2,1.3.1,2.7,1.1,3.5,2.1.4.5,0,2.6-.5,2.7-1.1.3-2.5.2-3.7-.2-.3,0-.5-.2-.7-.3,87,135.8,240.7,222.4,409.2,219.1,108.4-2.1,213.7-41.8,296.4-111.6,81.5-68.8,138-164,159.1-267.9.7-3.2,1.3-6.4,1.9-9.7l-29.4.5ZM81.2,701.1c1.1-1.8,1.9-3.1,2.8-4.4.5,0,1,0,1.5,0,.5,1.7,1.1,3.3,1.9,6-2.7-.7-4.1-1-6.2-1.6ZM97.6,730.4c0-1.7.2-3.4.2-5.1h2.7c.2,1.6.3,3.3.5,5-1.1,0-2.2,0-3.4.1ZM106.5,725.8c-3.9-3.8-9.6-4.3-13.5-7.9,0,0,0,.1,0,.2,0,0,0-.2,0-.2,0,0,0,0,0,0,.7-3.6,2.9-4.6,6.4-3.9,4.5.9,9.4,1.1,9.3,7.6,0,.5.8.9.9,1.4.4,1.2.6,2.4,1,3.7-1.4-.2-3.2,0-4-.8ZM775.1,897.3c1.2-1.6,3.1-2.7,4.8-3.8.2-.1,1.3,1.2,1.6,1.5-2.4,2.5-4.1,4.2-6.4,6.6,0-1.6-.7-3.4,0-4.3ZM771.4,894.2c.4.4.8.8,1.1,1.3-2.2,2.3-4.4,4.7-6.8,6.9-.2.2-1.6-.8-3.6-1.9,3.8-2.5,6.5-4.4,9.3-6.2ZM758.5,900.1c.3-.4,2.4-.3,2.6,0,.6,1.5,1.6,4.2,1,4.7-2.2,1.8-4.9,2.9-7.4,4.3-.4-.5-.8-1.1-1.2-1.6,1.7-2.5,3.2-5.1,5.1-7.5ZM566.3,976.3c-3.7,2.9-6.1,1.1-8.7-1.3,3.9-3.3,6.3-3,8.7,1.3ZM534.3,977.2c0-.8.2-2,.3-3.2.5.1,1,.3,1.5.4-.6,1.9-.8,4.1-2,5.6-.7.9-2.8.7-4.3,1-.2-.7-.3-1.4-.5-2,1.6-.5,3.2-1.1,5-1.7ZM237.9,874.1c2.6.9,4.4,4,6.6,6-.3.4-.5.7-.8,1.1-5.2-.5-10.5-.7-15.7-1.5-3.9-.6-7.1-5.2-6.8-9.1,5.6,1.1,11.3,1.7,16.7,3.5ZM205.4,854.5c-.4,2.2-.2,4.3-1,4.8-1.3.7-3.9,1-4.6.3-1-1.1-.8-3.4-1.2-5.1,2,0,4,0,6.8,0ZM167.3,812.4c1.9,1.1,4,2,5.5,3.6,1.1,1.1,1.2,3.1,1.8,4.7-1.8.1-3.9.9-5.2.2-4-2.1-4.7-5.5-2.1-8.5ZM119,753.6c-.5-1.2.2-2.9.4-4.4.6,0,1.3-.1,1.9-.2.8,2.1,1.6,4.3,2.4,6.4-.4.3-.8.7-1.2,1-1.2-.9-3-1.6-3.6-2.8ZM124.7,771.8c-1.1-1-2.2-2-4-3.6,1.5-1.3,2.8-2.8,3.1-2.6,1.2.7,2.6,1.8,2.8,2.9.2,1-1.2,2.2-1.9,3.3ZM146,794.9c.6,4.1,1.1,7.5,1.6,11.1-4.4-1.4-5.1-6.1-1.6-11.1ZM154.3,801.1c2.2,2.1,4.3,4.2,6.5,6.3,0,.4,0,.8-.1,1.1-1.5,0-3.8.4-4.5-.4-1.5-1.7-2.2-4.1-3.2-6.3.4-.2.9-.5,1.3-.7ZM156.2,813c.6-.1,1.2-.2,1.7-.3,1.4,1.9,2.8,3.7,4.2,5.6,0,.4-.1.8-.2,1.2-1.5-.4-3.5-.4-4.3-1.4-1-1.3-1-3.3-1.4-5ZM166.4,829.8c-.3,0-.4,0-.7,0-2.2.2-4.6-3.3-6.9-5.2.2-.4.3-.7.5-1.1,1.2.4,2.9.4,3.7,1.3,2.3,2.3,4.2,3.3,6.6.2.5-.6,1.8-.6,2.2-.8,1.5,2,2.9,3.7,3.9,5.6.1.2.2.4.3.7.9.5,1.9,1,2.5,1.8.6.8.4,2.1.6,3.7-4.7-2.1-8.4-3.7-12-5.5-.2-.1-.4-.4-.6-.6ZM172.8,839c2.2-.8,4.3-2,4.9-1.5,1.4,1,2,3,2.2,5-1.9-.9-3.8-1.8-7.1-3.5ZM187.4,849.1c0-4.6-7.1-5.9-5.5-11.5,4.9,3,10.1,5.3,8.3,12.7-.7-.3-2.8-.7-2.8-1.2ZM192.3,859.4c-2.5-1.2-2.1-5.3,1-10.3,1.2,1.1,2.4,1.9,2.9,2.9.3.7-.5,2.8-.6,2.8-4.1-.7-2.9,2.6-3.3,4.6ZM196.8,864.2c-2.2-1.6-3.7-3.5-1-6.8,1.5,1.4,2.9,2.4,3.8,3.8.5.8.2,2.2.2,3.3-1,0-2.3.3-3-.2ZM214.7,885s0,0,0,0c0,0-.2,0-.2,0,0,0,0,0,.1,0-.6-.9-1.3-1.8-1.7-2.8-1.2-3.3-3.5-4.6-6.9-4.1-.2-3-.2-5.8-.7-8.5-.7-4.4-4.9-.2-7.2-2.8,2.8-2.3,5.3-4.4,7.6-6.2,6.2,3.2,10.3,7.8,13.4,13.3,2.3,0,3.6,1.1,3.1,3.6-.7,3-1.6,6-2.7,10-1.5-1.5-2.4-3-3-4.6-.5.7-1.1,1.4-2,2.1ZM234.6,889c-4.2-2-10-1.6-12.4-8.6,4.6,1.2,8.5,1.6,11.8,3.2,2.9,1.4,2.5,2.1.5,5.4ZM249,886.6c-2.5,2.4-3.8,1.9-8.5-4.2,2.9,1.4,5.7,2.8,8.5,4.2ZM252.8,904.4c-.2,0-.4-.1-.6-.2-.1.2-.2.4-.3.7-2.3-.9-3.5-1.9-3.9-3.6-1.2-1.1-2.4-2.2-3.7-3.1-4.1-2.8-1.3-6.3-1.9-10.8,2.3,3.1,4.2,5.7,6,8.2,1.2.3,2.2.6,3,.9-.7-1.3-1.4-2.6-2.1-3.9-.4-.8-.8-1.6-.9-2.5,0-.2,1.1-1,1.6-.9.8.2,1.9.7,2.3,1.4.6,1.1.3,2.8,1,3.6.9,1,2,2,3.1,2.9-.9-1-1.3-2.7-1.4-5.1,5.6,0,9,2.2,9.5,5.9-3.4.7-5.6.8-7.1,0,.5.4,1,.8,1.5,1.2,1.2.9,2.8,1.4,4.2,2.1,0,.6,0,1.2,0,1.9-3.4.5-7.1,2.1-10.2,1.3ZM281.8,927.8c-1.2-.5-2.7-.8-3.7-1.5-1.5-1.1-2.9-2.5-4-4.1-.5-.7-.7-2.2-.3-3,.8-1.5,2.2-2.7,3.5-4.3,1.8,3.2,3.6,5.7,4.8,8.5.5,1.2-.2,2.9-.3,4.3ZM282.9,918.7c-.5-.4-.2-1.8-.2-3.2-.5-.3-.8-.6-.9-1-.2-5.6-5.2-4.9-8.1-6.9-.7-.5-2.3,0-3.3.4-3,1.4-5.2.8-7.4-2.4,3.2-.8,6.6-2.7,9.6-2.2,2.8.5,5.2,3.5,7.8,5.4,2.2,1.5,4.5,2.8,7.5,4.7,0,.3-.2,1.3-.5,2.9,1.8.5,3.4,1,5,1.5,0,.5-.2.9-.3,1.4-3.1.7-6.3,1.4-9.3-.7ZM311.9,933.1c-.7-.9-1.3-1.9-1.8-2.9-.4.9-1,2-1.8,3.6,0,0-.1,0-.2-.1-.2.9-1,2-1.8,2.5-2.7,1.6-7.6-1.1-7.7-4.3,0,0,0-.1,0-.2-.8-.2-1.5-.3-2-.5.2-1,.5-1.9.7-2.7-.6-.4-1.4-.5-2.5-.5-1.2,0-2.4-1.2-3.6-1.9,1.1-.9,2.2-1.8,3.6-2.9,1.3.7,2.4,1.2,3.4,1.8,1.4,0,3.4,0,5.4-.1,0,0,0,0,0,0-1.8-1.1-6.6.3-4-4.7,0,0-.1,0-.2,0,0,0,.2,0,.2,0,0,0,0,0,0,0,1.4,0,2.7,0,4.1.2,1,0,1.9.4,2.8.6-.6.9-1.2,1.8-1.8,2.6-.3.4-.7.8-1.1,1.2,0,0,0,0,.1,0h0s0,0,0,0c1.4,0,2.9.1,4.2.2,0-.1,0-.2-.1-.3.4-.3.7-.6,1.1-.9.4-.7.8-1.5,1.2-2.3.8,1.2,1.6,2.4,2.1,3.3,2.2,1,4.4,2,6.7,3-.2.4-.4.9-.6,1.4.4.3.7.5,1.1.8-3.1,1.4-7,3.7-7.4,3.3ZM314.5,946.5c.1-1.2-1-2.5-1.7-4.1,4.7-1.2,5.7-.4,5.8,3.9,0,1.5.5,3.1.8,5.1-3.2-.7-5.3-1.3-5-4.9ZM318.1,932.6c0-.4,0-.8.1-1.1,1.9.3,3.7.5,6.1.9-.6,2.1-1.1,3.7-1.8,6-1.9-2.5-3.2-4.1-4.5-5.7ZM328.9,939.9c-1.8-.7-3.6-1.2-5.4-1.8,2-.5,4-1.2,6-1.5,1.4-.2,2.8,0,4.5-.1-.7,3.7-2.3,4.5-5.1,3.5ZM344,951c0,1-.5,2.8-.7,2.8-3.2-.2-6.3-.6-9.7-1,.8-2.5,1.3-4.3,2-6.6,1.3.1,2.8.6,4.1.4,1.2-.1,2.6-.6,3.3-1.5,2.2-2.9,3.3-3,6.9.4-2.5,1.2-4.9,2.4-7.6,3.7.8.8,1.7,1.3,1.7,1.8ZM355.6,967.1c-3.4-.2-4.6-2.5-5.1-4.8-.2-.8,1.9-2.1,3-3.2.8.9,2,1.7,2.3,2.7.3,1.5,0,3.2-.1,5.3ZM359.9,952.9c1.7.1,3.3.5,4.9.3,1.5-.2,3-.8,5-.5-3.8,4.3-1.1,6.5,1.7,9-6.5.8-10.6-2.4-11.6-8.8ZM388.3,966.4c-1.1,1.2-2.3,2.4-4.5,4.7-.4-2.1-.7-3.2-.8-4.3,0-.6,0-1.3-.1-1.9-.6,0-1.4-.4-2.1-.5.4-.9.6-2,1.2-2.5,1.8-1.4,3.6-2.9,5.7-3.6,1.4-.5,3.3.4,5,.6,0,.5,0,1.1,0,1.6-1.4.6-2.7,1.3-4.1,1.9,2,.3,3.9,1,5.5,3,.8,1,2.5,1.5,3.8,1.9,1.6.4,3.2.3,5.5.5-4.6,3.5-9,2.9-15.2-1.3ZM443.7,982.8c-2.3,2.4-4.1,2.6-6.4.2-1.1-1.1-3-1.5-4.3-2.4-.8-.6-1.7-1.8-1.6-2.4.2-.7,1.6-1.7,2.4-1.6,1.5,0,2.9.8,4.3,1.2,1,.3,2.1.7,3.1.9,1.3.2,2.6,0,3.9,0-.5,1.4-1,2.7-1.5,4.1ZM439.3,961.9c4.1.1,7.4.2,11,.3-3.7,5.9-6.6,5.9-11-.3ZM465.4,981.2c-2.6.1-5.3.3-7.9.4-.2-.4-.4-.9-.6-1.3,1.9-1,3.6-2.4,5.6-2.9.9-.2,2.3,1.4,3.4,2.2-.2.5-.4,1-.6,1.5ZM453.1,967.4c1.5-3.7,4.8-1.6,7.6-2.4-1.1,5.5,3.4,4.7,6.2,6.2-5.3,1.1-10,.6-13.9-3.8ZM519.4,989.1c-.9,0-1.8-1.9-2.7-3,.2-.4.5-.7.7-1.1,1.8.3,3.7.6,5.5.9.1.3.2.7.4,1-1.3.8-2.6,2.3-3.8,2.2ZM561.4,988.2s-.2,0-.2,0c0,0,0,0,0,0-3.5-1.9-6.9-2.9-10.9-1.2-1.6.7-4-.8-5.9-.6-2,.2-4.8.8-5.7,2.2-1.6,2.6-3,1.7-4.8.9-2.2-1-4.5-1.8-7.4-2.9-.8-5.3-10.3-4.5-16.8.2-3.1-1.5-6.1-3-9.1-4.4,2.2-2.3,4.6-1.9,9,1.4,2.2-1,4.3-1.9,7.3-3.2-1.3-1.6-2.6-3.2-4.2-5.2.9-.2,2-.7,2.8-.4,2.8,1,4.8.3,6.8-1.9.8-.8,2.7-.6,4.1-.7.2,0,.5.8.8,1.2-1.2.4-2.4.8-3.7,1.2-.5.1-1.1,0-1.7.1-2.3,5.4-.3,8.1,5.4,8,2.1,0,4.2.9,6.3,1.4.9.2,2,.7,2.8.5,2.1-.5,4.4-1,6.2-2.2,1.2-.8,1.7-2.7,2.6-4.3,4.7-.5,9.4,0,13.7,3.4.6.5,2.2-.2,3.3-.5,1.2-.4,2.4-1,4.5-1.9-2.1,3.6-3.7,6.3-5.2,8.9,0,0,0,0,.1,0ZM574.9,980.1c-.2-.3-.4-.7-.6-1-.9.3-1.9.5-3.1.6,1-1.1,1.8-1.7,2.2-2.6.1-.2.2-.5.4-.7-1.1-.4-2.4-2.1-4.6-5.1,1.7,0,3.4,0,4.9-.1-.7-3.2.5-3.7,5.1-2.9-.2,3-.7,5.3-1.3,7,1.2-1.1,2.4-2.2,3.8-3.5.9,2.6,1.3,3.8,1.8,5.3-3,1-5.8,2-8.5,3ZM590.2,979.3c.4-2.7,6.1-5.9,10.7-5.8-1.8,5.5-4.3,6.8-10.7,5.8ZM616.8,974.2c-5.2,4.7-8.7,4.5-11.8-1.5,3.9-.9,7.2-1.8,10.6-2.3.7-.1,1.9.8,2.4,1.6.2.4-.6,1.6-1.2,2.2ZM629.5,974.5c2.3-2.5,5.5-3.5,9-2.8,0,0,.2,0,.3,0-3.1,1-6.2,1.9-9.3,2.8ZM649.2,955.7c-.7-4,2.4-5.9,4.6-6.9,1.2-.6,3.9,1.9,5.9,3-.2.5-.3,1.1-.5,1.6-3.3.8-6.5,1.5-10,2.3ZM670.4,954.3c0,.3,0,.6-.3.7-.7.6-1.5,1.6-2.2,1.6-2.8,0-5.5-.4-8.3-.7.6-1,1.4-3,1.9-2.9,3.7.3,5.4-1.2,5.1-4.9,1.8,0,3.4,0,4.5,0-.3,2.2-.6,4.2-.9,6.2ZM674.3,948.5c.1-.2.2-.4.4-.6-.4,0-.7.1-1.1.2-.1-.6-.3-1.2-.4-1.9,1-.3,2.1-.6,3.1-.9.6-.9,1.2-1.9,1.8-2.9.5.7.9,1.4,1.3,2,1-.3,1.9-.6,3-.9-1-.6-1.9-1.2-2.9-1.8.4-2.4,1.9-2.8,3.5-2.9,0-.4,0-.8.1-1.1.3-.7,2.1-.8,3.2-1.2.6-.2,1.3-.5,1.9-.5.9,0,1.7.5,2.5.7-.5.8-.9,1.9-1.6,2.4-.5.3-.9.5-1.5.8-1.4,1.5-1.9,2.8,5,3-3.4,3.1-5.4,5.5-7.9,7.1-1.1.7-3.2.3-4.8,0-1.7-.3-3.3-.9-5.6-1.6ZM694.3,954.5c-.8.4-2.2,1.1-2.7.8-3.2-2-6.3-3.4-10.2-.4,0-.5-.1-1-.2-1.5,3.6-2.3,7.2-4.6,11.3-7.2-.6,1.8-1.2,3.4-1.9,5.4,3-.2,5.1-.4,7.3-.5,0,.4.1.7.2,1.1-1.3.8-2.5,1.7-3.8,2.4ZM697.9,945.2c-1.6.2-2.9.3-4.9.5,1.3-3.6-2.2-7.5,2.2-9.8,1.5-.8,4-.8,3.8,2.4-5.5,1-5.6,1.4-1.1,6.8ZM707.8,931.9c.3.3.6.6.8,1-2.1,1.1-4.2,2.3-6.5,3.2-.3.1-1.3-1.7-2.2-2.8,3.2-.5,5.5-.9,7.8-1.3ZM701.6,944.1c-.4-1.1-1.5-2.7-1.2-3.1,1.1-1.3,2.7-2.1,4.1-3.1.5.8,1,1.5,1.5,2.3-1.5,1.3-3,2.6-4.5,3.8ZM716.2,936.7c-2.9.1-5.8.7-9.4,1.1,2.3-4.3,4.4-8,9.5-8.8,0,0,0,0-.1,0,0,0,.2,0,.2,0,0,0,0,0,0,0,3.8.5,5.9-1.4,7.4-4.8,2.4-5.3,4.2-6.5,10.2-7.4,0,1.5,0,2.9,0,3.6-3.7,2.8-6.8,5.1-10,7.5,1.3,6.9-.2,8.5-7.7,8.8ZM740.2,919.1c-.5.7-2.1.6-3.2.8-.2-.4-.4-.8-.5-1.2,1.4-1.6,2.7-3.1,4.1-4.7.4.2.9.4,1.3.6-.5,1.5-.7,3.2-1.6,4.5ZM745,913.3c.2-3.1.3-6,.6-8.9,0-.5,1.2-1.1,2-1.2.5,0,1.2.5,1.5,1,1.3,2.2-1.2,7.9-4.1,9.1ZM752.3,914c1.5-1.4,3-3,4.6-4.2.3-.2,1.5.7,2.3,1.1-.5.6-.8,1.3-1.4,1.7-1.5.9-3.1,1.6-4.7,2.4-.3-.3-.6-.6-.8-.9ZM753.6,920.5c.3-4.3,2.3-6,6.4-5.9.3,3.1-.8,4.2-6.4,5.9ZM760.7,912.8c.5-1.8.7-3.7,1-5.8,1.8.7,3.5,1.5,5.1,2.2-2.2,1.5-4.4,3.1-6.7,4.6.3-.3.5-.6.6-.9ZM771.9,909.6c-1.3-.6-3.5.7-5.3,1.1.2-2.8,1.6-3.5,11.4-4.6-1.3,2.2-1.7,5.7-6.2,3.5ZM780,911.5c-.4-.3-.8-.6-1.1-.9,0-.5,0-1.3.2-1.6,1.3-1.4,2.7-2.8,4-4.2.4.5,1.1,1.3,1,1.5-1.3,1.8-2.7,3.5-4.1,5.2ZM787.2,892.6c-1.5.4-3.1.3-4.6.4,0-1,.1-1.9.2-3.5,1.9,0,3.4.2,4.9.2-.2,1,0,2.8-.5,2.9ZM815.1,865.1c-.2-.2-.4-.4-.6-.6,2.3-2.4,4.6-4.8,6.9-7.2,0,0,0,0,0,0,0,0,.2,0,.2,0,0,0,0,0,0,0,.7.8,1.5,1.6,2.4,2.5-3.1,1.9-5.8,3.6-8.6,5.3ZM848.1,854.9c-1.9.6-4,1-5.7,1.9-1.8.9-3.4,2.4-5.3,3.3,1.3-4.1,1.8-8.3,7.4-9.3,2-.3,3.6-2.7,6-4.6-1,3.3-1.8,6-2.5,8.7,0,0,.2,0,.2,0ZM851.2,833.8c-1.3,4.8-6.2,7.6-12.6,6.8,3.3-3.4,6.1-6.5,9.1-9.4.7-.6,2-.6,3-.8.2,1.1.8,2.4.5,3.4ZM884.6,786c.3,0,.6.2.8.3,1.2-1.4,2.3-2.9,3.7-4.1.6-.5,2.2-.7,2.7-.3.6.5,1,2.2.6,2.7-1.5,1.8-3.2,3.5-5.1,5-.6.5-1.9,0-2.9-.1,0-1.1.2-2.3.3-3.4ZM877.9,800.1c3,3.2,0,4.7-1.5,6-1.1.9-3,.6-4.6.8,0-.4-.1-.8-.2-1.2,2-1.8,4-3.6,6.3-5.6ZM863.8,814.3c-1.3,1.6-2.1,3.6-3.3,5.8-4.7-6.4-4.4-7.5,2.2-11.5,2.6,1.4,3.3,3,1.1,5.7ZM865.7,819.9c2.2-5.6,4.8-7.2,8.9-5.1-3.3,1.7-3.9,6.9-8.9,5.1ZM877,818.3s-.2,0-.2,0c0,0,0,0,.1-.1-.6-1.8-1.2-3.6-2.3-6.5-1.7.2-4.4.6-7.2,1,.2-2.4,2.6-3.8,5-3.5,3.2.4,6.3,2.1,9.9,3.4-2,2.1-3.7,3.9-5.4,5.7,0,0,0,0,0,.1ZM894.3,796.1c-1,.7-2.7.7-3.4,1.5-1.8,2.2-6.2,3.6-3.1,7.9.2.3-.8,2.2-1.3,2.2-.9,0-2.2-.5-2.7-1.2-1.9-2.5-2.1-5.3-.1-7.8,1.9-2.4,3.6-5.8,7.7-2.9.3-.9.4-1.8.9-2.2.6-.5,1.4-.9,2.2-1,.3,0,1.1,1,1.1,1.4-.1.7-.6,1.6-1.2,2ZM897.8,778.4c1.7-3.1,3.1-6.4,5.1-9.3.5-.7,2.8-.2,5.1-.4-3,4.9-4.8,9.1-10.2,9.7Z"/>
        </g>
      </g>
    </g>
    <g>
      <path class="cls-4" d="M505.1,341.8c-.1-1.8-.3-3.6-.3-5.4,0-.3,1.1-1,1.3-.9.9.5,2.3,1.4,2.2,1.9-.4,1.7-1.3,3.2-2,4.8-.4-.1-.8-.2-1.2-.3Z"/>
      <path class="cls-4" d="M458.2,316.8c-1.3,1.6-2.5,3.1-3.9,4.8-1.8-1.7-1-3.7-.3-5,.4-.7,2.6-.5,3.9-.8.1.3.2.6.4,1Z"/>
      <path class="cls-4" d="M584,302.8c.2,1.5,1.3,3.4-1.6,3.9-.8.2-1.4,1.6-2.1,2.5-1-1.4-.5-2.3,3.8-6.4Z"/>
      <path class="cls-4" d="M654.8,712c1-.5,1.9-1.1,2.9-1.6.2.1.4.2.6.4-.3.9-.4,2-1,2.5-.4.3-1.6-.3-2.4-.4v-.8Z"/>
      <path class="cls-4" d="M573.1,665.7c-2.7,1.7-5.3,3.6-8,5.1-2.1,1.1-5.3.1-6.6-1.8,3.1-1.5,6-3.4,9.2-4.5,1.5-.5,3.6.3,5.4.5,0,.3,0,.5,0,.8Z"/>
      <path class="cls-4" d="M439,653.5c-1.1-2-.4-3.3,1.6-4.3,2.5-1.2,4.9-2.9,7.2.2.2.2.7.1,1,.3.6.4,1.2.9,1.8,1.4-.7.4-1.5,1.2-2.2,1.1-3.3-.4-6.2,1.5-9.4,1.2,0,0,0,0,0,0Z"/>
      <path class="cls-4" d="M588.7,321.8c1.2-1.6,2.2-3.7,3.8-4.6,1.5-.8,3.8-.2,5.7-.3,1.6,0,3.2-.3,5.3-.5,0,.2.5,1,1.2,2.2-1.5.2-3.3.9-3.7.5-2.1-2.6-4.3-.4-6.4-.3-.5,0-1.1.8-1.4,1.4-.9,1.8-2.2,2.3-4.4,1.6Z"/>
      <path class="cls-4" d="M705,693.2c1.4.4,2.7.7,3.9,1.2.7.3,1.3,1,1.9,1.5-.7.3-1.4,1-2,1-1.7,0-3-.2-4.6,1.2-1,.9-3.4,0-5.2,0,0-.2-.1-.4-.2-.7.7-.3,1.5-.8,2.2-.7,1.9.3,3.2,0,3.2-2.3,0-.5.6-1,.8-1.2Z"/>
      <path class="cls-4" d="M915.5,597.2c1.3-.1,2.7-.5,4-.3.9.1,1.7,1,2.6,1.6-.8.7-1.5,1.8-2.4,2-2.7.5-4.3-.9-4.1-3.3Z"/>
      <path class="cls-4" d="M713.9,611.6c3.5-.4,6.8-1.2,8.6,3-.4.1-1.6.7-1.8.5-1.7-2.2-5.6-.2-6.9-3.5Z"/>
      <path class="cls-4" d="M363.3,357.7c1,.1,1.8,0,2.5.3.4.2.8,1.5.8,1.6-2.2,1.2-.4,2.3.1,3.4-1.6.3-3-1.7-3.3-5.3Z"/>
      <path class="cls-4" d="M478.6,368.1c1.2.1,2.3,0,3.2.4.5.2.9,1,1.3,1.5-.5.4-1,1-1.5,1-1.6,0-3.1-.3-3-2.9Z"/>
      <path class="cls-4" d="M444.2,715.8c-1.3,0-3.1,2.7-3.7-.7,0,0,0,0,0,0,.7-.5,1.4-1,2.1-1.5.5-.3,1.1-.5,1.6-.7,0,.6,0,1.3.1,1.9,0,.3,0,.7,0,1,0,0,0,0,0,0Z"/>
      <path class="cls-4" d="M519.1,710.7c1.9-.4,3.8-.8,5.6-1.1-.3,2-1.1,2.3-5.6,1.1Z"/>
      <path class="cls-4" d="M398.8,734.4c-2.1,1.2-2.3,2.9-1.8,5,.8,3.4.4,4.7-2.1,7.3-.6-.7-1.1-1.3-1.4-1.7.7-2.7,1.4-4.9,2-7.2-3.2-2.8-3.1-4.1.4-7,1.3-1.1,2.5-2.5,4-4,.5,2.9.9,5.5-1.3,7.7,0,0,0,0,0,0Z"/>
      <path class="cls-4" d="M613.2,827.9c.5-2.7.6-4.6,1.2-6.3.3-.8,1.4-1.3,2.2-1.8.9-.5,1.9-.8,3.2-1.3.1,1.1.3,2.6.5,4.3-1.8-.5-3.4-1.9-4,1.2,1.3-.1,2.4-.3,3.6-.4,1.7,3.3-4.1,3-2.6,6.1-2.1-.1,1.9-6.2-4.1-1.8Z"/>
      <path class="cls-4" d="M581.2,732.8c-.3,2.9-.5,5.4-.9,7.8,0,.5-.7,1-1.1,1.5-.5-.5-1.2-.8-1.5-1.4-1.2-2.8.2-5.9,3.5-7.9Z"/>
      <path class="cls-4" d="M568.1,640.1c.1,1.8.3,3.6.3,5.4,0,.3-1.1,1-1.3.9-.9-.5-2.3-1.4-2.2-1.9.4-1.7,1.3-3.2,2-4.8.4.1.8.2,1.2.3Z"/>
      <path class="cls-4" d="M614.9,665.1c1.3-1.6,2.5-3.1,3.9-4.8,1.8,1.7,1,3.7.3,5-.4.7-2.6.5-3.9.8-.1-.3-.2-.6-.4-1Z"/>
      <path class="cls-4" d="M489.2,679.1c-.2-1.5-1.3-3.4,1.6-3.9.8-.2,1.4-1.6,2.1-2.5,1,1.4.5,2.3-3.8,6.4Z"/>
      <path class="cls-4" d="M581.7,766.8c2.3-2.5,2.2-2.7-2-3.7.7-.7,1.3-1.2,2.1-2,.7,2.2,3.8,2.8,2.6,5.5-.4.9-1.6,1.8-2.7.2Z"/>
      <path class="cls-4" d="M500,316.2c2.7-1.7,5.3-3.6,8-5.1,2.1-1.1,5.3-.1,6.6,1.8-3.1,1.5-6,3.4-9.2,4.5-1.5.5-3.6-.3-5.4-.5,0-.3,0-.5,0-.8Z"/>
      <path class="cls-4" d="M634.1,328.4c1.1,2,.4,3.3-1.6,4.3-2.5,1.2-4.9,2.9-7.2-.2-.2-.2-.7-.1-1-.3-.6-.4-1.2-.9-1.8-1.4.7-.4,1.5-1.2,2.2-1.1,3.3.4,6.2-1.5,9.4-1.2,0,0,0,0,0,0Z"/>
      <path class="cls-4" d="M484.4,660.1c-1.2,1.6-2.2,3.7-3.8,4.6-1.5.8-3.8.2-5.7.3-1.6,0-3.2.3-5.3.5,0-.2-.5-1-1.2-2.2,1.5-.2,3.3-.9,3.7-.5,2.1,2.6,4.3.4,6.4.3.5,0,1.1-.8,1.4-1.4.9-1.8,2.2-2.3,4.4-1.6Z"/>
      <path class="cls-4" d="M348.4,657.6c2.8-2.7,6-2.7,8.8,0-.9.6-1.8,1-2.4,1.6-.7.6-1.1,1.5-2.2,2.1.2-3.5-1.9-3.5-4.1-3.7Z"/>
      <path class="cls-4" d="M632.6,713.6c2.7-.6,5.3-2.9,9.1-.4-2.6,1.1-4.7,2.4-6.8,2.8-1.9.4-2,0-2.2-2.4Z"/>
      <path class="cls-4" d="M359.2,370.3c-3.5.4-6.8,1.2-8.6-3,.4-.1,1.6-.7,1.8-.5,1.7,2.2,5.6.2,6.9,3.5Z"/>
      <path class="cls-4" d="M295.6,706.7c-2.6,2.1-5.1,2.3-6.7.7,2.9-3.4,4.2-3.6,6.7-.7Z"/>
      <path class="cls-4" d="M884.2,632.1c-.6-1.2-1.5-2.1-1.3-2.7.3-.8,1.5-2,2.1-1.8.9.2,1.6,1.3,2.5,2-1,.7-1.9,1.5-3.3,2.5Z"/>
      <path class="cls-4" d="M709.9,624.2c-1-.1-1.8,0-2.5-.3-.4-.2-.8-1.5-.8-1.6,2.2-1.2.4-2.3-.1-3.4,1.6-.3,3,1.7,3.3,5.3Z"/>
      <path class="cls-4" d="M440.1,743.1c.8-.5,1.7-1.6,2.3-1.5,1.3.3,2.6,1.2,3.8,1.8-.1.3-.2.5-.4.8-1.8-.2-3.6-.4-5.4-.6-.1-.2-.2-.4-.4-.6Z"/>
    </g>
  </g>
  <circle class="cls-3" cx="516.5" cy="521.5" r="245.4"/>
  <circle class="cls-1" cx="516.5" cy="521.5" r="228.6"/>
  <g>
    <path class="cls-4" d="M442.8,737l112-279.6c-2.8-1-5.6-2.1-8.3-3.1-4.6,11.5-10.4,19.3-13.6,18.2s-3-11.3.6-23.6c.2-.6.4-1.2.5-1.8.3-.8.5-1.7.8-2.5v-.2c.2-.5.4-1.1.6-1.6,4.8-13.4,11.4-23.1,15-21.9,3.7,1.3,2.9,13.4-1.7,27.4,0,0,.1,0,.2,0,2.6,1,5.4,2.1,8.3,3.1h0s10.2-25.6,10.2-25.6c2.7-6.6-3-14.9-12.5-18.1-9.3-3.2-18.6-.3-20.8,6.2,0,.2-.1.3-.1.5l-6.9,24.4-.5,1.9-.7,2.6-.5,1.8h0s-82.4,291.7-82.4,291.7"/>
    <path class="cls-2" d="M698,627.3c-.2-.7-.9-1.2-1.6-1-.7.2-1.2.9-1,1.6,5.7,22.2-5.5,47.7-26.7,60.6-19.4,11.8-46.4,13.4-70.3,4-32.9-12.8-57-44.5-60-78.7-1.8-20.2,3.3-42.6,15.4-68.5,4.6-9.9,9.9-19.7,15-29.1,6.1-11.2,12.4-22.8,17.6-34.7,2.3-5.1,4.2-10.1,5.9-15,49.7,12.8,100.7,19.6,151.9,20.4.7,0,1.3-.6,1.3-1.3,0-.7-.6-1.3-1.4-1.3-51-.7-101.6-7.5-151-20.2,6.3-19.2,8.2-36.7,5.6-52.9-1.9-12.3-6.8-24.1-14.2-34-7.8-10.6-17.9-18.3-29.2-22.3-.2,0-.4-.1-.6-.2-12.5-4.2-27.1-3.3-39.4,2.7-10.9,5.3-18.6,13.8-21.7,24-2.6,8.7-2,18.4,1.7,28.1,3.4,8.8,9.4,17.3,16.9,23.9,4.4,3.9,9.2,7.2,14.1,10.1l.8-2.6c-4.6-2.7-9.1-5.8-13.1-9.4-12.9-11.3-23.4-31-17.9-49.3,2.9-9.5,10.1-17.5,20.3-22.5,11.6-5.6,25.5-6.6,37.3-2.6.2,0,.4.1.6.2,21.3,7.6,37.6,28.8,41.6,54.2,2.5,15.8.6,32.9-5.6,51.8-8.4-2.2-16.8-4.6-25.1-7.1-4.8-1.5-9.9-3.1-14.9-4.9-.6-.2-1.2-.4-1.8-.7-1.8-.7-3.7-1.4-5.5-2.1-.6-.2-1.2-.5-1.8-.7-1.7-.7-3.4-1.5-5.1-2.3-.3.9-.6,1.7-.8,2.5,1.7.8,3.4,1.6,5.1,2.3.6.3,1.2.5,1.8.7,1.8.7,3.6,1.5,5.5,2.1.6.2,1.2.5,1.8.7,5.1,1.8,10.2,3.5,15.1,4.9,8.3,2.5,16.6,4.9,25,7.1-1.7,4.8-3.6,9.6-5.8,14.6-5.2,11.8-11.5,23.3-17.5,34.5-5.1,9.5-10.5,19.3-15.1,29.2-12.3,26.3-17.5,49.1-15.6,69.8,1.5,17.2,8.2,34,19.4,48.7,11.2,14.7,25.8,25.8,42.4,32.3,1.2.5,2.5.9,3.8,1.4,10.8,3.7,22.3,5.3,33.5,4.8,13.1-.6,25.3-4.2,35.5-10.4,22.1-13.5,33.8-40.1,27.9-63.4Z"/>
  </g>
  <g>
    <path class="cls-4" d="M389,858.9l17.6-54.3,23,7.5-17.6,54.3,22.1,7.2-6.1,18.8-67.3-21.8,6.1-18.8,22.1,7.2Z"/>
    <path class="cls-4" d="M338,768.7l-15.4,24.1,21.1,13.5,15.4-24.1,20.4,13.1-41.4,64.8-20.4-13.1,15.1-23.6-21.1-13.5-15.1,23.6-20.4-13.1,41.4-64.8,20.4,13.1Z"/>
    <path class="cls-4" d="M310.8,748.7l-56,52.7-41.2-43.7,13.7-12.9,25,26.5,7.3-6.9-19.7-20.9,13.7-12.9,19.7,20.9,7.5-7.1-25-26.5,13.7-12.9,41.2,43.7Z"/>
    <path class="cls-4" d="M177,646.1c-.6,6,.6,13.3,3.2,18.9,5,10.6,15,13.9,26,8.7,11.2-5.3,15.5-14.5,10.2-25.7-3-6.5-7.7-11.3-13.5-15.3l16.5-13.6c5.3,4,11.9,13.1,15.8,21.4,11,23.3,5.8,43.8-18.2,55.1-22.6,10.6-43.6,2.7-55.1-21.6-4.1-8.8-6-17.9-6.2-25.8l21.2-2Z"/>
    <path class="cls-4" d="M221.2,611l-75,16.8-5.3-23.6,55.7-12.5-6.5-28.9,19.3-4.3,11.8,52.6Z"/>
    <path class="cls-4" d="M210.1,518.4c0,23-13.4,40.9-40.3,40.8-25.1,0-40.4-18.5-40.3-41.5s13.3-40.9,40.1-40.8c25.1,0,40.5,18.5,40.4,41.5ZM148.6,518.2c0,11.2,8.5,16.6,20.8,16.7,12.7,0,21.5-5.7,21.6-16.9,0-11.1-8.7-16.6-21-16.7-12.7,0-21.4,5.7-21.5,16.9Z"/>
    <path class="cls-4" d="M166.2,415.5l55.2,14.5-6.2,23.4-55.2-14.5-5.9,22.5-19.1-5,18-68.4,19.2,5-5.9,22.5Z"/>
    <path class="cls-4" d="M253.3,359.5l-25-14.1-12.3,21.9,25,14.1-11.9,21.1-67-37.7,11.9-21.1,24.4,13.8,12.3-21.9-24.4-13.8,11.9-21.1,67,37.7-11.9,21.1Z"/>
    <path class="cls-4" d="M309.6,219.7l23.9,52-20.7,16.3-44.9-35.1,34.8,44.6-17.5,13.8-45.5-62,27.3-21.6,43.4,35.6-24.5-50.5,27-21.3,49.7,58.7-17.9,14.1-35.4-44.5Z"/>
    <path class="cls-4" d="M370.7,248.8l-29-71.2,55.6-22.7,7.1,17.4-33.7,13.7,3.8,9.3,26.7-10.9,7.1,17.4-26.7,10.9,3.9,9.6,33.7-13.7,7.1,17.4-55.6,22.7Z"/>
    <path class="cls-4" d="M457.6,220.3l-24,3.6-11.5-76,34.4-5.2c21.2-3.2,33.8,4.8,36.1,20,1.5,9.6-2,18.6-11.5,24.1l23.3,26.3-26.5,4-17.1-21.1-6.6,1.6,3.4,22.5ZM459.4,179.5c7.2-1.8,9.7-5.1,8.7-11.3-.8-5.6-4.5-7.9-13.2-6.6l-6.6,1,2.8,18.2,8.3-1.4Z"/>
    <path class="cls-4" d="M570.3,165.9c-4.9-3.5-11.8-6.2-17.9-6.7-11.6-1-19.5,6-20.5,18.1-1,12.4,4.8,20.6,17.2,21.7,7.1.6,13.7-.9,20-4l3.5,21.2c-6.1,2.6-17.3,3.7-26.4,3-25.6-2.2-40.8-16.9-38.6-43.4,2.1-24.9,19.5-39.1,46.3-36.8,9.7.8,18.4,3.8,25.4,7.6l-8.9,19.4Z"/>
    <path class="cls-4" d="M624.7,236.9l9.5-27-23.7-8.3-9.5,27-22.9-8,25.5-72.5,22.9,8-9.3,26.5,23.7,8.3,9.3-26.5,22.9,8-25.5,72.5-22.9-8Z"/>
    <path class="cls-4" d="M718.6,292.7l-19.7-13.6,4.2-14.6-21.5-14.8-11.9,9.3-19.6-13.5,65.4-48.3,25.4,17.5-22.3,78ZM718.1,220.1l-22.4,17.3,13.8,9.5,8.6-26.8Z"/>
    <path class="cls-4" d="M813.2,286l14.5,17.2-59.4,50-16.6-19.7,16-49.7-33.3,28.1-14.5-17.2,58.8-49.5,16.8,19.9-15.8,49,33.4-28.1Z"/>
    <path class="cls-4" d="M843.4,375.8l-51.6,24.5-10.4-21.9,51.6-24.5-10-21,17.9-8.5,30.3,63.9-17.9,8.5-10-21Z"/>
    <path class="cls-4" d="M812.6,489.9c-2.2-22.9,9.3-42,36-44.6,25-2.4,42,14.4,44.2,37.3,2.2,22.9-9.2,42-35.9,44.6-25,2.4-42.2-14.4-44.4-37.3ZM873.8,484c-1.1-11.1-10.2-15.7-22.4-14.5-12.6,1.2-20.9,7.8-19.8,19,1.1,11,10.3,15.7,22.5,14.5,12.6-1.2,20.8-7.8,19.7-18.9Z"/>
    <path class="cls-4" d="M892.5,549.1l-8.7,58.1-19.2-2.9,5.2-34.5-10.9-1.6-4.1,27-19-2.9,4.1-27-26.9-4,3.6-23.6,76,11.4Z"/>
    <path class="cls-4" d="M796.2,627.7l70.7,30.2-9.5,22.3-70.7-30.2,9.5-22.3Z"/>
    <path class="cls-4" d="M816.8,748l-12.8,18.5-63.9-44.1,14.6-21.2,52.2,2.4-35.8-24.7,12.8-18.5,63.3,43.7-14.8,21.5-51.5-2.3,35.9,24.8Z"/>
    <path class="cls-4" d="M711.1,748.9l23.1-19.3,49.3,59-24.4,20.4c-21.4,17.9-42.8,16.2-57.5-1.3-15.1-18.1-12.7-40.2,9.6-58.8ZM748.4,793.7l4.6-3.9-25.5-30.5-5.6,4.7c-9.3,7.7-11,17-2.2,27.5,9.1,11,17.8,11.3,28.6,2.2Z"/>
    <path class="cls-4" d="M669,779.7l37.1,67.3-21.2,11.7-37.1-67.3,21.2-11.7Z"/>
    <path class="cls-4" d="M566.3,821.2l22.8-7.4,9,12.2,24.8-8.1v-15.1c-.1,0,22.6-7.4,22.6-7.4l-1.4,81.3-29.4,9.5-48.4-65.1ZM624.2,865v-28.3c-.1,0-16,5.2-16,5.2l16,23.1Z"/>
  </g>
  <g>
    <path class="cls-4" d="M512,857.6c-9.6,0-17.3,7.7-17.3,17.3s7.7,17.3,17.3,17.3,17.3-7.7,17.3-17.3-7.7-17.3-17.3-17.3ZM512,889.1c-7.7,0-14.1-6.3-14.1-14.1s6.3-14.1,14.1-14.1,14.1,6.3,14.1,14.1-6.3,14.1-14.1,14.1Z"/>
    <path class="cls-4" d="M512,863c-6.6,0-11.9,5.4-11.9,11.9s5.4,11.9,11.9,11.9,11.9-5.4,11.9-11.9-5.4-11.9-11.9-11.9ZM507.7,881.5c-1.2,0-2.2-1-2.2-2.2s1-2.2,2.2-2.2,2.2,1,2.2,2.2-1,2.2-2.2,2.2ZM507.7,872.8c-1.2,0-2.2-1-2.2-2.2s1-2.2,2.2-2.2,2.2,1,2.2,2.2-1,2.2-2.2,2.2ZM516.3,881.5c-1.2,0-2.2-1-2.2-2.2s1-2.2,2.2-2.2,2.2,1,2.2,2.2-1,2.2-2.2,2.2ZM516.3,872.8c-1.2,0-2.2-1-2.2-2.2s1-2.2,2.2-2.2,2.2,1,2.2,2.2-1,2.2-2.2,2.2Z"/>
  </g>
</svg>