<?xml version="1.0" encoding="UTF-8"?><svg id="Layer_1" xmlns="http://www.w3.org/2000/svg" viewBox="0 0 1024 1024"><defs><style>.cls-1,.cls-2{fill:#ae1919;}.cls-3{stroke-width:3.2px;}.cls-3,.cls-2,.cls-4{stroke:#ae1919;stroke-miterlimit:10;}.cls-3,.cls-4{fill:none;}.cls-2{stroke-width:1.6px;}.cls-4{stroke-width:9.6px;}</style></defs><circle class="cls-4" cx="514.2" cy="516.7" r="392.4"/><circle class="cls-3" cx="514.2" cy="516.7" r="365.6"/><g><path class="cls-1" d="M410.8,861.5l179.1-447.1c-4.6-1.6-9-3.3-13.3-4.9-7.4,18.4-16.6,30.9-21.8,29.1-5.4-1.8-4.8-18,.9-37.7,.3-1,.6-1.9,.9-2.9,.4-1.3,.9-2.7,1.3-4v-.3c.4-.9,.7-1.7,1-2.5,7.7-21.5,18.2-37,24-35,5.9,2,4.6,21.5-2.8,43.8,0,0,.2,0,.3,.1,4.2,1.6,8.7,3.3,13.3,4.9h0s16.4-40.9,16.4-40.9c4.3-10.6-4.8-23.8-20-28.9-14.8-5.1-29.7-.5-33.3,10,0,.2-.2,.5-.2,.7l-11,39.1-.8,3-1.2,4.2-.8,3h0s-131.8,466.6-131.8,466.6"/><path class="cls-2" d="M803.8,680.9c-.3-1.1-1.4-1.8-2.5-1.5-1.1,.3-1.8,1.4-1.5,2.5,8.4,35.3-9.4,76-42.4,97-30.2,19.2-71.9,22.1-108.8,7.6-50.7-19.9-87.5-69.8-91.5-124.3-2.4-32.1,5.8-67.9,25.1-109.4,7.3-15.8,15.7-31.5,23.8-46.7,9.6-18,19.5-36.6,27.8-55.6,3.6-8.2,6.7-16.2,9.4-24,76.6,19.5,155.3,29.5,234.6,29.7,1.2,0,2.1-.9,2.1-2.1,0-1.2-.9-2.1-2.1-2.1-78.8-.3-157.1-10.2-233.3-29.5,10.1-30.8,13.3-58.6,9.7-84.3-2.8-19.6-10.1-38.3-21.3-53.9-11.9-16.7-27.4-28.8-44.8-35-.3-.1-.6-.2-.9-.3-19.2-6.5-41.9-4.7-61,5-17,8.6-29,22.3-34,38.7-4.2,13.9-3.5,29.4,2.2,44.7,5.1,14,14.3,27.4,25.8,37.8,6.7,6.1,14,11.3,21.7,15.8l1.3-4.1c-7.1-4.3-13.9-9.1-20.2-14.8-19.7-17.8-35.6-48.9-26.8-78.2,4.6-15.2,15.9-28.1,31.9-36.1,18.1-9.2,39.6-10.9,57.8-4.7,.3,0,.6,.2,.9,.3,32.8,11.7,57.7,45.3,63.3,85.6,3.6,25.2,.4,52.4-9.6,82.7-13-3.4-25.9-7-38.7-10.9-7.4-2.3-15.2-4.7-23-7.5-.9-.3-1.9-.7-2.8-1-2.8-1.1-5.7-2.2-8.5-3.3-.9-.4-1.8-.8-2.8-1.2-2.7-1.1-5.3-2.3-7.9-3.6-.5,1.4-.9,2.7-1.3,4,2.6,1.2,5.2,2.4,7.8,3.5,.9,.4,1.8,.8,2.8,1.2,2.8,1.2,5.6,2.3,8.4,3.3,.9,.4,1.9,.7,2.8,1,7.9,2.8,15.7,5.3,23.2,7.6,12.8,3.9,25.7,7.5,38.6,10.9-2.6,7.6-5.7,15.4-9.2,23.4-8.3,18.9-18.1,37.4-27.7,55.3-8.1,15.2-16.5,30.9-23.9,46.9-19.5,42.1-27.9,78.6-25.4,111.5,2,27.4,12.1,54.1,29.1,77.3,17,23.2,39.5,40.7,65,50.7,1.9,.8,3.8,1.5,5.8,2.1,16.6,5.7,34.4,8.1,51.7,7.1,20.2-1.2,39.3-7.1,55.1-17.2,34.5-21.9,53.1-64.5,44.2-101.5Z"/></g></svg>