<?xml version="1.0" encoding="UTF-8"?><svg id="Layer_1" xmlns="http://www.w3.org/2000/svg" viewBox="0 0 1024 1024"><defs><style>.cls-1,.cls-2{fill:#fff;}.cls-3{fill:#ae1917;}.cls-4{stroke-width:3.2px;}.cls-4,.cls-5{fill:none;}.cls-4,.cls-5,.cls-2{stroke:#fff;stroke-miterlimit:10;}.cls-5{stroke-width:9.6px;}.cls-2{stroke-width:1.6px;}</style></defs><circle class="cls-3" cx="514.2" cy="516.7" r="492.5"/><g><circle class="cls-5" cx="514.2" cy="516.7" r="392.4"/><circle class="cls-4" cx="514.2" cy="516.7" r="365.6"/><g><path class="cls-1" d="M410.8,861.5l179.1-447.1c-4.6-1.6-9-3.3-13.3-4.9-7.4,18.4-16.6,30.9-21.8,29.1-5.4-1.8-4.8-18,.9-37.7,.3-1,.6-1.9,.9-2.9,.4-1.3,.9-2.7,1.3-4v-.3c.4-.9,.7-1.7,1-2.5,7.7-21.5,18.2-37,24-35,5.9,2,4.6,21.5-2.8,43.8,0,0,.2,0,.3,.1,4.2,1.6,8.7,3.3,13.3,4.9h0s16.4-40.9,16.4-40.9c4.3-10.6-4.8-23.8-20-28.9-14.8-5.1-29.7-.5-33.3,10s-.2,.5-.2,.7l-11,39.1-.8,3-1.2,4.2-.8,3h0s-131.8,466.6-131.8,466.6"/><path class="cls-2" d="M818.9,686c-.3-1.1-1.5-1.8-2.6-1.6-1.2,.3-1.9,1.4-1.6,2.5,9.1,35.5-8.8,76.2-42.7,96.9-31,18.9-74.1,21.4-112.5,6.4-52.6-20.5-91.2-71.1-96-125.9-2.8-32.3,5.2-68.1,24.6-109.5,7.4-15.8,15.9-31.4,24.1-46.6,9.7-17.9,19.8-36.5,28.1-55.5,3.6-8.2,6.8-16.2,9.5-24,79.5,20.5,161,31.4,242.9,32.6,1.2,0,2.2-.9,2.2-2.1,0-1.2-1-2.1-2.2-2.1-81.5-1.2-162.5-12-241.6-32.4,10.1-30.8,13.1-58.6,9-84.6-3.1-19.7-10.9-38.5-22.6-54.4-12.5-16.9-28.6-29.2-46.7-35.7-.3-.1-.6-.2-.9-.3-19.9-6.8-43.4-5.2-63,4.3-17.4,8.4-29.8,22.1-34.7,38.4-4.2,13.9-3.2,29.5,2.8,44.9,5.5,14.1,15.1,27.6,27.1,38.2,7,6.2,14.7,11.5,22.6,16.1l1.3-4.1c-7.4-4.4-14.5-9.3-21-15.1-20.6-18.1-37.4-49.5-28.6-78.8,4.6-15.2,16.1-28,32.5-35.9,18.6-9,40.8-10.5,59.7-4.1,.3,0,.6,.2,.9,.3,34,12.1,60.1,46.1,66.5,86.7,4,25.3,1,52.7-9,82.9-13.4-3.5-26.8-7.3-40.2-11.4-7.7-2.4-15.8-4.9-23.9-7.8-1-.3-1.9-.7-2.9-1.1-2.9-1.1-5.9-2.2-8.8-3.4-1-.4-1.9-.8-2.9-1.2-2.8-1.2-5.5-2.4-8.2-3.7-.5,1.4-.9,2.7-1.3,4,2.7,1.3,5.4,2.5,8.1,3.6,1,.4,1.9,.8,2.9,1.2,2.9,1.2,5.8,2.3,8.8,3.4,1,.4,1.9,.7,2.9,1.1,8.2,2.9,16.3,5.5,24.1,7.9,13.3,4.1,26.6,7.8,40,11.3-2.6,7.6-5.7,15.4-9.2,23.4-8.3,18.8-18.3,37.3-28,55.2-8.2,15.2-16.7,30.9-24.2,46.8-19.7,42.1-27.9,78.6-25,111.6,2.4,27.5,13.1,54.5,31,77.9,17.9,23.4,41.3,41.3,67.8,51.6,2,.8,4,1.5,6,2.2,17.3,5.9,35.6,8.5,53.5,7.7,20.9-1,40.5-6.7,56.8-16.6,35.4-21.5,54.1-64.2,44.6-101.4Z"/></g></g></svg>