<?xml version="1.0" encoding="UTF-8"?><svg id="Layer_1" xmlns="http://www.w3.org/2000/svg" viewBox="0 0 1024 1024"><defs><style>.cls-1,.cls-2{fill:#ae1919;}.cls-2{stroke:#ae1919;stroke-miterlimit:10;stroke-width:2.1px;}</style></defs><path class="cls-1" d="M196.1,927.2L437.3,324.9c-6.1-2.2-12.1-4.5-17.9-6.7-10,24.7-22.3,41.7-29.4,39.3-7.2-2.5-6.5-24.3,1.2-50.8,.4-1.3,.8-2.6,1.2-3.9,.6-1.8,1.1-3.6,1.8-5.4v-.4c.5-1.2,.9-2.3,1.4-3.4,10.4-28.9,24.6-49.8,32.3-47.2,7.9,2.7,6.2,28.9-3.8,59,.1,0,.2,0,.4,.1,5.7,2.2,11.7,4.4,17.9,6.7h0s22.1-55.1,22.1-55.1c5.7-14.3-6.5-32-26.9-39-20-6.8-40-.7-44.8,13.4-.1,.3-.2,.7-.3,1l-14.9,52.7-1.1,4-1.6,5.6-1.1,4h0c0,0-177.6,628.5-177.6,628.5"/><path class="cls-2" d="M725.5,683.9c-.4-1.5-1.9-2.5-3.4-2.1-1.5,.4-2.4,1.9-2.1,3.4,11.3,47.5-12.7,102.4-57.1,130.6-40.7,25.8-96.9,29.8-146.6,10.3-68.3-26.8-117.8-94.1-123.2-167.5-3.2-43.3,7.8-91.5,33.8-147.3,9.9-21.3,21.2-42.4,32.1-62.8,12.9-24.2,26.3-49.3,37.5-74.9,4.8-11.1,9.1-21.8,12.7-32.3,103.2,26.3,209.3,39.7,316,40.1,1.6,0,2.8-1.3,2.8-2.8,0-1.6-1.2-2.8-2.8-2.8-106.2-.3-211.6-13.7-314.2-39.8,13.7-41.5,17.9-78.9,13-113.6-3.7-26.4-13.6-51.5-28.7-72.7-16-22.5-36.9-38.8-60.3-47.2-.4-.1-.8-.3-1.2-.4-25.9-8.8-56.5-6.3-82.2,6.7-22.8,11.6-39.1,30.1-45.8,52.1-5.7,18.8-4.7,39.6,2.9,60.3,6.9,18.8,19.3,36.9,34.7,50.9,9.1,8.2,18.9,15.2,29.2,21.3l1.7-5.6c-9.6-5.7-18.7-12.3-27.2-19.9-26.6-24-48-65.9-36.1-105.3,6.2-20.5,21.4-37.8,42.9-48.7,24.4-12.4,53.3-14.7,77.8-6.4,.4,.1,.8,.3,1.1,.4,44.2,15.7,77.7,61,85.3,115.3,4.8,33.9,.6,70.6-12.9,111.4-17.5-4.5-34.9-9.4-52.1-14.7-10-3-20.5-6.3-31-10.1-1.3-.5-2.5-.9-3.8-1.4-3.8-1.4-7.6-2.9-11.5-4.5-1.2-.5-2.5-1-3.7-1.6-3.6-1.5-7.1-3.1-10.7-4.8-.6,1.9-1.2,3.7-1.8,5.4,3.5,1.7,7,3.3,10.5,4.8,1.2,.5,2.5,1,3.7,1.6,3.8,1.6,7.6,3,11.3,4.4,1.3,.5,2.5,.9,3.8,1.4,10.6,3.8,21.2,7.2,31.3,10.2,17.2,5.2,34.6,10.1,52,14.6-3.6,10.2-7.7,20.7-12.4,31.5-11.1,25.4-24.4,50.4-37.3,74.5-10.9,20.5-22.2,41.7-32.2,63.1-26.3,56.7-37.5,105.9-34.3,150.1,2.7,36.9,16.3,72.9,39.2,104.1,22.9,31.2,53.2,54.8,87.5,68.2,2.6,1,5.2,2,7.8,2.9,22.4,7.6,46.3,10.9,69.6,9.6,27.2-1.6,52.9-9.6,74.3-23.2,46.4-29.4,71.5-86.9,59.6-136.7Z"/></svg>