<svg id="Account" xmlns="http://www.w3.org/2000/svg" width="16.223" height="18.84" viewBox="0 0 16.223 18.84">
  <path id="Path_28610" data-name="Path 28610" d="M35.448,46.439l-.4,1.115A3.994,3.994,0,0,1,37.669,51.3V54.83a.9.9,0,0,1-.9.9H24.713a.9.9,0,0,1-.9-.9V51.294a3.991,3.991,0,0,1,2.636-3.748l-.4-1.118a5.173,5.173,0,0,0-3.424,4.861v3.534a2.083,2.083,0,0,0,2.081,2.081h12.06a2.083,2.083,0,0,0,2.081-2.081V51.294a5.175,5.175,0,0,0-3.4-4.856Z" transform="translate(-22.628 -38.066)"/>
  <path id="Path_28611" data-name="Path 28611" d="M38.849,27.735a4.759,4.759,0,1,0-4.759-4.759A4.763,4.763,0,0,0,38.849,27.735Zm0-8.333a3.573,3.573,0,1,1-3.573,3.573A3.577,3.577,0,0,1,38.849,19.4Z" transform="translate(-30.692 -18.218)"/>
</svg>
