<svg xmlns="http://www.w3.org/2000/svg" width="15.578" height="21.279" viewBox="0 0 15.578 21.279">
  <g id="address" transform="translate(-6.944 -0.56)">
    <path id="Path_28621" data-name="Path 28621" d="M18.829,15.142c-.269.47-.56.918-.851,1.344,1.88.426,3,1.165,3,1.725,0,.829-2.484,2.083-6.245,2.083s-6.245-1.254-6.245-2.083c0-.56,1.119-1.277,3-1.725-.291-.426-.582-.874-.851-1.344-2.149.56-3.693,1.568-3.693,3.069,0,2.374,3.917,3.629,7.789,3.629s7.789-1.254,7.789-3.629C22.522,16.71,20.978,15.7,18.829,15.142Z" fill="#fff"/>
    <path id="Path_28622" data-name="Path 28622" d="M15.427,17.584c1.589-2.352,5.394-8.243,5.394-10.909a6.1,6.1,0,1,0-12.2,0c0,2.666,3.828,8.557,5.417,10.909a.859.859,0,0,0,1.388,0ZM11.891,6.675A2.843,2.843,0,1,1,14.733,9.5,2.848,2.848,0,0,1,11.891,6.675Z" fill="#fff"/>
  </g>
</svg>
