<svg xmlns="http://www.w3.org/2000/svg" width="15.864" height="18.84" viewBox="0 0 15.864 18.84">
  <g id="Cart" transform="translate(-2232 -23)">
    <g id="noun-shopping-bag-4848924" transform="translate(2215.681 13)">
      <path id="Path_28613" data-name="Path 28613" d="M32.179,27.319l-.8-10.362a1.419,1.419,0,0,0-1.409-1.3H28.019V13.768a3.768,3.768,0,1,0-7.536,0v1.884H18.529a1.419,1.419,0,0,0-1.409,1.3l-.8,10.362a1.413,1.413,0,0,0,1.409,1.521H30.77a1.413,1.413,0,0,0,1.409-1.521ZM21.425,13.768a2.826,2.826,0,1,1,5.652,0v1.884H21.425Zm9.69,13.979a.466.466,0,0,1-.345.151H17.732a.471.471,0,0,1-.47-.507l.8-10.362a.473.473,0,0,1,.47-.435h1.954v2.355a.471.471,0,1,0,.942,0V16.594h5.652v2.355a.471.471,0,0,0,.942,0V16.594h1.954a.473.473,0,0,1,.47.435l.8,10.362A.466.466,0,0,1,31.116,27.747Z" transform="translate(0)"/>
    </g>
  </g>
</svg>
