<svg xmlns="http://www.w3.org/2000/svg" width="279.139" height="263.873" viewBox="0 0 279.139 263.873">
  <g id="Illustration" transform="translate(-48.847 -59.396)">
    <path id="Path_99887" data-name="Path 99887" d="M272.238,284.915a7.028,7.028,0,0,1-.172-1.228,2.848,2.848,0,0,1-.066-.4,7.145,7.145,0,0,1,.185-1.432,2.559,2.559,0,0,0,0-.594c0-.251-.1-.521.112-.766.066-.079.449,0,.832.079s.779.218.8.33a2.264,2.264,0,0,1,0,1.241c-.1.271.046.508.092.759s.092.541.158.8a2.481,2.481,0,0,0,.165.455,1.169,1.169,0,0,0,.389.548.4.4,0,0,0,.251,0c.086,0,.185-.079.238-.066h.086c.092,0,.086.2.053.766v.383a1.029,1.029,0,0,1-.4.9,1.709,1.709,0,0,1-2.046-.515,3.426,3.426,0,0,1-.442-.6,4.246,4.246,0,0,1-.264-.66Z" transform="translate(-75.874 -75.163)" fill="#231f20"/>
    <path id="Path_99888" data-name="Path 99888" d="M223.926,146.74c-.185,1.254-.3,2.541-.389,3.828v1.419c-.079,1.663-.178,3.346-.178,5.029a17.925,17.925,0,0,0,.152,2.231,9.662,9.662,0,0,1,.158,2.858c-.112.607-2.369,0-2.468-1.089a28.2,28.2,0,0,1,.046-5.94c.139-1.188,0-2.422.046-3.643.04-1.32.152-2.68.284-4.019.092-.825.191-1.65.323-2.475.178-1.247.469-2.482.719-3.7.2-.957.31-1.921.541-2.878.053-.2.079-.422.145-.66.257-.759.5-.944,1.122-.858a1.058,1.058,0,0,1,.429.059.931.931,0,0,1,.627,1.115c-.211,1.65-.614,3.247-.924,4.91-.224,1.234-.455,2.482-.574,3.762Z" transform="translate(-58.556 -26.324)" fill="#231f20"/>
    <path id="Path_99889" data-name="Path 99889" d="M263.546,139.242c-3.472-3.907-9.161-5.722-14.282-5.643a1.238,1.238,0,0,0,0,2.475c4.508-.073,9.471,1.472,12.54,4.917,1.063,1.2,2.8-.561,1.749-1.749Z" transform="translate(-67.738 -25.228)" fill="#231f20"/>
    <path id="Path_99890" data-name="Path 99890" d="M326,155.574c-.449-7.319-2.93-11.51-8.25-16.4-4.092-3.775-8.751-7.92-9.319-13.748-.548-5.689,1.32-11.622,1.643-17.259,2.244-41.375-33.323-39.434-42.5-31.93-13.893-22.783-48.351-14.988-60.277-8.771a45.577,45.577,0,0,0-18.638,19.463,47.282,47.282,0,0,0-4.508,23.489c.383,7.392,2.607,14.612,2.29,22.024-.33,7.682-4.93,12.19-9.477,17.734-11.372,13.86,7.458,46.727,51.222,35.554,0,0,3.795,9.1,10.111,9.8,3.689.409,7.662-5.65,8.857-11.259,8.124,0,20.037,11.708,20.037,11.708a56.944,56.944,0,0,0,38.385-6.639C317.617,182.567,326.87,169.823,326,155.574ZM272.718,139.6c-1.921-.363-10.1,28.855-27.132,33-8.58,2.079-17.734.535-24.321-5.4a45.6,45.6,0,0,1-13.292-23.37c-.7-3-1.98-10.2-1.98-10.2-12.216-1.393-17.642-20.519-5.729-25.113,3.96-1.049,5.881,2.31,9.167,3.194.587.158,1.162.337,1.736.488,24.8,6.6,43.038-7.794,48.1-9.543,6.672-1.32,11.088,22.222,12.131,20.176,3.155-6.211,9.207-9.035,13.9-6.177C296.966,123.756,284.532,141.82,272.718,139.6Z" transform="translate(-42.458 -0.535)" fill="#231f20"/>
    <path id="Path_99891" data-name="Path 99891" d="M174.6,170.509a25.258,25.258,0,0,1-2.93-9.543,17.437,17.437,0,0,1,1.98-9.9A16.261,16.261,0,0,1,175.1,148.9c.508-.66,1.016-1.234,1.531-1.835,1.016-1.208,2.026-2.4,2.963-3.617a22.472,22.472,0,0,0,4.224-7.827,18.479,18.479,0,0,0,.6-4.369,39.438,39.438,0,0,0-.158-4.58c-.271-3.076-.8-6.164-1.274-9.306a66.921,66.921,0,0,1-.871-9.59,50.444,50.444,0,0,1,.8-9.7,47.189,47.189,0,0,1,4.541-13.385,46.06,46.06,0,0,1,8.48-11.292,43.078,43.078,0,0,1,10.012-7.438A56.674,56.674,0,0,1,217.6,61.7a73.667,73.667,0,0,1,12.164-2.072c2.053-.185,4.118-.238,6.184-.231a57.159,57.159,0,0,1,6.184.436,42.788,42.788,0,0,1,6.1,1.214,36.688,36.688,0,0,1,5.867,2.132,34.122,34.122,0,0,1,5.4,3.161l1.234.97.614.488.574.535,1.148,1.069,1.063,1.155.535.581.482.614.97,1.241c.29.4.66.97.7,1.049l.185.277c.033,0,.053.125.1.106l.132-.092.264-.191.515-.31c.455-.29.944-.5,1.419-.739a23.82,23.82,0,0,1,2.95-1.129,32.564,32.564,0,0,1,12.368-1.221,28.822,28.822,0,0,1,10.632,3.069,23.681,23.681,0,0,1,6.646,5.042l.944,1.03L303.858,81a29.752,29.752,0,0,1,4.8,9.933,46.724,46.724,0,0,1,1.6,10.8c.046,1.162.1,2.33.04,3.491s0,2.317-.125,3.5c-.2,2.343-.587,4.62-.931,6.9a47,47,0,0,0-.66,6.732,17.626,17.626,0,0,0,.211,3.26,12.749,12.749,0,0,0,.964,3.043,20.909,20.909,0,0,0,3.835,5.326c1.544,1.643,3.247,3.135,4.937,4.752A28.139,28.139,0,0,1,323,144.208a19.7,19.7,0,0,1,2.567,6.666,16.01,16.01,0,0,1,.31,3.188c0,.66-.1.97-.218.937-.257-.066-.561-1.478-1.287-3.769a23.983,23.983,0,0,0-1.65-3.894,21.78,21.78,0,0,0-3.161-4.349,29.229,29.229,0,0,0-2.224-2.191c-.818-.726-1.67-1.472-2.587-2.277a36.3,36.3,0,0,1-5.438-5.689,19.543,19.543,0,0,1-1.947-3.3,14.446,14.446,0,0,1-1.122-3.769,21.122,21.122,0,0,1-.191-3.782c.033-1.234.132-2.455.277-3.656.29-2.389.719-4.712,1.049-6.983.165-1.142.3-2.27.376-3.386s.073-2.277.112-3.419-.046-2.284-.066-3.425c0-.568-.059-1.135-.112-1.7l-.158-1.7c-.125-1.129-.343-2.237-.508-3.353l-.389-1.643a15.176,15.176,0,0,0-.436-1.63l-.508-1.6c-.165-.535-.409-1.036-.614-1.558a29.829,29.829,0,0,0-1.439-3,25.844,25.844,0,0,0-4.006-5.234,23.971,23.971,0,0,0-11.576-6.125,30.221,30.221,0,0,0-13.358.092c-.535.152-1.082.277-1.617.442a14.258,14.258,0,0,0-1.571.548,16.208,16.208,0,0,0-1.5.66,7.492,7.492,0,0,0-.719.376l-.343.2-.218.125a4.336,4.336,0,0,0-.363.238l-1.32.944-.33.231-.165.119c-.033.04-.053,0-.066,0l-.059-.086-.449-.66-1.452-2.2c-.323-.455-.66-.891-1.023-1.32-.178-.224-.343-.455-.528-.66L262.4,72A29.143,29.143,0,0,0,260,69.61a31.148,31.148,0,0,0-2.693-2.053,30.134,30.134,0,0,0-6.026-3.168A44.219,44.219,0,0,0,234.942,61.6a68.515,68.515,0,0,0-16.883,2.237,60.986,60.986,0,0,0-8.118,2.706,34.22,34.22,0,0,0-7.359,4.145A46.33,46.33,0,0,0,191,83.027a40.7,40.7,0,0,0-4.046,8.355,44.47,44.47,0,0,0-2.191,9.048,50.648,50.648,0,0,0-.376,9.332,89.629,89.629,0,0,0,1.122,9.365,83.291,83.291,0,0,1,1.109,9.583,31.565,31.565,0,0,1-.145,4.917,18.876,18.876,0,0,1-1.32,4.831,32.813,32.813,0,0,1-5.326,8.2c-1.016,1.234-2.066,2.435-3.043,3.65a14.321,14.321,0,0,0-2.158,3.894,15.839,15.839,0,0,0-.812,5.478,20.989,20.989,0,0,0,.251,2.792,23.415,23.415,0,0,0,.66,2.739,25.651,25.651,0,0,0,.99,2.64,27.6,27.6,0,0,0,1.32,2.508,27.289,27.289,0,0,0,3.386,4.58,33.468,33.468,0,0,0,9.141,6.956,41.032,41.032,0,0,0,10.824,3.815,52.661,52.661,0,0,0,13.51.884l1.7-.1c.568-.046,1.129-.125,1.69-.185,1.129-.132,2.257-.238,3.373-.455s2.237-.35,3.34-.614l1.663-.376,1.023-.231c.4-.086.818-.2,1.208-.264l.409.924.211.449.185.37a12.862,12.862,0,0,0,.66,1.168,23.758,23.758,0,0,0,1.459,2.218,14.837,14.837,0,0,0,3.709,3.617c.35.238.739.4,1.1.614a3.96,3.96,0,0,0,1.181.4l.6.125c.1,0,.2.046.3.053h.271a1.855,1.855,0,0,0,.271,0l.277-.053.271-.053.271-.106a6.058,6.058,0,0,0,2.02-1.36,12.632,12.632,0,0,0,1.65-1.98,19.852,19.852,0,0,0,2.35-4.686c.158-.416.277-.838.4-1.254.086-.3.165-.62.244-.924l.119-.469.066-.231c0-.066,0-.191.119-.152l.957.04.924.1h.224l.172.033.356.073c.231.04.462.1.693.158a23.1,23.1,0,0,1,5.155,2.112,45.535,45.535,0,0,1,4.653,2.917c1.393.99,2.746,2.033,4.046,3.109.66.535,1.32,1.082,1.921,1.637l.937.838.752.706,1.155.191c.449.086.9.132,1.36.191.9.139,1.822.2,2.732.29,1.822.119,3.65.185,5.471.125a56.191,56.191,0,0,0,21.12-4.726,53.574,53.574,0,0,0,9.458-5.28,41.257,41.257,0,0,0,8.4-7.966,39.151,39.151,0,0,0,4.851-7.715,38.059,38.059,0,0,0,2.138-5.821c.224-.8.442-1.525.554-2.191s.284-1.254.4-1.8c.158-1.082.389-1.98.535-2.746s.251-1.676.383-2.1.224-.264.343.277c.053.271.112.66.172,1.135A11.465,11.465,0,0,1,326,158.39a29.838,29.838,0,0,1-2.7,12.375,40.259,40.259,0,0,1-4.151,7.1,44.12,44.12,0,0,1-12.183,11.22,60.482,60.482,0,0,1-7.418,3.881,64.113,64.113,0,0,1-7.92,2.812,61.122,61.122,0,0,1-8.329,1.637,55.772,55.772,0,0,1-8.534.422c-1.426-.04-2.858-.132-4.283-.277-.719-.059-1.432-.178-2.145-.264-.356-.046-.713-.119-1.063-.172l-1.5-.264-.719-.66-.389-.363-.818-.739c-.528-.469-1.063-.937-1.61-1.393q-1.637-1.379-3.346-2.64a40.586,40.586,0,0,0-7.167-4.363,16.223,16.223,0,0,0-3.788-1.247c-.429-.079-.244-.04-.29-.046h0l-.086.284c-.112.376-.224.759-.363,1.122a23.1,23.1,0,0,1-1.98,4.277,15.543,15.543,0,0,1-3.109,3.795,7.794,7.794,0,0,1-2.5,1.452,5.592,5.592,0,0,1-.779.191c-.139,0-.271.053-.409.066H238a6.179,6.179,0,0,1-1.492-.185,10.976,10.976,0,0,1-4.712-2.482,19.627,19.627,0,0,1-3.3-3.769c-.469-.66-.891-1.373-1.32-2.079-.185-.35-.409-.752-.561-1.056h-.066l-.449.1-1.8.409c-1.2.264-2.422.436-3.63.66a67.088,67.088,0,0,1-7.365.752,52.4,52.4,0,0,1-14.817-1.32,40.583,40.583,0,0,1-13.715-5.986,32.432,32.432,0,0,1-10.184-11.088Z" transform="translate(-41.733)" fill="#231f20"/>
    <path id="Path_99892" data-name="Path 99892" d="M239.179,136.1a27.4,27.4,0,0,1-2.752.185c-.924,0-1.841.106-2.759.073l-2.759-.119a13.687,13.687,0,0,1-1.379-.079l-1.366-.178-2.739-.363c-.9-.158-1.8-.389-2.693-.581a24.894,24.894,0,0,1-2.64-.66l-1.32-.376c-.257-.079-.515-.158-.766-.251a7.727,7.727,0,0,1-.713-.31c-1.828-.911-3.175-2.119-4.534-2.587a3.96,3.96,0,0,0-2.02-.185c-.165.033-.4.073-.429.086l-.521.224a8.834,8.834,0,0,0-1.049.554,8.468,8.468,0,0,0-3.161,3.379,10.441,10.441,0,0,0-1.076,4.62,14.889,14.889,0,0,0,6.6,12.236c.33.191.66.389.99.561a6.415,6.415,0,0,0,1.036.462,8.93,8.93,0,0,0,1.076.356l.548.145a1.266,1.266,0,0,0,.2.04l.244.04.482.079.548.244.139.059h.066c.033,0-.264.29-.132.165l.165.2a2.066,2.066,0,0,1,.488,1.089l.3,1.67.554,3.082c.389,2.059.746,4.1,1.267,6.072a48.081,48.081,0,0,0,4.567,11.372c4.013,7.049,9.953,13.589,17.985,15.417a27.72,27.72,0,0,0,11.827.29,23.588,23.588,0,0,0,2.864-.713,18.554,18.554,0,0,0,2.7-1.135,23.5,23.5,0,0,0,4.818-3.366,48.877,48.877,0,0,0,9.332-12.111c1.32-2.231,2.488-4.521,3.65-6.844s2.237-4.666,3.5-7.009a5.6,5.6,0,0,1,1.148-1.564,1.32,1.32,0,0,1,.66-.317c.277,0,.389.086.337.125a.948.948,0,0,0-.33.238,1.6,1.6,0,0,0-.231.475c-.125.376-.264.9-.455,1.571a60.319,60.319,0,0,1-5.161,12.916,56.1,56.1,0,0,1-9.642,13.2,27.256,27.256,0,0,1-6.837,4.937A20.459,20.459,0,0,1,255.765,195a32.8,32.8,0,0,1-4.132.719,28.287,28.287,0,0,1-16.322-2.772,25.3,25.3,0,0,1-3.564-2.29c-.568-.409-1.082-.9-1.624-1.353a19.3,19.3,0,0,1-1.485-1.452,42.9,42.9,0,0,1-5.155-6.461,50.614,50.614,0,0,1-5.993-13.015,66.661,66.661,0,0,1-1.637-7.022l-.66-3.511-.33-1.749-.059-.343c0-.132-.125-.106-.211-.125h-.158a.572.572,0,0,1-.238-.053l-.726-.191a14.916,14.916,0,0,1-1.419-.475,14.367,14.367,0,0,1-2.64-1.426,15.616,15.616,0,0,1-4.112-4.165,17.318,17.318,0,0,1-2.416-5.188,15.748,15.748,0,0,1-.548-5.722,11.92,11.92,0,0,1,1.907-5.524,10.863,10.863,0,0,1,4.488-3.775l.66-.29.2-.092a2.16,2.16,0,0,1,.244-.059l.389-.079a6.323,6.323,0,0,1,1.584-.086,7.213,7.213,0,0,1,2.937.924c1.7.95,3.036,2.1,4.541,2.508,1.723.541,3.458.871,5.188,1.267.436.092.865.218,1.32.271l1.32.172,2.64.343a52.707,52.707,0,0,0,13.048-.594,57.994,57.994,0,0,0,12.573-3.8,97.621,97.621,0,0,0,9-4.4c.752-.389,1.472-.8,2.244-1.188.4-.185.746-.4,1.168-.568l.62-.257.356-.152.442-.059a4.079,4.079,0,0,1,2.818.944,9.392,9.392,0,0,1,1.848,1.98,26.255,26.255,0,0,1,2.5,4.528c.693,1.558,1.32,3.142,1.874,4.726s1.1,3.188,1.637,4.765l.4,1.175.244.66a5.18,5.18,0,0,0,.284.66,1.385,1.385,0,0,0,.1.145c.04.046.106.092.152.04a2.838,2.838,0,0,0,.178-.31c.059-.106.165-.31.251-.449l.29-.449a1.856,1.856,0,0,1,.251-.33l.3-.383a7.428,7.428,0,0,1,.627-.752c.224-.238.436-.5.66-.713a12.322,12.322,0,0,1,3.214-2.317,9.721,9.721,0,0,1,3.881-1.036,8.243,8.243,0,0,1,3.96.825,12.45,12.45,0,0,1,1.723,1.043,11.044,11.044,0,0,1,1.5,1.32,9.484,9.484,0,0,1,2.112,3.465,11.708,11.708,0,0,1-.356,7.92,16.37,16.37,0,0,1-1.584,3.194,17.482,17.482,0,0,1-2.171,2.825,15.791,15.791,0,0,1-8.025,4.851,7.134,7.134,0,0,1-4.211-.158,5.661,5.661,0,0,1-1.148-.554c-.178-.145-.092-.244.218-.31s.832-.066,1.551-.158a14.731,14.731,0,0,0,6.151-2.059,17.444,17.444,0,0,0,6.428-6.917,12.923,12.923,0,0,0,1.32-4.468,8.118,8.118,0,0,0-.746-4.336,8.527,8.527,0,0,0-3.056-3.214l-.238-.158-.244-.119-.475-.251-.5-.178-.251-.092-.257-.053a6,6,0,0,0-2.119-.132,8.322,8.322,0,0,0-4.092,1.756,7.484,7.484,0,0,0-.9.759,10.23,10.23,0,0,0-.832.858,11.3,11.3,0,0,0-.766.957l-.1.119-.046.066-.092.152-.35.587-.713,1.181c-.185.363-.323.33-.475.442l-.455.264-.462.264a1.32,1.32,0,0,1-.541,0,1.769,1.769,0,0,1-.924-.574,4.851,4.851,0,0,1-.8-1.4c-.231-.554-.442-1.155-.66-1.742l-.31-.9-.607-1.789c-.8-2.383-1.63-4.739-2.6-7a28.175,28.175,0,0,0-2.356-4.528,8.647,8.647,0,0,0-1.465-1.736,2.053,2.053,0,0,0-1.373-.62H269.2l-.535.224c-.343.139-.759.376-1.135.561-.772.389-1.571.838-2.363,1.254-1.6.858-3.214,1.723-4.871,2.521a71.223,71.223,0,0,1-10.283,4.112c-.871.3-1.782.488-2.68.739l-1.32.356-1.366.277c-.917.165-1.822.37-2.739.515l-2.772.33Z" transform="translate(-52.168 -21.609)" fill="#231f20"/>
    <path id="Path_99893" data-name="Path 99893" d="M137.141,338.935a198.749,198.749,0,0,1,14.474-25.74c1.98-2.99,3.927-6,6.012-8.91a361.1,361.1,0,0,1,23.634-29.548c3.716-4.165,7.478-8.389,11.431-12.282,2.508-2.528,5.029-5.075,7.742-7.445a48.341,48.341,0,0,1,4.231-3.373,33.535,33.535,0,0,1,4.62-2.825c2.053-.964,1.907-.508.488.772s-3.881,3.643-6.9,6.3c-2.713,2.323-5.28,4.838-7.841,7.4l-3.821,3.854c-1.247,1.287-2.475,2.64-3.7,3.96-4.891,5.346-9.629,10.857-14.328,16.447-5.6,6.706-10.982,14.051-16.018,21.423a225.026,225.026,0,0,0-15.18,25.2,124.738,124.738,0,0,0-7.049,16.6,77.878,77.878,0,0,0-3.3,13.239l-.244,1.69a5.76,5.76,0,0,0-.066.812,5.376,5.376,0,0,0,0,.8,8.224,8.224,0,0,0,.66,3.056,8.137,8.137,0,0,0,1.874,2.495,10.17,10.17,0,0,0,2.7,1.69,13.939,13.939,0,0,0,4.891,1.056,16.991,16.991,0,0,0,2.521-.073c.851-.092,1.7-.185,2.541-.343a30.942,30.942,0,0,0,4.957-1.241,31.765,31.765,0,0,0,4.693-1.98c.66-.323,1.32-.726,1.98-1.082a19.132,19.132,0,0,0,1.894-1.208c2.33-1.564,3.755-2.752,4.831-3.5a7.972,7.972,0,0,1,2.422-1.32,5.354,5.354,0,0,1,.891-.251c.376,0,.2.449-.429,1.32a21.368,21.368,0,0,1-3.432,3.5,38.277,38.277,0,0,1-8.263,5.32,36.993,36.993,0,0,1-4.706,1.8,35.24,35.24,0,0,1-4.963,1.1c-.845.152-1.69.2-2.541.3l-1.32.059c-.442,0-.891,0-1.32-.033a16.755,16.755,0,0,1-5.32-1.175,11.946,11.946,0,0,1-4.62-3.3,10.514,10.514,0,0,1-2.277-6.5l.053-1.063c.059-.66.172-1.274.257-1.914l.271-1.874c.086-.66.244-1.241.363-1.861.475-2.482,1.129-4.917,1.835-7.326a110.286,110.286,0,0,1,5.346-14.031Z" transform="translate(-27.249 -64.227)" fill="#231f20"/>
    <path id="Path_99894" data-name="Path 99894" d="M365.569,345.106c-2.132-4.422-4.468-8.784-6.706-13.239s-4.62-8.692-7.141-12.916c-1.855-3.076-3.841-6.085-5.788-9.108q-2.587-4.013-5.247-7.959c-1.782-2.64-3.544-5.28-5.379-7.867q-5.5-7.768-11.642-15.061c-1.815-2.152-3.683-4.277-5.59-6.349s-3.828-4.138-5.841-6.046c-2.6-2.455-5.346-4.8-8.019-7.26-1.366-1.247-2.574-2.6-3.808-3.887a23.158,23.158,0,0,0-3.96-3.5c-.931-.561-1.36-.759-1.32-.858a3.075,3.075,0,0,1,1.544.317,18.359,18.359,0,0,1,3.61,1.9,23.617,23.617,0,0,1,2.138,1.663l1.1.95,1.1,1.03c2.64,2.422,5.557,4.752,8.25,7.3,1.36,1.267,2.713,2.6,3.96,3.96s2.528,2.7,3.775,4.072a211.373,211.373,0,0,1,14.058,17.292c2.64,3.6,5.227,7.346,7.821,11.088s5.2,7.524,7.662,11.358q4.049,6.326,7.709,12.916c1.214,2.191,2.369,4.435,3.5,6.659l3.419,6.653A137.941,137.941,0,0,1,372.42,355.1c.416,1.1.752,2.231,1.109,3.353a33.479,33.479,0,0,1,.9,3.425,46.118,46.118,0,0,1,1.148,7,18.018,18.018,0,0,1-.66,7.187,10.065,10.065,0,0,1-4.62,5.676,13.5,13.5,0,0,1-5.425,1.558,25.913,25.913,0,0,1-5.5-.1,23.541,23.541,0,0,1-10.3-3.835,28.862,28.862,0,0,1-3.815-3.01,19.627,19.627,0,0,1-3.96-5.022,6.191,6.191,0,0,1-.9-2.752,5.878,5.878,0,0,1,0-.937c.079-.356.5-.059,1.175.739s1.7,2.072,3.082,3.59a28.475,28.475,0,0,0,7,5.841,25,25,0,0,0,4.118,1.9,22.549,22.549,0,0,0,4.435.977,24.186,24.186,0,0,0,4.62.086,11.141,11.141,0,0,0,4.151-1.122,6.64,6.64,0,0,0,1.65-1.175,7.611,7.611,0,0,0,1.28-1.584,9.827,9.827,0,0,0,1.261-4.079,25.969,25.969,0,0,0-.37-6.963,58.5,58.5,0,0,0-1.683-7.069,93.8,93.8,0,0,0-5.584-13.635Z" transform="translate(-83.738 -65.164)" fill="#231f20"/>
    <path id="Path_99895" data-name="Path 99895" d="M239.911,278.5a7.65,7.65,0,0,1-2.35.66,5.874,5.874,0,0,1-2.607-.277,4.574,4.574,0,0,1-2.211-1.7,5.564,5.564,0,0,1-.878-2.4,10.969,10.969,0,0,1,0-3.3,33.561,33.561,0,0,1,3.762-10.045c.766-1.366,1.544-2.732,2.4-4.039a26.625,26.625,0,0,1,1.808-2.422,8.58,8.58,0,0,1,2.356-2.059c.66-.317.66.125.5.726a7.187,7.187,0,0,1-1.148,2.317,36.3,36.3,0,0,0-3.082,4.858c-.917,1.709-1.848,3.432-2.7,5.207a19.278,19.278,0,0,0-1.749,6.8,8,8,0,0,0,.073,1.789,3.6,3.6,0,0,0,.587,1.432,2.937,2.937,0,0,0,2.818.865,9.86,9.86,0,0,0,4.059-2.112,51.3,51.3,0,0,0,5.425-5.174c1.32-1.432,2.554-2.944,3.96-4.336a12.634,12.634,0,0,1,.964-.911c1.32-1.063,1.921-1.188,2.528-.812a2.255,2.255,0,0,1,.4.271c.356.376,0,.983-.8,1.716-2.369,2.218-4.686,4.97-7.26,7.61a41.276,41.276,0,0,1-3.069,2.891,17.88,17.88,0,0,1-3.722,2.495Z" transform="translate(-62.186 -65.765)" fill="#231f20"/>
    <path id="Path_99896" data-name="Path 99896" d="M294.6,279.913a20.32,20.32,0,0,0,2.944,1.63,6.049,6.049,0,0,0,.739.284,4.78,4.78,0,0,0,.719.2c.251.073.455.053.66.1a2.53,2.53,0,0,0,.568-.04c.482-.106.759-.4,1.043-.99a6.092,6.092,0,0,0,.106-3.854,22.63,22.63,0,0,0-1.459-4.231,31.135,31.135,0,0,0-1.94-3.571c-.924-1.472-1.98-2.871-2.792-4.428-.257-.488.125-.66.733-.521a3.775,3.775,0,0,1,2.059,1.426,45.757,45.757,0,0,1,2.977,4.62,22.656,22.656,0,0,1,2.185,5.174,20.289,20.289,0,0,1,.66,3.531,5.8,5.8,0,0,1-1.049,3.887,3.762,3.762,0,0,1-2.165,1.274,5.472,5.472,0,0,1-2.218-.106,13.82,13.82,0,0,1-3.61-1.5,37.841,37.841,0,0,1-3.835-2.541c-1.855-1.373-3.59-2.871-5.333-4.316-1.353-1.129-2.746-2.165-4.085-3.3-.3-.244-.6-.469-.891-.726-1.063-.964-1.274-1.393-1.056-2.059a2.384,2.384,0,0,1,.152-.449c.238-.442.937-.323,1.782.284,2.515,1.815,4.937,3.927,7.431,5.94a59.162,59.162,0,0,0,5.7,4.211Z" transform="translate(-78.419 -69.719)" fill="#231f20"/>
    <path id="Path_99897" data-name="Path 99897" d="M276.407,283.48a5.069,5.069,0,0,1-.409,1.934,3.445,3.445,0,0,1-.66.95,2.366,2.366,0,0,1-.488.383l-.271.165-.284.125-.145.059a2.225,2.225,0,0,1-1.61,0,2.713,2.713,0,0,1-1.162-1.036,4.678,4.678,0,0,1-.469-1.063,9.525,9.525,0,0,1-.37-1.98l-.178-1.716a3.96,3.96,0,0,1,.224-2.277c.158-.284.528,0,.9.251s.772.554.785.891c.04,1.228.218,2.554.343,3.788a2.144,2.144,0,0,0,.343.924.5.5,0,0,0,.343.224.436.436,0,0,0,.185,0c.251,0,.581-.4.66-1.01a4.184,4.184,0,0,0-.059-1.5,5.5,5.5,0,0,0-.917-2.218,1.736,1.736,0,0,0-.66-.515.323.323,0,0,0-.145-.04.119.119,0,0,0-.106,0h0a.528.528,0,0,1,0-.059v-.092a.162.162,0,0,0,0-.053v.066a.488.488,0,0,0,.139.2c-.059.059-.317.172-.891,0-.139-.033-.277-.046-.4-.079a.8.8,0,0,1-.508-.356.878.878,0,0,1-.046-.766,1.612,1.612,0,0,1,.185-.37l.125-.191a2.654,2.654,0,0,1,.191-.191,1.775,1.775,0,0,1,1.109-.508,2.442,2.442,0,0,1,1.135.165,3.09,3.09,0,0,1,.752.422,5.332,5.332,0,0,1,1.571,2.02,8.118,8.118,0,0,1,.792,3.412Z" transform="translate(-75.292 -74.124)" fill="#231f20"/>
    <path id="Path_99898" data-name="Path 99898" d="M277.715,301.822a3.465,3.465,0,0,1-.977,1.32,3.829,3.829,0,0,1-1.577.766,3.029,3.029,0,0,1-1.28.152,2.4,2.4,0,0,1-1.7-1.155,5.234,5.234,0,0,1-.706-2.072c-.046-.363-.092-.719-.119-1.1a9.149,9.149,0,0,1,0-1.208,6.035,6.035,0,0,1,.086-.825,6.6,6.6,0,0,1,.139-.785,2.64,2.64,0,0,1,.561-1.142c.211-.224.508.092.8.436s.607.719.568,1.043v.165h0a.225.225,0,0,0-.053.066,2.516,2.516,0,0,0-.218.878.891.891,0,0,0,.119.66c.106.125.244.132.4.2a.794.794,0,0,0,1.267-.766,2.376,2.376,0,0,0-.528-1.32,1.413,1.413,0,0,0-.5-.35,1.117,1.117,0,0,0-.323-.112h-.1c-.033,0,0,.073,0-.033a.831.831,0,0,1,0-.172.865.865,0,0,0,0-.119h0a.238.238,0,0,0,.066.092c0,.033.04.033.079.066a.712.712,0,0,0,.132.119h-.04a.375.375,0,0,1-.158.046,1.728,1.728,0,0,1-.6.059h-.389a.66.66,0,0,1-.528-.244.911.911,0,0,1-.152-.31,1.188,1.188,0,0,1,0-.482,2.225,2.225,0,0,1,.178-.455,2.125,2.125,0,0,1,.4-.482,2.181,2.181,0,0,1,.66-.343,2.06,2.06,0,0,1,.66-.066,3.162,3.162,0,0,1,1.67.66,6.311,6.311,0,0,1,1.267,1.406,7.963,7.963,0,0,1,.812,1.577,5.181,5.181,0,0,1,.139,3.848Z" transform="translate(-75.65 -79.887)" fill="#231f20"/>
    <path id="Path_99899" data-name="Path 99899" d="M298.969,344.917c-.112-2.178-.244-4.356-.475-6.481-.046-.535-.139-1.036-.2-1.558l-.145-.713v-.178l-.046-.04-.132-.059a6.12,6.12,0,0,0-.62-.231,13.472,13.472,0,0,0-1.459-.343,49.917,49.917,0,0,0-6.369-.66c-2.165-.106-4.343-.139-6.527-.145-3.181,0-6.369.119-9.557.2-11.22.33-22.5.983-33.745,1.756-4.99.356-10,.8-14.942,1.267-6.356.541-12.711,1.32-19.1,1.5a6.646,6.646,0,0,1-1.1,0c-.224-.04-.389-.106-.356-.178a3.524,3.524,0,0,1,1.32-.614c.818-.271,1.98-.6,3.406-.944.706-.172,1.478-.35,2.3-.5s1.7-.264,2.64-.37l9.722-1.043c3.247-.323,6.5-.581,9.755-.838q9.768-.772,19.615-1.254c7.86-.35,16.025-.924,24.09-1.1,4.429-.092,8.864-.112,13.325.119a43.1,43.1,0,0,1,6.732.792,9.8,9.8,0,0,1,1.742.548c.125.066.343.152.521.264l.541.356a.172.172,0,0,1,.086.125l.059.152.106.3a3.092,3.092,0,0,1,.185.568l.185.878.119.845c.086.568.125,1.122.191,1.683.264,2.739.4,5.458.515,8.184s.211,5.445.29,8.164c.238,8.243.337,16.5.528,24.69.152,6.356.416,12.586.66,18.856.059,1.379.125,2.732.185,4.125.1,2.574.139,4.27.073,5.465a7.01,7.01,0,0,1-.429,2.455,7.2,7.2,0,0,1-.264.766c-.145.277-.383-.1-.66-1.043a23.952,23.952,0,0,1-.66-4.31c-.8-11.22-.983-23.1-1.274-34.979-.211-8.817-.356-17.694-.825-26.485Z" transform="translate(-52.816 -92.8)" fill="#231f20"/>
    <path id="Path_99900" data-name="Path 99900" d="M232.5,419.825c-4.336.053-8.679.033-13.022-.132a86.932,86.932,0,0,1-13.068-1.32,18.861,18.861,0,0,1-4.778-1.525,7.474,7.474,0,0,1-.66-.4,8.207,8.207,0,0,1-.812-.627c0-.343-.059-.66-.073-1.03l-.04-.62-.132-2.363c-.515-11.127-.66-22.242-.891-33.349-.112-4.93-.224-9.9-.33-14.777q-.139-4.712-.264-9.431c-.04-1.577-.046-3.148-.059-4.719v-4.706c0-1.921.132-1.723.594-.079.2.818.469,1.98.733,3.412a44.532,44.532,0,0,1,.541,4.9c.515,12.837.66,25.654.818,38.59.046,3.868.165,7.808.337,11.768.092,1.98.191,3.96.284,5.94l.172,2.97.086,1.485.04.739v.264l.106.086a1.317,1.317,0,0,0,.178.106,4.511,4.511,0,0,0,.66.337,7.248,7.248,0,0,0,.693.284c.238.092.475.178.726.251a24.19,24.19,0,0,0,3.069.726,63.715,63.715,0,0,0,6.389.779c4.31.337,8.646.429,12.989.442,5.346,0,10.7-.125,16.038-.337,8.1-.323,16.236-.785,24.261-1.386,6.237-.469,12.342-1.1,18.48-1.663l4.059-.37c5.082-.389,6.752-.33,7.867.271a3.089,3.089,0,0,1,.706.4c.185.231-.158.33-1.056.528a39.442,39.442,0,0,1-4.178.561c-10.982,1.135-22.618,2.171-34.319,2.9-8.692.548-17.444.95-26.2,1.109Z" transform="translate(-50.839 -96.582)" fill="#231f20"/>
    <path id="Path_99901" data-name="Path 99901" d="M194.737,451s-12.54.1-13.5,1.584c-2.3,3.6,21.733,4.283,33.956,3.3C215.2,455.9,196.961,453.495,194.737,451Z" transform="translate(-44.963 -133.149)" fill="#231f20"/>
    <path id="Path_99902" data-name="Path 99902" d="M275.748,359.738c-1.32.1-2.587.158-3.881.132-.475,0-.944.04-1.426,0s-.851-.086-1.287-.152a6.421,6.421,0,0,1-1.419-.376,2.64,2.64,0,0,1-1.267-1.148,4.1,4.1,0,0,1-.475-1.393,14.571,14.571,0,0,1-.145-2.29,13.475,13.475,0,0,1,.211-2.686c.053-.257.436-.271.832-.04a1.663,1.663,0,0,1,.818,1.267c0,.944.033,1.822.073,2.64a7.46,7.46,0,0,0,.158,1.056,1.683,1.683,0,0,0,.317.66l.066.086.059.033.066.04.152.04a4.179,4.179,0,0,0,.706.092h1.617c1.2-.04,2.435-.073,3.663-.185.752-.066,1.5-.152,2.237-.277.343-.073.7-.132,1.03-.224a3.169,3.169,0,0,0,.792-.271,1.234,1.234,0,0,0,.449-.66,3.755,3.755,0,0,0-.475-2.138c-.073-.165-.165-.323-.238-.495a1,1,0,0,1-.086-.766,1.1,1.1,0,0,1,.508-.548c.125-.079.238-.172.356-.231a1.069,1.069,0,0,1,1.32.37,6.323,6.323,0,0,1,1.069,2.64,4.621,4.621,0,0,1-.1,1.855,3.656,3.656,0,0,1-1.241,1.881.355.355,0,0,1-.079.059,4.358,4.358,0,0,1-.4.244,2.25,2.25,0,0,1-.37.178c-.2.073-.416.152-.594.2a10.583,10.583,0,0,1-1.03.244c-.66.132-1.32.211-1.98.3Z" transform="translate(-73.782 -99.359)" fill="#231f20"/>
    <path id="Path_99903" data-name="Path 99903" d="M172.362,381.221c-.66.488-1.36.983-2.039,1.492-.244.185-.455.416-.706.594-.891.66-1.8,1.261-2.746,1.835-.409.271-.8.561-1.2.851a4.97,4.97,0,0,1-1.6.97c-.191.053-.363-.277-.422-.66a1.208,1.208,0,0,1,.251-1.082,24.9,24.9,0,0,1,2.957-2.119,12.045,12.045,0,0,0,1.775-1.419l1.98-1.591,1.241-.977c.62-.5,1.274-.964,1.881-1.478.469-.4.871-.884,1.32-1.32a2.461,2.461,0,0,1,.3-.284c.416-.31.627-.277,1.016.139.086.092.178.185.257.284a.851.851,0,0,1,.073,1.049,11.483,11.483,0,0,1-2.343,2.251l-1.98,1.511Z" transform="translate(-39.022 -107.589)" fill="#231f20"/>
    <path id="Path_99904" data-name="Path 99904" d="M372.355,387.227c-.693-.812-1.419-1.61-2.191-2.356-.277-.284-.607-.488-.891-.766-.99-.97-2.033-1.894-3.109-2.8-.475-.4-1.01-.726-1.511-1.076a14.1,14.1,0,0,1-1.98-1.366c-.185-.178,0-.455.363-.66a1.65,1.65,0,0,1,1.32-.178,10.989,10.989,0,0,1,4.3,2.581c.726.713,1.63,1.247,2.422,1.907s1.69,1.511,2.488,2.317c.495.488.97,1,1.439,1.511.719.766,1.379,1.591,2.105,2.343.561.587,1.188,1.1,1.762,1.683a2.869,2.869,0,0,1,.356.389.924.924,0,0,1-.066,1.32,3.375,3.375,0,0,1-.224.277,1.089,1.089,0,0,1-1.228.079,12.225,12.225,0,0,1-3.254-2.8c-.719-.785-1.432-1.584-2.185-2.35Z" transform="translate(-106.679 -108.315)" fill="#231f20"/>
    <path id="Path_99905" data-name="Path 99905" d="M224.189,158.408a15.252,15.252,0,0,1,2.244-14.012,15.021,15.021,0,0,1,3.835-3.7,14.1,14.1,0,0,1,8.989-2.119,16.9,16.9,0,0,1,4.475,1.023,22.658,22.658,0,0,1,2.092.9,21.3,21.3,0,0,1,1.98,1.142,13.417,13.417,0,0,1,3.036,2.759,14.21,14.21,0,0,1,2.039,3.531,13.239,13.239,0,0,1-.046,10.131c-.429.983-.66.713-.746-.218a4.656,4.656,0,0,0-.053-.818,8.074,8.074,0,0,1-.073-1.01c-.013-.35-.046-.752-.04-1.155s-.04-.825,0-1.261a12.441,12.441,0,0,0-3.115-8.322,12.814,12.814,0,0,0-1.643-1.525c-.3-.231-.62-.429-.931-.66l-1.03-.587a18.48,18.48,0,0,0-4.422-1.7,11.88,11.88,0,0,0-10.751,2.673,13.29,13.29,0,0,0,3.571,22.275,15.14,15.14,0,0,0,5.94,1.195,11.127,11.127,0,0,0,4.488-.983,12.77,12.77,0,0,0,3.709-2.64,18.154,18.154,0,0,0,1.32-1.525c1.544-1.98,1.894-2.706,2.64-2.97a3.431,3.431,0,0,1,.462-.211c.422-.152.475,1.155-.548,2.97a14.473,14.473,0,0,1-7.029,6.389,13.662,13.662,0,0,1-4.957,1,18,18,0,0,1-4.937-.66,15.708,15.708,0,0,1-6.5-3.663,15.5,15.5,0,0,1-4.046-6.263Z" transform="translate(-59.346 -26.898)" fill="#231f20"/>
    <path id="Path_99906" data-name="Path 99906" d="M304.12,152.675a15.636,15.636,0,0,1,1.756,7.2,15.127,15.127,0,0,1-1.907,7.082,16.755,16.755,0,0,1-3.221,4.211,17.562,17.562,0,0,1-8.131,4.257,14.52,14.52,0,0,1-9.068-.878,15.466,15.466,0,0,1-3.491-2.119,13.49,13.49,0,0,1-2.726-3.062,15.484,15.484,0,0,1-2.119-4.765,9.623,9.623,0,0,1,.119-5.24c.389-1.049.66-.746.851.165.112.462.257,1.076.462,1.762s.363,1.452.574,2.284a13,13,0,0,0,4.58,7.7,12.863,12.863,0,0,0,8.745,2.64l.713-.059a4.462,4.462,0,0,0,.713-.119,11.566,11.566,0,0,0,1.412-.337,13.983,13.983,0,0,0,2.7-1.175,15.84,15.84,0,0,0,4.508-3.8,14.038,14.038,0,0,0,1.769-2.706,12.784,12.784,0,0,0,.891-9.385,15.989,15.989,0,0,0-.713-1.868,6.91,6.91,0,0,0-.442-.884,8.359,8.359,0,0,0-.521-.832,10.83,10.83,0,0,0-2.812-2.752,14.17,14.17,0,0,0-5.617-2.277,13.009,13.009,0,0,0-6.026.3,12.817,12.817,0,0,0-4.145,2.079,14.849,14.849,0,0,0-3.122,3.34c-.178.284-.363.561-.541.838l-.475.9c-1.168,2.244-1.459,3.01-2.3,3.3a3.255,3.255,0,0,1-.548.218c-.277.053-.422-.211-.436-.752a6.02,6.02,0,0,1,.488-2.31c.139-.363.271-.726.429-1.089l.535-1.049.277-.535.323-.5c.224-.337.436-.66.66-1.01a16.183,16.183,0,0,1,3.544-3.458,15.655,15.655,0,0,1,9.662-2.772,16.982,16.982,0,0,1,7.26,2.046,13.4,13.4,0,0,1,5.445,5.385Z" transform="translate(-76.862 -29.171)" fill="#231f20"/>
    <path id="Path_99907" data-name="Path 99907" d="M256.987,177.468a26.936,26.936,0,0,1,2.053-5.98c.3-.66.541-1.366.845-2.039l1.65-3.531c.561-1.168,1.115-2.336,1.637-3.511q.69-1.568,1.221-3.2a40.475,40.475,0,0,1,1.452-4.105c.185-.416.482-.284.719.178a3.4,3.4,0,0,1,.3,2.132,14.8,14.8,0,0,1-.607,2.211c-.238.719-.495,1.439-.772,2.145-.554,1.412-1.168,2.8-1.855,4.151-.825,1.617-1.485,3.379-2.2,5.062a40.994,40.994,0,0,0-2.145,5.564,8.005,8.005,0,0,0-.317,3.359,1.386,1.386,0,0,0,1.393,1.208,5.28,5.28,0,0,0,2.455-.594,12.461,12.461,0,0,0,3.3-2.435,8.843,8.843,0,0,0,.614-.66,4.316,4.316,0,0,1,.858-.772,1.076,1.076,0,0,1,.752-.079,2.559,2.559,0,0,1,.4.066c.416.106.455.792-.1,1.6a12.25,12.25,0,0,1-3.062,2.97,10.751,10.751,0,0,1-4.224,1.835,4.62,4.62,0,0,1-2.152-.106,3.3,3.3,0,0,1-1.927-1.65,4.618,4.618,0,0,1-.482-2.053,9.1,9.1,0,0,1,.132-1.782Z" transform="translate(-70.701 -32.455)" fill="#231f20"/>
    <path id="Path_99908" data-name="Path 99908" d="M273.66,163.5a4.961,4.961,0,0,0-6.29-1.188c-1.168.739-.092,2.594,1.082,1.855a2.851,2.851,0,0,1,3.7.851c.937,1.069,2.422-.482,1.511-1.518Z" transform="translate(-74.129 -34.766)" fill="#231f20"/>
    <path id="Path_99909" data-name="Path 99909" d="M284.929,140.3c3.736-2.64,9.814-2.963,14.038-1.4,1.5.548,2.138-1.841.66-2.389-4.778-1.762-11.715-1.366-15.945,1.65-1.28.917-.046,3.069,1.254,2.138Z" transform="translate(-79.663 -25.861)" fill="#231f20"/>
    <path id="Path_99910" data-name="Path 99910" d="M247.681,161.312c2.818.29,6.019.383,8.626,1.6,1.247.574,2.336-1.274,1.082-1.855-2.983-1.386-6.481-1.551-9.708-1.888C246.308,159.028,246.315,161.147,247.681,161.312Z" transform="translate(-67.256 -33.92)" fill="#231f20"/>
    <path id="Path_99911" data-name="Path 99911" d="M254.431,162.288a1.148,1.148,0,0,0-.983.6c-.9,1.7-1.32,5.471,1.406,5.6S259.427,162.1,254.431,162.288Z" transform="translate(-69.334 -34.982)" fill="#231f20"/>
    <path id="Path_99912" data-name="Path 99912" d="M285.389,166.241a21.987,21.987,0,0,1,6.811,1.406c1.247.581,2.336-1.267,1.082-1.855a25.132,25.132,0,0,0-7.92-1.7c-1.373-.152-1.36,1.98,0,2.145Z" transform="translate(-80.069 -35.595)" fill="#231f20"/>
    <path id="Path_99913" data-name="Path 99913" d="M288.463,166.919c-.409,0-.6-.125-.792.238-.9,1.7-1.492,5.828,1.214,5.94S293.459,166.754,288.463,166.919Z" transform="translate(-80.946 -36.551)" fill="#231f20"/>
    <path id="Path_99914" data-name="Path 99914" d="M269.769,209.284a2.64,2.64,0,0,1,0,1.036,2.783,2.783,0,0,1-.125.442,2.338,2.338,0,0,1-.2.449,1.98,1.98,0,0,1-.528.713,2.434,2.434,0,0,1-.409.218,2.708,2.708,0,0,1-.449.092,1.722,1.722,0,0,1-.766-.152,1.98,1.98,0,0,1-.871-.832,2.931,2.931,0,0,1-.343-.931,1.115,1.115,0,0,1,.363-1.175c.112-.079.409.191.713.455a3.472,3.472,0,0,0,.66.5h.046a.748.748,0,0,1-.053.211.7.7,0,0,0-.033.31h0l-.04-.04a.422.422,0,0,0-.112-.106c-.059,0,.046-.046.073-.165a1.466,1.466,0,0,0,.086-.323.661.661,0,0,0,0-.238s-.033-.079-.086-.092a.139.139,0,0,0-.152,0v.033a.25.25,0,0,0-.059-.059h0c-.059-.033,0,0,.132,0a1.469,1.469,0,0,0,.257-.066s0,.04-.119.119l-.436.383-.218.2a.983.983,0,0,1-.4.231c-.158.046-.429.1-.548,0a.9.9,0,0,1-.317-.284,1.122,1.122,0,0,1-.224-.462,1.525,1.525,0,0,1,.185-1.267,1.71,1.71,0,0,1,.422-.488,1.617,1.617,0,0,1,.488-.3,2.264,2.264,0,0,1,2.4.363,2.343,2.343,0,0,1,.739,1.208Z" transform="translate(-73.683 -50.358)" fill="#231f20"/>
    <path id="Path_99915" data-name="Path 99915" d="M230.342,363.733c-1.564.865-3.128,1.736-4.679,2.64l-1.683,1c-1,.568-2.02,1.122-2.99,1.7s-1.98,1.2-2.93,1.808l-2.574,1.65a16.172,16.172,0,0,1-3.538,1.782c-.4.125-.436-.139-.231-.515a3.723,3.723,0,0,1,1.28-1.241c2.224-1.32,4.409-2.785,6.745-4.145,1.406-.812,2.812-1.709,4.217-2.554l4.666-2.739,2.891-1.663,4.4-2.482c1.129-.66,2.2-1.32,3.3-1.98.244-.145.482-.3.726-.436.931-.508,1.28-.568,1.65-.343a1.32,1.32,0,0,1,.251.158c.218.2-.053.614-.693,1.049-1.907,1.28-3.96,2.508-6.065,3.709l-4.706,2.64Z" transform="translate(-55.336 -100.879)" fill="#231f20"/>
    <g id="Group_37598" data-name="Group 37598" transform="translate(160.171 268.761)" opacity="0.6">
      <path id="Path_99916" data-name="Path 99916" d="M244.429,386.526c-2.323,1.181-4.62,2.4-6.91,3.67-.832.462-1.637.97-2.468,1.439-2.917,1.657-5.814,3.353-8.646,5.155-1.267.785-2.495,1.643-3.716,2.482-1.558,1.089-3.1,2.218-4.706,3.227-.5.31-.574.073-.31-.416a6.8,6.8,0,0,1,1.749-1.894,114.839,114.839,0,0,1,9.768-6.475c2.02-1.2,4.066-2.534,6.131-3.762q3.412-1.98,6.9-3.9c1.426-.772,2.864-1.531,4.3-2.284,2.185-1.142,4.409-2.224,6.6-3.333,1.7-.845,3.3-1.775,5-2.64.37-.185.726-.383,1.109-.554,1.4-.66,1.9-.746,2.376-.482a1.666,1.666,0,0,1,.323.185c.271.244-.191.759-1.175,1.32-2.9,1.676-6.078,3.175-9.24,4.732-2.356,1.155-4.719,2.317-7.049,3.544Z" transform="translate(-217.523 -376.619)" fill="#231f20"/>
    </g>
    <g id="Group_37599" data-name="Group 37599" transform="translate(176.575 276.947)" opacity="0.6">
      <path id="Path_99917" data-name="Path 99917" d="M274.732,401.765c-2.719,1.492-5.432,2.99-8.124,4.521L263.677,408l-5.221,2.937c-1.762.964-3.531,1.888-5.28,2.831-1.558.832-3.109,1.7-4.62,2.607-1.921,1.162-3.782,2.416-5.65,3.65-.581.383-.66.125-.356-.449a7.386,7.386,0,0,1,2.112-2.231c1.907-1.32,3.887-2.574,5.894-3.735s4.059-2.224,6.1-3.3c2.435-1.32,4.851-2.911,7.3-4.356,2.693-1.591,5.419-3.135,8.138-4.679l5.029-2.831c2.534-1.439,5.1-2.845,7.61-4.283,1.98-1.115,3.821-2.3,5.729-3.432.422-.251.825-.508,1.254-.752,1.591-.9,2.165-1.082,2.726-.865a1.85,1.85,0,0,1,.383.145c.323.231-.191.845-1.32,1.591-3.3,2.2-6.9,4.356-10.56,6.4l-8.19,4.567Z" transform="translate(-242.377 -389.023)" fill="#231f20"/>
    </g>
    <path id="Path_99918" data-name="Path 99918" d="M286.131,426.916l-4.033,1.822c-.488.224-.957.495-1.445.719-1.723.785-3.445,1.571-5.148,2.4-.759.363-1.492.779-2.211,1.2a24.749,24.749,0,0,1-2.8,1.564c-.614.271-.488-1.148.554-1.848a42.68,42.68,0,0,1,5.828-3.142c1.228-.521,2.416-1.214,3.637-1.815l4.026-1.921,2.475-1.181c1.247-.6,2.508-1.188,3.716-1.835.931-.515,1.808-1.1,2.719-1.617.2-.106.4-.224.614-.33.779-.376,1.069-.416,1.379-.251a1.2,1.2,0,0,1,.2.119c.185.145-.033.495-.528.917a22.848,22.848,0,0,1-4.956,3.241q-1.98,1.049-4.006,1.98Z" transform="translate(-75.235 -122.805)" fill="#231f20"/>
    <path id="Path_99919" data-name="Path 99919" d="M197.692,392.288l.059-10.177c0-1.234-.059-2.468-.053-3.709,0-4.356.1-8.712.073-13.061,0-1.934-.092-3.874-.178-5.788-.073-1.221-.139-2.455-.2-3.683a21.781,21.781,0,0,1,.145-3.7c.139-.779.277-.66.66-.066a13.676,13.676,0,0,1,.752,1.32,6.66,6.66,0,0,1,.561,1.907c.125,1.261.2,2.521.271,3.782s.132,2.528.139,3.788c.033,2.528,0,5.056-.079,7.6-.106,3.036.059,6.191.086,9.3l.04,10.236c0,2.105,0,4.2.053,6.3.046,3.181.073,6.375.218,9.524.125,2.449.4,4.844.627,7.26.059.535.112,1.049.165,1.584.158,1.98.053,2.64-.6,3.1a2.716,2.716,0,0,1-.4.317c-.416.218-.99-.561-1.2-2.02a103.23,103.23,0,0,1-1.056-13.51c-.1-3.419-.112-6.851-.145-10.276Z" transform="translate(-50.498 -99.358)" fill="#231f20"/>
    <path id="Path_99920" data-name="Path 99920" d="M279.3,355.367c-.165-.086,0-.3.409-.66a1.577,1.577,0,0,1,.66-.317,2.681,2.681,0,0,1,.508.218.957.957,0,0,1,.178.257l.145.257a3.9,3.9,0,0,1,.125.37,1.544,1.544,0,0,1,.092.449,1.981,1.981,0,0,1,0,.482,2.679,2.679,0,0,1-.2.812,2.884,2.884,0,0,1-1.386,1.426,7.8,7.8,0,0,1-2.772.66,1.644,1.644,0,0,1-.568-.046,6.738,6.738,0,0,0-1.868-.191.429.429,0,0,0-.317.059,4.884,4.884,0,0,1-2.053-.2c-.495-.284-1-.521-1.485-.832-.066-.04-.165-.033-.191-.172-.073-.31-.244-.323-.4-.409a2.192,2.192,0,0,1-.627-.482,1.077,1.077,0,0,1-.158-.5c0-.165.31-.436.356-.455.158-.053.218-.251.323-.389l.119-.145a5.758,5.758,0,0,1,1.274-.277l.251.053a4.9,4.9,0,0,1,.561.092,7.514,7.514,0,0,0,.964.079.577.577,0,0,1,.271.132,12.363,12.363,0,0,0,1.4,0c.264.059.535,0,.785.231.046.053.1.04.152.04a12.537,12.537,0,0,1,1.32.106,3.3,3.3,0,0,0,.66-.073h.112a.263.263,0,0,0,.139,0l.581-.139c.158-.046.238-.106.218-.125s0,0,.053,0H279c.066,0,.139-.073.112-.112s.079-.066.139-.145S279.336,355.387,279.3,355.367Z" transform="translate(-74.987 -100.3)" fill="#231f20"/>
    <path id="Path_99921" data-name="Path 99921" d="M97.955,432.884c-1.459-.059-2.917-.112-4.376-.145-.535,0-1.063.059-1.6.04-1.881-.053-3.762-.145-5.643-.185-.838,0-1.676,0-2.5.079a11.351,11.351,0,0,1-3.208,0c-.66-.145.178-2.2,1.366-2.277a44.065,44.065,0,0,1,6.468,0,33.847,33.847,0,0,0,3.96-.139c1.465-.046,2.937-.066,4.409-.086l2.719-.033c1.373,0,2.752,0,4.118-.073,1.063-.066,2.1-.238,3.161-.33.231,0,.455-.066.693-.066.878,0,1.148.2,1.32.9a4.2,4.2,0,0,1,.106.482,1.109,1.109,0,0,1-.917,1.162,21.208,21.208,0,0,1-5.715.766c-1.452.04-2.917,0-4.382,0Z" transform="translate(-10.728 -125.896)" fill="#231f20"/>
    <path id="Path_99922" data-name="Path 99922" d="M430.93,430.969c1.254.086,2.508.165,3.775.231h1.379c1.63.1,3.267.343,4.9.535.719.079,1.452.132,2.178.178a7.919,7.919,0,0,1,2.779.5c.277.119.132.561-.191.97a1.736,1.736,0,0,1-1.32.752c-1.769-.112-3.571-.152-5.419-.416a29.338,29.338,0,0,0-3.412-.033l-3.788-.073-2.35-.053c-1.188,0-2.383-.092-3.564-.073-.924,0-1.841.158-2.785.191a3.9,3.9,0,0,1-.62,0,1.227,1.227,0,0,1-.785-.323,1.571,1.571,0,0,1-.244-.772c0-.139-.04-.271-.04-.4a.878.878,0,0,1,.251-.594,1.207,1.207,0,0,1,.66-.475l.587-.145a3.3,3.3,0,0,1,.6-.112c.4-.046.792-.066,1.195-.092.8-.04,1.63-.04,2.455,0l3.749.139Z" transform="translate(-126.679 -126.258)" fill="#231f20"/>
    <path id="Path_99923" data-name="Path 99923" d="M247.923,282.025c-.792.785-1.6,1.558-2.462,2.3-.317.271-.607.561-.944.812a10.56,10.56,0,0,1-4,1.98,9.4,9.4,0,0,1-1.98.191,5.127,5.127,0,0,1-2.449-.62c-.231-.125-.1-.337.185-.495a1.848,1.848,0,0,1,1.115-.211,8.065,8.065,0,0,0,4.277-.554,9.187,9.187,0,0,0,2.369-1.6,27.97,27.97,0,0,0,2.4-2.224q.719-.726,1.426-1.465l2.152-2.251c.548-.594,1.043-1.221,1.6-1.808.119-.132.238-.264.37-.389.482-.455.726-.508,1.069-.3a2.229,2.229,0,0,1,.231.145c.224.191.172.548-.125.9-.884,1.069-1.881,2.105-2.884,3.188-.766.8-1.531,1.61-2.29,2.416Z" transform="translate(-63.624 -73.402)" fill="#231f20"/>
    <path id="Path_99924" data-name="Path 99924" d="M292.78,284.238a40.115,40.115,0,0,0,3.577,2.515c.449.277.924.5,1.379.746a10.6,10.6,0,0,0,2.5,1,2.93,2.93,0,0,0,2.356-.271,2.864,2.864,0,0,0,1.043-1.907,11.8,11.8,0,0,0-.145-3.069c-.046-.33.2-.356.521-.132a2.125,2.125,0,0,1,.792,1.379,5.65,5.65,0,0,1-.568,3.689,3.194,3.194,0,0,1-1.564,1.419,3.775,3.775,0,0,1-1.98.231,13.2,13.2,0,0,1-4.105-1.379,28.79,28.79,0,0,1-3.848-2.482c-.752-.554-1.485-1.135-2.211-1.716-1.1-.878-2.158-1.808-3.227-2.7-.838-.693-1.7-1.32-2.534-1.98-.185-.152-.37-.284-.554-.442-.66-.574-.8-.838-.66-1.247a1.621,1.621,0,0,1,.086-.271c.139-.271.561-.2,1.089.165,1.571,1.1,3.089,2.389,4.62,3.656,1.142.944,2.29,1.894,3.478,2.772Z" transform="translate(-79.785 -74.143)" fill="#231f20"/>
    <path id="Path_99925" data-name="Path 99925" d="M362.628,310.684a31.144,31.144,0,0,0-2.488,5.022,10.705,10.705,0,0,0-.6,2.475,2.831,2.831,0,0,0,.343,1.855,2.561,2.561,0,0,0,1.353,1.162,2.64,2.64,0,0,0,1.723-.62,3.716,3.716,0,0,0,1.274-1.67,5.062,5.062,0,0,0,.31-2.317,4.085,4.085,0,0,0-1.465-2.911,5.729,5.729,0,0,0-3.3-1.109,17.254,17.254,0,0,0-6.937,1.379,28.237,28.237,0,0,0-3.333,1.544,25.929,25.929,0,0,0-3.1,1.98,69.374,69.374,0,0,0-11.141,10.038,29.3,29.3,0,0,0-3.8,5.379,15.112,15.112,0,0,0-1.214,2.97,8.031,8.031,0,0,0-.264,3.049,5.94,5.94,0,0,0,1.63,3.392,5.28,5.28,0,0,0,3.34,1.65,14.469,14.469,0,0,0,4.079-.158c1.393-.191,2.8-.488,4.237-.693.9-.132,1.32-.066,1.32.059s-.429.33-1.129.66-1.7.733-2.95,1.175a14.163,14.163,0,0,1-4.62.917,7.992,7.992,0,0,1-4.857-1.452,7.028,7.028,0,0,1-.977-.884,6.387,6.387,0,0,1-.818-1l-.363-.541c-.1-.191-.191-.4-.29-.594a5.852,5.852,0,0,1-.449-1.247,9.306,9.306,0,0,1,.218-5.029,18.326,18.326,0,0,1,1.98-4.3,40.408,40.408,0,0,1,5.7-7.062,73.588,73.588,0,0,1,6.725-5.94c1.419-1.1,2.831-2.185,4.389-3.227a31.6,31.6,0,0,1,4.957-2.594,22.652,22.652,0,0,1,5.465-1.577,9.84,9.84,0,0,1,5.94.766,7.075,7.075,0,0,1,1.406,1.03,6.053,6.053,0,0,1,1.1,1.439,7.1,7.1,0,0,1,.878,3.346,7.175,7.175,0,0,1-.719,3.386,5.688,5.688,0,0,1-.462.772,4.237,4.237,0,0,1-.581.706,5.5,5.5,0,0,1-.693.607,7.557,7.557,0,0,1-.726.469,5.156,5.156,0,0,1-1.749.66,3.577,3.577,0,0,1-2.059-.29,4.944,4.944,0,0,1-1.492-1.155,7.088,7.088,0,0,1-.535-.66,4.343,4.343,0,0,1-.482-.851,6.369,6.369,0,0,1-.271-3.491,15.03,15.03,0,0,1,.884-3.056,41.966,41.966,0,0,1,3.518-6.6c1.32-2.079,2.68-4.158,4.158-6.125A80.637,80.637,0,0,1,381.424,285.5a49.25,49.25,0,0,1,7.339-4.587,38.323,38.323,0,0,1,8.111-3.082,18.845,18.845,0,0,1,3.9-.561,8.263,8.263,0,0,1,5.313,1.445,3.089,3.089,0,0,1,1.32,2.158,2.976,2.976,0,0,1,0,.825c-.119.33-.508.125-1.115-.31a7.807,7.807,0,0,0-2.93-1.32,14.743,14.743,0,0,0-6.851.614,41.975,41.975,0,0,0-6.943,2.8,53.46,53.46,0,0,0-12.4,9.022,83.007,83.007,0,0,0-7.874,8.58,84.579,84.579,0,0,0-6.6,9.642Z" transform="translate(-94.88 -74.07)" fill="#231f20"/>
    <path id="Path_99926" data-name="Path 99926" d="M162.531,302.982a28.975,28.975,0,0,1,.079,4.29,10.52,10.52,0,0,1-1.122,4.481,3.914,3.914,0,0,1-2.158,1.841l-.37.112-.422.046a3.015,3.015,0,0,1-.422,0,1.9,1.9,0,0,1-.422-.079,3.148,3.148,0,0,1-1.386-.739,6.012,6.012,0,0,1-1.406-2.079,11.014,11.014,0,0,1-.66-2.171A11.165,11.165,0,0,1,154.03,307v-.488l.066-.416.132-.825a4.058,4.058,0,0,1,.218-.818l.271-.8c.125-.257.264-.515.4-.766a3.378,3.378,0,0,1,.462-.726,7.26,7.26,0,0,1,5.161-2.93,8.124,8.124,0,0,1,5.6,1.551,10.948,10.948,0,0,1,1.089.977l.475.548.238.277.191.3a14.807,14.807,0,0,1,1.287,2.482,29.767,29.767,0,0,1,1.459,5.2,46.251,46.251,0,0,1,.66,9.431,44.008,44.008,0,0,1-.627,6.012,23.411,23.411,0,0,1-1.855,5.775c-.568,1.142-.766.825-.66-.257s.383-2.95.772-5.128a43.314,43.314,0,0,0,.5-11.794,37.87,37.87,0,0,0-1.016-5.8l-.416-1.4-.508-1.36-.6-1.32c-.231-.4-.455-.772-.719-1.142a6.244,6.244,0,0,0-5.656-2.449,5.4,5.4,0,0,0-4.574,3.96,4.355,4.355,0,0,0-.132.429l-.079.455-.079.455-.053.231v.191a7.378,7.378,0,0,0,.251,1.789,8.216,8.216,0,0,0,.627,1.736,3,3,0,0,0,.97,1.208.878.878,0,0,0,.495.132h.132a.784.784,0,0,0,.152-.046,1.319,1.319,0,0,0,.3-.125,2.389,2.389,0,0,0,.944-1.168,10.349,10.349,0,0,0,.66-3.722,30.359,30.359,0,0,0-.284-4.937,37.4,37.4,0,0,0-.964-4.871,14.071,14.071,0,0,0-3.61-6.25,6.785,6.785,0,0,0-3.056-1.643,7.53,7.53,0,0,0-3.491.059,13.39,13.39,0,0,0-4.956,2.528,25.377,25.377,0,0,0-4.039,3.96c-.528.66-1,1.32-1.492,1.98-.9,1.267-1.426,2.145-1.881,2.713a2.99,2.99,0,0,1-1.188,1.049,2.837,2.837,0,0,1-.561.244c-.521.119-.376-1.32.792-3.465a26.175,26.175,0,0,1,7.3-8.441,15.839,15.839,0,0,1,5.4-2.64,9.24,9.24,0,0,1,6.4.561,10.414,10.414,0,0,1,3.643,3.069,16.877,16.877,0,0,1,2.191,3.927,21.587,21.587,0,0,1,1.2,4.244c.271,1.4.482,2.8.614,4.231Z" transform="translate(-29.209 -77.258)" fill="#231f20"/>
    <path id="Path_99927" data-name="Path 99927" d="M49.258,340.97a44.3,44.3,0,0,1,7.26,9.18c.884,1.452,3.175.125,2.284-1.32a47.307,47.307,0,0,0-7.676-9.728C49.885,337.948,48.011,339.809,49.258,340.97Z" transform="translate(0 -94.979)" fill="#231f20"/>
    <path id="Path_99928" data-name="Path 99928" d="M58.089,344.894c1.122-.752,1.98-1.874,3.148-2.541a1.317,1.317,0,0,0-1.32-2.277c-1.195.66-2.02,1.789-3.148,2.541a1.36,1.36,0,0,0-.475,1.808,1.32,1.32,0,0,0,1.808.469Z" transform="translate(-2.475 -95.371)" fill="#231f20"/>
    <g id="Group_37600" data-name="Group 37600" transform="translate(92.285 163.787)" opacity="0.6">
      <path id="Path_99934" data-name="Path 99934" d="M116.522,225.64c-.429-.7-.832-1.412-1.208-2.158a8.9,8.9,0,0,1-.422-.832,2.871,2.871,0,0,1-.224-.95,2.264,2.264,0,0,1,.172-1.01,3.689,3.689,0,0,1,1.135-1.386c.389-.3.779-.581,1.162-.845a6.862,6.862,0,0,1,1.5-.884c.165-.059.3.172.323.482a1.023,1.023,0,0,1-.37.891,11.49,11.49,0,0,0-2.495,1.94.9.9,0,0,0-.185.66,1.089,1.089,0,0,0,.092.363c.059.152.125.3.2.455a23.518,23.518,0,0,0,1.122,2.072c.251.416.508.838.785,1.241.211.3.422.614.66.9.112.145.224.3.343.429l.165.191.125.119a.35.35,0,0,0,.2.1.442.442,0,0,0,.2-.125c.059-.066.33-.3.515-.482l.277-.257c.356-.3.574-.343.858-.092a.912.912,0,0,1,.178.178.574.574,0,0,1-.059.733,7.129,7.129,0,0,1-.535.581c-.106.1-.2.191-.317.284l-.092.073-.152.106c-.112.066-.218.145-.33.2a1.432,1.432,0,0,1-.706.172,6.676,6.676,0,0,1-.66-.29l-.277-.257c-.079-.079-.2-.191-.238-.231l-.29-.337a22.142,22.142,0,0,1-1.452-2.039Z" transform="translate(-114.664 -217.566)" fill="#231f20"/>
    </g>
    <g id="Group_37601" data-name="Group 37601" transform="translate(96.301 159.784)" opacity="0.6">
      <path id="Path_99935" data-name="Path 99935" d="M126.353,214.391l1.162,2.059c.145.251.323.475.462.726.257.442.488.9.733,1.32l.356.66.548.944c.046.092.132.185.119.264a13.24,13.24,0,0,0-1.32.891c-.429.356-.838.759-1.254,1.049-.119.079-.343-.066-.449-.363a1,1,0,0,1,.185-.983,10.663,10.663,0,0,1,.832-.733l.218-.165c.046-.033,0,0,.033,0h.053v-.106l-.086-.158-.165-.323c-.323-.66-.8-1.208-1.175-1.822l-1.241-2.046-.772-1.254-.29-.475-.145-.238-.092-.152a1.848,1.848,0,0,0-.165-.271c-.079-.04-.2.04-.3.059a5.233,5.233,0,0,0-.66.3c-.251.125-.475.271-.7.409l-.277.191c-.343.218-.462.132-.812-.139l-.218-.145a.475.475,0,0,1-.185-.383.706.706,0,0,1,.211-.541,5.28,5.28,0,0,1,1.472-.95l.389-.165h.1l.172-.053c.119-.033.231-.066.363-.092l.739-.172.185-.04c.059,0,.086.079.132.112l.238.284a7.548,7.548,0,0,1,.66.931l.317.515.62,1.023Z" transform="translate(-120.749 -211.5)" fill="#231f20"/>
    </g>
    <g id="Group_37602" data-name="Group 37602" transform="translate(311.495 250.77)" opacity="0.6">
      <path id="Path_99936" data-name="Path 99936" d="M446.809,352.211a12.687,12.687,0,0,1,.224-1.379c.066-.3.172-.581.251-.865l.132-.416c0-.066,0-.158.079-.191l.218.033c.211.04.416.059.62.079a4.345,4.345,0,0,1,.66.145l.29.079.238.073.323.112.66.224,1.32.436a9.233,9.233,0,0,0,1.175.284,4.771,4.771,0,0,1,1.478.442c.145.086.059.37-.139.66a1.069,1.069,0,0,1-.8.515,5.2,5.2,0,0,1-.785-.086c-.257-.04-.508-.106-.766-.172a8.349,8.349,0,0,1-1.5-.508,5.473,5.473,0,0,0-.917-.284l-.238-.046-.185-.046-.158-.073-.191-.073c-.046,0-.046,0-.059.04l-.04.086a.966.966,0,0,0-.073.2l-.033.125v.231a9.662,9.662,0,0,0-.086,1.247,13.781,13.781,0,0,0,.086,1.947,15.241,15.241,0,0,0,.356,1.492,2.789,2.789,0,0,1,.086.337c.066.422-.046.574-.488.66a2.519,2.519,0,0,1-.3.073.66.66,0,0,1-.759-.376,9.062,9.062,0,0,1-.62-2.752,16.957,16.957,0,0,1-.033-2.251Z" transform="translate(-446.806 -349.36)" fill="#231f20"/>
    </g>
    <g id="Group_37603" data-name="Group 37603" transform="translate(320.841 256.668)" opacity="0.6">
      <path id="Path_99937" data-name="Path 99937" d="M467.846,363.143l.066.508v.125l.033.218.086.455.079.449v1.036h-.158a9.548,9.548,0,0,1-1.208.244,5.276,5.276,0,0,1-.561,0,3.559,3.559,0,0,1-.508,0,3.374,3.374,0,0,1-.66-.1c-.455-.079-.9-.172-1.32-.271s-.785-.145-1.181-.211a2.924,2.924,0,0,1-1.5-.5c-.145-.119.053-.442.31-.739s.561-.581.8-.528l1.353.264c.455.112.917.238,1.386.383a2.725,2.725,0,0,0,.858.119h.356a.719.719,0,0,0,.2,0c.033,0,0-.092,0-.152v-.191l-.066-.337L466,362.681c-.119-.62-.218-1.254-.383-1.861a11.991,11.991,0,0,0-.541-1.366,1.619,1.619,0,0,1-.112-.3.488.488,0,0,1,.046-.449.936.936,0,0,1,.389-.277c.079,0,.158-.079.231-.106a.818.818,0,0,1,.825.244A7.115,7.115,0,0,1,467.5,361.1c.152.66.251,1.32.376,2.02Z" transform="translate(-460.965 -358.296)" fill="#231f20"/>
    </g>
    <g id="Group_37604" data-name="Group 37604" transform="translate(310.87 250.318)" opacity="0.6">
      <path id="Path_99938" data-name="Path 99938" d="M456.855,354.829l-2.488,2.145c-.3.271-.581.561-.891.825a34.2,34.2,0,0,1-3.491,2.541c-.541.337-1.069.706-1.61,1.043-.35.2-.66.442-1.049.66a4.437,4.437,0,0,1-1.162.416c-.251.059-.343-.251-.29-.66a1.465,1.465,0,0,1,.62-1.1c1.36-.739,2.64-1.564,4.019-2.422a16.786,16.786,0,0,0,2.244-1.9l2.435-2.211,1.531-1.366c.785-.66,1.617-1.32,2.429-1.98.323-.244.62-.521.924-.785l.937-.772a5.216,5.216,0,0,1,.429-.323c.568-.356.812-.356,1.155,0a2.636,2.636,0,0,1,.231.244.746.746,0,0,1-.2,1.016c-1.03.911-2.158,1.723-3.3,2.64q-1.247.983-2.475,2.072Z" transform="translate(-445.858 -348.675)" fill="#231f20"/>
    </g>
    <path id="Path_99939" data-name="Path 99939" d="M418.228,247.923c1.485,2.2,1.934,4.851,3.056,7.26.495,1.049,2.066.132,1.564-.917-1.129-2.389-1.558-5.009-3.056-7.227-.66-.964-2.224-.053-1.564.917Z" transform="translate(-125.539 -63.66)" fill="#231f20"/>
    <path id="Path_99940" data-name="Path 99940" d="M416.29,254.772a11.246,11.246,0,0,1,6.3-3.069c1.155-.1,1.168-1.914,0-1.815a13.3,13.3,0,0,0-7.59,3.6c-.865.785.422,2.066,1.32,1.32Z" transform="translate(-124.4 -64.767)" fill="#231f20"/>
    <path id="Path_99941" data-name="Path 99941" d="M94.855,376.979c-1.5,2.211-1.934,4.838-3.056,7.22-.5,1.049,1.063,1.98,1.564.917,1.122-2.376,1.571-5.022,3.056-7.227C97.079,376.926,95.5,376.015,94.855,376.979Z" transform="translate(-14.571 -107.841)" fill="#231f20"/>
    <path id="Path_99942" data-name="Path 99942" d="M97.64,383.472a13.279,13.279,0,0,0-7.59-3.6c-1.168-.1-1.162,1.716,0,1.815a11.269,11.269,0,0,1,6.3,3.069c.865.785,2.152-.495,1.32-1.28Z" transform="translate(-13.712 -108.962)" fill="#231f20"/>
    <path id="Path_99943" data-name="Path 99943" d="M99.867,431.8c.917.046,1.848.073,2.779.059.337,0,.66-.092,1.01-.092a34.311,34.311,0,0,0,3.59-.165,8.045,8.045,0,0,0,1.544-.337,6.079,6.079,0,0,1,1.822-.528c.185,0,.462.521.528,1.122s-.152,1.32-.568,1.426a11.776,11.776,0,0,1-4.429.554,23.817,23.817,0,0,0-2.64.2c-.97.053-1.98.053-2.917.04-.6,0-1.2-.04-1.8-.053-.9-.033-1.815-.125-2.726-.165-.706-.04-1.412.053-2.158,0a3.951,3.951,0,0,1-.488,0c-.62-.145-.772-.356-.66-.97a3.888,3.888,0,0,1,.073-.416,1.03,1.03,0,0,1,.838-.8,24.517,24.517,0,0,1,3.478,0l1.366.059h1.379Z" transform="translate(-14.917 -126.26)" fill="#231f20"/>
    <path id="Path_99944" data-name="Path 99944" d="M433.78,435.44c-.838.046-1.709.125-2.594.218-.317.033-.66.132-.964.152a23.5,23.5,0,0,1-3.544,0c-.528,0-1.069-.066-1.61-.059-.35-.04-.706-.053-1.056-.106a2.562,2.562,0,0,1-.983-.449c-.185-.139.079-.66.436-1.129s.772-.924,1.043-.845c1.016.211,2.125.3,3.386.495a8.682,8.682,0,0,0,2.31-.2l2.64-.3c.554-.059,1.109-.106,1.67-.145.845-.073,1.716-.04,2.581-.053h1.023a7.107,7.107,0,0,1,1.056.046,1.561,1.561,0,0,1,.462.066c.568.172.7.383.561.983a3.992,3.992,0,0,1-.106.4,1.03,1.03,0,0,1-.838.759c-1.043.119-1.947.046-3.016.079a19.751,19.751,0,0,0-2.442.158Z" transform="translate(-127.205 -127.033)" fill="#231f20"/>
  </g>
</svg>
