<svg xmlns="http://www.w3.org/2000/svg" width="19.586" height="17.5" viewBox="0 0 19.586 17.5">
  <g id="email-2_1" data-name="email-2 1" transform="translate(-5.234 -3.149)">
    <path id="Path_28623" data-name="Path 28623" d="M24.819,11.777a1.132,1.132,0,0,0-1.674-.936l-.494.26-6.022,3.185h-.007l-.594.322a2.091,2.091,0,0,1-1.988,0l-1.034-.556L7.76,11.227a.991.991,0,0,1-.119-.063l-.007-.007-.712-.382a1.141,1.141,0,0,0-1.686.927c0,.03,0,.061,0,.092V18.55a2.105,2.105,0,0,0,2.1,2.1H22.72a2.1,2.1,0,0,0,2.1-2.1V11.777Z" fill="#fff"/>
    <path id="Path_28624" data-name="Path 28624" d="M20.623,3.15H9.431a2.105,2.105,0,0,0-2.1,2.1v4.2L8,9.807a1.938,1.938,0,0,1,.329.14l.4.217,4.274,2.3,1.693.91a.7.7,0,0,0,.665,0l.741-.4,5.218-2.814.406-.217a1.706,1.706,0,0,1,.308-.133l.685-.364v-4.2a2.1,2.1,0,0,0-2.1-2.1Zm-2.8,7h-5.6a.7.7,0,0,1,0-1.4h5.6a.7.7,0,0,1,0,1.4Zm1.4-2.8H10.83a.7.7,0,0,1,0-1.4h8.393a.7.7,0,0,1,0,1.4Z" fill="#fff"/>
  </g>
</svg>
