<svg width="400" height="314" viewBox="0 0 400 314" fill="none" xmlns="http://www.w3.org/2000/svg">
<path d="M197.882 108.669C198.246 108.911 198.608 108.911 199.093 108.79C199.577 108.669 200.181 108.547 200.788 108.669C201.271 108.79 201.634 109.033 201.755 109.396C201.755 109.518 201.755 109.639 201.755 110.003C201.634 110.367 201.514 110.852 201.271 111.337C201.15 111.579 201.029 111.701 200.908 111.943C200.788 112.186 200.666 112.307 200.545 112.55L200.424 112.792L200.303 112.914L200.181 112.792C200.06 112.55 199.819 112.428 199.698 112.186C199.455 111.822 199.214 111.579 199.093 111.337C198.729 110.852 198.608 110.367 198.608 109.882C198.246 109.396 198.246 108.911 197.882 108.669C197.641 108.426 197.156 108.426 196.551 108.911C195.946 109.396 195.341 110.609 195.582 111.943C195.582 112.671 195.825 113.399 196.188 114.126C196.43 114.49 196.551 114.733 196.672 115.097L196.793 115.339L197.036 115.703C197.156 115.946 197.398 116.188 197.641 116.431C198.488 117.401 199.698 118.008 201.029 117.765C201.634 117.644 202.24 117.401 202.845 116.916C203.086 116.673 203.45 116.431 203.692 116.188L204.055 115.824L204.297 115.582C204.538 115.339 204.781 114.975 205.023 114.612C205.266 114.248 205.386 113.884 205.628 113.52C206.112 112.55 206.354 111.579 206.475 110.488C206.597 109.396 206.233 108.062 205.628 107.092C204.297 105.152 201.876 104.788 200.545 105.273C199.093 105.758 198.488 106.607 198.124 107.213C197.519 107.941 197.641 108.426 197.882 108.669Z" fill="#1B1B1B"/>
<path d="M124.418 136.563C124.781 136.806 125.144 136.806 125.628 136.685C126.112 136.563 126.717 136.442 127.322 136.563C127.806 136.685 128.17 136.927 128.291 137.291C128.291 137.412 128.291 137.533 128.291 137.897C128.17 138.261 128.048 138.746 127.806 139.231C127.685 139.474 127.564 139.596 127.443 139.838C127.322 140.08 127.201 140.201 127.08 140.444L126.959 140.687L126.838 140.808L126.717 140.687C126.596 140.444 126.354 140.323 126.233 140.08C125.991 139.717 125.749 139.474 125.628 139.231C125.265 138.746 125.144 138.261 125.144 137.776C124.781 137.291 124.66 136.806 124.418 136.563C124.176 136.321 123.691 136.321 123.086 136.806C122.481 137.291 121.876 138.504 122.118 139.838C122.118 140.565 122.36 141.294 122.723 142.021C122.965 142.385 123.086 142.627 123.207 142.991L123.328 143.234L123.57 143.598C123.691 143.841 123.933 144.082 124.176 144.325C125.023 145.295 126.233 145.902 127.564 145.659C128.17 145.538 128.775 145.295 129.38 144.811C129.622 144.568 129.985 144.325 130.227 144.082L130.59 143.719L130.832 143.477C131.074 143.234 131.316 142.87 131.558 142.507C131.8 142.142 131.921 141.778 132.163 141.414C132.648 140.444 132.89 139.474 133.011 138.383C133.132 137.291 132.769 135.957 132.163 134.987C130.832 133.046 128.412 132.682 127.08 133.167C125.628 133.652 125.023 134.501 124.66 135.108C124.055 135.835 124.055 136.321 124.418 136.563Z" fill="#A8A8A8"/>
<path d="M262.148 110.609C262.512 110.852 262.874 110.852 263.359 110.73C263.843 110.609 264.448 110.488 265.052 110.609C265.537 110.73 265.9 110.973 266.021 111.337C266.021 111.458 266.021 111.579 266.021 111.943C265.9 112.307 265.779 112.792 265.537 113.277C265.416 113.52 265.295 113.641 265.174 113.884C265.052 114.126 264.933 114.248 264.811 114.49L264.69 114.733L264.569 114.854L264.448 114.733C264.326 114.49 264.085 114.369 263.964 114.126C263.721 113.762 263.48 113.52 263.359 113.277C262.995 112.792 262.874 112.307 262.874 111.822C262.512 111.337 262.39 110.852 262.148 110.609C261.907 110.367 261.422 110.367 260.817 110.852C260.212 111.337 259.607 112.55 259.848 113.884C259.848 114.611 260.091 115.339 260.455 116.067C260.696 116.431 260.817 116.673 260.938 117.037L261.059 117.28L261.301 117.643C261.422 117.886 261.664 118.129 261.907 118.371C262.754 119.341 263.964 119.948 265.295 119.705C265.9 119.584 266.506 119.341 267.111 118.856C267.352 118.614 267.716 118.371 267.958 118.129L268.321 117.765L268.563 117.522C268.804 117.28 269.047 116.916 269.289 116.552C269.53 116.188 269.652 115.824 269.894 115.46C270.378 114.49 270.62 113.52 270.742 112.428C270.863 111.337 270.499 110.003 269.894 109.032C268.563 107.092 266.142 106.728 264.811 107.213C263.359 107.698 262.754 108.547 262.39 109.154C261.786 109.881 261.786 110.367 262.148 110.609Z" fill="#A8A8A8"/>
<path d="M313.222 82.3503C312.134 81.2587 309.713 82.7142 307.049 85.2611C306.929 85.3823 306.808 85.5036 306.687 85.6249C306.566 85.7463 306.444 85.8676 306.323 85.9888C303.904 88.657 302.33 90.9613 303.419 92.1742C304.387 93.1444 306.929 91.8104 309.591 89.2634C309.713 89.1421 309.834 89.0208 309.954 88.8995C310.075 88.7783 310.196 88.657 310.318 88.5357C312.738 85.8676 314.191 83.3205 313.222 82.3503Z" fill="#A8A8A8"/>
<path d="M169.199 144.325C167.747 143.719 166.899 144.082 166.294 145.053V145.175C166.294 145.175 166.294 145.295 166.173 145.295C165.809 146.266 166.173 147.236 167.626 147.843C168.957 148.449 169.925 147.963 170.53 147.115V146.993C170.53 146.993 170.53 146.872 170.651 146.872C170.892 145.902 170.53 144.932 169.199 144.325Z" fill="#A8A8A8"/>
<path d="M90.893 132.561C89.8038 133.652 89.8038 134.623 90.409 135.35L90.5299 135.472L90.651 135.593C91.3772 136.199 92.3454 136.199 93.4346 135.108C94.4028 134.138 94.5239 133.046 93.9188 132.318L93.7977 132.197L93.6767 132.076C93.0715 131.469 91.9823 131.469 90.893 132.561Z" fill="#A8A8A8"/>
<path d="M104.932 13.2194C104.206 13.2194 103.6 13.8258 103.358 14.796C103.116 15.7662 103.237 17.1004 103.721 18.5558L103.843 18.9196L103.964 19.2834C104.569 20.6176 105.537 21.7091 106.384 22.3156C107.231 22.9219 107.958 22.9219 108.563 22.4368C109.652 21.4665 109.047 19.6473 108.199 17.4642L108.078 17.1004V16.9791C107.231 14.9173 106.384 13.0981 104.932 13.2194Z" fill="#A8A8A8"/>
<path d="M188.321 35.2927C187.232 34.2013 185.78 34.6864 184.569 35.7778C184.569 35.7778 184.448 35.8991 184.448 36.0205C184.326 36.0205 184.326 36.1418 184.206 36.1418C183.117 37.4758 182.633 38.8099 183.721 39.9015C184.69 40.8717 186.142 40.5079 187.473 39.4163C187.473 39.295 187.595 39.295 187.595 39.1738C187.716 39.1738 187.716 39.0525 187.837 39.0525C188.926 37.7183 189.289 36.2631 188.321 35.2927Z" fill="#A8A8A8"/>
<path d="M332.587 139.232C331.499 138.14 330.166 138.504 329.078 139.474L328.957 139.596L328.835 139.717C327.867 140.808 327.504 142.142 328.593 143.234C329.561 144.204 331.014 143.962 332.104 142.991L332.225 142.87L332.345 142.748C333.313 141.535 333.677 140.201 332.587 139.232Z" fill="#A8A8A8"/>
<path d="M236.491 34.6865C235.401 33.595 234.796 33.2312 234.553 33.2312C234.432 33.4737 234.796 33.9588 236.006 35.1717C236.974 36.1419 237.7 36.627 237.943 36.627C237.943 36.3845 237.579 35.7781 236.491 34.6865Z" fill="#A8A8A8"/>
<path d="M256.46 0.484879C255.37 -0.606662 253.192 0.606162 251.013 2.66796C250.892 2.78925 250.772 2.91052 250.651 3.03181C250.53 3.15309 250.408 3.27437 250.287 3.39566C248.23 5.57874 247.02 7.64054 248.109 8.85336C249.077 9.82362 251.256 8.73208 253.555 6.67028C253.677 6.549 253.798 6.42772 253.918 6.30643C254.039 6.18515 254.16 6.06387 254.281 5.94259C256.339 3.63822 257.55 1.45514 256.46 0.484879Z" fill="#A8A8A8"/>
<path d="M162.542 58.7006C162.3 58.3368 159.879 59.6709 155.886 62.4604C153.827 63.9158 151.408 65.7351 148.744 68.1607C146.082 70.5863 143.297 73.6184 140.757 77.4994C138.215 81.3805 136.399 86.5955 136.52 92.2958C136.641 97.9961 138.82 103.939 142.935 108.912C144.992 111.337 147.534 113.642 150.439 115.34C153.343 117.037 156.853 118.25 160.484 118.371C164.116 118.493 168.109 117.523 171.256 115.34C174.403 113.156 176.943 110.003 178.396 106.243C179.486 103.211 179.848 99.9366 179.243 96.7834C178.881 95.2067 178.276 93.5087 177.186 92.0533C176.096 90.5978 174.403 89.5064 172.829 88.9C168.835 87.5659 164.599 87.9297 161.09 89.3851C157.579 90.8404 154.553 93.2661 152.375 96.0556C151.286 97.3897 150.196 98.9664 149.47 100.543C148.744 102.12 148.139 103.696 147.656 105.273C146.687 108.548 146.323 111.701 146.202 114.854C146.082 121.04 146.93 126.74 147.776 131.955C148.744 137.17 149.834 142.021 151.165 146.267C153.706 154.877 156.612 161.427 158.91 165.915C161.21 170.28 162.783 172.464 163.147 172.343C163.509 172.221 162.421 169.674 160.726 165.065C159.031 160.578 156.491 153.907 154.432 145.418C153.343 141.173 152.375 136.443 151.649 131.349C150.923 126.255 150.318 120.676 150.56 114.976C150.68 112.186 151.044 109.275 151.891 106.486C152.739 103.696 153.948 101.028 155.886 98.8452C157.7 96.5407 160.121 94.7214 162.904 93.63C165.568 92.5384 168.714 92.2958 171.256 93.2662C172.224 93.63 173.072 94.1151 173.555 94.8428C174.16 95.5705 174.524 96.5407 174.765 97.6323C175.25 99.8154 175.008 102.241 174.16 104.545C173.072 107.335 171.134 109.882 168.835 111.458C166.414 113.156 163.631 113.884 160.847 113.763C158.064 113.642 155.279 112.793 152.739 111.458C150.318 110.124 148.139 108.184 146.323 106.122C142.814 101.998 140.878 96.7834 140.514 92.0533C140.272 87.202 141.724 82.8358 143.783 79.1974C145.84 75.5589 148.382 72.5268 150.801 70.1012C153.222 67.6756 155.401 65.6138 157.217 64.0371C160.726 60.7624 162.783 58.9432 162.542 58.7006Z" fill="#1B1B1B"/>
<path d="M372.406 235.409C372.406 235.409 389.35 228.617 398.911 235.893C408.473 243.171 353.042 261.483 322.784 262.939C355.704 252.873 369.623 247.173 369.623 247.173L372.406 235.409Z" fill="#1B1B1B"/>
<path d="M300.272 189.928C292.648 168.945 290.228 173.433 284.538 171.249C274.977 167.49 259.002 164.701 259.002 164.701V138.383L370.106 172.221L300.272 189.928Z" fill="#E2E2E2"/>
<path d="M183.116 200.964L178.155 202.662L179.607 143.234L287.08 171.371L183.116 200.964Z" fill="#E2E2E2"/>
<path d="M183.117 200.964C183.6 202.541 204.538 197.204 231.649 189.563C232.98 189.201 234.313 188.836 235.644 188.351C236.975 187.986 238.306 187.624 239.637 187.259C266.747 179.497 287.323 172.948 286.959 171.371C286.597 170.037 265.538 175.131 238.427 182.771C237.096 183.135 235.765 183.5 234.432 183.985C233.101 184.348 231.77 184.712 230.439 185.077C203.329 192.96 182.633 199.63 183.117 200.964Z" fill="#1B1B1B"/>
<path d="M286.959 200.964C286.233 200.964 285.75 208.484 285.386 221.219C285.266 227.525 285.145 235.166 285.023 243.776C285.023 251.781 284.902 260.756 284.902 270.338C282.481 270.944 280.06 271.672 277.52 272.399C275.341 273.006 273.163 273.612 270.984 274.219C268.806 274.825 266.626 275.432 264.448 276.038C242.543 282.224 223.298 287.681 209.502 291.926C195.704 296.171 187.474 299.081 187.716 299.809C187.959 300.537 196.43 298.718 210.47 295.2C224.509 291.683 243.874 286.589 265.78 280.526C267.959 279.919 270.137 279.313 272.315 278.706C274.494 278.1 276.672 277.493 278.851 276.887C282.481 275.916 286.112 274.825 289.623 273.855C289.623 268.154 289.502 262.576 289.502 257.361C289.38 252.63 289.38 248.143 289.259 243.776C289.138 235.166 288.897 227.647 288.654 221.219C288.17 208.484 287.564 200.964 286.959 200.964Z" fill="#1B1B1B"/>
<path d="M180.333 302.478C180.574 301.749 171.739 298.718 156.974 294.351C142.209 289.985 121.513 284.164 98.1543 277.736C95.7337 277.129 93.4342 276.523 91.1347 275.795C88.8352 275.189 86.5355 274.582 84.115 273.855C80.2421 272.885 76.6112 271.794 72.9804 270.822C72.7383 260.999 72.4962 251.781 72.3752 243.534C72.1331 234.802 71.8911 227.04 71.528 220.49C70.9228 207.513 70.3177 199.872 69.5915 199.872C68.9864 199.872 68.5023 207.513 68.3812 220.49C68.2603 226.918 68.2603 234.68 68.2603 243.534C68.2603 247.9 68.2603 252.63 68.2603 257.482C68.2603 262.939 68.3812 268.518 68.3812 274.341C73.1014 275.675 77.8215 277.007 82.7837 278.342C85.2042 278.949 87.5037 279.556 89.8034 280.283C92.1029 280.889 94.4024 281.496 96.823 282.223C120.303 288.531 140.998 293.987 156.006 297.627C171.013 301.265 180.091 303.205 180.333 302.478Z" fill="#1B1B1B"/>
<path d="M69.5916 173.555C69.3495 174.282 79.516 177.558 96.3389 182.53C113.162 187.381 136.763 193.93 163.388 201.207C166.052 201.935 168.714 202.662 171.377 203.391L174.403 204.239L175.734 204.603V204.725C176.218 232.376 176.703 256.875 177.429 274.462C178.034 292.048 178.76 302.599 179.607 302.599C180.333 302.599 180.696 291.926 180.817 274.341C180.938 256.754 180.817 232.255 180.454 204.603V200.964L172.587 198.903C169.925 198.175 167.261 197.447 164.599 196.72C137.852 189.563 114.251 183.5 97.1862 179.376C80.1211 175.252 69.7126 172.827 69.5916 173.555Z" fill="#1B1B1B"/>
<path d="M281.997 170.522C282.24 169.795 272.194 166.641 255.613 162.033C239.031 157.424 215.794 151.36 189.532 144.568C186.747 143.841 183.964 143.112 181.302 142.507L180.938 142.385L172.708 144.568C146.445 151.481 123.328 157.788 106.747 162.518C90.1665 167.248 80.2422 170.401 80.4843 171.25C80.7263 171.978 90.8927 169.795 107.595 165.793C124.297 161.79 147.535 155.847 173.798 149.056L180.938 147.236C183.359 147.843 185.9 148.449 188.321 149.177C214.584 155.847 237.943 161.548 254.644 165.307C271.589 169.188 281.876 171.25 281.997 170.522Z" fill="#1B1B1B"/>
<path d="M309.954 187.745C310.075 188.351 316.006 187.259 326.294 184.955C336.581 182.651 351.104 179.012 368.532 174.646L368.775 174.525C368.896 174.525 368.896 174.525 368.896 174.525V175.011C368.896 176.708 368.896 178.285 368.896 179.983C368.896 183.378 368.896 186.774 368.896 190.292C368.896 197.326 368.896 204.725 368.775 212.244C368.775 215.155 368.775 218.065 368.775 220.855C368.775 223.766 368.775 226.555 368.775 229.465C368.775 233.105 368.775 236.622 368.775 240.138V241.473C368.775 241.837 368.775 242.08 368.654 242.442C368.532 243.049 368.411 243.655 368.17 244.262C367.685 245.475 366.838 246.445 365.749 247.052C365.507 247.173 365.264 247.416 364.902 247.536L364.781 247.658C364.781 247.658 364.781 247.658 364.659 247.658L364.054 247.779C363.207 248.022 362.481 248.265 361.633 248.508C360.06 248.992 358.488 249.356 356.914 249.842C353.767 250.69 350.742 251.539 347.837 252.389C335.976 255.784 325.447 258.695 316.732 261.363C299.183 266.579 288.654 269.974 288.775 270.822C289.016 271.551 299.788 269.125 317.579 264.637C326.414 262.455 337.065 259.665 348.925 256.512C351.951 255.784 354.977 254.935 358.003 254.086C359.576 253.723 361.15 253.237 362.723 252.873C363.571 252.631 364.297 252.389 365.144 252.267L365.749 252.146C365.749 252.146 366.112 252.024 366.233 252.024L366.597 251.903C367.08 251.66 367.564 251.417 368.049 251.176C369.863 250.083 371.316 248.386 372.284 246.445C372.768 245.475 373.01 244.384 373.253 243.292C373.374 242.807 373.374 242.201 373.374 241.715V240.381C373.374 236.864 373.374 233.346 373.374 229.708C373.374 226.798 373.374 223.887 373.374 221.097C373.374 218.186 373.374 215.397 373.374 212.487C373.374 204.845 373.374 197.568 373.253 190.535C373.253 187.017 373.253 183.5 373.132 180.226C373.132 178.527 373.132 176.829 373.132 175.252C373.132 175.011 373.132 173.918 372.889 173.312C372.648 172.584 372.163 171.978 371.558 171.492C370.348 170.522 368.654 170.28 367.201 170.887L367.444 170.765C350.137 175.495 335.734 179.497 325.568 182.53C315.401 185.561 309.834 187.259 309.954 187.745Z" fill="#1B1B1B"/>
<path d="M363.933 170.28C364.418 168.703 335.734 159.606 298.336 148.327C296.4 147.722 294.584 147.236 292.768 146.629C290.954 146.023 289.016 145.538 287.202 144.932C282.24 143.476 277.52 142.142 272.92 140.808C268.078 139.474 263.6 138.14 259.244 136.927C256.098 137.897 253.192 138.868 250.287 139.717C247.625 140.565 245.083 141.414 242.784 142.142C238.064 143.719 233.949 145.053 230.561 146.266C223.783 148.57 220.031 150.269 220.152 150.753C220.272 151.239 224.388 150.51 231.287 148.813C234.796 147.963 238.91 146.872 243.752 145.659C248.352 144.446 253.556 142.991 259.244 141.414C263.117 142.628 267.352 143.962 271.71 145.295C276.308 146.629 281.029 148.085 285.871 149.54C287.807 150.147 289.623 150.632 291.437 151.239C293.253 151.844 295.189 152.33 297.005 152.937C334.524 163.852 363.571 171.614 363.933 170.28Z" fill="#1B1B1B"/>
<path d="M179.002 197.811C180.576 197.811 181.302 186.895 181.664 172.705C181.664 171.978 181.664 171.249 181.664 170.522C181.664 169.794 181.664 169.067 181.664 168.34C181.664 154.15 181.181 143.234 179.607 143.112C178.155 143.112 177.307 154.028 177.065 168.218C177.065 168.945 177.065 169.674 177.065 170.401C177.065 171.128 177.065 171.857 177.065 172.584C176.944 186.895 177.55 197.811 179.002 197.811Z" fill="#1B1B1B"/>
<path d="M259.122 164.7C260.696 164.7 261.302 159.606 261.422 152.936C261.422 152.573 261.422 152.33 261.422 151.966C261.422 151.602 261.422 151.36 261.422 150.996C261.302 144.325 260.696 139.231 259.122 139.231C257.67 139.231 256.944 144.325 256.824 150.996C256.824 151.36 256.824 151.602 256.824 151.966C256.824 152.33 256.824 152.573 256.824 152.936C256.944 159.606 257.67 164.7 259.122 164.7Z" fill="#1B1B1B"/>
<path d="M180.938 203.269C180.938 203.511 181.543 203.753 182.633 204.239C183.722 204.723 185.295 205.695 186.99 207.15C188.685 208.726 190.378 210.91 191.711 213.82C192.437 215.275 192.92 216.974 193.525 218.793C193.768 219.642 194.01 220.612 194.251 221.582C194.615 223.159 195.099 224.857 195.463 226.555C202.24 224.614 210.106 222.31 218.579 219.885C226.445 217.579 234.918 215.032 243.874 212.365C245.931 211.758 247.988 211.151 250.047 210.546C252.104 209.939 254.161 209.333 256.218 208.726C266.506 205.573 276.309 202.541 285.023 199.751C289.38 198.417 293.495 197.083 297.368 195.749C298.336 195.386 299.305 195.143 300.152 194.779C300.998 194.536 301.725 194.294 302.572 194.052C302.936 193.93 303.419 193.809 303.783 193.687L304.024 193.566C304.145 193.566 304.145 193.566 304.024 193.444V193.323L303.904 192.717C303.662 191.867 303.419 191.14 303.298 190.292C303.178 189.806 302.936 189.199 302.814 188.715C302.572 187.865 302.331 187.017 301.967 186.168C300.757 182.771 299.426 179.862 297.61 177.556C295.915 175.252 293.858 173.675 292.164 172.705C290.349 171.735 288.897 171.371 287.807 171.25C286.718 171.128 286.233 171.25 286.233 171.492C286.112 171.978 288.29 172.221 291.075 174.403C292.527 175.495 293.98 177.072 295.432 179.254C296.763 181.437 297.973 184.105 298.82 187.381C299.063 188.229 299.305 188.958 299.426 189.928L299.546 190.533L299.667 190.776V190.898V191.262C299.789 191.383 299.546 191.383 299.426 191.383H299.305H299.184C299.184 191.383 299.184 191.383 299.063 191.383C298.094 191.626 297.127 191.867 296.158 192.232C292.285 193.323 288.049 194.536 283.692 195.87C274.856 198.417 265.053 201.328 254.766 204.482C252.709 205.088 250.651 205.695 248.594 206.422C246.536 207.029 244.479 207.634 242.421 208.242C233.465 211.031 224.993 213.698 217.246 216.004C213.375 217.216 209.623 218.429 206.112 219.52C204.297 220.127 202.603 220.612 201.029 221.219C200.182 221.46 199.334 221.703 198.608 222.067C198.367 222.189 198.246 222.189 198.003 222.31L197.882 221.946C197.761 221.824 197.761 221.703 197.641 221.097C197.398 220.127 197.035 219.156 196.672 218.186C195.946 216.246 195.22 214.548 194.373 212.971C192.678 209.819 190.499 207.392 188.442 205.937C186.385 204.36 184.448 203.753 183.117 203.511C181.665 202.905 181.06 203.148 180.938 203.269Z" fill="#1B1B1B"/>
<path d="M176.218 203.996C176.218 203.753 175.492 203.632 174.161 203.875C172.829 204.118 170.892 204.725 168.835 206.3C166.778 207.756 164.478 210.181 162.784 213.335C161.936 214.912 161.21 216.731 160.484 218.551C160.121 219.52 159.879 220.49 159.517 221.462L159.274 222.189L159.153 222.31L159.032 222.553L158.79 222.432H158.669C158.669 222.432 158.669 222.432 158.548 222.432C157.701 222.189 156.853 221.946 156.127 221.703C154.432 221.219 152.739 220.733 150.923 220.128C147.413 219.036 143.54 218.065 139.667 216.852C131.801 214.67 123.207 212.244 114.251 209.697C112.194 209.09 110.136 208.606 107.958 207.999C105.9 207.393 103.843 206.907 101.785 206.3C91.377 203.391 81.5736 200.722 72.6175 198.417C68.1395 197.204 63.9034 196.113 60.0305 195.143C59.0623 194.9 58.094 194.657 57.1258 194.416C57.0048 194.416 57.0048 194.416 57.0048 194.416H56.8837H56.7627C56.6418 194.416 56.5206 194.416 56.5206 194.294C56.3997 194.536 57.0048 191.989 57.4889 190.535C58.4571 187.381 59.5464 184.591 60.8777 182.408C62.209 180.226 63.7824 178.649 65.1137 177.558C67.8974 175.373 70.0759 175.011 69.9549 174.525C69.9549 174.404 69.3498 174.282 68.3816 174.404C67.2922 174.525 65.84 174.889 64.0245 175.859C62.3301 176.829 60.2726 178.406 58.5782 180.71C56.7627 183.014 55.4314 185.925 54.2211 189.322C53.616 191.14 53.2529 192.11 52.2847 195.991L52.1636 196.598V196.72C52.1636 196.72 52.2847 196.72 52.2847 196.841L52.5268 196.963C52.8898 197.083 53.3739 197.204 53.737 197.326C54.5842 197.568 55.3103 197.811 56.1576 198.054C57.1258 198.297 58.094 198.66 59.0622 198.903C62.9351 199.994 67.1712 201.328 71.5282 202.541C80.3633 205.088 90.1666 207.877 100.575 210.788C102.633 211.394 104.69 211.88 106.748 212.487C108.805 213.093 110.863 213.578 112.92 214.184C121.997 216.609 130.59 218.915 138.457 221.097C147.05 223.28 154.917 225.343 161.695 227.161C162.057 225.464 162.542 223.887 162.905 222.31C163.147 221.34 163.388 220.369 163.631 219.52C164.116 217.702 164.721 216.004 165.447 214.548C166.778 211.516 168.473 209.333 170.166 207.756C171.861 206.179 173.434 205.33 174.524 204.845C175.613 204.482 176.339 204.239 176.218 203.996Z" fill="#1B1B1B"/>
<path d="M6.17275 305.146C5.80965 303.569 4.47833 303.326 2.78394 303.569C2.6629 303.569 2.6629 303.569 2.54187 303.691C2.42086 303.691 2.42086 303.691 2.29982 303.691C0.726447 304.175 -0.362811 305.146 0.000274457 306.602C0.36336 308.056 1.69468 308.42 3.38908 308.177C3.51011 308.177 3.51011 308.177 3.63114 308.056C3.75216 308.056 3.75216 308.056 3.87319 308.056C5.44657 307.572 6.53583 306.48 6.17275 305.146Z" fill="#1B1B1B"/>
<path d="M91.9821 262.697C92.103 262.212 89.6825 261.242 86.4147 260.392L85.9306 260.272L85.4464 260.15C82.0577 259.543 79.5161 259.543 79.395 260.029C79.395 260.513 81.9366 260.878 85.0834 261.605L85.5676 261.726L86.0516 261.847C89.4405 262.455 91.8609 263.182 91.9821 262.697Z" fill="#1B1B1B"/>
<path d="M104.085 270.822C104.206 270.46 99.8487 268.397 93.7973 266.941C93.4342 266.82 93.1921 266.82 92.829 266.699C92.587 266.577 92.2239 266.579 91.8608 266.457C85.6883 265.123 80.9683 265.002 80.8472 265.486C80.8472 265.972 85.5673 266.457 91.4978 267.911C91.7397 268.033 92.1029 268.033 92.3449 268.154C92.587 268.276 92.95 268.276 93.1921 268.397C99.4856 269.731 103.964 271.308 104.085 270.822Z" fill="#1B1B1B"/>
<path d="M215.068 174.039C215.189 173.555 211.075 171.735 205.386 170.037C205.145 169.915 204.781 169.915 204.538 169.795C204.297 169.674 203.934 169.674 203.692 169.553C197.882 168.097 193.404 167.611 193.283 168.097C193.163 168.583 197.641 169.431 203.329 170.887C203.571 171.008 203.934 171.008 204.176 171.129C204.419 171.249 204.781 171.249 205.023 171.371C210.59 172.948 214.947 174.403 215.068 174.039Z" fill="#1B1B1B"/>
<path d="M198.488 174.889C198.729 174.404 197.882 173.918 196.914 173.312C196.914 173.312 196.793 173.312 196.793 173.191C196.793 173.191 196.672 173.191 196.672 173.069C195.582 172.584 194.615 172.341 194.494 172.705C194.251 173.069 195.098 173.675 196.067 174.282C196.067 174.282 196.188 174.282 196.188 174.404C196.188 174.404 196.308 174.404 196.308 174.525C197.398 175.131 198.245 175.252 198.488 174.889Z" fill="#1B1B1B"/>
<path d="M323.147 224.128C323.51 224.371 325.205 221.582 327.021 217.701C327.14 217.459 327.14 217.338 327.262 217.095C327.383 216.852 327.383 216.731 327.504 216.488C329.199 212.607 330.046 209.454 329.683 209.333C329.32 209.211 327.988 212.122 326.294 215.882C326.173 216.125 326.173 216.246 326.052 216.488C325.931 216.731 325.931 216.852 325.809 217.095C323.995 220.976 322.662 223.887 323.147 224.128Z" fill="#1B1B1B"/>
<path d="M327.14 225.705C327.625 225.827 328.109 224.857 328.594 223.401C328.594 223.28 328.594 223.28 328.714 223.158C328.714 223.037 328.714 223.037 328.835 222.916C329.199 221.461 329.32 220.369 328.956 220.249C328.593 220.127 327.988 221.097 327.504 222.553C327.504 222.674 327.504 222.674 327.383 222.796C327.383 222.916 327.383 222.916 327.261 223.037C326.778 224.493 326.657 225.584 327.14 225.705Z" fill="#1B1B1B"/>
<path d="M264.206 82.957C262.512 90.1127 256.822 96.1768 250.892 98.2386C244.842 100.422 238.064 98.3599 235.401 92.2958C231.528 83.4421 237.096 69.8584 249.078 66.5839C260.455 63.4305 266.506 72.8906 264.206 82.957Z" fill="#E2E2E2"/>
<path d="M258.759 63.7944C258.881 63.4306 257.912 62.4603 255.491 61.6114C254.281 61.2475 252.708 61.005 250.892 61.1263C250.408 61.1263 249.924 61.2475 249.439 61.2475C248.956 61.3688 248.472 61.4901 247.987 61.6114C247.504 61.7326 247.02 61.8539 246.414 61.9752C245.93 62.2177 245.446 62.339 244.842 62.5817C243.752 62.9455 242.783 63.5519 241.573 64.1583C241.09 64.5222 240.483 64.886 240 65.2499C239.757 65.4924 239.516 65.6137 239.152 65.8562C238.91 66.0988 238.669 66.3413 238.426 66.584C236.369 68.4033 234.674 70.8289 233.222 73.497C231.891 76.2865 230.922 79.4399 230.68 82.8358C230.439 86.2318 230.801 89.8701 232.617 93.3873C233.343 94.8428 234.312 96.0555 235.522 97.1471C236.731 98.2387 237.943 99.0876 239.395 99.694C243.026 101.271 246.777 101.392 250.166 100.664C253.555 99.9365 256.581 98.2387 258.881 96.2982C263.721 92.4171 266.506 87.4445 267.352 82.9571C268.199 78.4697 267.473 74.7099 266.506 72.5268C265.537 70.2224 264.447 69.3734 264.085 69.4947C263.721 69.7373 264.206 70.9501 264.568 73.1332C264.932 75.3163 265.173 78.4697 264.085 82.2294C262.995 85.8678 260.454 89.9914 256.217 93.0235C254.16 94.4789 251.739 95.813 249.077 96.2982C246.414 96.7833 243.63 96.662 241.09 95.5704C240.121 95.0853 239.152 94.4789 238.426 93.8724C237.7 93.1448 236.974 92.2959 236.49 91.3255C235.158 88.8999 234.796 85.9891 235.038 83.1996C235.159 80.4102 235.885 77.7419 236.974 75.4376C238.064 73.1332 239.395 71.0714 240.968 69.4947C241.21 69.2522 241.331 69.1309 241.573 68.8884L242.178 68.4033C242.542 68.0393 243.026 67.6755 243.389 67.4329C244.235 66.8266 245.083 66.22 245.93 65.8562C246.414 65.6137 246.777 65.3711 247.14 65.2499C247.625 65.1286 247.987 65.0073 248.351 64.7648C249.198 64.4008 249.924 64.1583 250.651 64.037C252.103 63.6732 253.434 63.6732 254.524 63.7944C257.428 63.7944 258.638 64.1583 258.759 63.7944Z" fill="#1B1B1B"/>
<path d="M251.377 74.5884C249.803 74.7097 249.561 78.3482 249.32 82.8356C249.32 83.0781 249.32 83.3207 249.32 83.5632C249.32 83.8058 249.32 84.0484 249.32 84.291C249.32 88.7784 249.32 92.2956 250.892 92.6594C252.346 92.902 253.798 89.3848 254.039 84.4123C254.039 84.1697 254.039 83.9272 254.039 83.6845C254.039 83.4419 254.039 83.1994 254.039 82.9568C253.918 78.1056 252.829 74.4671 251.377 74.5884Z" fill="#1B1B1B"/>
<path d="M259.122 81.7439C258.76 80.1674 255.491 80.2886 251.377 81.1376C251.135 81.1376 251.013 81.2588 250.772 81.2588C250.53 81.2588 250.408 81.3801 250.166 81.3801C246.173 82.4717 243.147 83.8057 243.509 85.3824C243.873 86.8379 247.141 86.8379 251.256 85.9889C251.498 85.9889 251.62 85.8677 251.861 85.8677C252.103 85.8677 252.224 85.7462 252.466 85.7462C256.46 84.6548 259.364 83.1994 259.122 81.7439Z" fill="#1B1B1B"/>
<path d="M139.425 313.514C140.152 314.969 145.719 312.787 152.98 310.118C153.344 309.997 153.706 309.876 154.07 309.754C154.432 309.633 154.796 309.513 155.159 309.391C162.421 306.723 168.109 304.782 167.625 303.205C167.262 301.871 161.089 302.478 153.586 305.025C153.223 305.146 152.86 305.267 152.497 305.389C152.133 305.51 151.77 305.632 151.407 305.752C143.783 308.663 138.699 312.18 139.425 313.514Z" fill="#1B1B1B"/>
<path d="M134.1 311.574C134.705 313.03 140.272 311.21 147.413 308.542C147.776 308.42 148.14 308.3 148.502 308.179C148.866 308.057 149.228 307.936 149.592 307.814C156.611 305.025 161.936 302.599 161.452 301.144C160.969 299.81 155.158 300.901 147.897 303.448C147.535 303.569 147.171 303.691 146.809 303.812C146.445 303.933 146.082 304.055 145.719 304.176C138.578 307.086 133.616 310.24 134.1 311.574Z" fill="#1B1B1B"/>
<path d="M128.775 310.604C129.501 312.06 135.068 309.876 142.331 307.207C142.693 307.086 143.057 306.966 143.419 306.844C143.783 306.723 144.145 306.602 144.509 306.48C151.77 303.812 157.458 301.871 156.975 300.295C156.611 298.961 150.439 299.567 142.936 302.113C142.572 302.235 142.209 302.356 141.846 302.478C141.483 302.599 141.12 302.721 140.757 302.842C133.253 305.752 128.17 309.27 128.775 310.604Z" fill="#1B1B1B"/>
<path d="M123.571 308.663C124.176 310.119 129.743 308.299 136.884 305.63C137.247 305.51 137.61 305.389 137.973 305.268C138.336 305.146 138.699 305.025 139.062 304.903C146.083 302.114 151.408 299.688 150.923 298.233C150.439 296.898 144.63 297.99 137.368 300.537C137.005 300.658 136.642 300.779 136.279 300.901C135.916 301.022 135.553 301.144 135.189 301.265C128.049 304.176 122.966 307.329 123.571 308.663Z" fill="#1B1B1B"/>
<path d="M111.226 312.544C111.952 313.999 119.819 310.361 130.227 306.602C130.711 306.359 131.316 306.237 131.801 305.995C132.285 305.873 132.89 305.63 133.374 305.51C143.783 301.749 152.134 299.688 151.77 298.111C151.528 296.777 142.693 297.505 131.801 301.144C131.316 301.386 130.711 301.508 130.227 301.749C129.743 301.992 129.138 302.114 128.654 302.356C117.882 306.359 110.62 311.331 111.226 312.544Z" fill="#1B1B1B"/>
<path d="M105.053 306.359C105.295 307.936 113.041 307.086 122.966 304.66C123.45 304.539 123.934 304.419 124.418 304.298C124.902 304.176 125.386 304.055 125.87 303.933C135.553 301.265 142.814 298.111 142.209 296.657C141.724 295.323 134.221 297.02 124.66 299.445C124.176 299.567 123.692 299.688 123.208 299.809C122.724 299.931 122.24 300.052 121.755 300.174C112.073 302.842 104.69 305.025 105.053 306.359Z" fill="#1B1B1B"/>
<path d="M97.6705 304.296C98.3967 305.752 105.053 303.083 113.767 300.537C114.251 300.415 114.614 300.295 115.099 300.174C115.583 300.052 115.946 299.931 116.43 299.809C125.265 297.141 132.285 295.807 132.043 294.23C131.922 292.774 124.418 292.896 115.22 295.321C114.735 295.443 114.251 295.564 113.888 295.686C113.404 295.807 113.041 295.928 112.557 296.05C103.359 299.081 97.0654 303.083 97.6705 304.296Z" fill="#1B1B1B"/>
<path d="M91.1351 298.84C91.4982 300.417 97.5496 299.445 105.296 297.505C105.659 297.384 106.022 297.263 106.385 297.141C106.748 297.02 107.111 296.898 107.474 296.898C115.099 294.716 120.908 292.533 120.424 291.078C120.061 289.622 114.01 290.471 106.264 292.412C105.901 292.533 105.538 292.655 105.174 292.775C104.811 292.896 104.448 293.017 104.085 293.017C96.4604 295.08 90.772 297.384 91.1351 298.84Z" fill="#1B1B1B"/>
<path d="M72.6175 292.653C72.9806 294.23 79.032 293.26 86.7778 291.319C87.1409 291.199 87.5041 291.078 87.8671 290.956C88.2302 290.835 88.5933 290.713 88.9563 290.713C96.5811 288.531 102.39 286.347 101.906 284.891C101.543 283.437 95.4919 284.285 87.746 286.225C87.383 286.347 87.0199 286.468 86.6568 286.589C86.2938 286.711 85.9307 286.832 85.5675 286.832C77.9427 288.894 72.2545 291.199 72.6175 292.653Z" fill="#1B1B1B"/>
<path d="M64.1453 297.87C64.3874 299.445 73.9486 298.354 86.0515 295.686C86.6567 295.564 87.2618 295.443 87.867 295.323C88.4721 295.201 89.0773 295.08 89.6824 294.958C101.785 292.169 110.862 289.136 110.499 287.561C110.136 286.105 100.817 287.802 88.7142 290.349C88.1091 290.47 87.5039 290.592 86.8987 290.713C86.2936 290.835 85.6884 290.956 85.0833 291.077C73.1014 293.989 63.9032 296.414 64.1453 297.87Z" fill="#1B1B1B"/>
<path d="M60.6353 293.139C61.2405 293.746 62.935 292.896 65.7185 291.926C68.6233 290.956 72.8593 290.106 77.8215 289.136C78.3056 289.015 78.7897 289.015 79.2738 288.893C79.758 288.772 80.242 288.772 80.7262 288.652C85.6883 287.802 90.1663 287.196 93.3131 286.468C96.4599 285.741 98.3963 285.012 98.3963 284.285C98.2753 283.557 96.3389 283.194 93.0711 283.073C89.8033 282.951 85.2042 283.194 79.9999 284.042C79.5159 284.164 78.9107 284.164 78.4265 284.285C77.9425 284.407 77.4583 284.407 76.8532 284.528C74.3116 285.012 71.8911 285.619 69.7125 286.346C67.534 287.075 65.5975 287.923 64.1451 288.772C61.3616 290.713 60.1513 292.653 60.6353 293.139Z" fill="#1B1B1B"/>
<path d="M57.973 290.228C58.6992 291.683 63.5404 290.106 69.7128 287.681C70.0759 287.559 70.318 287.439 70.6811 287.318C71.0441 287.196 71.2862 287.075 71.6493 286.954C77.8218 284.407 82.4209 282.344 81.9368 280.768C81.4526 279.434 76.2484 280.283 69.9549 282.587C69.5919 282.708 69.3498 282.83 68.9867 282.951C68.6236 283.072 68.3815 283.194 68.0185 283.315C61.725 285.984 57.3679 288.893 57.973 290.228Z" fill="#1B1B1B"/>
<path d="M90.0458 297.868C90.7719 299.324 95.6132 297.748 101.786 295.321C102.149 295.201 102.391 295.08 102.754 294.958C103.117 294.837 103.359 294.716 103.722 294.594C109.894 292.047 114.494 289.986 114.009 288.409C113.525 287.075 108.321 287.923 102.028 290.227C101.665 290.349 101.423 290.47 101.059 290.592C100.696 290.713 100.454 290.835 100.091 290.956C93.7977 293.624 89.4406 296.535 90.0458 297.868Z" fill="#1B1B1B"/>
<path d="M114.009 303.933C114.735 305.389 119.577 303.812 125.749 301.387C126.112 301.265 126.354 301.144 126.717 301.022C127.08 300.901 127.322 300.779 127.686 300.658C133.858 298.111 138.457 296.05 137.973 294.473C137.489 293.139 132.285 293.987 125.991 296.293C125.628 296.414 125.386 296.534 125.023 296.656C124.66 296.777 124.418 296.898 124.055 297.02C117.761 299.81 113.404 302.721 114.009 303.933Z" fill="#1B1B1B"/>
<path d="M34.6145 290.229C35.2197 291.683 42.7235 289.258 52.5268 286.227C53.0109 286.105 53.4951 285.862 53.9791 285.741C54.4633 285.62 54.9475 285.498 55.4315 285.255C65.2349 282.103 72.8597 279.799 72.4966 278.222C72.2545 276.766 64.1455 277.736 54.1002 280.769C53.616 280.89 53.132 281.133 52.6478 281.253C52.1638 281.374 51.6796 281.617 51.1956 281.738C41.2711 285.014 34.1305 288.895 34.6145 290.229Z" fill="#1B1B1B"/>
</svg>
