<svg xmlns="http://www.w3.org/2000/svg" width="44.727" height="53" viewBox="0 0 44.727 53">
  <path id="Febric_icon" data-name="Febric icon" d="M12.409,0A16.316,16.316,0,0,0,3.841,2.216C1.582,3.624,0,5.734,0,8.18v29.73c0,2.447,1.582,4.557,3.841,5.964a16.315,16.315,0,0,0,8.568,2.216,16.318,16.318,0,0,0,8.569-2.216,8.84,8.84,0,0,0,3.01-2.973c0-.005,0-.014,0-.019a5.533,5.533,0,0,1,3.194-.7c.206,0,.411,0,.61.018.192,4.669,1.972,7.771,4.653,9.529C35.287,51.592,38.905,52,42.546,52a1.182,1.182,0,0,0,1.182-1.182V20.682A1.182,1.182,0,0,0,42.546,19.5a17.588,17.588,0,0,1-7.682-1.625v-4.3c0-4.182-3.611-7.073-7.682-7.073a9.423,9.423,0,0,0-2.548.258,7.921,7.921,0,0,0-3.656-4.542A16.317,16.317,0,0,0,12.409,0Zm0,2.363a14.11,14.11,0,0,1,7.313,1.865c1.8,1.121,2.733,2.523,2.733,3.952v.148a1.168,1.168,0,0,0,0,.351V33.442A10.922,10.922,0,0,0,20.5,32.057a16.854,16.854,0,0,0-8.088-1.92,16.854,16.854,0,0,0-8.088,1.92,10.913,10.913,0,0,0-1.957,1.385V8.18c0-1.429.934-2.83,2.733-3.952a14.109,14.109,0,0,1,7.312-1.865Zm13.941,6.5c.254-.009.533,0,.831,0,3.02,0,5.318,1.849,5.318,4.709V39.738a8.147,8.147,0,0,0-5.318-1.92,11.258,11.258,0,0,0-2.363.2c0-.037,0-.074,0-.111V9.177a3.889,3.889,0,0,1,1.532-.314Zm8.513,11.6a21.142,21.142,0,0,0,6.5,1.274v27.81a17.912,17.912,0,0,1-6.5-1.2ZM12.408,32.5a14.636,14.636,0,0,1,6.943,1.625,5.624,5.624,0,0,1,3.084,3.564c.006.019.012.037.018.056v.166c0,1.429-.934,2.831-2.733,3.952a14.11,14.11,0,0,1-7.313,1.865A14.11,14.11,0,0,1,5.1,41.862c-1.8-1.121-2.733-2.523-2.733-3.952v-.166c.007-.018.013-.037.019-.056a5.622,5.622,0,0,1,3.084-3.564A14.634,14.634,0,0,1,12.409,32.5Zm0,1.772a13.546,13.546,0,0,0-5.041.868A5.48,5.48,0,0,0,5.595,36.23a2.478,2.478,0,0,0,0,3.767,5.49,5.49,0,0,0,1.773,1.09,13.547,13.547,0,0,0,5.041.868,13.547,13.547,0,0,0,5.041-.868A5.494,5.494,0,0,0,19.223,40a2.478,2.478,0,0,0,0-3.767,5.485,5.485,0,0,0-1.773-1.089A13.547,13.547,0,0,0,12.408,34.273Zm0,2.364a11.619,11.619,0,0,1,4.155.683,3.364,3.364,0,0,1,1.016.61c.174.169.148.208.148.185s.026.016-.148.185a3.363,3.363,0,0,1-1.016.609,11.615,11.615,0,0,1-4.155.683,11.618,11.618,0,0,1-4.155-.683A3.373,3.373,0,0,1,7.238,38.3c-.174-.169-.148-.208-.148-.185s-.026-.016.148-.185a3.374,3.374,0,0,1,1.016-.61A11.621,11.621,0,0,1,12.408,36.637Zm17.8,4.3A4.43,4.43,0,0,1,32.481,44.5c0,.037.011.074.019.11v2.124A8.854,8.854,0,0,1,30.21,40.939Z" transform="translate(0.5 0.5)" fill="#ae1917" stroke="#fff" stroke-width="1"/>
</svg>
