<svg xmlns="http://www.w3.org/2000/svg" width="38.013" height="38.013" viewBox="0 0 38.013 38.013">
  <g id="FB" transform="translate(-1147 -884)">
    <g id="Group_911" data-name="Group 911">
      <rect id="Rectangle_6801" data-name="Rectangle 6801" width="37.013" height="37.013" rx="2" transform="translate(1147.5 884.5)" fill="none" stroke="#fff" stroke-width="1"/>
      <path id="Fcaebook" d="M25.05,9,22.214,9c-3.186,0-5.245,2.241-5.245,5.711v2.633H14.118a.424.424,0,0,0-.171.036.443.443,0,0,0-.145.1.476.476,0,0,0-.1.154.5.5,0,0,0-.034.181v3.815a.488.488,0,0,0,.131.335.433.433,0,0,0,.315.139h2.851v9.627a.5.5,0,0,0,.034.181.476.476,0,0,0,.1.154.446.446,0,0,0,.145.1.422.422,0,0,0,.171.036h3.72a.424.424,0,0,0,.171-.036.446.446,0,0,0,.145-.1.476.476,0,0,0,.1-.154.5.5,0,0,0,.034-.181V22.105h3.334a.424.424,0,0,0,.171-.036.445.445,0,0,0,.145-.1.477.477,0,0,0,.1-.153.5.5,0,0,0,.034-.181V17.817a.488.488,0,0,0-.131-.335.434.434,0,0,0-.315-.139H21.581V15.112c0-1.073.241-1.618,1.558-1.618h1.91a.433.433,0,0,0,.315-.139.488.488,0,0,0,.13-.334V9.478a.489.489,0,0,0-.13-.334A.433.433,0,0,0,25.05,9Z" transform="translate(1146.828 882.5)" fill="#fff"/>
    </g>
  </g>
</svg>
