<svg xmlns="http://www.w3.org/2000/svg" width="100" height="95.755" viewBox="0 0 100 95.755">
  <g id="Group_11" data-name="Group 11" transform="translate(-41 -42)">
    <g id="Group_9" data-name="Group 9" transform="translate(41 42)">
      <path id="Path_128" data-name="Path 128" d="M51.882,2.238c-2.855,0-5.77,1.775-7.5,5.31L33.766,29.411,9.56,32.847C1.775,33.93-.747,41.567,4.875,47.057l17.49,17.025-4.06,23.895c-1.337,7.735,5.078,12.41,12.025,8.745,2.684-1.42,16.485-8.57,21.551-11.245L73.432,96.722c6.955,3.665,13.39-1.005,12.025-8.745L81.241,64.082,98.732,47.057c5.648-5.47,3.256-13.1-4.529-14.21L69.841,29.411,59.377,7.548C57.654,4.012,54.736,2.24,51.882,2.238Zm0,12.962L62.188,36.283a4.811,4.811,0,0,0,3.748,2.655l23.426,3.434-17.022,16.4a4.812,4.812,0,0,0-1.406,4.37l4.061,23.115L54.224,75.327a5.038,5.038,0,0,0-4.685,0c-2.591,1.365-15.258,8.02-20.771,10.93l3.9-22.955a5.184,5.184,0,0,0-1.405-4.53L14.4,42.372,37.67,39.094a5.231,5.231,0,0,0,3.9-2.811Z" transform="translate(-1.833 -2.238)" fill="#fcd261"/>
      <path id="Path_129" data-name="Path 129" d="M47.611,4.614,59.563,29.061a5.579,5.579,0,0,0,4.346,3.079l27.163,3.982L71.334,55.138a5.579,5.579,0,0,0-1.63,5.067l4.708,26.8L50.328,74.335a5.846,5.846,0,0,0-5.432,0c-3,1.583-17.692,9.3-24.085,12.674l4.528-26.618a6.012,6.012,0,0,0-1.63-5.253L4.15,36.122l26.982-3.8a6.066,6.066,0,0,0,4.528-3.26Z" transform="translate(2.507 2.678)" fill="#fcd261"/>
    </g>
  </g>
</svg>
