<?xml version="1.0" encoding="UTF-8"?>
<svg id="Layer_1" data-name="Layer 1" xmlns="http://www.w3.org/2000/svg" version="1.1" viewBox="0 0 1024 1024">
  <defs>
    <style>
      .cls-1 {
        stroke-width: 2px;
      }

      .cls-1, .cls-2, .cls-3 {
        stroke: #fff;
        stroke-miterlimit: 10;
      }

      .cls-1, .cls-3 {
        fill: none;
      }

      .cls-2 {
        stroke-width: 1px;
      }

      .cls-2, .cls-4 {
        fill: #fff;
      }

      .cls-3 {
        stroke-width: 6px;
      }

      .cls-4 {
        stroke-width: 0px;
      }
    </style>
  </defs>
  <g>
    <path class="cls-4" d="M522.1,943.8h-.4c-1,0-1.8-.8-1.8-1.8,0-1,.8-1.7,1.8-1.8,1,0,2,.8,2,1.7,0,1-.6,1.8-1.6,1.8ZM536.5,943.3c-1,0-1.8-.7-1.8-1.7,0-1,.7-1.8,1.7-1.9,1.1,0,2,.7,2.1,1.7,0,1-.5,1.8-1.5,1.9h-.4s0,0,0,0ZM507.3,943.9s0,0,0,0h-.4c-1,0-1.8-.9-1.7-1.9,0-1,.9-1.8,1.9-1.7,1,0,2,.8,2,1.8,0,1-.6,1.8-1.6,1.8ZM551.2,942.3c-.9,0-1.8-.7-1.8-1.6,0-1,.6-1.9,1.6-1.9.9-.1,2,.6,2.1,1.6,0,1-.5,1.8-1.5,1.9h-.4s0,0-.1,0ZM492.5,943.4c0,0-.1,0-.2,0h-.3c-1,0-1.8-.9-1.7-1.9,0-1,.9-1.8,1.9-1.7h.4c1,0,1.7.9,1.7,1.9,0,.9-.8,1.7-1.7,1.7ZM565.9,940.8c-.9,0-1.7-.6-1.8-1.5-.1-1,.5-1.9,1.5-2h.4c1-.2,1.9.5,2,1.5.1,1-.6,1.9-1.6,2h-.3c0,0-.1,0-.2,0ZM477.8,942.5c0,0-.1,0-.2,0h-.3c-1,0-1.7-.9-1.7-1.9,0-1,.9-1.7,1.9-1.7h.4c1,.1,1.7,1,1.6,2,0,.9-.8,1.6-1.7,1.6ZM580.5,938.7c-.9,0-1.7-.6-1.8-1.5-.2-1,.5-1.9,1.5-2.1h.4c.9-.2,1.9.5,2,1.5.1,1-.5,1.9-1.5,2h-.3c0,0-.2,0-.3,0ZM463,941c0,0-.2,0-.3,0h-.4c-1-.2-1.7-1.1-1.6-2,.1-1,1-1.7,2-1.6,1,.1,1.9,1,1.8,2-.1.9-.7,1.6-1.6,1.6ZM595.1,936.2c-.9,0-1.7-.6-1.8-1.5-.2-1,.5-1.9,1.4-2.1,1-.2,2.1.4,2.3,1.4.2,1-.3,1.9-1.2,2.1h-.4c0,0-.2.1-.3.1ZM448.4,939.1c-.1,0-.2,0-.3,0h-.4c-1-.2-1.7-1.1-1.5-2.1.1-1,1.1-1.7,2-1.5h.4c1,.2,1.7,1.1,1.5,2.1-.1.9-.9,1.5-1.7,1.5ZM609.6,933.2c-.9,0-1.6-.6-1.8-1.4-.2-1,.4-1.9,1.4-2.1,1-.2,2.1.3,2.3,1.3.2,1-.2,1.9-1.2,2.1h-.4c-.1.1-.2.1-.3.1ZM433.8,936.6c-.1,0-.2,0-.3,0,0,0-.4,0-.4,0-1-.2-1.6-1.2-1.4-2.1.2-1,1.2-1.6,2.1-1.4,1,.2,1.8,1.2,1.6,2.1-.2.8-.8,1.5-1.6,1.5ZM623.9,929.6c-.8,0-1.6-.5-1.8-1.3-.3-1,.3-1.9,1.3-2.2.9-.3,2.1.3,2.4,1.2.3,1-.1,1.9-1.1,2.2h-.4c-.1.1-.3.2-.4.2ZM419.3,933.6c-.1,0-.3,0-.4,0h-.4c-1-.3-1.6-1.3-1.3-2.3.2-1,1.2-1.6,2.2-1.3,1,.2,1.7,1.2,1.5,2.2-.2.8-.8,1.4-1.6,1.5ZM638.2,925.6c-.8,0-1.5-.5-1.8-1.3-.3-1,.2-2,1.2-2.2h.3c1-.4,2,.1,2.2,1.1.3,1-.2,2-1.2,2.2h-.3c-.2.2-.3.2-.5.2ZM405,930.2c-.2,0-.3,0-.5,0h-.3c-1-.3-1.6-1.3-1.3-2.3.2-1,1.2-1.6,2.2-1.3h.4c1,.4,1.5,1.4,1.3,2.3-.2.8-.9,1.3-1.7,1.3ZM652.2,921.1c-.8,0-1.5-.5-1.8-1.2-.3-.9.2-2,1.1-2.3h.4c.9-.4,2,0,2.3,1,.3.9-.2,2-1.1,2.3h-.3c-.2.2-.4.2-.5.2ZM390.7,926.2c-.2,0-.4,0-.6,0h-.3c-1-.3-1.5-1.3-1.3-2.3.3-1,1.2-1.5,2.2-1.3h.4c1,.4,1.5,1.4,1.2,2.4-.2.8-.9,1.2-1.7,1.3ZM666.1,916.1c-.7,0-1.4-.4-1.7-1.1-.4-.9,0-2,1-2.3h.4c.9-.5,2,0,2.3.9.3.9-.1,2-1.1,2.3h-.3c-.2.2-.4.2-.6.2ZM376.6,921.7c-.2,0-.4,0-.6,0h-.3c-1-.4-1.5-1.4-1.2-2.3.3-1,1.3-1.5,2.2-1.2h.4c.9.5,1.4,1.5,1.1,2.4-.3.7-.9,1.2-1.7,1.2ZM679.9,910.6c-.7,0-1.4-.4-1.7-1.1-.4-.9,0-2,.9-2.4l.4-.2c.9-.4,2,0,2.3,1,.4.9,0,2-1,2.3h-.3c-.2.2-.4.3-.7.3ZM362.6,916.8c-.2,0-.4,0-.6-.1h-.4c-.9-.5-1.4-1.5-1-2.5.4-.9,1.4-1.4,2.3-1,.9.3,1.6,1.4,1.2,2.4-.3.7-.9,1.2-1.5,1.2ZM693.4,904.7c-.7,0-1.4-.4-1.7-1-.4-.9,0-2,.9-2.4,0,0,.3-.2.4-.2.9-.4,2,0,2.4.9.4.9,0,2-.9,2.4l-.7-1.6.4,1.8c-.2.1-.5.2-.7.2ZM348.8,911.3c-.2,0-.4,0-.7-.1h-.3c-.9-.5-1.4-1.6-1-2.5.4-.9,1.4-1.3,2.4-1,.9.4,1.5,1.5,1.1,2.4-.3.7-.9,1.2-1.5,1.2ZM706.6,898.3c-.7,0-1.3-.3-1.6-.9-.5-.9-.1-2,.7-2.4,0,0,.4-.2.4-.2.9-.4,2,0,2.4.8.4.9,0,2-.8,2.4l-.8-1.6.5,1.7c-.3.1-.5.2-.8.2ZM335.2,905.4c-.2,0-.5,0-.7-.1l-.3-.2c-.9-.4-1.3-1.5-.9-2.4.4-.9,1.5-1.3,2.4-.9.9.4,1.5,1.5,1.1,2.4-.3.7-.9,1.1-1.5,1.1ZM719.7,891.4c-.7,0-1.3-.3-1.6-1-.5-.9-.1-2,.8-2.4.9-.5,2.1-.3,2.6.6.5.9.3,1.9-.5,2.4l-.4.2c-.2.1-.5.2-.8.2ZM321.9,899.1c-.3,0-.6,0-.9-.2l-.3-.2c-.9-.4-1.3-1.5-.8-2.4.4-.9,1.5-1.3,2.4-.8l.3.2c.9.4,1.3,1.5.8,2.4-.3.6-.9,1-1.6,1ZM732.5,884.2c-.6,0-1.3-.3-1.6-.9-.5-.9-.2-2,.6-2.5.8-.5,2.1-.3,2.6.5s.4,1.9-.5,2.4c0,0-.3.2-.3.2-.3.2-.6.2-.9.2ZM308.7,892.2c-.3,0-.6,0-.9-.2l-.3-.2c-.9-.5-1.2-1.6-.7-2.4.5-.9,1.6-1.2,2.4-.7l.3.2c.9.5,1.2,1.6.7,2.4-.3.6-.9.9-1.5.9ZM745.1,876.4c-.6,0-1.2-.3-1.6-.9-.5-.9-.2-2,.6-2.5.8-.5,2.1-.4,2.6.4.5.8.4,1.9-.4,2.4l-.4.2c-.3.2-.6.3-.9.3ZM295.7,884.9c-.3,0-.6,0-.8-.2l-.3-.2c-.9-.5-1.1-1.6-.6-2.5.5-.9,1.6-1.1,2.5-.6.9.5,1.3,1.7.8,2.6-.3.6-.9.9-1.5,1ZM757.4,868.3c-.6,0-1.2-.3-1.5-.8-.6-.8-.3-1.9.5-2.5.8-.6,2.1-.5,2.6.4.6.8.5,1.8-.3,2.4l-.3.2c-.3.2-.6.3-1,.3ZM283.1,877.2c-.3,0-.6,0-.9-.2,0,0-.3-.2-.3-.2-.8-.5-1.1-1.6-.5-2.5.5-.8,1.6-1.1,2.5-.6.8.5,1.2,1.7.7,2.6-.4.6-.9.9-1.4.9ZM769.4,859.7c-.6,0-1.1-.2-1.5-.7-.6-.8-.4-1.9.4-2.5.8-.6,2-.5,2.6.3.6.8.6,1.8-.2,2.4l-.3.2c-.3.2-.7.3-1,.3ZM270.9,869.1c-.4,0-.7,0-1.1-.3l-.3-.2c-.8-.6-1-1.7-.5-2.5.6-.8,1.7-1,2.5-.5l.3.2c.8.6,1,1.7.5,2.5-.3.5-.9.8-1.4.8ZM781.1,850.7c-.5,0-1.1-.2-1.5-.7-.6-.8-.5-1.9.3-2.5.8-.6,2-.6,2.7.2.6.8.6,1.8-.1,2.4,0,0-.2.2-.3.2-.3.3-.7.4-1.1.4ZM258.8,860.6c-.4,0-.8-.1-1.1-.3l-.3-.2c-.8-.6-1-1.7-.4-2.5s1.7-1,2.5-.4l.3.2c.8.6,1,1.7.4,2.5-.3.5-.9.7-1.4.7ZM792.5,841.3c-.5,0-1-.2-1.4-.6-.7-.7-.6-1.9.1-2.5l.3-.3c.8-.6,1.9-.5,2.5.2.6.8.5,1.9-.2,2.5l-.2.2c-.3.3-.7.4-1.2.5ZM247,851.6c-.4,0-.8-.1-1.2-.4,0,0-.1-.1-.1-.1-.8-.6-1-1.8-.4-2.6.6-.8,1.7-1,2.5-.4l.3.2c.8.6.9,1.7.3,2.5-.3.4-.9.7-1.4.7ZM803.6,831.5c-.5,0-1-.2-1.4-.6-.7-.7-.6-1.9,0-2.5l.3-.3c.7-.7,1.9-.6,2.5.1.7.7.6,1.9-.1,2.5l-.2.2c-.3.3-.8.5-1.2.5ZM235.6,842.2c-.4,0-.9-.1-1.2-.4l1.2-1.4-1.4,1.2c-.8-.6-.9-1.8-.3-2.5.6-.8,1.8-.9,2.5-.3,0,0,.3.2.3.3.8.6.8,1.8.2,2.5-.3.4-.8.6-1.3.6ZM814.3,821.4c-.5,0-1-.2-1.3-.5-.7-.7-.7-1.8,0-2.5l.3-.3c.7-.7,1.9-.7,2.5,0,.7.7.7,1.9,0,2.5l-.2.2c-.3.3-.8.5-1.2.5ZM224.5,832.5c-.5,0-.9-.1-1.3-.5l-.2-.2c-.7-.7-.8-1.8-.2-2.5.7-.7,1.8-.8,2.5-.2l.3.3c.7.7.8,1.8,0,2.5-.3.4-.8.6-1.3.6ZM824.7,810.9c-.5,0-1-.2-1.3-.5-.7-.7-.7-1.8,0-2.5.7-.7,1.9-.9,2.7-.2.7.7.9,1.7.2,2.4l-.3.3c-.3.3-.8.5-1.2.5ZM213.5,822.4c-.4,0-.8-.1-1.1-.4,0,0-.3-.3-.3-.3-.7-.7-.7-1.8,0-2.5.7-.7,1.8-.7,2.5,0,.7.7.8,1.9.1,2.7-.4.4-.8.6-1.3.6ZM834.8,800c-.4,0-.9-.1-1.3-.5-.7-.7-.8-1.8-.1-2.5.6-.7,1.9-1,2.6-.3.7.7.9,1.7.3,2.4l-.3.3c-.3.4-.8.6-1.3.6ZM203.1,811.9c-.4,0-.8-.1-1.2-.5l-.3-.3c-.7-.7-.6-1.9,0-2.5.7-.7,1.9-.6,2.5,0,.7.7.8,2,0,2.7-.4.4-.8.6-1.3.6ZM844.4,788.8c-.4,0-.9-.1-1.2-.4-.8-.6-.9-1.8-.2-2.5l.2-.3c.6-.8,1.8-.9,2.5-.2.8.6.9,1.8.2,2.5l-.2.3c-.3.4-.8.6-1.3.6ZM193.2,801.1c-.5,0-1-.2-1.4-.6l-.2-.3c-.7-.7-.6-1.9.1-2.5s1.9-.6,2.5.1l.3.3c.7.7.6,1.9-.1,2.5-.3.3-.7.4-1.1.5ZM853.7,777.3c-.4,0-.8-.1-1.1-.3-.8-.6-1-1.7-.4-2.5,0,0,.3-.3.3-.3.6-.8,1.8-.9,2.5-.3.8.6.9,1.8.3,2.5l-1.4-1.1,1.2,1.3c-.3.5-.9.7-1.4.7ZM183.5,790c-.5,0-1.1-.2-1.4-.7l1.4-1.1-1.6.9c-.7-.7-.6-1.9.2-2.5.8-.7,1.9-.6,2.5.2,0,0,.3.3.3.3.6.8.5,1.9-.2,2.5-.3.3-.7.4-1.1.4ZM862.6,765.5c-.4,0-.7,0-1.1-.3-.8-.6-1-1.7-.5-2.5l.3-.4c.6-.8,1.7-1,2.5-.4.8.6,1,1.7.4,2.5l-.2.2c-.3.5-.9.8-1.4.8ZM174,778.4c-.5,0-.9-.2-1.3-.6,0,0-.2-.3-.3-.3-.6-.8-.4-1.9.3-2.5.8-.6,1.9-.4,2.5.3.6.8.6,2-.2,2.6-.4.3-.8.4-1.1.4ZM871,753.4c-.4,0-.7,0-1.1-.3-.8-.6-1-1.7-.5-2.5l.2-.3c.6-.8,1.7-1,2.5-.5.8.6,1,1.7.5,2.5l-.2.3c-.3.5-.9.8-1.4.8ZM165.1,766.6c-.5,0-1-.2-1.3-.6,0,0-.2-.3-.2-.3-.6-.8-.4-1.9.4-2.5.8-.6,1.9-.4,2.5.4.6.8.5,2.1-.3,2.6-.3.3-.7.4-1.1.4ZM879.1,740.9c-.3,0-.7,0-1-.3-.8-.5-1.1-1.7-.5-2.5.5-.8,1.7-1.3,2.6-.7.8.5,1.2,1.5.7,2.3l-.2.3c-.3.5-.9.8-1.5.8ZM156.8,754.6c-.6,0-1.2-.3-1.5-.8l1.5-1-1.7.7c-.6-.8-.3-1.9.5-2.5.8-.6,1.9-.3,2.5.5,0,0,.2.3.2.3.6.8.3,1.9-.5,2.5-.3.2-.6.3-1,.3ZM886.7,728.3c-.3,0-.6,0-.9-.2-.9-.5-1.2-1.6-.7-2.4l.2-.3c.5-.9,1.6-1.1,2.5-.6.9.5,1.1,1.6.6,2.5l-.2.3c-.3.6-.9.9-1.5.9ZM148.5,742.2c-.5,0-1-.2-1.4-.7,0,0-.2-.3-.2-.3-.5-.9-.2-2,.6-2.5.9-.5,2-.2,2.5.6.5.8.3,2.1-.5,2.6-.3.2-.7.3-1,.3ZM893.9,715.3c-.3,0-.6,0-.9-.2-.9-.5-1.2-1.6-.7-2.4.5-.9,1.6-1.4,2.5-.9.9.5,1.3,1.4.8,2.3l-.2.3c-.3.6-.9.9-1.5.9ZM140.9,729.6c-.6,0-1.1-.2-1.4-.8l-.2-.3c-.5-.9-.2-2,.7-2.5.9-.5,2-.2,2.5.7.5.9.3,2.1-.6,2.6-.3.2-.6.3-1,.3ZM900.6,702.1c-.3,0-.6,0-.8-.2-.9-.4-1.3-1.5-.8-2.4l.2-.3c.4-.9,1.5-1.2,2.4-.8.9.4,1.3,1.5.8,2.4v.3c-.5.6-1.1,1-1.7,1ZM133.7,716.7c-.6,0-1.1-.2-1.4-.8,0,0-.2-.3-.2-.4-.5-.9-.1-2,.8-2.4.9-.5,2-.1,2.4.8.5.9.2,2.1-.7,2.6-.3.2-.6.2-.9.3ZM906.9,688.7c-.2,0-.5,0-.7-.1-.9-.4-1.3-1.4-1-2.4l.2-.4c.4-.9,1.5-1.3,2.4-.9.9.4,1.3,1.5.9,2.4v.3c-.4.7-1.1,1.1-1.7,1.1ZM127.1,703.7c-.7,0-1.4-.4-1.7-1l1.6-.8-1.8.5c-.4-.9,0-2,.8-2.4.9-.5,2,0,2.4.8,0,0,.2.3.2.3.4.9,0,2-.8,2.4-.2.1-.5.2-.7.2ZM912.7,675.1c-.2,0-.5,0-.7-.1-.9-.3-1.4-1.4-1.1-2.3l.2-.4c.4-.9,1.4-1.3,2.4-1,.9.4,1.3,1.4,1,2.4v.3c-.4.7-1,1.1-1.7,1.2ZM120.8,690.4c-.7,0-1.4-.4-1.7-1.1l1.6-.7-1.8.4c-.4-.9,0-2,.9-2.4.9-.4,2,0,2.4.9,0,0,.2.3.2.3.4.9,0,2-.9,2.4-.2.1-.5.2-.7.2ZM918,661.3c-.2,0-.4,0-.6,0-.9-.3-1.4-1.3-1.1-2.3v-.4c.5-.9,1.5-1.4,2.5-1.1.9.3,1.4,1.4,1.1,2.3v.3c-.4.7-1,1.2-1.8,1.2ZM115,676.8c-.7,0-1.4-.4-1.7-1.1v-.3c-.5-.9,0-2,.8-2.4s2,0,2.4,1v.4c.5.9,0,2-.8,2.3-.2,0-.4.1-.6.1ZM922.9,647.2c-.2,0-.4,0-.6,0-1-.3-1.5-1.3-1.2-2.2v-.4c.5-.9,1.5-1.4,2.4-1.1.9.3,1.4,1.3,1.1,2.3v.3c-.3.8-1,1.3-1.8,1.3ZM109.5,662.9c-.7,0-1.3-.3-1.6-1v-.4c-.5-.9,0-2,.9-2.3.9-.3,2,.1,2.3,1.1.3.9,0,2.1-1,2.5-.2,0-.5.1-.7.1ZM927.2,633.1c-.2,0-.4,0-.6,0-1-.3-1.5-1.3-1.2-2.3.3-1,1.3-1.7,2.2-1.4,1,.3,1.6,1.1,1.3,2.1v.4c-.4.8-1,1.2-1.8,1.3ZM104.6,649c-.7,0-1.3-.3-1.6-1.1,0,0-.1-.3-.1-.3-.3-.9.2-2,1.2-2.3.9-.3,2,.2,2.3,1.1s-.1,2.1-1.1,2.4c-.2,0-.4.1-.6.1ZM931.1,618.8c-.2,0-.3,0-.5,0-1-.3-1.5-1.3-1.3-2.2.2-1,1.2-1.7,2.2-1.5,1,.2,1.6,1.1,1.4,2v.4c-.3.8-1,1.3-1.8,1.3ZM100.3,635c-.8,0-1.5-.5-1.8-1.3l1.7-.5-1.8.2c-.3-1,.2-2,1.2-2.2.9-.3,2,.3,2.2,1.2,0,0,.1.4.1.4.3,1-.3,2-1.2,2.2-.1,0-.3,0-.4,0ZM934.4,604.4c-.1,0-.3,0-.4,0-1-.2-1.6-1.2-1.4-2.1v-.4c.3-1,1.2-1.6,2.2-1.4,1,.2,1.6,1.2,1.4,2.1v.3c-.2.8-1,1.4-1.8,1.4ZM96.3,620.6c-.8,0-1.5-.4-1.7-1.2v-.4c-.3-1,.3-1.9,1.2-2.2,1-.2,1.9.3,2.2,1.3.2,1-.3,2.1-1.3,2.4-.2,0-.3,0-.5,0ZM93.9,415.6c-.1,0-.3,0-.4,0-1-.2-1.6-1-1.4-2,0,0,0-.4,0-.4.2-1,1.2-1.6,2.2-1.3,1,.2,1.6,1.2,1.3,2.2-.2.8-1,1.5-1.8,1.5ZM924.5,384.5c-.8,0-1.5-.5-1.8-1.2v-.4c-.4-.9.1-2,1.1-2.2,1-.3,2,.3,2.2,1.2v.3c.4.9,0,2-1,2.3-.2,0-.4,0-.5,0ZM97.6,401.5c-.2,0-.4,0-.5,0-1-.3-1.5-1.3-1.3-2.2l1.7.5-1.6-.8c.2-1,1.2-1.5,2.2-1.3,1,.2,1.5,1.2,1.3,2.2,0,0,0,.4-.1.4-.2.8-.9,1.3-1.7,1.3ZM919.8,370.5c-.8,0-1.5-.4-1.7-1.2,0,0-.1-.4-.1-.4-.3-.9.2-2,1.1-2.3,1-.3,2,.2,2.3,1.1l-1.7.6,1.8-.3c.3.9-.1,2-1.1,2.3-.2,0-.4.1-.6.1ZM101.6,387.3c-.2,0-.4,0-.6,0-1-.3-1.5-1.3-1.2-2.2v-.3c.4-1,1.4-1.5,2.4-1.2,1,.3,1.5,1.3,1.2,2.2v.3c-.3.8-1,1.2-1.8,1.3ZM914.7,356.7c-.8,0-1.5-.4-1.7-1.2-.4-.9,0-2.1.9-2.5.9-.4,1.9,0,2.3.8l.2.4c.3.9-.1,2-1.1,2.3-.2,0-.4.1-.6.1ZM106.2,373.2c-.2,0-.4,0-.6,0-.9-.3-1.4-1.3-1.1-2.3v-.3c.4-.9,1.5-1.4,2.4-1.1.9.3,1.4,1.3,1.1,2.3v.4c-.4.7-1,1.2-1.8,1.2ZM909.1,343c-.7,0-1.4-.4-1.7-1.1-.4-.9,0-2.1.9-2.5.9-.4,1.9-.1,2.3.8l.2.4c.4.9,0,2-1,2.4-.2,0-.4.1-.6.1ZM111.3,359.1c-.2,0-.4,0-.6,0-.9-.4-1.5-1.2-1.1-2.2v-.4c.5-.9,1.5-1.4,2.5-1,.9.4,1.4,1.4,1,2.3-.3.7-1,1.3-1.8,1.3ZM903,329.6c-.7,0-1.4-.4-1.7-1.1-.4-.9,0-2.1.8-2.5.9-.4,1.9-.2,2.3.7,0,0,.2.4.2.4.4.9,0,2-.9,2.4-.2,0-.5.1-.7.2ZM116.8,345.5c-.3,0-.5,0-.8-.1-.9-.4-1.3-1.5-.9-2.4v-.3c.5-.9,1.6-1.4,2.5-1,.9.4,1.4,1.4,1,2.3l-.2.4c-.3.7-.9,1.1-1.6,1.1ZM896.5,316.3c-.7,0-1.3-.4-1.7-1-.4-.9-.2-2.1.7-2.6.9-.4,1.9-.3,2.3.6,0,0,.2.4.2.4.4.9,0,2-.8,2.4-.2.1-.5.2-.7.2ZM122.8,332c-.3,0-.6,0-.8-.2-.9-.4-1.3-1.5-.9-2.4v-.3c.5-.9,1.6-1.3,2.5-.9.9.4,1.3,1.5.9,2.4l-.2.4c-.3.6-.9,1-1.6,1ZM889.5,303.3c-.7,0-1.3-.3-1.6-1-.5-.9-.2-2.1.6-2.6.9-.5,1.9-.3,2.3.5,0,0,.2.3.2.4.5.9.1,2-.8,2.4-.3.1-.5.2-.8.2ZM129.3,318.6c-.3,0-.6,0-.9-.2-.9-.5-1.2-1.5-.8-2.4v-.3c.6-.9,1.7-1.3,2.6-.8.9.4,1.3,1.5.8,2.4l-.2.4c-.3.6-.9,1-1.6,1ZM882.1,290.6c-.6,0-1.2-.3-1.6-.9-.5-.8-.3-2.1.5-2.6.8-.5,1.9-.4,2.4.4l.2.3c.5.9.2,2-.6,2.5-.3.2-.6.2-.9.3ZM136.3,305.6c-.3,0-.6,0-.9-.2-.9-.5-1.2-1.6-.7-2.4l.2-.3c.5-.9,1.6-1.2,2.4-.7.9.5,1.2,1.6.7,2.4l-.2.3c-.3.6-.9.9-1.5.9ZM874.2,278.1c-.6,0-1.2-.3-1.6-.8-.5-.8-.4-2.1.4-2.6.8-.5,1.8-.5,2.4.4l.2.3c.5.8.3,1.9-.5,2.5-.3.2-.6.3-.9.3ZM143.6,292.7c-.3,0-.7,0-1-.3-.9-.5-1.1-1.6-.6-2.5l.2-.3c.5-.9,1.6-1.1,2.5-.6.9.5,1.1,1.6.6,2.5l-.2.3c-.3.5-.9.9-1.5.9ZM866,265.9c-.6,0-1.2-.2-1.5-.8l-.2-.3c-.6-.8-.4-1.9.4-2.5.8-.6,1.9-.4,2.5.4l.2.3c.6.8.4,1.9-.4,2.5-.3.2-.6.3-1,.3ZM151.4,280.2c-.4,0-.7,0-1-.3-.8-.5-1.1-1.7-.5-2.5l.2-.3c.5-.8,1.6-1.1,2.5-.6.8.5,1.1,1.6.6,2.5l-.2.3c-.3.5-.9.8-1.5.8ZM857.2,254c-.6,0-1.1-.2-1.5-.7-.6-.8-.5-2.1.3-2.6.8-.6,1.8-.6,2.4.2,0,0,.2.3.2.3.6.8.4,1.9-.4,2.5-.3.2-.7.3-1,.3ZM159.7,267.9c-.4,0-.8,0-1.1-.3-.8-.6-1-1.7-.4-2.5l.2-.3c.6-.8,1.7-1,2.5-.5.8.6,1,1.7.5,2.5l-.2.3c-.3.5-.9.7-1.4.8ZM848.2,242.3c-.6,0-1.1-.2-1.5-.7-.6-.8-.6-2,.2-2.7.8-.6,1.8-.6,2.4.1l.3.3c.6.8.5,1.9-.3,2.5-.3.2-.7.4-1,.4ZM168.3,255.7c-.4,0-.7,0-1-.3-.8-.6-1.1-1.6-.5-2.4l.2-.3c.6-.8,1.7-.9,2.5-.3.8.6.9,1.7.3,2.5-.4.5-1,.8-1.6.8ZM838.7,231c-.5,0-1-.2-1.4-.6-.6-.8-.7-2,0-2.7.7-.6,1.8-.7,2.4,0,0,0,.2.3.3.3.6.8.6,1.9-.2,2.5-.3.3-.7.4-1.1.4ZM177.4,244c-.4,0-.8,0-1.1-.3-.8-.6-1-1.6-.4-2.4l.2-.3c.6-.8,1.8-.9,2.5-.3.8.6.9,1.8.3,2.5-.4.5-1,.7-1.5.8ZM828.8,220c-.5,0-1-.2-1.4-.6-.7-.7-.8-2,0-2.7.7-.7,1.8-.8,2.4,0l.3.3c.7.7.6,1.9-.1,2.5-.3.3-.7.4-1.2.5ZM186.8,232.6c-.4,0-.8-.1-1.1-.4-.8-.6-1-1.7-.3-2.4l.2-.3c.7-.7,1.8-.8,2.5-.2.7.7.8,1.8.2,2.5-.4.4-.9.7-1.5.7ZM818.5,209.4c-.5,0-.9-.2-1.3-.5,0,0-.3-.3-.3-.3-.7-.7-.7-1.9,0-2.5.7-.7,1.9-.7,2.5,0l-1.3,1.3,1.5-1c.7.7.7,1.8,0,2.5-.3.4-.8.5-1.2.5ZM196.6,221.7c-.5,0-.9-.1-1.3-.5-.7-.7-.8-1.8,0-2.5l.2-.3c.7-.7,1.8-.8,2.5-.1.7.7.8,1.8.1,2.5l-.3.3c-.3.4-.8.6-1.3.6ZM807.9,199.1c-.4,0-.9-.1-1.3-.5l-.3-.3c-.7-.7-.8-1.8,0-2.5s1.8-.8,2.5,0l.2.2c.7.7.8,1.8.1,2.5-.3.4-.8.6-1.3.6ZM206.8,211c-.5,0-1-.2-1.3-.5-.7-.7-.7-1.8,0-2.5l.3-.3c.7-.7,1.8-.7,2.5,0,.7.7.7,1.8,0,2.5l-.3.3c-.3.3-.8.5-1.2.5ZM797,189.2c-.4,0-.9-.1-1.2-.5-.7-.7-.9-1.9-.3-2.7.7-.7,1.6-.9,2.4-.3,0,0,.3.2.3.3.7.7.8,1.8.1,2.5-.3.4-.8.6-1.3.6ZM217.5,200.5c-.5,0-1-.1-1.3-.5-.7-.7-.8-1.7,0-2.4l.3-.3c.7-.7,1.9-.6,2.5,0,.7.7.6,1.9,0,2.5-.4.3-.9.5-1.4.6ZM785.7,179.7c-.4,0-.8-.1-1.2-.4l-.3-.2c-.8-.6-.9-1.8-.3-2.5.6-.8,1.8-.9,2.5-.3l.3.2c.8.6.9,1.8.3,2.5-.3.4-.8.7-1.4.7ZM228.4,190.5c-.5,0-1-.2-1.4-.5-.7-.7-.7-1.8,0-2.4,0,0,.3-.3.3-.3.8-.6,1.9-.6,2.5.2.6.8.6,1.9-.2,2.5-.4.3-.8.5-1.3.5ZM774.1,170.5c-.4,0-.8-.1-1.2-.4-.8-.6-1.1-1.8-.5-2.6.6-.8,1.6-1.1,2.4-.5l.3.2c.8.6.9,1.7.3,2.5-.3.4-.9.7-1.4.7ZM239.5,181.1c-.5,0-1.1-.2-1.4-.7-.6-.8-.5-1.9.2-2.5l.3-.2c.8-.6,1.9-.5,2.5.2.6.8.5,1.9-.2,2.5l-.3.2c-.3.3-.7.4-1.1.4ZM762.1,161.7c-.4,0-.7,0-1.1-.3l-.3-.2c-.8-.6-1-1.7-.4-2.5.6-.8,1.7-1,2.5-.4l.3.2c.8.6,1,1.7.5,2.5-.3.5-.9.8-1.4.8ZM251.2,171.7c-.6,0-1.1-.2-1.5-.6-.6-.8-.6-1.8.2-2.4l.3-.2c.8-.6,1.9-.4,2.5.3.6.8.4,1.9-.3,2.5-.3.3-.8.4-1.2.4ZM749.9,153.4c-.4,0-.7,0-1.1-.3-.8-.5-1.2-1.8-.7-2.6.6-.8,1.5-1.2,2.4-.6l.3.2c.8.6,1,1.7.5,2.5-.3.5-.9.8-1.4.8ZM262.9,163.1c-.6,0-1.2-.2-1.5-.8-.6-.8-.4-1.9.4-2.5l.3-.2c.8-.6,1.9-.4,2.5.4.6.8.4,1.9-.4,2.5l-.3.2c-.3.2-.6.3-1,.3ZM737.4,145.5c-.3,0-.7,0-1-.3-.9-.5-1.3-1.7-.8-2.5.5-.9,1.5-1.2,2.3-.7l.4.2c.8.5,1.1,1.6.6,2.5-.3.5-.9.8-1.5.8ZM275,154.7c-.6,0-1.2-.3-1.6-.8-.5-.8-.3-1.9.5-2.5l1,1.5-.7-1.7c.8-.6,1.9-.4,2.5.5.6.8.4,1.9-.5,2.5,0,0-.3.2-.3.2-.3.2-.6.3-.9.3ZM724.6,138c-.3,0-.6,0-.9-.2l-.3-.2c-.9-.5-1.2-1.6-.7-2.5.5-.9,1.6-1.2,2.5-.7l.3.2c.9.5,1.2,1.6.7,2.5-.3.6-.9.9-1.5.9ZM287.5,146.7c-.6,0-1.2-.3-1.6-.9-.5-.8-.3-2,.6-2.5l.9,1.5-.7-1.7c.8-.5,1.9-.3,2.5.6.5.8.3,2-.6,2.5,0,0-.3.2-.3.2-.3.2-.6.3-.9.3ZM711.6,130.9c-.3,0-.6,0-.9-.2-.9-.5-1.4-1.6-.9-2.5.5-.9,1.4-1.3,2.3-.9l.3.2c.9.5,1.2,1.6.7,2.4-.3.6-.9.9-1.5,1ZM300.3,139.1c-.7,0-1.3-.3-1.7-.8-.5-.9-.3-1.9.5-2.4l.3-.2c.9-.5,2-.2,2.5.7.5.9.2,2-.7,2.5-.3.2-.6.2-1,.3ZM698.4,124.3c-.3,0-.6,0-.8-.2-.9-.4-1.4-1.6-1-2.5.4-.9,1.3-1.4,2.2-.9l.3.2c.9.4,1.3,1.5.8,2.4-.3.6-.9,1-1.6,1ZM313.3,132c-.7,0-1.4-.3-1.7-.9-.5-.9-.3-1.9.6-2.3l.3-.2c.9-.5,2-.1,2.4.8.5.9.1,2-.8,2.4-.3.1-.6.2-.9.2ZM684.9,118.2c-.3,0-.5,0-.8-.1h-.3c-.9-.5-1.3-1.6-.9-2.5.4-.9,1.5-1.3,2.4-.9h.3c.9.5,1.3,1.6.9,2.5-.3.7-.9,1.1-1.6,1.1ZM326.5,125.3c-.7,0-1.4-.3-1.7-1-.4-.9-.2-1.9.7-2.3l.3-.2c.9-.4,2,0,2.4.8.4.9,0,2-.8,2.4-.3.1-.5.2-.8.2ZM671.2,112.5c-.2,0-.5,0-.7-.1-.9-.4-1.5-1.5-1.2-2.4.4-.9,1.3-1.4,2.2-1.1h.4c.9.5,1.4,1.6,1,2.5-.3.7-.9,1.1-1.6,1.1ZM339.8,119.2c-.7,0-1.5-.3-1.8-1-.4-.9-.2-1.9.7-2.3l.3-.2c.9-.4,2,0,2.4.9.4.9,0,2-.9,2.4-.2.1-.5.2-.8.2ZM657.3,107.3c-.2,0-.4,0-.6,0h-.4c-.9-.5-1.4-1.5-1.1-2.4s1.4-1.4,2.3-1.1h.3c.9.4,1.4,1.5,1.1,2.4-.3.7-.9,1.2-1.7,1.2ZM353.5,113.4c-.8,0-1.5-.4-1.8-1.1-.4-.9,0-1.9.8-2.3h.4c.9-.5,2,0,2.3.9.4.9-.1,2-1,2.3-.2,0-.5.1-.7.1ZM643.3,102.6c-.2,0-.4,0-.6,0-1-.3-1.6-1.4-1.4-2.3.3-1,1.2-1.5,2.1-1.2h.4c.9.4,1.5,1.4,1.2,2.4-.2.7-.9,1.2-1.7,1.3ZM367,108.3c-.8,0-1.5-.4-1.7-1.2-.3-.9.2-2,1.1-2.3h.3c.9-.5,2,0,2.3.9.3.9-.1,2-1.1,2.3h-.4c-.2.2-.4.2-.6.2ZM629.1,98.4c-.2,0-.4,0-.5,0-1-.3-1.7-1.3-1.4-2.3.3-1,1.1-1.6,2-1.3h.4c1,.4,1.5,1.4,1.2,2.3-.2.8-.9,1.3-1.7,1.3ZM381,103.5c-.8,0-1.5-.5-1.8-1.3-.3-.9.2-2,1.2-2.3h.3c.9-.4,2,0,2.3,1,.3.9-.2,2-1.1,2.3h-.4c-.2.2-.3.2-.5.2ZM614.7,94.7c-.2,0-.3,0-.5,0h-.4c-1-.3-1.6-1.3-1.3-2.3.2-1,1.2-1.6,2.2-1.3h.4c1,.3,1.6,1.3,1.3,2.3-.2.8-.9,1.4-1.7,1.4ZM395.5,99.1c-.8,0-1.7-.5-1.9-1.3-.3-1,.1-1.9,1.1-2.2h.4c1-.4,2,.2,2.2,1.1.3,1-.3,2-1.2,2.2-.2,0-.3,0-.5,0ZM600.3,91.5c-.1,0-.3,0-.4,0h-.4c-1-.3-1.6-1.2-1.4-2.2.2-1,1.2-1.6,2.1-1.4h.3c1,.3,1.6,1.2,1.4,2.2-.2.8-.9,1.4-1.7,1.5ZM409.8,95.3c-.9,0-1.7-.5-1.9-1.3-.2-1,.2-1.9,1.1-2.1,0,0,.4,0,.4,0,1-.2,1.9.4,2.2,1.3.2,1-.4,1.9-1.3,2.2-.1,0-.3,0-.4,0ZM585.8,88.8c-.1,0-.2,0-.4,0-1-.2-1.8-1.1-1.6-2.1.2-1,.9-1.7,1.9-1.5h.4c1,.2,1.6,1.2,1.4,2.2-.2.9-.9,1.5-1.7,1.5ZM423.8,92.1c-.9,0-1.6-.6-1.8-1.4-.2-1,.4-1.9,1.4-2.1h.3c1-.3,1.9.3,2.1,1.3.2,1-.4,1.9-1.4,2.1h-.4c-.1.1-.2.1-.3.1ZM571.2,86.5c0,0-.2,0-.3,0-1-.1-1.8-1.1-1.7-2,.1-1,.9-1.7,1.8-1.6,0,0,.4,0,.4,0,1,.1,1.7,1,1.5,2-.1.9-.9,1.5-1.7,1.6ZM438.4,89.3c-.9,0-1.7-.6-1.8-1.5-.2-1,.5-1.9,1.5-2.1h.4c1-.2,1.9.4,2.1,1.4.2,1-.5,1.9-1.5,2.1h-.4c0,0-.2,0-.3,0ZM556.5,84.8c0,0-.1,0-.2,0h-.4c-1-.1-1.7-1-1.6-2,.1-1,1-1.7,2-1.6h.3c1,.1,1.7,1,1.6,2,0,.9-.8,1.6-1.7,1.6ZM453.3,86.9c-.9,0-1.9-.6-2-1.5-.1-1,.4-1.9,1.4-2h.4c1-.2,1.9.5,2,1.5.1,1-.6,1.9-1.6,2,0,0-.1,0-.2,0ZM541.8,83.6c0,0-.1,0-.2,0-1,0-1.9-.9-1.9-1.9,0-1,.7-1.8,1.7-1.7h.4c1,0,1.7,1,1.7,2,0,.9-.8,1.6-1.7,1.7ZM467.6,85.2c-.9,0-1.7-.7-1.8-1.6-.1-1,.6-1.9,1.6-2h.3c1-.2,1.9.6,2,1.5.1,1-.6,1.9-1.6,2h-.4s0,0-.1,0ZM527,82.9s0,0-.1,0h-.4c-1,0-1.8-.9-1.7-1.9,0-1,.9-1.8,1.9-1.7h.4c1,0,1.8.9,1.7,1.9,0,1-.8,1.7-1.7,1.7ZM482.7,83.8c-1,0-2-.7-2-1.7,0-1,.5-1.8,1.5-1.9h.4c1-.1,1.9.6,1.9,1.6,0,1-.7,1.9-1.7,1.9,0,0,0,0,0,0ZM512.2,82.7s0,0,0,0h-.4c-1,0-1.8-.8-1.8-1.8,0-1,.9-1.8,1.8-1.8h.3c1,0,1.8.8,1.8,1.8,0,1-.8,1.8-1.7,1.8ZM497.4,83c-1,0-2-.7-2-1.7,0-1,.6-1.8,1.6-1.9h.4c1,0,1.8.7,1.8,1.7,0,1-.8,1.8-1.7,1.8,0,0,0,0,0,0Z"/>
    <g>
      <path class="cls-4" d="M965.9,372.7c-1.1-1.3-1.4-2.4-1.3-3.9-2.9-9.2-6.1-18.3-9.6-27.3,0,2.3-.8,4.9-2.4,7.4-.1-4.7-.2-8.8-.4-13.1.3.2.6.5.8.7-2-5.1-4.2-10.1-6.4-15.1-.5,1.9-.9,3.4-1.5,4.9-.2.6-1.2,1.1-1.8,1.3-.5,0-1.6-.7-1.5-1,.3-1.9.6-3.9,1.5-5.6.3-.6,1.3-.9,2.6-1.4-32.3-72.3-82.8-136.3-146.4-184.7-85.7-65.2-192.3-99.4-300.1-96.4-89.3,2.5-176.3,30.5-250.1,79.7,0,.2,0,.3.1.5-.7.9-1.3,2.2-2.2,2.7-3.2,1.8-6.6,3.5-9.9,5.1-11.1,7.9-21.8,16.3-32.2,25.1-19,16.2-36.5,33.8-52.6,52.6.5.3,1.1.7,1.9,1.1-3,2.7-5.3,4.9-7.6,7-.2-.2-.3-.4-.5-.6-20.5,25-38.4,52-53.4,80.5,1.1,0,2.3.4,3.8,1.2-1.7,2.4-4,3.5-6.1,3.2-19.7,38.4-34.3,79.4-42.9,122,0,0,29.6-.8,29.6-.8,0,0,0,0,0,0C120.8,216.8,293.7,73.1,500.2,67.3c33.6-.9,66.4,1.8,98.2,7.9-.3-.2-.5-.5-.8-.7,4.1-.9,7-1.6,10.6-2.4-.9,3.3-2.8,3.8-4.7,4.1,81.3,16.6,155.1,55.4,214.1,110.7,1,.5,2,.9,3,1.4.7.3,1.1,1.5,1.6,2.3-.1,0-.3.2-.4.2,16.6,16,32,33.3,46,51.8.1-.7.4-1.4.6-1.5,1.1-.3,2.5-.2,3.7.2,2.2.8,4.2,1.9,6.3,2.9-.2.4-.5.8-.7,1.1-2.1.2-4.2.7-6.3.6-.5,0-1-.2-1.5-.5,2.2,3,4.4,6,6.5,9-.2-1.1-.4-2.2-.5-3.3-.1-1,.2-2.1.3-3.1,1.2.3,2.7.3,3.5,1,1.2,1.1,1.9,2.7,3.1,4.6-.5.4-1.2,1.2-2.5,2.4,1.1.7,2,1.3,2.4,1.6-.4,1.4-.7,2.8-1.1,4.2,15.1,22.3,28.2,46.2,39.2,71.4,1.5,1.3,3.6,2.4,4.4,4.1,2.1,4,1.8,9.7,8.9,9.8-.1.4-.2.9-.3,1.3-1.4,1.2-2.9,2.4-5.1,4.2,5.1,13.3,9.5,26.9,13.4,40.8,0,0,0,.1,0,.1l29.6-.8c-1.7-6.7-3.7-13.3-5.7-19.9ZM59.9,376.3c.9-3.2,1.4-5.3,2.2-7.3.2-.6,1.2-1.1,1.8-1.3.5,0,1.6.7,1.5,1-.3,1.9-.6,3.9-1.5,5.6-.4.8-2,1-4.1,2ZM67.8,408.8c-3.5-2.2-3.7-8-.4-13.1.1,4.7.2,8.8.4,13.1ZM78.2,328.9c-.8-.5-.7-4.2.2-5.2,2.3-2.4,4.9-1.5,7.3,1.8-3.1.8-3.8,5.6-7.5,3.3ZM112.2,272.1c-.6,1.2-1.2,2.5-2,3.5-.6.8-2,1.8-2.6,1.5-1-.4-2-1.6-2.3-2.6-.7-2.6,2.6-6.2,6.1-6.2.2,0,1.2.5,2.1.8-.5,1-.9,2-1.4,3ZM124.2,256.1c-.6-.2-1.6-1.3-1.4-1.5.4-.9,1-1.9,1.8-2.3,1.9-.9,4-1.4,6.3-2.2.6,4.1-2.8,7.2-6.6,6ZM149.5,222.3c-.4,2.5-3.2,5.6-5.2,7.2-2.3,1.9-4.5,4-7.4,6.7.5-3.4.8-5.6,1.2-7.8.1-.6.7-1.5,1.1-1.5,4.3,0,5.1-3.3,6.4-6.2.5-1,2.1-1.5,3.1-2.3.3,1.3.9,2.7.7,3.9ZM254.5,130.3c-.6-.8-1.7-1.8-1.5-2.2.5-1.3,1.5-2.4,2.5-3.3.3-.2,1.6.9,3.6,2-2.1,1.6-3.3,2.6-4.5,3.5ZM305.1,99.2c-1.2-1.5-2.5-2.9-3.7-4.4.8-.6,1.8-1.9,2.2-1.7,1.4.6,2.6,1.7,4.6,3-1.6,1.6-2.4,2.3-3.1,3.1ZM345.3,88.7c-3.8-.5-7-.9-10.2-1.4,1.5-2.1,8.4-5.2,10.2-4.5.9.4,2.3,1.7,2.2,2.1-.5,1.5-1.6,2.9-2.2,3.7ZM386.5,72.9c2.6-4.5,7.3-5.5,11.2-3.4,1.4.8,3.4.5,5.1.8,1.8.3,3.6.7,5.4,1.7-7.2,5.3-14.5-.6-21.7.8ZM417,67.9c-1.8,2.3-4,3.6-6.8.6-.8-.9-2.9-.4-4.2-.9-1.3-.6-2.4-1.7-3.6-2.5,1.2-.8,2.4-2,3.7-2.2,2.3-.3,4.7.4,6.9,0,1.5-.3,2.7-2.2,4.2-3,1.4-.8,3.1-1.2,4.6-1.7.2.4.3.7.5,1.1-1.8,2.9-3.4,6-5.5,8.7ZM425,58.6q0-2.6,6.9-3.3c.2,3.7-.6,4.1-6.9,3.3ZM439.4,58.7c5.6-4,17.5-2.9,19.7,2.1-6.7-.7-12.7-1.3-19.7-2.1ZM495.3,61.9c-1.3-1.4-2.3-2.4-3.3-3.5,1.2-.7,2.5-2.1,3.6-2.1,1.5,0,2.9,1.4,4.3,2.1-1.4,1-2.8,2-4.7,3.4ZM525.9,56.2c1.1-5.5-3.5-4.6-6.3-6.2,5.3-1.2,10-.7,13.9,3.7-1.5,3.8-4.8,1.7-7.6,2.5ZM547.3,59.2c-4.1,0-7.4-.2-11-.3,3.6-5.9,6.5-6,11,.3ZM564,65.7c-2.8-.2-5.5-.8-8.3-.9-2.4-.2-4.9.2-7.3,0-1.3-.1-2.5-1-3.7-1.5,1-.9,1.9-2.2,3.1-2.7,1.8-.7,3.8-.7,5.3-1,2.6.5,4.6,1,6.6,1.4,1.7.3,3.6.2,5.1.8.8.3,1.2,1.8,1.8,2.8-.9.4-1.8,1.3-2.6,1.2ZM582,66.5c-2.5-.4-4.9-1.6-8.5-2.8,1.6-1,2.5-1.7,3.5-2.4,0-.3,0-.7-.1-1-2.7-.3-5.4-.5-8.1-.8,4.4-2.2,8.8-5.4,12.8.3.4.6,2.2.3,2.6.8.9,1.4,1.4,3.1,2.1,4.8-1.4.4-2.9,1.4-4.3,1.2ZM604.6,58.9c-1.8,1.4-3.6,2.9-5.6,3.6-1.4.5-3.3-.4-5-.6,0-.5,0-1.1,0-1.6,3.1-1.5,6.1-3.1,9.2-4.4.7-.3,1.7.3,2.6.5-.4.9-.6,2-1.2,2.5ZM626.5,76.2c-1.6.5-3.5.2-4.6.3-1.5-3.2-2.6-5.6-3.7-8,2.8-1.2,10,2,10.3,4.9.1.9-1,2.6-1.9,2.8ZM636.9,74.8c2.5-1.2,4.8-2.4,7.6-3.8-.8-.8-1.7-1.3-1.7-1.8,0-1,.5-2.8.7-2.8,3.2.2,6.3.6,9.7.9-.7,2.5-1.3,4.3-2,6.6-1.3-.1-2.8-.5-4.1-.4-1.2.2-2.6.7-3.3,1.5-2.2,2.9-3.3,3-6.9-.3ZM651.8,85.5c-.5.5-1.5,1-2,.8-2-.6-3.9-1.5-6.4-2.6,2.6-2,7.2-1.7,8.2-.1.3.5.5,1.5.2,1.9ZM657.3,83.6c-1.4.3-2.8.1-4.5.2.7-3.7,2.3-4.5,5.1-3.5,1.8.6,3.6,1.2,5.5,1.8-2,.5-4,1.2-6,1.6ZM677.4,97c-2.8-2-5.7-3.9-9.7-6.7,3.1-1.4,7-3.8,7.3-3.3,1.9,2.4,3,5.5,4.3,8.4-.7.5-1.3,1.1-2,1.6ZM687.3,94.1c-2.3-1.7-4.6-3.5-6.8-5.3-.8-.6-1.9-1.6-1.9-2.2.1-1,1-2.2,1.9-2.7,2.7-1.6,7.7,1,7.8,4.2,0,2.7.9,4,3.8,3.9,1.2,0,2.4,1.2,3.6,1.8-1.1.9-2.2,1.8-3.6,2.9-1.9-1-3.5-1.7-4.8-2.6ZM704.3,104.8c-4-1.2-6.9-2-9.8-2.9,0-.5.2-.9.3-1.4,3.1-.8,6.3-1.5,9.3.6.6.4.1,2.2.2,3.7ZM713.2,100.5c-.8,1.5-2.1,2.7-3.5,4.3-1.9-3.2-3.6-5.7-4.8-8.5-.5-1.2.1-2.9.3-4.3,1.2.5,2.7.7,3.7,1.5,1.5,1.1,2.9,2.5,4.1,4,.5.7.7,2.2.3,3ZM738.9,124c-6.1-1.3-6.6-2.7-3.8-9.3,4.1,1.6,4.8,3.3,3.8,9.3ZM768.5,145.3c-2.5.2-4-.9-3.4-3.6.6-3,1.5-6,2.6-10,4,3.9,3.7,8.4,4.9,12.5-1.4.4-2.7,1-4.2,1.1Z"/>
      <g>
        <path class="cls-4" d="M216.9,868.1c-.4-.2-.7-.5-1-.8-1-1.2-1.2-2.9-2.1-4.1-.8-1.1-2-2.1-3.1-2.9-.2-.1-1.7,1.1-1.6,1.4.4,1.5.8,3.2,1.8,4.4,1.4,1.7,3.2,3,4.8,4.5-.1-.7-.3-1.4-.5-2,.6-.2,1.2-.4,1.8-.6Z"/>
        <path class="cls-4" d="M685.5,934.6c-.5-.3-.9-.5-1.3-.8,0,.7,0,1.3,0,1.8.4-.2.8-.6,1.3-1Z"/>
        <path class="cls-4" d="M950.7,594.5s0,.1,0,.2c-.2,1.1-.4,2.1-.6,3.2-3,15.6-6.9,30.9-11.5,45.9,1.9-1.5,3.6-3.2,4.2-6.1.3-1.4,3.5-2.3,5.7-3.6,2.7,4.6,2.3,5.9-2.1,6.2-.2,2.4-.5,4.8-.6,6.4-2.9.3-4.9.6-6.8.7-.4,0-.9,0-1.3-.3-4.7,14.8-10.2,29.2-16.3,43.2.2,0,.4.1.6.3.8.5.7,4.2-.2,5.2-1.1,1.1-2.2,1.5-3.4,1.2-8.5,18.4-18.2,36.2-29,53.1.9.4,1.8,1.5,2.1,2.5.7,2.6-2.6,6.2-6.1,6.2-.2,0-.7-.3-1.3-.5-11.5,17.2-24.1,33.5-37.8,48.8.3.3.5.7.8,1-1.5,1.1-3.1,2.2-4.6,3.3-26.1,28.6-55.9,53.8-88.4,74.9.3.2.6.4.9.5-.6,1.1-1.3,3-1.9,3-4.5.2-7.3,3.2-10.7,5.4-.7.5-1.8.2-2.8.2-53.2,31.6-113.1,52.5-176.5,59.8-.2,1.6-1.1,1.7-6.9,2.3,0-.6,0-1.1,0-1.6-10.1,1-20.4,1.7-30.7,2-209.3,5.9-395.6-136.3-445.2-338.9,0,0,0-.1,0-.1l-29.4.7c4.3,18.7,9.8,37,16.2,54.7.7,1.3,1.3,2.7,2,4-.1.1-.3.2-.4.3,10.4,27.7,23.2,54.1,38.3,78.9.3-.3.6-.6.9-.9-1.1-.7-2-1.3-2.4-1.6.9-3.5,1.8-6.8,2.8-10.5,4.1,3.2,2.4,7.3,2.9,10.9.3,2,.8,4.1,1,6.1.1,1-.2,2.1-.3,3.1-.2,0-.5-.1-.7-.1.5.8,1,1.6,1.5,2.4,1.3-.2,2.6-.4,3.9-.2,1.3.1,2.7,1.1,3.6,2.1.4.5,0,2.6-.5,2.7-1.1.3-2.5.2-3.7-.2-.3,0-.5-.2-.7-.3,88.2,135.1,242.6,220.4,411,215.7,108.4-3,213.3-43.5,295.5-114,80.9-69.5,136.7-165.1,156.9-269.2.6-3.2,1.2-6.4,1.8-9.7l-29.4.8ZM80.1,695.9c1.1-1.8,1.9-3.1,2.7-4.4.5,0,1,0,1.5,0,.5,1.7,1.1,3.3,2,6-2.7-.7-4.2-1-6.2-1.5ZM96.8,725.1c0-1.7.1-3.4.2-5.1.9,0,1.8,0,2.7-.1.2,1.7.3,3.4.5,5.1-1.1,0-2.2.1-3.4.2ZM105.6,720.3c-3.9-3.8-9.6-4.2-13.6-7.8,0,0,0,.1,0,.2,0,0,0-.2,0-.2,0,0,0,0,0,0,.6-3.6,2.8-4.6,6.3-4,4.5.9,9.4,1,9.4,7.5,0,.5.8.9,1,1.4.4,1.2.7,2.4,1,3.6-1.4-.2-3.2,0-4-.8ZM775.6,886.2c1.2-1.6,3.1-2.8,4.8-3.9.2-.1,1.3,1.2,1.6,1.5-2.4,2.5-4,4.3-6.3,6.7,0-1.6-.7-3.4,0-4.3ZM771.9,883.2c.4.4.8.8,1.1,1.2-2.2,2.3-4.4,4.7-6.7,6.9-.2.2-1.6-.8-3.7-1.9,3.7-2.6,6.5-4.4,9.2-6.3ZM759.1,889.3c.3-.4,2.4-.3,2.6,0,.6,1.5,1.6,4.2,1,4.7-2.1,1.8-4.9,3-7.4,4.4-.4-.5-.8-1.1-1.2-1.6,1.6-2.5,3.2-5.1,5-7.5ZM567.5,967.1c-3.6,3-6.1,1.1-8.8-1.2,3.9-3.4,6.3-3,8.8,1.2ZM535.6,968.1c0-.8.2-2,.3-3.2.5.1,1,.2,1.5.4-.6,1.9-.8,4.1-1.9,5.6-.7.9-2.8.7-4.3,1-.2-.7-.3-1.4-.5-2,1.6-.6,3.2-1.1,5-1.7ZM238.2,867.6c2.6.8,4.4,3.9,6.6,6-.3.4-.5.7-.8,1.1-5.2-.4-10.5-.6-15.7-1.4-3.9-.6-7.1-5.2-6.8-9,5.6,1,11.3,1.6,16.7,3.3ZM205.6,848.2c-.4,2.2-.2,4.3-1,4.8-1.2.7-3.9,1.1-4.6.3-1-1.1-.9-3.4-1.2-5.1,2,0,4,0,6.8,0ZM167.2,806.5c1.9,1.1,4.1,2,5.6,3.5,1.1,1.1,1.2,3.1,1.8,4.7-1.8.1-3.9.9-5.2.2-4-2-4.8-5.5-2.1-8.5ZM118.3,748.1c-.5-1.2.2-2.9.4-4.4.6,0,1.3-.1,1.9-.2.8,2.1,1.7,4.3,2.5,6.4-.4.3-.8.7-1.2,1-1.2-.9-3-1.6-3.6-2.8ZM124.2,766.2c-1.1-1-2.3-2-4.1-3.6,1.5-1.3,2.8-2.8,3.1-2.6,1.2.7,2.6,1.8,2.8,2.9.2,1-1.2,2.2-1.9,3.3ZM145.8,789.1c.6,4.1,1.1,7.5,1.7,11.1-4.4-1.3-5.1-6.1-1.7-11.1ZM154.1,795.3c2.2,2.1,4.4,4.1,6.6,6.2,0,.4,0,.8-.1,1.1-1.5,0-3.8.4-4.5-.4-1.5-1.7-2.2-4.1-3.2-6.3.4-.2.9-.5,1.3-.7ZM156.1,807.1c.6-.1,1.2-.2,1.7-.3,1.4,1.8,2.8,3.7,4.2,5.5,0,.4-.1.8-.2,1.2-1.5-.4-3.5-.4-4.3-1.3-1-1.2-1-3.3-1.5-5ZM166.4,823.8c-.3,0-.4,0-.7,0-2.1.2-4.6-3.3-6.9-5.1.1-.4.3-.7.4-1.1,1.2.4,2.9.4,3.7,1.2,2.3,2.3,4.2,3.3,6.6.2.5-.6,1.8-.7,2.2-.8,1.5,2,2.9,3.7,4,5.5.1.2.2.4.3.7,1,.5,1.9,1,2.5,1.8.6.7.4,2.1.6,3.7-4.8-2.1-8.5-3.6-12.1-5.4-.3-.1-.4-.4-.6-.6ZM172.9,833c2.2-.8,4.2-2.1,4.9-1.6,1.4,1,2,3,2.2,5-1.9-.9-3.8-1.8-7.2-3.4ZM187.6,843c0-4.6-7.2-5.8-5.6-11.5,5,3,10.1,5.2,8.4,12.6-.7-.3-2.8-.7-2.8-1.2ZM192.6,853.2c-2.5-1.2-2.2-5.3.9-10.3,1.2,1.1,2.4,1.9,2.9,2.9.3.7-.5,2.8-.6,2.8-4.1-.6-2.9,2.6-3.3,4.6ZM197.1,858c-2.2-1.5-3.7-3.5-1.1-6.8,1.5,1.4,2.9,2.4,3.8,3.7.5.8.2,2.2.3,3.3-1,0-2.3.3-3-.2ZM215.1,878.7s0,0,0,0c0,0-.2,0-.2,0,0,0,0,0,.1,0-.6-.9-1.3-1.8-1.7-2.7-1.2-3.3-3.5-4.6-6.9-4-.2-3-.3-5.8-.8-8.5-.8-4.4-4.9-.2-7.2-2.7,2.8-2.3,5.3-4.4,7.6-6.3,6.2,3.1,10.4,7.7,13.5,13.2,2.3,0,3.6,1.1,3.1,3.6-.6,3-1.5,6-2.6,10-1.5-1.5-2.4-3-3-4.6-.5.7-1.1,1.4-2,2.1ZM235.1,882.5c-4.2-1.9-10-1.5-12.4-8.5,4.6,1.2,8.6,1.5,11.9,3.1,2.9,1.4,2.6,2,.6,5.4ZM249.4,880c-2.4,2.4-3.7,2-8.5-4.1,2.9,1.4,5.8,2.8,8.5,4.1ZM253.4,897.7c-.2,0-.4-.1-.6-.2,0,.2-.2.4-.3.7-2.3-.9-3.5-1.9-3.9-3.5-1.2-1.1-2.4-2.2-3.7-3.1-4.1-2.7-1.4-6.3-2-10.7,2.3,3.1,4.2,5.7,6.1,8.1,1.2.3,2.2.6,3,.9-.7-1.3-1.5-2.6-2.2-3.8-.4-.8-.9-1.6-1-2.5,0-.2,1.1-1,1.6-.9.8.2,1.9.7,2.3,1.4.6,1.1.3,2.8,1,3.6.9,1,2,2,3.1,2.9-.9-1-1.3-2.7-1.5-5.1,5.6,0,9,2.1,9.6,5.8-3.4.7-5.6.8-7.1.1.5.4,1,.8,1.5,1.1,1.3.9,2.8,1.4,4.2,2,0,.6,0,1.2,0,1.9-3.4.6-7.1,2.2-10.2,1.4ZM282.6,920.9c-1.2-.5-2.7-.7-3.7-1.5-1.5-1.1-2.9-2.5-4.1-4-.5-.7-.7-2.2-.3-3,.8-1.5,2.1-2.7,3.5-4.3,1.9,3.2,3.6,5.7,4.8,8.5.5,1.2-.1,2.9-.3,4.3ZM283.7,911.8c-.5-.4-.2-1.8-.2-3.2-.5-.3-.9-.6-.9-.9-.2-5.6-5.3-4.8-8.1-6.8-.7-.5-2.3,0-3.3.4-3,1.4-5.2.8-7.4-2.4,3.2-.9,6.6-2.7,9.6-2.2,2.8.5,5.2,3.5,7.8,5.3,2.2,1.5,4.5,2.8,7.5,4.7,0,.3-.2,1.3-.5,2.9,1.8.5,3.4,1,5,1.5,0,.5-.2.9-.3,1.4-3.1.8-6.3,1.5-9.3-.6ZM312.8,925.9c-.7-.9-1.3-1.9-1.8-2.9-.4.9-1,2-1.8,3.6,0,0-.1,0-.2-.1-.2,1-1,2-1.8,2.5-2.7,1.6-7.7-1-7.8-4.2,0,0,0-.1,0-.2-.9-.2-1.5-.3-2-.4.2-1,.4-1.9.7-2.7-.6-.3-1.4-.5-2.5-.5-1.2,0-2.4-1.2-3.6-1.8,1.1-.9,2.2-1.8,3.6-2.9,1.3.7,2.4,1.2,3.4,1.8,1.4,0,3.4-.1,5.4-.2,0,0,0,0,0,0-1.8-1.1-6.6.4-4.1-4.6,0,0-.1,0-.2,0,0,0,.2,0,.2,0,0,0,0,0,0,0,1.4,0,2.7,0,4.1.2,1,0,1.9.4,2.8.6-.6.9-1.2,1.8-1.8,2.6-.3.4-.7.8-1.1,1.2,0,0,.1,0,.1,0h0s0,0,0,0c1.4,0,2.9,0,4.2.1,0-.1,0-.2-.2-.3.4-.3.7-.6,1.1-.9.4-.7.8-1.5,1.2-2.3.8,1.2,1.6,2.4,2.2,3.3,2.2,1,4.4,1.9,6.7,2.9-.2.4-.4.9-.6,1.4.4.3.7.5,1.1.8-3.1,1.4-7,3.8-7.3,3.3ZM315.5,939.3c.1-1.2-1-2.5-1.7-4.1,4.7-1.2,5.7-.5,5.9,3.8,0,1.5.5,3.1.8,5.1-3.2-.6-5.3-1.3-5-4.8ZM318.9,925.4c0-.4,0-.8.1-1.1,1.9.2,3.7.5,6.1.8-.6,2.1-1.1,3.7-1.8,6-2-2.5-3.2-4.1-4.5-5.7ZM329.9,932.6c-1.8-.6-3.6-1.2-5.5-1.8,2-.5,4-1.2,6-1.6,1.4-.3,2.8-.1,4.5-.2-.7,3.7-2.3,4.5-5.1,3.5ZM345,943.6c0,1-.5,2.8-.7,2.8-3.2-.2-6.3-.6-9.7-.9.7-2.5,1.3-4.3,2-6.6,1.3.1,2.8.5,4.1.4,1.2-.2,2.6-.7,3.3-1.5,2.2-2.9,3.3-3,6.9.3-2.5,1.2-4.8,2.4-7.6,3.8.8.8,1.7,1.3,1.7,1.8ZM356.7,959.6c-3.4-.1-4.6-2.5-5.1-4.8-.2-.8,1.9-2.2,2.9-3.3.8.9,2.1,1.7,2.3,2.7.4,1.5,0,3.2-.1,5.3ZM360.9,945.3c1.7.1,3.3.5,4.9.3,1.5-.2,3-.9,5-.5-3.7,4.4-1,6.5,1.7,9-6.5.8-10.6-2.4-11.6-8.7ZM389.4,958.6c-1.1,1.2-2.3,2.4-4.4,4.7-.4-2.1-.7-3.2-.8-4.3,0-.6-.1-1.3-.1-1.9-.6,0-1.4-.4-2.1-.5.4-.9.6-2,1.2-2.5,1.8-1.4,3.6-2.9,5.6-3.6,1.4-.5,3.3.4,5,.6,0,.5,0,1.1,0,1.6-1.4.7-2.7,1.3-4,2,2,.3,3.9,1,5.5,2.9.8,1,2.5,1.5,3.9,1.8,1.6.4,3.2.3,5.5.5-4.5,3.5-8.9,3-15.2-1.2ZM445,974.6c-2.3,2.4-4,2.6-6.4.3-1.1-1.1-3-1.5-4.3-2.4-.8-.6-1.7-1.8-1.6-2.4.2-.7,1.6-1.7,2.4-1.7,1.5,0,2.9.8,4.3,1.2,1,.3,2.1.7,3.1.9,1.3.2,2.6,0,3.9,0-.5,1.4-1,2.7-1.5,4.1ZM440.4,953.7c4.1,0,7.4.2,11,.3-3.6,5.9-6.5,6-11-.3ZM466.6,972.7c-2.6.2-5.3.3-7.9.5-.2-.4-.4-.9-.6-1.3,1.8-1,3.6-2.5,5.6-2.9.9-.2,2.3,1.4,3.5,2.2-.2.5-.4,1-.6,1.5ZM454.2,959.1c1.5-3.8,4.8-1.7,7.6-2.5-1.1,5.5,3.5,4.6,6.3,6.2-5.3,1.2-10,.7-13.9-3.7ZM520.8,980.2c-.9,0-1.8-1.9-2.8-3,.2-.4.5-.7.7-1.1,1.8.3,3.7.5,5.5.8.1.3.2.7.4,1-1.3.8-2.5,2.3-3.8,2.3ZM562.7,979s-.2,0-.2,0c0,0,0,0,0,0-3.5-1.9-6.9-2.8-11-1.1-1.6.7-4-.8-5.9-.6-2,.2-4.8.8-5.6,2.2-1.6,2.6-3,1.8-4.8,1-2.2-.9-4.5-1.7-7.5-2.8-.8-5.3-10.3-4.5-16.8.3-3.2-1.5-6.2-2.9-9.1-4.4,2.1-2.3,4.6-1.9,9,1.3,2.2-1,4.3-1.9,7.2-3.2-1.3-1.6-2.7-3.2-4.3-5.2.9-.2,2-.7,2.8-.4,2.8,1,4.8.2,6.8-2,.8-.8,2.7-.7,4-.8.2,0,.5.8.8,1.2-1.2.4-2.4.9-3.6,1.2-.5.2-1.1.1-1.7.1-2.2,5.4-.2,8.1,5.5,8,2.1,0,4.2.9,6.3,1.4.9.2,2,.7,2.8.5,2.1-.5,4.4-1.1,6.2-2.2,1.2-.8,1.7-2.7,2.6-4.3,4.7-.6,9.4,0,13.7,3.3.6.5,2.2-.2,3.3-.5,1.2-.4,2.4-1,4.5-2-2.1,3.6-3.6,6.3-5.2,9,0,0,0,0,.1,0ZM576.1,970.7c-.2-.3-.4-.7-.6-1-.9.4-1.9.6-3.1.6,1-1.1,1.8-1.8,2.1-2.6.1-.2.2-.5.4-.7-1.1-.4-2.5-2.1-4.6-5.1,1.7,0,3.4-.1,4.9-.2-.7-3.2.5-3.7,5.1-2.9-.2,3-.6,5.3-1.3,7,1.2-1.1,2.4-2.2,3.8-3.5.9,2.6,1.3,3.8,1.8,5.3-3,1.1-5.8,2.1-8.5,3ZM591.5,969.8c.4-2.7,6.1-6,10.7-5.9-1.7,5.5-4.2,6.8-10.7,5.9ZM618,964.5c-5.1,4.8-8.6,4.6-11.8-1.4,3.9-.9,7.2-1.8,10.6-2.4.7-.1,1.9.8,2.4,1.6.2.4-.6,1.7-1.2,2.2ZM630.7,964.7c2.2-2.5,5.5-3.5,9-2.9,0,0,.2,0,.3,0-3.1,1-6.2,1.9-9.3,2.9ZM650.2,945.7c-.7-4,2.4-5.9,4.6-7,1.2-.6,3.9,1.9,5.9,3-.2.5-.3,1.1-.5,1.6-3.2.8-6.5,1.6-10,2.4ZM671.4,944.2c0,.3,0,.6-.3.7-.7.6-1.4,1.6-2.2,1.6-2.8,0-5.5-.4-8.3-.6.6-1,1.3-3,1.9-2.9,3.7.3,5.4-1.3,5.1-5,1.8,0,3.4,0,4.5-.1-.3,2.2-.5,4.2-.8,6.2ZM675.3,938.3c.1-.2.2-.4.4-.6-.4,0-.7.1-1.1.2-.1-.6-.3-1.2-.4-1.9,1-.3,2.1-.6,3.1-1,.6-.9,1.1-1.9,1.8-2.9.5.6.9,1.4,1.3,2,.9-.3,1.9-.6,3-.9-1-.6-1.9-1.2-3-1.8.4-2.4,1.8-2.9,3.5-2.9,0-.4,0-.8,0-1.1.3-.7,2.1-.8,3.2-1.2.6-.2,1.3-.6,1.9-.5.9,0,1.7.5,2.5.7-.5.8-.9,1.9-1.6,2.4-.5.3-.9.5-1.5.8-1.3,1.5-1.9,2.8,5,3-3.4,3.2-5.4,5.5-7.9,7.2-1.1.8-3.2.3-4.8.1-1.7-.2-3.3-.9-5.6-1.5ZM695.3,944.2c-.8.4-2.1,1.1-2.7.8-3.2-2-6.4-3.4-10.2-.3,0-.5-.1-1-.2-1.5,3.6-2.3,7.2-4.7,11.3-7.3-.6,1.8-1.1,3.4-1.8,5.4,3-.2,5.1-.4,7.3-.6,0,.4.1.7.2,1.1-1.3.8-2.5,1.7-3.8,2.4ZM698.9,934.8c-1.6.2-2.9.3-4.9.6,1.3-3.6-2.3-7.5,2.1-9.8,1.5-.8,4-.8,3.8,2.4-5.5,1.1-5.6,1.4-1,6.8ZM708.7,921.5c.3.3.6.6.8,1-2.1,1.1-4.2,2.4-6.4,3.2-.3.1-1.3-1.7-2.2-2.8,3.1-.6,5.5-1,7.8-1.4ZM702.5,933.7c-.4-1.1-1.6-2.7-1.2-3.1,1.1-1.3,2.7-2.1,4.1-3.1.5.8,1,1.5,1.6,2.3-1.5,1.3-3,2.6-4.4,3.9ZM717.1,926.1c-2.9.1-5.8.7-9.4,1.2,2.3-4.3,4.4-8.1,9.4-8.9,0,0,0,0-.1,0,0,0,.2,0,.2,0,0,0,0,0,0,0,3.8.5,5.9-1.5,7.3-4.8,2.3-5.3,4.2-6.5,10.1-7.5,0,1.5,0,2.9.1,3.6-3.7,2.8-6.7,5.1-9.9,7.6,1.4,6.8,0,8.5-7.7,8.8ZM740.9,908.4c-.5.7-2.1.6-3.2.8-.2-.4-.4-.8-.6-1.2,1.4-1.6,2.7-3.1,4.1-4.7.4.2.9.4,1.3.6-.5,1.5-.7,3.2-1.6,4.5ZM745.7,902.5c.2-3.1.2-6,.6-9,0-.5,1.2-1.1,2-1.2.5,0,1.2.5,1.5,1,1.3,2.2-1.2,8-4,9.1ZM753,903.2c1.5-1.5,2.9-3,4.6-4.3.3-.2,1.5.7,2.3,1.1-.5.6-.8,1.3-1.4,1.7-1.5.9-3.1,1.6-4.6,2.4-.3-.3-.6-.6-.8-.9ZM754.3,909.6c.3-4.3,2.2-6,6.4-6,.4,3.1-.8,4.2-6.4,6ZM761.4,901.9c.5-1.8.7-3.7,1-5.8,1.9.6,3.5,1.5,5.1,2.1-2.2,1.6-4.4,3.1-6.7,4.6.3-.3.5-.6.6-.9ZM772.5,898.6c-1.3-.6-3.5.7-5.3,1.1.2-2.8,1.6-3.5,11.4-4.7-1.3,2.2-1.7,5.7-6.1,3.5ZM780.6,900.4c-.4-.3-.8-.6-1.2-.9,0-.5,0-1.3.2-1.6,1.3-1.5,2.7-2.8,4-4.2.4.5,1.1,1.3,1,1.5-1.3,1.8-2.7,3.5-4.1,5.2ZM787.7,881.4c-1.4.5-3.1.3-4.6.4,0-1,.1-1.9.2-3.5,1.9,0,3.4.1,4.9.2-.1,1,0,2.8-.5,2.9ZM815.4,853.8c-.2-.2-.4-.4-.6-.6,2.3-2.4,4.6-4.8,6.8-7.2,0,0,0,0,0,0,0,0,.2,0,.2,0,0,0,0,0,0,0,.7.8,1.5,1.5,2.4,2.5-3,1.9-5.8,3.6-8.6,5.4ZM848.2,843.2c-1.9.6-3.9,1.1-5.7,2-1.8,1-3.3,2.4-5.3,3.3,1.2-4.1,1.8-8.3,7.3-9.3,1.9-.4,3.5-2.7,6-4.7-.9,3.3-1.7,6-2.5,8.7,0,0,.2,0,.2,0ZM851.3,822.1c-1.2,4.8-6.2,7.7-12.6,6.9,3.3-3.5,6.1-6.6,9.1-9.5.6-.6,2-.6,3-.8.2,1.1.8,2.4.5,3.4ZM884.2,774.1c.3,0,.6.2.8.3,1.2-1.4,2.3-2.9,3.6-4.1.6-.5,2.2-.7,2.7-.3.6.5,1,2.2.6,2.7-1.5,1.8-3.2,3.6-5.1,5-.6.5-1.9,0-2.9,0,0-1.1.2-2.3.2-3.4ZM877.6,788.2c3,3.2,0,4.7-1.5,6-1,.9-3,.6-4.6.8,0-.4-.1-.8-.2-1.2,2-1.8,4-3.6,6.3-5.7ZM863.6,802.5c-1.3,1.6-2,3.6-3.2,5.8-4.7-6.4-4.5-7.4,2.1-11.5,2.6,1.4,3.3,3,1.1,5.7ZM865.6,808.1c2.1-5.6,4.7-7.3,8.9-5.2-3.3,1.7-3.8,6.9-8.9,5.2ZM876.9,806.4s-.2,0-.2,0c0,0,0,0,.1-.1-.6-1.8-1.3-3.6-2.3-6.5-1.7.3-4.3.6-7.2,1.1.1-2.4,2.6-3.9,5-3.6,3.2.4,6.3,2,9.9,3.3-2,2.1-3.7,3.9-5.4,5.7,0,0,0,0,0,.1ZM894,784.1c-1,.7-2.7.7-3.4,1.6-1.8,2.2-6.1,3.7-3,7.9.2.3-.7,2.2-1.2,2.2-.9,0-2.2-.4-2.7-1.2-1.9-2.5-2.2-5.3-.2-7.8,1.9-2.4,3.5-5.9,7.7-3,.3-.9.4-1.8.8-2.2.6-.5,1.4-.9,2.2-1,.3,0,1.1,1,1.1,1.4-.1.7-.6,1.6-1.2,2ZM897.3,766.3c1.6-3.1,3-6.4,5-9.3.5-.7,2.8-.3,5.1-.4-3,4.9-4.7,9.1-10.2,9.8Z"/>
      </g>
    </g>
  </g>
  <g>
    <circle class="cls-3" cx="513.2" cy="512.7" r="245.4"/>
    <circle class="cls-1" cx="513.2" cy="512.7" r="228.6"/>
    <g>
      <path class="cls-4" d="M436.8,733l112-279.6c-2.8-1-5.6-2.1-8.3-3.1-4.6,11.5-10.4,19.3-13.6,18.2s-3-11.3.6-23.6c.2-.6.4-1.2.5-1.8.3-.8.5-1.7.8-2.5v-.2c.2-.5.4-1.1.6-1.6,4.8-13.4,11.4-23.1,15-21.9,3.7,1.3,2.9,13.4-1.7,27.4,0,0,.1,0,.2,0,2.6,1,5.4,2.1,8.3,3.1h0s10.2-25.6,10.2-25.6c2.7-6.6-3-14.9-12.5-18.1-9.3-3.2-18.6-.3-20.8,6.2s-.1.3-.1.5l-6.9,24.4-.5,1.9-.7,2.6-.5,1.8h0s-82.4,291.7-82.4,291.7"/>
      <path class="cls-2" d="M689.9,622.6c-.2-.7-.9-1.1-1.6-1-.7.2-1.1.9-1,1.6,5.4,22.1-5.8,47.6-26.6,60.6-19.1,11.9-45.5,13.7-68.8,4.5-32.1-12.6-55.5-43.9-58.2-78.1-1.6-20.1,3.5-42.5,15.6-68.4,4.6-9.9,9.9-19.7,14.9-29.2,6-11.2,12.3-22.9,17.5-34.7,2.2-5.1,4.2-10.1,5.9-15,48.5,12.4,98.3,18.9,148.5,19.2.7,0,1.3-.6,1.3-1.3,0-.7-.6-1.3-1.3-1.3-49.9-.4-99.4-6.8-147.6-19.1,6.3-19.2,8.3-36.6,5.9-52.8-1.8-12.3-6.5-24-13.6-33.8-7.6-10.5-17.4-18.1-28.4-22-.2,0-.4-.1-.6-.2-12.2-4.1-26.5-3.1-38.6,3-10.7,5.3-18.3,13.9-21.4,24.1-2.6,8.7-2.1,18.4,1.5,28,3.3,8.8,9.1,17.2,16.4,23.7,4.3,3.8,8.9,7.1,13.8,9.9l.8-2.6c-4.5-2.7-8.8-5.7-12.8-9.3-12.5-11.2-22.7-30.7-17.1-49,2.9-9.5,10-17.5,20.1-22.5,11.4-5.7,25-6.7,36.5-2.8.2,0,.4.1.5.2,20.8,7.4,36.6,28.5,40.3,53.8,2.3,15.8.4,32.8-5.9,51.8-8.2-2.1-16.4-4.4-24.5-6.9-4.7-1.4-9.6-3-14.6-4.8-.6-.2-1.2-.4-1.8-.7-1.8-.7-3.6-1.4-5.4-2.1-.6-.2-1.2-.5-1.7-.7-1.7-.7-3.4-1.5-5-2.3-.3.9-.6,1.7-.8,2.5,1.6.8,3.3,1.5,5,2.2.6.2,1.2.5,1.7.7,1.8.7,3.6,1.4,5.3,2.1.6.2,1.2.4,1.8.7,5,1.8,10,3.4,14.7,4.8,8.1,2.5,16.3,4.8,24.4,6.9-1.7,4.8-3.6,9.6-5.8,14.6-5.2,11.8-11.4,23.4-17.4,34.6-5.1,9.5-10.4,19.3-15,29.3-12.3,26.3-17.4,49.1-15.8,69.7,1.3,17.2,7.8,33.9,18.6,48.4,10.8,14.5,25.1,25.6,41.2,31.9,1.2.5,2.4.9,3.7,1.3,10.5,3.6,21.8,5.2,32.7,4.6,12.8-.7,24.8-4.4,34.8-10.6,21.7-13.6,33.4-40.3,27.7-63.4Z"/>
    </g>
  </g>
  <g>
    <path class="cls-4" d="M512,846.4c-9.6,0-17.3,7.7-17.3,17.3s7.7,17.3,17.3,17.3,17.3-7.7,17.3-17.3-7.7-17.3-17.3-17.3ZM512,877.8c-7.7,0-14.1-6.3-14.1-14.1s6.3-14.1,14.1-14.1,14.1,6.3,14.1,14.1-6.3,14.1-14.1,14.1Z"/>
    <path class="cls-4" d="M512,851.8c-6.6,0-11.9,5.4-11.9,11.9s5.4,11.9,11.9,11.9,11.9-5.4,11.9-11.9-5.4-11.9-11.9-11.9ZM507.7,870.2c-1.2,0-2.2-1-2.2-2.2s1-2.2,2.2-2.2,2.2,1,2.2,2.2-1,2.2-2.2,2.2ZM507.7,861.5c-1.2,0-2.2-1-2.2-2.2s1-2.2,2.2-2.2,2.2,1,2.2,2.2-1,2.2-2.2,2.2ZM516.3,870.2c-1.2,0-2.2-1-2.2-2.2s1-2.2,2.2-2.2,2.2,1,2.2,2.2-1,2.2-2.2,2.2ZM516.3,861.5c-1.2,0-2.2-1-2.2-2.2s1-2.2,2.2-2.2,2.2,1,2.2,2.2-1,2.2-2.2,2.2Z"/>
  </g>
  <g>
    <path class="cls-4" d="M390.2,853.4l17.6-54.3,23,7.5-17.6,54.3,22.1,7.2-6.1,18.8-67.3-21.8,6.1-18.8,22.1,7.2Z"/>
    <path class="cls-4" d="M339.2,763.2l-15.4,24.1,21.1,13.5,15.4-24.1,20.4,13.1-41.4,64.8-20.4-13.1,15.1-23.6-21.1-13.5-15.1,23.6-20.4-13.1,41.4-64.8,20.4,13.1Z"/>
    <path class="cls-4" d="M312,743.2l-56,52.7-41.2-43.7,13.7-12.9,25,26.5,7.3-6.9-19.7-20.9,13.7-12.9,19.7,20.9,7.5-7.1-25-26.5,13.7-12.9,41.2,43.7Z"/>
    <path class="cls-4" d="M178.2,640.6c-.6,6,.6,13.3,3.2,18.9,5,10.6,15,13.9,26,8.7,11.2-5.3,15.5-14.5,10.2-25.7-3-6.5-7.7-11.3-13.5-15.3l16.5-13.7c5.3,4,11.9,13.2,15.8,21.4,11,23.3,5.8,43.8-18.2,55.1-22.6,10.6-43.6,2.7-55.1-21.6-4.1-8.8-6-17.9-6.2-25.8l21.2-2Z"/>
    <path class="cls-4" d="M222.4,605.5l-75,16.8-5.3-23.6,55.7-12.5-6.5-28.9,19.3-4.3,11.8,52.6Z"/>
    <path class="cls-4" d="M211.3,512.9c0,23-13.4,40.9-40.3,40.8-25.1,0-40.4-18.5-40.3-41.5,0-23,13.3-40.9,40.1-40.8,25.1,0,40.5,18.5,40.4,41.5ZM149.8,512.7c0,11.2,8.5,16.6,20.8,16.7,12.7,0,21.5-5.7,21.6-16.9,0-11.1-8.7-16.6-21-16.7-12.7,0-21.4,5.7-21.5,16.9Z"/>
    <path class="cls-4" d="M167.4,410l55.2,14.5-6.2,23.4-55.2-14.5-5.9,22.5-19.1-5,18-68.4,19.2,5-5.9,22.5Z"/>
    <path class="cls-4" d="M254.6,354l-25-14.1-12.3,21.9,25,14.1-11.9,21.1-67-37.7,11.9-21.1,24.4,13.8,12.3-21.9-24.4-13.8,11.9-21.1,67,37.7-11.9,21.1Z"/>
    <path class="cls-4" d="M310.8,214.2l23.9,52-20.7,16.3-44.9-35.1,34.8,44.6-17.5,13.8-45.5-62,27.3-21.6,43.4,35.6-24.5-50.5,27-21.3,49.7,58.7-17.9,14.1-35.4-44.5Z"/>
    <path class="cls-4" d="M371.9,243.3l-29-71.2,55.6-22.7,7.1,17.4-33.7,13.7,3.8,9.3,26.7-10.9,7.1,17.4-26.7,10.9,3.9,9.6,33.7-13.7,7.1,17.4-55.6,22.7Z"/>
    <path class="cls-4" d="M458.8,214.8l-24,3.6-11.5-76,34.4-5.2c21.2-3.2,33.8,4.8,36.1,20,1.5,9.6-2,18.6-11.5,24.1l23.3,26.3-26.5,4-17.1-21.1-6.6,1.6,3.4,22.5ZM460.6,174c7.2-1.8,9.7-5.1,8.7-11.3-.8-5.6-4.5-7.9-13.2-6.6l-6.6,1,2.8,18.2,8.3-1.4Z"/>
    <path class="cls-4" d="M571.5,160.4c-4.9-3.5-11.8-6.2-17.9-6.7-11.6-1-19.5,6-20.5,18.1-1,12.4,4.8,20.7,17.2,21.7,7.1.6,13.7-.9,20-4l3.5,21.2c-6.1,2.6-17.3,3.7-26.4,3-25.6-2.2-40.8-16.9-38.6-43.4,2.1-24.9,19.5-39.1,46.3-36.8,9.7.8,18.4,3.8,25.4,7.6l-8.9,19.4Z"/>
    <path class="cls-4" d="M626,231.4l9.5-27-23.7-8.3-9.5,27-22.9-8,25.5-72.5,22.9,8-9.3,26.5,23.7,8.3,9.3-26.5,22.9,8-25.5,72.5-22.9-8Z"/>
    <path class="cls-4" d="M719.8,287.2l-19.7-13.6,4.2-14.6-21.5-14.8-11.9,9.3-19.6-13.5,65.4-48.3,25.4,17.5-22.3,78ZM719.4,214.6l-22.4,17.3,13.8,9.5,8.6-26.8Z"/>
    <path class="cls-4" d="M814.4,280.5l14.5,17.2-59.4,50-16.6-19.7,16-49.7-33.3,28.1-14.5-17.2,58.8-49.5,16.8,19.9-15.8,49,33.4-28.1Z"/>
    <path class="cls-4" d="M844.7,370.3l-51.6,24.5-10.4-21.9,51.6-24.5-10-21,17.9-8.5,30.3,63.9-17.9,8.5-10-21Z"/>
    <path class="cls-4" d="M813.8,484.4c-2.2-22.9,9.3-42,36-44.6,25-2.4,42,14.4,44.2,37.3,2.2,22.9-9.2,42-35.9,44.6-25,2.4-42.2-14.4-44.4-37.3ZM875,478.5c-1.1-11.1-10.2-15.7-22.4-14.5-12.6,1.2-20.9,7.8-19.8,19,1.1,11,10.3,15.7,22.5,14.5,12.6-1.2,20.8-7.8,19.7-18.9Z"/>
    <path class="cls-4" d="M893.8,543.6l-8.7,58.1-19.2-2.9,5.2-34.5-10.9-1.6-4.1,27-19-2.9,4.1-27-26.9-4,3.6-23.6,76,11.4Z"/>
    <path class="cls-4" d="M797.4,622.2l70.7,30.2-9.5,22.3-70.7-30.2,9.5-22.3Z"/>
    <path class="cls-4" d="M818,742.5l-12.8,18.5-63.9-44.1,14.6-21.2,52.2,2.4-35.8-24.7,12.8-18.5,63.3,43.7-14.8,21.5-51.5-2.3,35.9,24.8Z"/>
    <path class="cls-4" d="M712.4,743.4l23.1-19.3,49.3,59-24.4,20.4c-21.4,17.9-42.8,16.2-57.5-1.3-15.1-18.1-12.7-40.2,9.6-58.8ZM749.6,788.2l4.6-3.9-25.5-30.5-5.6,4.7c-9.3,7.7-11,17-2.2,27.5,9.1,11,17.8,11.3,28.6,2.2Z"/>
    <path class="cls-4" d="M670.3,774.2l37.1,67.3-21.2,11.7-37.1-67.3,21.2-11.7Z"/>
    <path class="cls-4" d="M567.5,815.7l22.8-7.4,9,12.2,24.8-8.1v-15.1c-.1,0,22.6-7.4,22.6-7.4l-1.4,81.3-29.4,9.5-48.4-65.1ZM625.4,859.5v-28.3c-.1,0-16,5.2-16,5.2l16,23.1Z"/>
  </g>
  <g>
    <path class="cls-4" d="M502.4,331.9c-.1-1.8-.3-3.6-.3-5.4,0-.3,1.1-1,1.3-.9.9.5,2.3,1.4,2.2,1.9-.4,1.7-1.3,3.2-2,4.8-.4-.1-.8-.2-1.2-.3Z"/>
    <path class="cls-4" d="M455.6,307c-1.3,1.6-2.5,3.1-3.9,4.8-1.8-1.7-1-3.7-.3-5,.4-.7,2.6-.5,3.9-.8.1.3.2.6.4,1Z"/>
    <path class="cls-4" d="M581.3,292.9c.2,1.5,1.3,3.4-1.6,3.9-.8.2-1.4,1.6-2.1,2.5-1-1.4-.5-2.3,3.8-6.4Z"/>
    <path class="cls-4" d="M652.1,702.2c1-.5,1.9-1.1,2.9-1.6.2.1.4.2.6.4-.3.9-.4,2-1,2.5-.4.3-1.6-.3-2.4-.4v-.8Z"/>
    <path class="cls-4" d="M570.4,655.8c-2.7,1.7-5.3,3.6-8,5.1-2.1,1.1-5.3.1-6.6-1.8,3.1-1.5,6-3.4,9.2-4.5,1.5-.5,3.6.3,5.4.5,0,.3,0,.5,0,.8Z"/>
    <path class="cls-4" d="M436.3,643.7c-1.1-2-.4-3.3,1.6-4.3,2.5-1.2,4.9-2.9,7.2.2.2.2.7.1,1,.3.6.4,1.2.9,1.8,1.4-.7.4-1.5,1.2-2.2,1.1-3.3-.4-6.2,1.5-9.4,1.2,0,0,0,0,0,0Z"/>
    <path class="cls-4" d="M586.1,312c1.2-1.6,2.2-3.7,3.8-4.6,1.5-.8,3.8-.2,5.7-.3,1.6,0,3.2-.3,5.3-.5,0,.2.5,1,1.2,2.2-1.5.2-3.3.9-3.7.5-2.1-2.6-4.3-.4-6.4-.3-.5,0-1.1.8-1.4,1.4-.9,1.8-2.2,2.3-4.4,1.6Z"/>
    <path class="cls-4" d="M702.3,683.4c1.4.4,2.7.7,3.9,1.2.7.3,1.3,1,1.9,1.5-.7.3-1.4,1-2,1-1.7,0-3-.2-4.6,1.2-1,.9-3.4,0-5.2,0,0-.2-.1-.4-.2-.7.7-.3,1.5-.8,2.2-.7,1.9.3,3.2,0,3.2-2.3,0-.5.6-1,.8-1.2Z"/>
    <path class="cls-4" d="M912.8,587.4c1.3-.1,2.7-.5,4-.3.9.1,1.7,1,2.6,1.6-.8.7-1.5,1.8-2.4,2-2.7.5-4.3-.9-4.1-3.3Z"/>
    <path class="cls-4" d="M711.2,601.7c3.5-.4,6.8-1.2,8.6,3-.4.1-1.6.7-1.8.5-1.7-2.2-5.6-.2-6.9-3.5Z"/>
    <path class="cls-4" d="M360.6,347.9c1,.1,1.8,0,2.5.3.4.2.8,1.5.8,1.6-2.2,1.2-.4,2.3.1,3.4-1.6.3-3-1.7-3.3-5.3Z"/>
    <path class="cls-4" d="M475.9,358.2c1.2.1,2.3,0,3.2.4.5.2.9,1,1.3,1.5-.5.4-1,1-1.5,1-1.6,0-3.1-.3-3-2.9Z"/>
    <path class="cls-4" d="M441.6,706c-1.3,0-3.1,2.7-3.7-.7,0,0,0,0,0,0,.7-.5,1.4-1,2.1-1.5.5-.3,1.1-.5,1.6-.7,0,.6,0,1.3.1,1.9,0,.3,0,.7,0,1,0,0,0,0,0,0Z"/>
    <path class="cls-4" d="M516.4,700.8c1.9-.4,3.8-.8,5.6-1.1-.3,2-1.1,2.3-5.6,1.1Z"/>
    <path class="cls-4" d="M396.1,724.6c-2.1,1.2-2.3,2.9-1.8,5,.8,3.4.4,4.7-2.1,7.3-.6-.7-1.1-1.3-1.4-1.7.7-2.7,1.4-4.9,2-7.2-3.2-2.8-3.1-4.1.4-7,1.3-1.1,2.5-2.5,4-4,.5,2.9.9,5.5-1.3,7.7,0,0,0,0,0,0Z"/>
    <path class="cls-4" d="M610.5,818.1c.5-2.7.6-4.6,1.2-6.3.3-.8,1.4-1.3,2.2-1.8.9-.5,1.9-.8,3.2-1.3.1,1.1.3,2.6.5,4.3-1.8-.5-3.4-1.9-4,1.2,1.3-.1,2.4-.3,3.6-.4,1.7,3.3-4.1,3-2.6,6.1-2.1-.1,1.9-6.2-4.1-1.8Z"/>
    <path class="cls-4" d="M578.5,723c-.3,2.9-.5,5.4-.9,7.8,0,.5-.7,1-1.1,1.5-.5-.5-1.2-.8-1.5-1.4-1.2-2.8.2-5.9,3.5-7.9Z"/>
    <path class="cls-4" d="M565.4,630.3c.1,1.8.3,3.6.3,5.4,0,.3-1.1,1-1.3.9-.9-.5-2.3-1.4-2.2-1.9.4-1.7,1.3-3.2,2-4.8.4.1.8.2,1.2.3Z"/>
    <path class="cls-4" d="M612.2,655.3c1.3-1.6,2.5-3.1,3.9-4.8,1.8,1.7,1,3.7.3,5-.4.7-2.6.5-3.9.8-.1-.3-.2-.6-.4-1Z"/>
    <path class="cls-4" d="M486.5,669.3c-.2-1.5-1.3-3.4,1.6-3.9.8-.2,1.4-1.6,2.1-2.5,1,1.4.5,2.3-3.8,6.4Z"/>
    <path class="cls-4" d="M579,756.9c2.3-2.5,2.2-2.7-2-3.7.7-.7,1.3-1.2,2.1-2,.7,2.2,3.8,2.8,2.6,5.5-.4.9-1.6,1.8-2.7.2Z"/>
    <path class="cls-4" d="M497.3,306.4c2.7-1.7,5.3-3.6,8-5.1,2.1-1.1,5.3-.1,6.6,1.8-3.1,1.5-6,3.4-9.2,4.5-1.5.5-3.6-.3-5.4-.5,0-.3,0-.5,0-.8Z"/>
    <path class="cls-4" d="M631.4,318.5c1.1,2,.4,3.3-1.6,4.3-2.5,1.2-4.9,2.9-7.2-.2-.2-.2-.7-.1-1-.3-.6-.4-1.2-.9-1.8-1.4.7-.4,1.5-1.2,2.2-1.1,3.3.4,6.2-1.5,9.4-1.2,0,0,0,0,0,0Z"/>
    <path class="cls-4" d="M481.7,650.2c-1.2,1.6-2.2,3.7-3.8,4.6-1.5.8-3.8.2-5.7.3-1.6,0-3.2.3-5.3.5,0-.2-.5-1-1.2-2.2,1.5-.2,3.3-.9,3.7-.5,2.1,2.6,4.3.4,6.4.3.5,0,1.1-.8,1.4-1.4.9-1.8,2.2-2.3,4.4-1.6Z"/>
    <path class="cls-4" d="M345.7,647.7c2.8-2.7,6-2.7,8.8,0-.9.6-1.8,1-2.4,1.6-.7.6-1.1,1.5-2.2,2.1.2-3.5-1.9-3.5-4.1-3.7Z"/>
    <path class="cls-4" d="M629.9,703.7c2.7-.6,5.3-2.9,9.1-.4-2.6,1.1-4.7,2.4-6.8,2.8-1.9.4-2,0-2.2-2.4Z"/>
    <path class="cls-4" d="M356.5,360.5c-3.5.4-6.8,1.2-8.6-3,.4-.1,1.6-.7,1.8-.5,1.7,2.2,5.6.2,6.9,3.5Z"/>
    <path class="cls-4" d="M292.9,696.9c-2.6,2.1-5.1,2.3-6.7.7,2.9-3.4,4.2-3.6,6.7-.7Z"/>
    <path class="cls-4" d="M881.5,622.2c-.6-1.2-1.5-2.1-1.3-2.7.3-.8,1.5-2,2.1-1.8.9.2,1.6,1.3,2.5,2-1,.7-1.9,1.5-3.3,2.5Z"/>
    <path class="cls-4" d="M707.2,614.3c-1-.1-1.8,0-2.5-.3-.4-.2-.8-1.5-.8-1.6,2.2-1.2.4-2.3-.1-3.4,1.6-.3,3,1.7,3.3,5.3Z"/>
    <path class="cls-4" d="M437.4,733.2c.8-.5,1.7-1.6,2.3-1.5,1.3.3,2.6,1.2,3.8,1.8-.1.3-.2.5-.4.8-1.8-.2-3.6-.4-5.4-.6-.1-.2-.2-.4-.4-.6Z"/>
  </g>
</svg>