<svg xmlns="http://www.w3.org/2000/svg" width="36.604" height="47.801" viewBox="0 0 36.604 47.801">
  <g id="Final-CMI-Outlined-03" transform="translate(-196.1 -95.833)">
    <path id="Path_28614" data-name="Path 28614" d="M196.1,255.369l13.571-33.888c-.343-.124-.681-.253-1.007-.377-.563,1.39-1.255,2.346-1.654,2.211s-.366-1.367.068-2.858l.068-.219c.034-.1.062-.2.1-.3v-.022c.028-.068.051-.129.079-.191.585-1.626,1.384-2.8,1.817-2.656s.349,1.626-.214,3.32a.042.042,0,0,1,.022.006c.321.124.658.248,1.007.377h0l1.243-3.1c.321-.8-.366-1.8-1.514-2.194a1.916,1.916,0,0,0-2.521.754c-.006.017-.011.039-.017.056l-.838,2.965-.062.225-.09.315-.062.225h0l-9.993,35.363" transform="translate(0 -111.74)" fill="#ae1919"/>
    <path id="Path_28615" data-name="Path 28615" d="M325.975,129.939a.16.16,0,0,0-.191-.118.164.164,0,0,0-.118.191,7.1,7.1,0,0,1-3.213,7.348,9.317,9.317,0,0,1-8.248.58,11.184,11.184,0,0,1-6.932-9.424,16.822,16.822,0,0,1,1.9-8.288c.557-1.2,1.193-2.386,1.806-3.533.726-1.362,1.48-2.774,2.11-4.214.27-.625.512-1.227.715-1.817a73.089,73.089,0,0,0,17.78,2.256.157.157,0,0,0,.158-.158.154.154,0,0,0-.158-.158,72.5,72.5,0,0,1-17.678-2.239,13.99,13.99,0,0,0,.731-6.392,9.288,9.288,0,0,0-1.615-4.09,7.181,7.181,0,0,0-3.393-2.656c-.023-.006-.045-.017-.068-.023a6.1,6.1,0,0,0-4.625.377,4.957,4.957,0,0,0-2.577,2.931,5.315,5.315,0,0,0,.163,3.393,7.419,7.419,0,0,0,1.952,2.864,10.216,10.216,0,0,0,1.643,1.2l.1-.315a9.78,9.78,0,0,1-1.53-1.12c-1.5-1.35-2.7-3.708-2.031-5.925a4.615,4.615,0,0,1,2.414-2.74,5.754,5.754,0,0,1,4.377-.36c.022.006.045.017.062.023a7.9,7.9,0,0,1,4.8,6.487,13.7,13.7,0,0,1-.726,6.268q-1.477-.38-2.931-.827c-.563-.169-1.153-.354-1.744-.568-.073-.028-.141-.051-.214-.079-.214-.079-.428-.163-.647-.253-.068-.028-.141-.056-.208-.09-.2-.084-.4-.174-.6-.27q-.051.16-.1.3.3.143.591.27c.068.028.141.056.208.09.214.09.428.169.636.248.073.028.141.051.214.079.6.214,1.193.405,1.761.574.968.293,1.947.568,2.926.821-.2.574-.433,1.165-.7,1.772-.625,1.429-1.373,2.836-2.1,4.192-.613,1.153-1.249,2.346-1.812,3.55a17.254,17.254,0,0,0-1.93,8.445,11.315,11.315,0,0,0,2.206,5.857,11.187,11.187,0,0,0,4.923,3.837c.146.056.293.113.439.163a10.45,10.45,0,0,0,3.916.54,8.756,8.756,0,0,0,4.181-1.305,7.418,7.418,0,0,0,3.353-7.691Z" transform="translate(-100.088 0)" fill="#ae1919" stroke="#ae1919" stroke-width="2.1"/>
  </g>
</svg>
