<svg xmlns="http://www.w3.org/2000/svg" width="252.898" height="294.337" viewBox="0 0 252.898 294.337">
  <g id="Group" transform="translate(314.158 294.99) rotate(179)" opacity="0.362">
    <path id="Path_28618" data-name="Path 28618" d="M272.208,285.585c-.066.322,2.25,1.223,5.167,2.07,2.937.8,5.378,1.226,5.4.884.066-.321-2.149-1.183-4.966-1.99l-.151-.06C274.717,285.694,272.276,285.264,272.208,285.585Zm-21.881-9.326c-.168.282,2.023,1.655,5.055,2.952s5.687,1.923,5.8,1.622c.167-.282-2.241-1.393-5.223-2.669C253.032,276.907,250.495,275.977,250.327,276.258Zm-17.591-13.5c-.2.212,1.336,2.081,3.552,3.985s4.224,3.149,4.392,2.867c.148-.233-1.553-1.82-3.769-3.723C234.746,264.005,232.936,262.548,232.736,262.76Zm-14.991-17.346c-.3.173.756,2.377,2.567,4.875,1.83,2.448,3.714,4.164,3.962,3.971s-1.175-2.192-2.955-4.621C219.609,247.181,218.045,245.241,217.746,245.414Zm40.109-17.244c-.691.136-1.451.3-2.262.45l-.19.041c-3.093.647-5.616,1.17-5.593,1.41s2.167.092,4.86-.423l.38-.084a2.236,2.236,0,0,1,.551-.074c3.144-.628,5.562-1.479,5.539-1.719a9.912,9.912,0,0,0-2.975.346Zm-31.3,2.219c-.017.341,2.568,1,5.89,1.252s5.989-.041,5.954-.4-2.654-.629-5.927-.861c-.561-.045-1.124-.09-1.636-.116l-.341-.017C228.223,230.115,226.6,230.119,226.551,230.389Zm49.023-9.609c-2.924,1.407-5.31,2.619-5.167,2.848s2.763-.544,5.757-1.982,5.107-2.987,4.963-3.216C280.933,218.181,278.517,219.323,275.573,220.78Zm-66.6,2.77a7.771,7.771,0,0,0,.238,2.812c-2.01-.494-3.558-.691-3.636-.49-.1.252,1.544.948,3.889,1.63.126.569.3,1.158.459,1.8.8,3.147,1.851,5.521,2.08,5.379.211-.092-.438-2.6-1.261-5.7-.115-.45-.249-.85-.333-1.229l.322.068c2.937.8,5.379,1.226,5.476.975.047-.271-2-1.125-4.764-1.913l-.372-.087c-.371-.086-.674-.2-1-.271C209.552,224.757,209.168,223.508,208.978,223.55Zm85.546-19.283-.276.412c-.3.464-.643.907-.959,1.42l-.3.463-.109.132-.109.131-.237.313-.514.725-.168.282-.109.132-.167.282c-1.107,1.652-1.918,2.84-1.7,3.038.192.25,2.141-1.48,3.95-4.189,1.858-2.69,2.786-5.22,2.522-5.439A8.906,8.906,0,0,0,294.524,204.267ZM185.075,214.652c-.148.231,1.722,1.537,4.222,2.858l.151.058c2.6,1.36,4.747,2.253,4.915,1.971.1-.252-1.822-1.577-4.373-2.918S185.243,214.37,185.075,214.652Zm22.869-7.064c-.2,3.336.221,5.986.582,5.953.411-.014.574-2.669.8-5.935.037-.391.053-.732.07-1.072l.016-.34c.125-2.556.166-4.448-.156-4.515C208.866,201.641,208.12,204.3,207.944,207.588Zm93.644-20.875c-.227,3.267-.542,5.863-.26,6.031.252.1,1.009-2.442,1.257-5.758.267-3.367-.093-6.167-.333-6.145C301.98,180.792,301.866,183.466,301.588,186.713ZM165.863,201.447c-.268.243,1.685,1.929,4.35,3.718,2.647,1.84,5,3.1,5.215,2.84s-1.654-1.859-4.22-3.609l-.132-.109C168.411,202.5,166.131,201.2,165.863,201.447Zm46-17.495c-1.243,3.045-1.727,5.632-1.407,5.7.271.048,1.009-1.4,1.881-3.49l.117-.3c.2-.5.442-.985.658-1.538,1.223-2.994,2.181-5.456,1.879-5.573C214.641,178.612,213.11,180.907,211.866,183.952Zm84.641-25.593c-.32.222,1.058,2.494,2.4,5.447s2.282,5.458,2.662,5.375c.33-.1-.069-2.8-1.494-5.845C298.621,160.222,296.755,158.166,296.507,158.359ZM149.6,186.034c-.268.243,1.307,2.3,3.638,4.655,2.281,2.334,4.334,4.058,4.583,3.866.269-.242-1.357-2.321-3.638-4.655S149.846,185.842,149.6,186.034Zm72.94-22.049c-1.788,2.659-2.887,5.181-2.6,5.349.213.2,1.389-1.485,2.912-3.611l.406-.593.238-.313c1.769-2.608,3.242-4.754,3-5.023C226.224,159.578,224.376,161.346,222.537,163.985Zm56.587-17.425c-.118.3,2.388,1.161,5.371,2.438,3,1.226,5.321,2.418,5.538,2.156s-1.805-1.918-4.907-3.182C281.994,146.636,279.241,146.259,279.124,146.56ZM137.5,166.462c-.349.152.846,2.3,2.677,4.743,1.759,2.478,3.553,4.275,3.852,4.1s-.966-2.284-2.746-4.712C139.556,168.186,137.852,166.308,137.5,166.462Zm102.625-16.686c-2.994,1.438-5.125,3.038-4.931,3.286s2.578-.962,5.5-2.37,5.34-2.549,5.218-2.828S243.142,148.289,240.127,149.776Zm16.837-5.42c.022.241,2.617-.022,5.764-.359,3.126-.288,5.7-.5,5.73-.721s-2.491-.449-5.739-.151a30.047,30.047,0,0,0-3.065.427l-.31.053C257.892,143.908,256.9,144.216,256.964,144.355ZM127.08,146.613c-.349.153.589,2.659,2.033,5.651s2.822,5.263,3.172,5.11c.279-.123-.4-2.239-1.613-4.793l-.155-.349a3.076,3.076,0,0,0-.266-.509C128.787,148.782,127.359,146.491,127.08,146.613ZM118,124.8c-.21.092.368,2.631,1.312,5.717s1.872,5.471,2.081,5.379c.07-.031.036-.391-.04-.94l-.042-.19a42.575,42.575,0,0,0-1.23-4.585C119.119,127.145,118.211,124.71,118,124.8Zm-5.644-22.442a5.921,5.921,0,0,0,.194,2.331l.073.26c.179.88.432,2.019.684,3.159.754,3.127,1.541,5.574,1.8,5.5a5.919,5.919,0,0,0-.194-2.331l-.073-.26c-.179-.88-.37-1.88-.641-2.969l-.042-.19C113.386,104.784,112.568,102.267,112.358,102.359Zm-4.922-21.467c-.38.083-.125,2.555.517,5.523s1.4,5.345,1.779,5.262c.33-.1.125-2.554-.518-5.523S107.816,80.809,107.436,80.892Zm-4.143-22.725c-.361.033-.225,2.515.277,5.545.522,2.98,1.208,5.387,1.589,5.3.361-.033.226-2.515-.328-5.565C104.36,60.491,103.654,58.134,103.293,58.167Z" transform="translate(6.091 8.029)" fill="rgba(0,0,0,0.1)" stroke="rgba(0,0,0,0.39)" stroke-width="0.5" fill-rule="evenodd"/>
    <path id="Path_28619" data-name="Path 28619" d="M61.22,4.183c-.011-.12.028-.221.017-.341l.039-.1.1-.251.019-.05.179-.162a1.1,1.1,0,0,1,.439-.234l.12-.011a.281.281,0,0,1,.24-.022l.19-.042L132.082,26.5a1.021,1.021,0,0,1,.691.905,1.109,1.109,0,0,1-.491.966L115.64,38.206l-3.11,21.7c-.04.1-.009.17-.1.251-.039.1-.128.181-.167.282l-.07.031a.945.945,0,0,1-.3.173l-.19.042a1,1,0,0,1-.392-.037l-.1-.039a.69.69,0,0,1-.283-.168l-.07.031-13-11.885L83.594,58.125a.863.863,0,0,1-.861.127,1.1,1.1,0,0,1-.638-.6L61.293,4.443A.744.744,0,0,1,61.22,4.183ZM69.651,7.7,114.7,36.452l14.637-8.706C129.317,27.8,69.651,7.7,69.651,7.7Zm34.8,36.623-4.963,3.216,9.547,8.69Zm1.171-2.263a1.106,1.106,0,0,1,.224.319.053.053,0,0,0,.031.07l5.212,13.424,2.558-17.746-41.8-26.68C71.8,11.423,105.618,42.057,105.618,42.057ZM83.5,55.833l13.878-9.29,5.989-3.916L64.726,7.688Z" transform="translate(0)" fill="rgba(0,0,0,0.27)"/>
  </g>
</svg>
