<svg id="Illustration" xmlns="http://www.w3.org/2000/svg" xmlns:xlink="http://www.w3.org/1999/xlink" width="180.771" height="169.968" viewBox="0 0 180.771 169.968">
  <defs>
    <clipPath id="clip-path">
      <rect id="Rectangle_5703" data-name="Rectangle 5703" width="180.771" height="169.968" fill="none"/>
    </clipPath>
  </defs>
  <g id="Group_11365" data-name="Group 11365" clip-path="url(#clip-path)">
    <path id="Path_19157" data-name="Path 19157" d="M27.18,66.606c-.113-7.137-.5-13.828,0-20.964.381-5.613,1.726-14.661,3.8-15.282,0,0,.279-3.553.6-6.94-6.608-.5-13.214-1.092-19.808-1.675A2.522,2.522,0,0,0,9.17,24.1C7.941,40.383,7.594,57.119,12.082,72.963a69.377,69.377,0,0,0,14.352,27.2c1.122-11.382.922-22.125.743-33.558" transform="translate(8.158 21.195)" fill="#f0f3f7"/>
    <path id="Path_19158" data-name="Path 19158" d="M28.579,29.675c2.873.548,4.2,6.154,4.408,11.469.3,7.767,2.455,20.95,3.484,28.721,1.473,11.095,5.145,22.123,7.151,33.169.04.222.08.444.124.673,2.03-2.652,4.975-5.251,5.759-8.294,1.179-4.58,6.3-24.759,6.3-24.759l-9.161,1.015C49.2,68.325,55.63,60.223,57.593,58.043a25.446,25.446,0,0,1,5.644-5.006l-.248-.093c-1.244-.515-2.862-1.135-3.281-2.544a.9.9,0,0,1,.92-1.244,8.5,8.5,0,0,0,3.357-.132,6,6,0,0,0,2.352-1.908,9.161,9.161,0,0,1,5.972-2.548,5,5,0,0,1,4.807,2.806,3.781,3.781,0,0,1,.2,2.176,4.775,4.775,0,0,1,2.65.587,7.648,7.648,0,0,1,3.443,6.22,24.861,24.861,0,0,1,.083,3.387c3.033-.134,5.795.867,6.122,4.151.364,3.63-3.8,4.41-7.75,4.609a9.136,9.136,0,0,1-2.212,3.853v-.11c.192,3.4.452,8.328.515,11.113.116,5.188.371,14.618,1.106,17.152.61,2.123,2.662,5.093,4.4,8.609,2.55-5,6.61-11.943,9.22-19.175,4.542-12.627,8.418-25.526,7.122-39.062-.619-6.424-2.711-18.787,2.038-22.873.13-1.149.144-3.789.149-6.2-17.033,1.158-34.036,2.927-51.115,3.169-8.294.116-16.571-.115-24.845-.547.233,2.777.322,5.248.322,5.248" transform="translate(27.544 21.259)" fill="#f0f3f7"/>
    <path id="Path_19159" data-name="Path 19159" d="M102.992,23.8a2.521,2.521,0,0,0-2.306-1.944,242.7,242.7,0,0,0-26.121-.383c.17,2.056.291,3.766.291,3.766,3.066.265,6.837,8.038,4.031,12.837,3.042.215,2.737,6.39,2.376,8.322-.371,2.061-2.064,3.647-2.056,5.546,0,2.4,1.622,5.026,1.957,7.5a92.106,92.106,0,0,1,.99,15.487,208.478,208.478,0,0,1-2.66,26.493c7.62-8.934,12.492-19.9,15.809-31.155,2.153-7.3,3.732-14.773,5.289-22.228,1.691-8.008,3.261-16.022,2.4-24.238" transform="translate(72.69 20.758)" fill="#f0f3f7"/>
    <path id="Path_19160" data-name="Path 19160" d="M97.345,11.612c-.066-.979-.352-3.37-1.609-4.356-2.154-1.692-7.212-2.144-9.306-2.1a.871.871,0,1,0,.02,1.742v9.972h-.061a.871.871,0,1,0,.059,1.742h.061l.7-.047c2.737-.172,7.3-.462,9.09-2.3,1.188-1.2,1.1-3.869,1.047-4.657" transform="translate(83.4 5.026)" fill="#ed96ae"/>
    <path id="Path_19161" data-name="Path 19161" d="M73.556,3.7c.91-2.18,7.787-1.991,5.554,1.383" transform="translate(71.71 2.211)" fill="none" stroke="#272727" stroke-linecap="round" stroke-linejoin="round" stroke-width="0.882"/>
    <path id="Path_19162" data-name="Path 19162" d="M76.025,12.518c-.073,2.836-2.339,3.628-3.427,4.347" transform="translate(70.776 12.204)" fill="none" stroke="#272727" stroke-linecap="round" stroke-linejoin="round" stroke-width="0.882"/>
    <path id="Path_19163" data-name="Path 19163" d="M9.456,9.259c-.144-.9.115-2.077-.543-2.228C8.627,6.679,2.821,9.15,2.092,9.42c-.824.3-1.309,1.476-.249,1.666,1.679.308,4.355.619,6.034.926a1.018,1.018,0,0,0,1.224-.7,9.747,9.747,0,0,0,.355-2.061" transform="translate(1.204 6.822)" fill="#272727"/>
    <path id="Path_19164" data-name="Path 19164" d="M36.576,10.624c-2.4-.366-5.8-.8-6.789-3.456-.248-.693-.124-1.57-.69-2.1.415-.024.727-.037.89-.043a.87.87,0,0,0-.059-1.739c-.6.022-2.862.144-5.723.3-4.614.248-10.351.568-11.513.581a.867.867,0,0,0-.4,1.639,2.679,2.679,0,0,1,1.513,2.829,2.862,2.862,0,0,1-1.076,2.143.87.87,0,1,0,.3,1.715,1.312,1.312,0,0,1,1.244.428,3.115,3.115,0,0,1,.412,2.653,6.752,6.752,0,0,1-2.488,2.91c-.285.227-.553.441-.772.641a.867.867,0,0,0,.537,1.518c.124,0,12.513.78,21.046.94h.016a.87.87,0,0,0,.017-1.739h-.1c.061-.026.124-.043.18-.073.829-.4.867-1.195,1.244-1.931,1.072-2.121,3.879-2.379,5.956-2.579a1.013,1.013,0,0,0,.99-.99c-.223-2.584-2.544-3.3-4.74-3.63" transform="translate(10.856 3.201)" fill="#ffe42e"/>
    <path id="Path_19165" data-name="Path 19165" d="M102.527,5.145l.5.016h.027a.871.871,0,1,0,.024-1.742c-14.373-.438-48.45-.475-71.26-.248a.871.871,0,0,0,0,1.742h.03a6.611,6.611,0,0,0-3.484,4.574,1.088,1.088,0,0,0,.916,1.238,1.114,1.114,0,0,0,.442-.026,14.542,14.542,0,0,1,4.075,8.386,1.221,1.221,0,0,0,.067.248c-.024.05-.047.1-.076.15a.941.941,0,0,0-.089.743l-.573-.016a.871.871,0,1,0-.043,1.742q2.984.074,5.971.17c6.758.2,13.741.407,20.652.3,7.641-.116,27.042.012,42.634.115a.871.871,0,0,0,0-1.742h-.295a1.038,1.038,0,0,0,.043-.543c-.172-.954.619-1.695,1.257-2.289a26.359,26.359,0,0,0,2.476-2.386c1.625-2.024,1.264-4.592.308-6.858a6.561,6.561,0,0,0-3.59-3.58" transform="translate(27.637 2.958)" fill="#ffe42e"/>
    <path id="Path_19166" data-name="Path 19166" d="M88.295,6.288a.957.957,0,0,0-.563-1.134.858.858,0,0,0,.071-.328.867.867,0,0,0-.857-.885c-1.082-.017-3.095-.105-5.032-.189-1.72-.077-3.343-.146-4.3-.168a.87.87,0,1,0-.04,1.739l.743.024a.756.756,0,0,0-.124.431,1.126,1.126,0,0,0,.286.91c.661,1.821,2.174,6.582.409,6.636a1.279,1.279,0,0,1-1.493.043,5.02,5.02,0,0,0-2.6,1.723,7.567,7.567,0,0,1-3.44,2.365,1.009,1.009,0,0,0-.683,1.254,1.025,1.025,0,0,0,.089.209,3.726,3.726,0,0,0,1.26,1.446h-.061a.87.87,0,1,0,0,1.739c5.381.033,9.09.047,11.485.047,1.838,0,2.9,0,3.343-.026a.867.867,0,0,0,.158-1.716c1.114-1.335,1.26-3.667,1.473-5.287A31.728,31.728,0,0,0,88.3,6.288" transform="translate(68.865 3.494)" fill="#ffe42e"/>
    <line id="Line_289" data-name="Line 289" x1="0.126" y2="1.112" transform="translate(93.52 81.808)" fill="none" stroke="#272727" stroke-linecap="round" stroke-linejoin="round" stroke-width="0.882"/>
    <line id="Line_290" data-name="Line 290" x1="0.126" y2="1.112" transform="translate(97.501 82.485)" fill="none" stroke="#272727" stroke-linecap="round" stroke-linejoin="round" stroke-width="0.882"/>
    <path id="Path_19167" data-name="Path 19167" d="M44.208,47.31a20.117,20.117,0,0,0,4.605.743c1.9-.124,3.466-1.286,5.225-1.954,2.386-.9,5.836-.664,6.506,2.368,1.656,7.5-9.827,9.094-14.249,6.685C44.653,54.274,41.846,47.625,44.208,47.31Z" transform="translate(42.214 44.496)" fill="none" stroke="#272727" stroke-linecap="round" stroke-linejoin="round" stroke-width="0.882"/>
    <path id="Path_19168" data-name="Path 19168" d="M51.987,46.145c-.338,1.072-.68,2.119-.972,3.235A17.07,17.07,0,0,1,52.757,51.5" transform="translate(49.735 44.988)" fill="none" stroke="#272727" stroke-linecap="round" stroke-linejoin="round" stroke-width="0.882"/>
    <path id="Path_19169" data-name="Path 19169" d="M44.515,46.677c.827.886.928,2.862,1.177,3.516a6.909,6.909,0,0,1-1.362,2.1" transform="translate(43.216 45.506)" fill="none" stroke="#272727" stroke-linecap="round" stroke-linejoin="round" stroke-width="0.882"/>
    <path id="Path_19170" data-name="Path 19170" d="M39.017,59.076c7.726,4.76,23.138,6.774,31.364,2.508" transform="translate(38.038 57.594)" fill="none" stroke="#272727" stroke-linecap="round" stroke-linejoin="round" stroke-width="0.882"/>
    <path id="Path_19171" data-name="Path 19171" d="M39.16,61.832c.683,3.7,3.3,9.239,6.47,11.513,3.6,2.6,12.474-3.424,11.81-7.16a8.666,8.666,0,0,0,2.551,8.091c4.764,3.922,7.886-7.722,7.829-11.006-.3-.345-.043.139-.2.233" transform="translate(38.177 60.281)" fill="none" stroke="#272727" stroke-linecap="round" stroke-linejoin="round" stroke-width="0.882"/>
    <path id="Path_19172" data-name="Path 19172" d="M51.507,67.51c-.9,1.885-.142,7-.6,8.957-1.369,5.792-4.774,8.9-6.424,14.4-1.1,3.682,2.239,2.067,5.024,2.794,4.728,1.228-1.911,5.016-.973,6.655S52,101.808,52.74,103.28" transform="translate(43.154 65.817)" fill="none" stroke="#272727" stroke-linecap="round" stroke-linejoin="round" stroke-width="0.882"/>
    <path id="Path_19173" data-name="Path 19173" d="M131.549,129.809c.385-3.5.132-7.17.548-10.77.724-6.22,2.16-12.236,3.174-18.4A210.37,210.37,0,0,0,138.119,73a93.35,93.35,0,0,0-.99-15.487c-.335-2.476-1.951-5.1-1.957-7.5,0-1.9,1.679-3.484,2.056-5.546.358-1.931.666-8.107-2.376-8.322,2.806-4.8-.966-12.573-4.031-12.837s-13.573,1.244-15.922,3.258c-4.751,4.085-2.658,16.449-2.038,22.873,1.3,13.542-2.581,26.446-7.123,39.062C101.757,99.6,94.349,109.946,94.18,113.781c-.1,2.153-.391,6.359,2.1,6.4,4.373.071,1.951-8.606,1.2-10.4-1.847-4.438-4.639-8.178-5.364-10.712s-.99-11.966-1.108-17.155c-.1-4.541-.73-14.788-.73-14.788,4.412-.066,10.616-.281,10.175-4.677-.5-4.9-6.373-4.728-10.517-3.278l-.581-2.33c-1.094-5.344-4.58-7.116-9.78-6.95-4.74.154-8.21,3.38-11.18,6.718C66.45,58.8,60.018,66.889,57.455,70.239l9.167-1.019S61.5,89.4,60.32,93.98s-7.268,8.158-7.736,12.422c-.248,2.2.766,3.059,1.758.926.837-1.8.431-3.879.1-5.723-2.013-11.044-5.684-22.073-7.157-33.166C46.249,60.665,44.1,47.48,43.8,39.717,43.587,34.4,42.262,28.8,39.388,28.251a43.23,43.23,0,0,0-17,.619c-2.076.619-3.421,9.667-3.8,15.28-.484,7.137-.105,13.827,0,20.965.183,11.561.387,22.417-.792,33.943-.6,5.846.047,11.5-.619,17.3" transform="translate(16.745 22.694)" fill="none" stroke="#272727" stroke-linecap="round" stroke-linejoin="round" stroke-width="0.882"/>
    <path id="Path_19174" data-name="Path 19174" d="M66.648,31.967c.248-2.228.076-10.019.2-10.985s4.665-1.54,7.043-2.131,7.3-1.661,7.641-.782,1.045,10.639,1.045,10.639" transform="translate(64.976 17.292)" fill="none" stroke="#272727" stroke-linecap="round" stroke-linejoin="round" stroke-width="0.882"/>
    <path id="Path_19175" data-name="Path 19175" d="M36.808,31.833a81.946,81.946,0,0,0-1.161-11.579c-4.432-1.344-10.04-.292-14.637.124-.48,2.9-1.2,12.079-1.2,12.079" transform="translate(19.315 19.101)" fill="none" stroke="#272727" stroke-linecap="round" stroke-linejoin="round" stroke-width="0.882"/>
    <path id="Path_19176" data-name="Path 19176" d="M68.331,29.9c-.8-4.771-4.021-10.811-1.755-15.653C67.963,11.272,75.65,5.506,78.6,9.184c2.311,2.882-3.05,4.635-4.759,4.857,2.624,1.436,3.428,3.095,2.737,4.977" transform="translate(64.132 7.797)" fill="none" stroke="#272727" stroke-linecap="round" stroke-linejoin="round" stroke-width="0.882"/>
    <path id="Path_19177" data-name="Path 19177" d="M22.588,18.826c-.64-5.9,7.9-7.157,9.982-4.479-2-1.2-4.828-6.314-1.835-7.88,2.886-1.51,5.093,2.694,6.424,4.506a7.923,7.923,0,0,1,1.6,7.215c-.727,3.328-3.265,3.063-4.758,5.719a22.093,22.093,0,0,0-1.676,9.276" transform="translate(21.988 5.992)" fill="none" stroke="#272727" stroke-linecap="round" stroke-linejoin="round" stroke-width="0.882"/>
    <path id="Path_19178" data-name="Path 19178" d="M70.763,13.522c.409-2.714-2.239-8.514-4.588-9.853" transform="translate(64.514 3.578)" fill="none" stroke="#272727" stroke-linecap="round" stroke-linejoin="round" stroke-width="0.882"/>
    <path id="Path_19179" data-name="Path 19179" d="M64.615,4.713c1.114-3.042,6.1-3.921,7.537-.3.885-2.777,4.457-1.554,5.3.435,2.569-3.768,6.874,1.3,7.5,3.892.613,2.518,1.928,8.885-2.737,5.61a1.847,1.847,0,0,1-1.857,1.672" transform="translate(62.994 1.996)" fill="none" stroke="#272727" stroke-linecap="round" stroke-linejoin="round" stroke-width="0.882"/>
    <path id="Path_19180" data-name="Path 19180" d="M73.386,14.4A45.849,45.849,0,0,1,74.11,21" transform="translate(71.544 14.037)" fill="none" stroke="#272727" stroke-linecap="round" stroke-linejoin="round" stroke-width="0.882"/>
    <path id="Path_19181" data-name="Path 19181" d="M20.3,12.3c-.6,2.306,1.3,5.643,3.9,5.4" transform="translate(19.686 11.995)" fill="none" stroke="#272727" stroke-linecap="round" stroke-linejoin="round" stroke-width="0.882"/>
    <path id="Path_19182" data-name="Path 19182" d="M20.906,24.025c.282-2.372-.156-6.561.93-9.024" transform="translate(20.382 14.625)" fill="none" stroke="#272727" stroke-linecap="round" stroke-linejoin="round" stroke-width="0.882"/>
    <path id="Path_19183" data-name="Path 19183" d="M24.224,15.781a1.429,1.429,0,0,1,1.632-.5" transform="translate(23.616 14.82)" fill="none" stroke="#272727" stroke-linecap="round" stroke-linejoin="round" stroke-width="0.882"/>
    <path id="Path_19184" data-name="Path 19184" d="M70.157,16.283a4.641,4.641,0,0,0,1.609-.266" transform="translate(68.397 15.616)" fill="none" stroke="#272727" stroke-linecap="round" stroke-linejoin="round" stroke-width="0.882"/>
    <path id="Path_19185" data-name="Path 19185" d="M32.428,3.172c-.743,1.323-3.3,6.014-4.306,6.2" transform="translate(27.416 3.093)" fill="none" stroke="#272727" stroke-linecap="round" stroke-linejoin="round" stroke-width="0.882"/>
    <path id="Path_19186" data-name="Path 19186" d="M31.378,13.47c-1.394.166-3.8.124-3.908-1.564-1.294.958-3.705.922-3.265-1.362C16.993,12.425,21.94-2.3,26.716,2.707" transform="translate(20.052 1.621)" fill="none" stroke="#272727" stroke-linecap="round" stroke-linejoin="round" stroke-width="0.882"/>
    <path id="Path_19187" data-name="Path 19187" d="M22.536,7.92c.867-1.554,1.686-3.667,3.033-4.9,1.224-1.114,4.509-2.488,4.961.1C31.962-1.709,40.86.585,41.072,5.269" transform="translate(21.97 0.43)" fill="none" stroke="#272727" stroke-linecap="round" stroke-linejoin="round" stroke-width="0.882"/>
    <path id="Path_19188" data-name="Path 19188" d="M55.255,44.219c.948-.461,2.023-.784,2.9-1.138" transform="translate(53.868 42.004)" fill="none" stroke="#272727" stroke-linecap="round" stroke-linejoin="round" stroke-width="0.882"/>
    <path id="Path_19189" data-name="Path 19189" d="M54.806,81.425c4.13-1.167,8.913-1.784,12.772-3.252" transform="translate(53.431 76.209)" fill="none" stroke="#272727" stroke-linecap="round" stroke-linejoin="round" stroke-width="0.882"/>
    <path id="Path_19190" data-name="Path 19190" d="M59.552,77.28a13.618,13.618,0,0,1,1.369,5.792" transform="translate(58.058 75.342)" fill="none" stroke="#272727" stroke-linecap="round" stroke-linejoin="round" stroke-width="0.882"/>
    <path id="Path_19191" data-name="Path 19191" d="M58.022,77.676c1.716,2.488,2.144,6.512,2.522,9.532" transform="translate(56.566 75.727)" fill="none" stroke="#272727" stroke-linecap="round" stroke-linejoin="round" stroke-width="0.882"/>
    <path id="Path_19192" data-name="Path 19192" d="M79.19,20.545c4.085-.106,10.819.1,12.314-.889,1.6-1.049,2.04-4.7,1.789-8.268s-.928-5.458-2.409-6.112c-1.134-.5-6.19-.76-10.842-.99" transform="translate(77.203 4.177)" fill="none" stroke="#272727" stroke-linecap="round" stroke-linejoin="round" stroke-width="0.882"/>
    <line id="Line_291" data-name="Line 291" x2="15.051" y2="0.314" transform="translate(142.97 19.373)" fill="none" stroke="#272727" stroke-linecap="round" stroke-linejoin="round" stroke-width="0.882"/>
    <path id="Path_19193" data-name="Path 19193" d="M30.435,9.435C45.958,9.477,70.1,9.33,78,9.475c2.834.053,14.207.286,25.429.517" transform="translate(29.671 9.174)" fill="none" stroke="#272727" stroke-linecap="round" stroke-linejoin="round" stroke-width="0.882"/>
    <path id="Path_19194" data-name="Path 19194" d="M13.415,9.267s19.919.109,21.894.172c1.1.036,2.608.061,4.439.08" transform="translate(13.079 9.035)" fill="none" stroke="#272727" stroke-linecap="round" stroke-linejoin="round" stroke-width="0.882"/>
    <path id="Path_19195" data-name="Path 19195" d="M80.215,4.334a23.131,23.131,0,0,1-1.025,16.16" transform="translate(77.203 4.227)" fill="none" stroke="#272727" stroke-linecap="round" stroke-linejoin="round" stroke-width="0.882"/>
    <path id="Path_19196" data-name="Path 19196" d="M23.124,4.165s-6.47,2.7-8.308,3.4C12.753,8.349.441,13.288.441,13.288s9.391,2.118,11.644,2.681c3.235.82,10.341,2.906,10.341,2.906" transform="translate(0.431 4.061)" fill="none" stroke="#272727" stroke-linecap="round" stroke-linejoin="round" stroke-width="0.882"/>
    <path id="Path_19197" data-name="Path 19197" d="M5.533,6.948c1.362,1.281.447,4.018-.641,5.646" transform="translate(4.769 6.775)" fill="none" stroke="#272727" stroke-linecap="round" stroke-linejoin="round" stroke-width="0.882"/>
    <path id="Path_19198" data-name="Path 19198" d="M67.925,45.118A7.654,7.654,0,0,0,64.481,38.9a4.774,4.774,0,0,0-2.652-.587,3.783,3.783,0,0,0-.2-2.176,5,5,0,0,0-4.807-2.806,9.142,9.142,0,0,0-5.971,2.55,6.1,6.1,0,0,1-2.36,1.908,8.439,8.439,0,0,1-3.355.13.9.9,0,0,0-.92,1.244c.417,1.41,2.044,2.028,3.278,2.542a19.988,19.988,0,0,0,5.243,1.374c1.739.212,4.264.371,5.931-.6a7.619,7.619,0,0,0,.319,2.131,33.738,33.738,0,0,0,1.264,3.481c.5,1.183,1.559,2.647,1.078,3.962a.9.9,0,0,0,1.664.686,24.975,24.975,0,0,0,1.648-3.667,15.553,15.553,0,0,1,3.367-.553,24.636,24.636,0,0,0-.079-3.393" transform="translate(43.048 32.488)" fill="#272727"/>
    <path id="Path_19199" data-name="Path 19199" d="M54.4,49.3a8.977,8.977,0,0,0,2.212-3.853c-.836.04-1.663.057-2.433.069-.007,0,.1,1.583.222,3.784" transform="translate(52.82 44.307)" fill="#272727"/>
    <path id="Path_19200" data-name="Path 19200" d="M69.693,4.835a18.106,18.106,0,0,1,2.08,5.5" transform="translate(67.945 4.715)" fill="none" stroke="#272727" stroke-linecap="round" stroke-linejoin="round" stroke-width="0.882"/>
    <path id="Path_19201" data-name="Path 19201" d="M72.49,5a17.251,17.251,0,0,1,1.993,6.243" transform="translate(70.671 4.877)" fill="none" stroke="#272727" stroke-linecap="round" stroke-linejoin="round" stroke-width="0.882"/>
    <path id="Path_19202" data-name="Path 19202" d="M46.161,50.108q-.189-1.469-.371-2.94A.844.844,0,0,0,44.6,46.5a.753.753,0,0,0-.587.189,2.417,2.417,0,0,0-.428,2.847,3.312,3.312,0,0,0,.1.441,3.9,3.9,0,0,0,.261.661,5.81,5.81,0,0,0,.3,1.139.867.867,0,0,0,1.4.286.937.937,0,0,0,.5-.5l.225-.5a.9.9,0,0,0-.2-.959" transform="translate(42.218 45.267)" fill="#272727"/>
    <path id="Path_19203" data-name="Path 19203" d="M53.035,47.932h0v-.016a.086.086,0,0,1,0-.032.906.906,0,0,0-.792-.946.921.921,0,0,0-.9.511.475.475,0,0,0-.1.193,2.267,2.267,0,0,0-.076,1.009.9.9,0,0,0,1.775-.037v-.1a.43.43,0,0,0,.043-.085.942.942,0,0,0,.05-.5" transform="translate(49.857 45.758)" fill="#272727"/>
  </g>
</svg>
