<svg width="45" height="41" viewBox="0 0 45 41" fill="none" xmlns="http://www.w3.org/2000/svg">
<path d="M35.0467 0H5.22222C3.83727 0 2.50895 0.550072 1.52967 1.52967C0.550047 2.50895 0 3.83727 0 5.22222V26.3687C0 27.7536 0.550073 29.0819 1.52967 30.0616C2.50895 31.0408 3.83727 31.5912 5.22222 31.5912H24.0279C24.2902 35.0281 26.2735 38.0994 29.2985 39.7526C32.3234 41.4058 35.9795 41.4164 39.0141 39.7807C42.0486 38.1454 44.0496 35.0857 44.3317 31.6502C44.6142 28.2147 43.1392 24.8693 40.4124 22.7603L40.2746 22.6606V5.22241C40.2746 3.83678 39.7239 2.50753 38.7434 1.52825C37.7631 0.548625 36.4335 -0.00108286 35.0475 0.000273602L35.0467 0ZM0.949357 26.368V5.22154C0.949357 4.0883 1.39941 3.00169 2.20087 2.20027C3.00229 1.39885 4.08915 0.948763 5.22214 0.948763H35.0466C36.1798 0.948763 37.2668 1.39882 38.0682 2.20027C38.8693 3.0017 39.3197 4.0883 39.3197 5.22154V22.0383C37.7632 21.121 35.9891 20.6388 34.1826 20.6424C33.8597 20.6424 33.5368 20.6424 33.2331 20.6898L29.3114 16.8916C28.7276 16.3316 27.9593 16.0034 27.1509 15.9693C26.3422 15.9352 25.549 16.1975 24.9202 16.7065L22.3089 18.7955L17.9504 14.0052C17.3335 13.321 16.4599 12.9239 15.5389 12.9083C14.6176 12.9099 13.736 13.2832 13.0939 13.9435L4.04964 23.4388H4.04931C3.9185 23.5759 3.88207 23.7779 3.95625 23.9524C4.03076 24.1269 4.20164 24.2402 4.3914 24.2409H26.2305H26.2302C26.3123 24.2392 26.3924 24.2164 26.463 24.1746C24.9234 25.9666 24.0584 28.2404 24.0179 30.6029H5.22158C4.09495 30.6029 3.01401 30.1578 2.21361 29.3647C1.41351 28.5716 0.9588 27.4946 0.94888 26.368L0.949357 26.368ZM26.5865 23.4815L22.9642 19.4983L25.5089 17.4474C25.959 17.0871 26.5246 16.9029 27.1002 16.9294C27.6758 16.9556 28.2222 17.19 28.6379 17.5898L32.0373 20.8657H32.037C29.9613 21.3161 28.0788 22.4053 26.6532 23.98C26.7244 23.8121 26.6929 23.6184 26.5724 23.4816L26.5865 23.4815ZM25.1622 23.3249H5.48834L13.7732 14.6079C14.2186 14.1323 14.8402 13.8611 15.4917 13.8578H15.5394C16.1977 13.8647 16.8236 14.1449 17.2674 14.6314L25.1622 23.3249ZM43.4355 30.8261L43.4358 30.8258C43.4139 34.0683 41.6928 37.0614 38.9021 38.7119C36.111 40.3622 32.6592 40.4277 29.8078 38.8848C26.9564 37.3419 25.1224 34.4164 24.9773 31.1772C24.9787 31.1567 24.9787 31.1361 24.9773 31.1156C24.98 31.0855 24.98 31.0553 24.9773 31.0255V30.8262V30.8258C24.9797 28.3822 25.9493 26.0388 27.6741 24.3074C29.3992 22.5764 31.7392 21.5985 34.1828 21.5872C36.6335 21.5859 38.9841 22.5589 40.7171 24.2915C42.4501 26.0245 43.4231 28.3751 43.4217 30.8258L43.4355 30.8261Z" fill="black" fill-opacity="0.6"/>
<path d="M22.6277 12.4857C23.7156 12.4857 24.7592 12.0539 25.5285 11.2846C26.2978 10.5153 26.7299 9.47173 26.7299 8.38385C26.7299 7.29596 26.2978 6.25276 25.5285 5.48347C24.7592 4.71417 23.7156 4.28198 22.6277 4.28198C21.5399 4.28198 20.4967 4.71416 19.7274 5.48347C18.9581 6.25277 18.5259 7.29596 18.5259 8.38385C18.5272 9.47139 18.9597 10.5139 19.7287 11.2829C20.4977 12.0522 21.5402 12.4847 22.6277 12.4857ZM22.6277 5.23151C23.4639 5.23151 24.2657 5.56367 24.8568 6.15484C25.448 6.74598 25.7802 7.5481 25.7802 8.38393C25.7802 9.22014 25.448 10.0219 24.8568 10.613C24.2657 11.2042 23.4639 11.5364 22.6277 11.5364C21.7919 11.5364 20.9898 11.2042 20.3986 10.613C19.8075 10.0219 19.4753 9.22011 19.4753 8.38393C19.4753 7.5474 19.8075 6.74532 20.3983 6.15323C20.9894 5.56143 21.7912 5.22829 22.6277 5.22693V5.23151Z" fill="black" fill-opacity="0.6"/>
<path d="M38.5888 30.3511H34.6579V26.4248C34.6579 26.1626 34.4453 25.95 34.183 25.95C33.9207 25.95 33.7081 26.1626 33.7081 26.4248V30.3511H29.782C29.5197 30.3511 29.3071 30.5637 29.3071 30.8257C29.3071 31.088 29.5197 31.3006 29.782 31.3006H33.7083L33.708 35.2223C33.708 35.4843 33.9206 35.6969 34.1829 35.6969C34.4452 35.6969 34.6578 35.4843 34.6578 35.2223V31.3006H38.5841C38.846 31.3006 39.0586 31.088 39.0586 30.8257C39.0586 30.5638 38.846 30.3511 38.5841 30.3511H38.5888Z" fill="black" fill-opacity="0.6"/>
</svg>
