<svg xmlns="http://www.w3.org/2000/svg" width="38.013" height="38.013" viewBox="0 0 38.013 38.013">
  <g id="Insta" transform="translate(-1260.5 -1043.5)">
    <rect id="Rectangle_6761" data-name="Rectangle 6761" width="37.013" height="37.013" rx="2" transform="translate(1261 1044)" fill="none" stroke="#fff" stroke-width="1"/>
    <g id="noun-instagram-6204297" transform="translate(1180.376 1036)">
      <g id="Instagram" transform="translate(90.624 18)">
        <path id="Path_28449" data-name="Path 28449" d="M30.948,18h-8.7A4.252,4.252,0,0,0,18,22.248v8.7A4.252,4.252,0,0,0,22.248,35.2h8.7A4.253,4.253,0,0,0,35.2,30.948v-8.7A4.253,4.253,0,0,0,30.948,18Zm-.089,5.427a1.092,1.092,0,1,1,1.094-1.091A1.092,1.092,0,0,1,30.859,23.427ZM26.6,22.5A4.095,4.095,0,1,1,22.5,26.6,4.095,4.095,0,0,1,26.6,22.5Z" transform="translate(-18 -18)" fill="#fff"/>
        <path id="Path_28450" data-name="Path 28450" d="M43.294,45.758a2.464,2.464,0,1,0-2.464-2.464A2.464,2.464,0,0,0,43.294,45.758Z" transform="translate(-34.696 -34.696)" fill="#fff"/>
      </g>
    </g>
  </g>
</svg>
