<?xml version="1.0" encoding="UTF-8"?><svg id="Layer_1" xmlns="http://www.w3.org/2000/svg" viewBox="0 0 1024 1024"><defs><style>.cls-1{stroke-width:6px;}.cls-1,.cls-2,.cls-3{stroke:#fff;stroke-miterlimit:10;}.cls-1,.cls-3{fill:none;}.cls-4,.cls-2,.cls-5{fill:#fff;}.cls-2{stroke-width:1px;}.cls-5{font-family:FreightSansProBlack-Regular, 'FreightSans Pro';font-size:123px;}.cls-3{stroke-width:2px;}</style></defs><g><g><path class="cls-4" d="M521,952.7h-.4c-1,0-1.8-.8-1.8-1.8,0-1,.8-1.7,1.8-1.8,1,0,2,.8,2,1.8,0,1-.6,1.8-1.6,1.8Zm14.4-.4c-1,0-1.8-.7-1.8-1.7,0-1,.7-1.8,1.7-1.9,1.1,0,2,.7,2.1,1.7,0,1-.5,1.8-1.5,1.9h-.4s0,0,0,0Zm-29.2,.3s0,0,0,0h-.4c-1,0-1.8-.9-1.7-1.9,0-1,.9-1.8,1.9-1.7,1,0,1.9,.8,1.9,1.8,0,1-.6,1.8-1.6,1.8Zm44-1.2c-.9,0-1.8-.7-1.8-1.7,0-1,.7-1.9,1.7-1.9,.9-.1,2,.6,2.1,1.6,0,1-.5,1.8-1.5,1.9h-.4s0,0-.1,0Zm-58.7,.7c0,0-.1,0-.2,0h-.3c-1,0-1.8-.9-1.7-1.9,0-1,.9-1.8,1.9-1.7h.4c1,0,1.7,.9,1.7,1.9,0,.9-.8,1.7-1.8,1.7Zm73.4-2.1c-.9,0-1.7-.6-1.8-1.6-.1-1,.5-1.9,1.5-2h.4c1-.1,1.9,.6,2,1.5,.1,1-.6,1.9-1.6,2h-.3c0,0-.1,0-.2,0Zm-88.2,1c0,0-.1,0-.2,0h-.3c-1,0-1.7-1-1.7-1.9,0-1,.9-1.7,1.9-1.7h.4c1,.1,1.7,1,1.6,2,0,.9-.9,1.6-1.8,1.6Zm102.8-2.9c-.9,0-1.7-.6-1.8-1.5-.2-1,.5-1.9,1.5-2.1h.4c.9-.2,1.9,.5,2,1.5,.1,1-.6,1.9-1.5,2h-.3c0,0-.2,0-.3,0Zm-117.5,1.3c0,0-.2,0-.3,0h-.4c-1-.2-1.7-1.1-1.6-2.1,.1-1,1-1.7,2-1.6,1,.1,1.9,1,1.7,2-.1,.9-.7,1.6-1.6,1.6Zm132.1-3.7c-.9,0-1.7-.6-1.8-1.5-.2-1,.5-1.9,1.5-2.1,1-.2,2.1,.4,2.3,1.4,.2,1-.3,1.9-1.3,2.1h-.4c0,0-.2,0-.3,.1Zm-146.7,1.6c-.1,0-.2,0-.3,0h-.4c-1-.2-1.7-1.1-1.5-2.1,.2-1,1.1-1.7,2.1-1.5h.4c1,.2,1.7,1.1,1.5,2.1-.1,.9-.9,1.5-1.7,1.5Zm161.2-4.6c-.9,0-1.6-.6-1.8-1.4-.2-1,.4-1.9,1.4-2.1,1-.2,2.1,.4,2.3,1.3,.2,1-.2,1.9-1.2,2.1h-.4c-.1,.1-.2,.1-.3,.1Zm-175.8,2c-.1,0-.2,0-.3,0,0,0-.4,0-.4,0-1-.2-1.6-1.2-1.4-2.1,.2-1,1.2-1.6,2.1-1.4,1,.2,1.7,1.2,1.6,2.2-.2,.8-.8,1.5-1.6,1.5Zm190.2-5.4c-.8,0-1.6-.5-1.8-1.4-.2-1,.3-1.9,1.3-2.2,1-.3,2.1,.3,2.4,1.2,.3,1-.2,1.9-1.1,2.2h-.4c-.1,.1-.3,.1-.4,.1Zm-204.6,2.3c-.1,0-.3,0-.4,0h-.4c-1-.3-1.6-1.3-1.3-2.3,.2-1,1.2-1.5,2.2-1.3,1,.2,1.7,1.2,1.5,2.2-.2,.8-.8,1.4-1.6,1.4Zm218.9-6.2c-.8,0-1.5-.5-1.8-1.3-.3-1,.3-2,1.2-2.2h.3c1-.4,2,.2,2.2,1.1,.3,1-.3,2-1.2,2.2h-.3c-.2,.1-.3,.2-.5,.2Zm-233.2,2.6c-.2,0-.3,0-.5,0h-.3c-1-.3-1.5-1.3-1.3-2.3,.2-1,1.2-1.5,2.2-1.3h.4c1,.4,1.5,1.4,1.2,2.3-.2,.8-.9,1.3-1.7,1.3Zm247.3-7c-.8,0-1.5-.5-1.7-1.2-.3-.9,.2-2,1.1-2.3h.4c.9-.4,2,0,2.3,1,.3,.9-.2,2-1.2,2.3h-.3c-.2,.2-.4,.2-.5,.2Zm-261.5,2.9c-.2,0-.4,0-.6,0h-.3c-1-.4-1.5-1.4-1.2-2.3,.3-1,1.3-1.5,2.2-1.2h.4c.9,.4,1.5,1.4,1.2,2.4-.2,.8-.9,1.2-1.7,1.3Zm275.5-7.8c-.7,0-1.4-.4-1.7-1.2-.4-.9,.1-2,1-2.3h.4c.9-.5,2,0,2.3,.9,.3,.9-.1,2-1.1,2.3h-.3c-.2,.2-.4,.2-.6,.2Zm-289.6,3.2c-.2,0-.4,0-.6-.1h-.3c-.9-.4-1.5-1.4-1.2-2.4,.3-.9,1.3-1.5,2.3-1.2h.4c.9,.5,1.4,1.5,1.1,2.4-.3,.7-.9,1.2-1.7,1.2Zm303.4-8.6c-.7,0-1.4-.4-1.7-1.1-.4-.9,0-2,.9-2.4l.4-.2c.9-.4,2,0,2.3,1,.4,.9,0,2-1,2.3h-.3c-.2,.2-.5,.3-.7,.3Zm-317.3,3.5c-.2,0-.4,0-.6-.1h-.3c-.9-.5-1.4-1.5-1-2.5,.4-.9,1.4-1.4,2.3-1,.9,.4,1.6,1.5,1.2,2.4-.3,.7-.9,1.2-1.5,1.2Zm330.9-9.3c-.7,0-1.4-.4-1.7-1-.4-.9,0-2,.9-2.4,0,0,.3-.2,.4-.2,.9-.4,2,0,2.4,.9,.4,.9,0,2-.9,2.4l-.7-1.6,.4,1.8c-.2,.1-.5,.2-.7,.2Zm-344.6,3.7c-.2,0-.4,0-.7-.1h-.3c-.9-.5-1.3-1.6-.9-2.5,.4-.9,1.5-1.3,2.4-.9,.9,.4,1.5,1.5,1.1,2.4-.3,.7-.9,1.1-1.5,1.2Zm358-10c-.7,0-1.3-.3-1.6-1-.5-.9-.1-2,.8-2.4,0,0,.4-.2,.4-.2,.9-.4,2,0,2.4,.9,.4,.9,0,2-.9,2.4l-.8-1.6,.5,1.8c-.3,.1-.5,.2-.8,.2Zm-371.5,4c-.2,0-.5,0-.7-.2l-.3-.2c-.9-.4-1.3-1.5-.9-2.4,.4-.9,1.5-1.3,2.4-.9,.9,.4,1.5,1.6,1,2.5-.3,.7-.9,1.1-1.5,1.1Zm384.6-10.7c-.7,0-1.3-.3-1.6-1-.4-.9,0-2,.8-2.4,.9-.5,2.1-.2,2.6,.6,.5,.9,.3,1.9-.6,2.4l-.4,.2c-.3,.1-.5,.2-.8,.2Zm-397.9,4.3c-.3,0-.6,0-.8-.2l-.3-.2c-.9-.4-1.2-1.5-.8-2.4,.4-.9,1.5-1.3,2.4-.8l.3,.2c.9,.5,1.2,1.5,.8,2.4-.3,.6-.9,1-1.6,1Zm410.7-11.5c-.6,0-1.3-.3-1.6-.9-.5-.9-.2-2,.7-2.5,.9-.5,2.1-.3,2.6,.6,.5,.9,.4,1.9-.5,2.4,0,0-.3,.2-.3,.2-.3,.2-.6,.2-.9,.2Zm-423.8,4.5c-.3,0-.6,0-.9-.2l-.3-.2c-.9-.5-1.2-1.6-.7-2.4,.5-.9,1.6-1.2,2.4-.7l.3,.2c.9,.5,1.2,1.6,.7,2.4-.3,.6-.9,.9-1.5,.9Zm436.4-12.2c-.6,0-1.2-.3-1.6-.9-.5-.9-.2-2,.6-2.5,.8-.5,2.1-.4,2.6,.5,.5,.8,.4,1.9-.4,2.4l-.4,.2c-.3,.2-.6,.2-.9,.3Zm-449.4,4.8c-.3,0-.6,0-.8-.2l-.3-.2c-.9-.5-1.1-1.6-.6-2.5,.5-.9,1.6-1.1,2.5-.6,.9,.5,1.3,1.7,.8,2.6-.3,.6-.9,.9-1.5,1Zm461.8-12.8c-.6,0-1.2-.3-1.5-.8-.6-.8-.3-1.9,.5-2.5,.8-.6,2.1-.4,2.6,.4,.6,.8,.5,1.8-.3,2.4l-.3,.2c-.3,.2-.6,.3-1,.3Zm-474.3,5c-.3,0-.6,0-.9-.3,0,0-.3-.2-.3-.2-.8-.5-1.1-1.7-.5-2.5,.5-.8,1.7-1.1,2.5-.5,.8,.5,1.2,1.7,.7,2.6-.4,.6-.9,.9-1.5,.9Zm486.4-13.5c-.6,0-1.1-.3-1.5-.8-.6-.8-.4-1.9,.4-2.5,.8-.6,2-.5,2.6,.3,.6,.8,.6,1.8-.2,2.4l-.3,.2c-.3,.2-.7,.3-1,.3Zm-498.6,5.3c-.4,0-.7,0-1.1-.3l-.3-.2c-.8-.6-1-1.7-.5-2.5,.6-.8,1.7-1,2.5-.5l.3,.2c.8,.6,1,1.7,.4,2.5-.3,.5-.9,.8-1.4,.8Zm510.4-14.2c-.5,0-1.1-.2-1.5-.7-.6-.8-.5-1.9,.3-2.5,.8-.6,2-.6,2.7,.2,.6,.8,.6,1.8-.1,2.4,0,0-.2,.2-.3,.2-.3,.3-.7,.4-1.1,.4Zm-522.4,5.5c-.4,0-.8-.1-1.1-.4l-.3-.2c-.8-.6-1-1.7-.4-2.5s1.7-1,2.5-.4l.3,.2c.8,.6,1,1.7,.4,2.5-.3,.5-.9,.7-1.4,.7Zm533.9-14.8c-.5,0-1-.2-1.4-.6-.7-.7-.6-1.9,.2-2.5l.3-.3c.8-.6,1.9-.5,2.5,.3,.6,.8,.5,1.9-.3,2.5l-.2,.2c-.3,.3-.7,.4-1.2,.4Zm-545.5,5.7c-.4,0-.8-.1-1.2-.4,0,0-.1-.1-.1-.1-.8-.6-1-1.8-.3-2.6,.6-.8,1.7-1,2.5-.3l.3,.2c.8,.6,.9,1.8,.3,2.5-.3,.4-.9,.7-1.4,.7Zm556.7-15.4c-.5,0-1-.2-1.4-.6-.7-.7-.6-1.9,.1-2.5l.3-.3c.7-.7,1.9-.6,2.5,.2,.7,.7,.6,1.9-.2,2.5l-.2,.2c-.3,.3-.8,.5-1.2,.5Zm-568.1,6c-.4,0-.9-.1-1.2-.4l1.2-1.4-1.4,1.2c-.8-.6-.9-1.8-.2-2.5,.6-.8,1.8-.9,2.5-.2,0,0,.3,.3,.3,.3,.8,.6,.8,1.8,.2,2.5-.3,.4-.8,.6-1.3,.6Zm578.9-16c-.5,0-.9-.2-1.3-.5-.7-.7-.7-1.8,0-2.5l.3-.3c.7-.7,1.9-.7,2.5,0,.7,.7,.7,1.9,0,2.5l-.2,.2c-.3,.3-.8,.5-1.2,.5Zm-590,6.2c-.5,0-.9-.2-1.3-.5l-.2-.2c-.7-.7-.8-1.8-.2-2.5,.7-.7,1.8-.8,2.5-.2l.3,.3c.7,.7,.8,1.8,0,2.5-.3,.4-.8,.6-1.3,.6Zm600.4-16.6c-.5,0-.9-.2-1.3-.5-.7-.7-.7-1.8,0-2.5,.7-.7,1.9-.9,2.7-.2,.7,.7,.9,1.7,.2,2.4l-.3,.3c-.3,.3-.8,.5-1.2,.5Zm-611.3,6.3c-.4,0-.8-.1-1.1-.4,0,0-.3-.3-.3-.3-.7-.7-.7-1.9,0-2.5,.7-.7,1.9-.7,2.5,0,.7,.7,.8,2,.1,2.7-.4,.4-.8,.6-1.3,.6Zm621.4-17.1c-.4,0-.9-.1-1.3-.5-.7-.7-.8-1.8,0-2.5,.7-.7,1.9-.9,2.6-.3,.7,.7,.9,1.7,.3,2.4l-.3,.3c-.3,.4-.8,.6-1.3,.6Zm-631.8,6.6c-.4,0-.8-.2-1.2-.5l-.3-.3c-.7-.7-.6-1.9,.1-2.5,.7-.7,1.9-.6,2.5,.1,.7,.7,.8,2,0,2.7-.4,.4-.8,.6-1.3,.6Zm641.5-17.7c-.4,0-.8-.1-1.2-.4-.8-.6-.9-1.8-.2-2.5l.2-.3c.6-.8,1.8-.9,2.5-.2,.8,.6,.9,1.8,.2,2.5l-.2,.3c-.3,.4-.8,.6-1.3,.6Zm-651.3,6.8c-.5,0-1-.2-1.4-.6l-.2-.3c-.7-.7-.6-1.9,.1-2.5s1.9-.6,2.5,.1l.3,.3c.7,.7,.6,1.9-.2,2.5-.3,.3-.7,.4-1.2,.4Zm660.7-18.3c-.4,0-.8-.1-1.1-.4-.8-.6-1-1.7-.4-2.5,0,0,.3-.3,.3-.3,.6-.8,1.8-.9,2.5-.3,.8,.6,.9,1.8,.3,2.5l-1.4-1.1,1.2,1.4c-.3,.5-.9,.7-1.4,.7Zm-670.3,7c-.5,0-1.1-.2-1.4-.7l1.4-1.1-1.6,.9c-.6-.8-.6-1.9,.2-2.5,.8-.6,1.9-.6,2.5,.2,0,0,.3,.3,.3,.3,.6,.8,.5,1.9-.3,2.5-.3,.3-.7,.4-1.1,.4Zm679.3-18.8c-.4,0-.7,0-1.1-.3-.8-.6-1-1.7-.5-2.5l.3-.3c.6-.8,1.7-1,2.5-.4,.8,.6,1,1.7,.4,2.5l-.2,.2c-.3,.5-.9,.8-1.5,.8Zm-688.7,7.2c-.5,0-.9-.2-1.2-.6,0,0-.2-.3-.3-.3-.6-.8-.4-1.9,.4-2.5,.8-.6,1.9-.4,2.5,.4,.6,.8,.5,2-.2,2.6-.4,.3-.8,.4-1.2,.4Zm697.2-19.2c-.4,0-.7,0-1.1-.3-.8-.6-1-1.7-.5-2.5l.2-.3c.6-.8,1.7-1,2.5-.5,.8,.6,1,1.7,.5,2.5l-.2,.3c-.3,.5-.9,.8-1.5,.8Zm-706,7.4c-.5,0-1-.2-1.3-.6,0,0-.2-.3-.2-.3-.6-.8-.4-1.9,.4-2.5,.8-.6,1.9-.4,2.5,.4,.6,.8,.5,2.1-.3,2.6-.3,.2-.7,.4-1.1,.4Zm714.2-19.7c-.3,0-.7,0-1-.3-.8-.5-1.1-1.7-.5-2.5,.5-.8,1.7-1.2,2.6-.7,.8,.5,1.2,1.5,.7,2.3l-.2,.3c-.3,.5-.9,.8-1.5,.8Zm-722.4,7.7c-.6,0-1.2-.3-1.5-.8l1.5-1-1.7,.7c-.6-.8-.3-1.9,.5-2.5,.8-.6,1.9-.3,2.5,.5,0,0,.2,.3,.2,.3,.6,.8,.3,1.9-.5,2.5-.3,.2-.6,.3-1,.3Zm730.1-20.3c-.3,0-.6,0-.9-.2-.9-.5-1.2-1.6-.7-2.5l.2-.3c.5-.9,1.6-1.1,2.5-.6,.9,.5,1.1,1.6,.6,2.5l-.2,.3c-.3,.6-.9,.9-1.5,.9Zm-738.3,7.8c-.5,0-1-.2-1.4-.7,0,0-.2-.3-.2-.4-.5-.9-.2-2,.6-2.5,.9-.5,2-.2,2.5,.6,.5,.8,.3,2.1-.5,2.6-.3,.2-.7,.3-1,.3Zm745.5-20.7c-.3,0-.6,0-.9-.2-.9-.5-1.2-1.6-.7-2.5,.5-.9,1.6-1.4,2.5-.9,.9,.5,1.3,1.4,.8,2.3l-.2,.3c-.3,.6-.9,.9-1.5,.9Zm-753.1,8c-.6,0-1.1-.2-1.4-.8l-.2-.3c-.5-.9-.2-2,.7-2.4,.9-.5,2-.2,2.4,.7,.5,.9,.3,2.1-.6,2.6-.3,.2-.6,.3-1,.3Zm759.9-21.1c-.3,0-.6,0-.8-.2-.9-.4-1.3-1.5-.8-2.4l.2-.3c.5-.9,1.5-1.2,2.4-.8,.9,.5,1.2,1.5,.8,2.4l-.2,.3c-.3,.6-.9,1-1.6,1Zm-767,8.2c-.6,0-1.1-.3-1.4-.8,0,0-.2-.3-.2-.4-.4-.9,0-2,.8-2.4,.9-.4,2,0,2.4,.8,.4,.9,.2,2.1-.7,2.6-.3,.2-.6,.2-.9,.2Zm773.4-21.5c-.2,0-.5,0-.7-.1-.9-.4-1.3-1.5-.9-2.4l.2-.4c.4-.9,1.5-1.3,2.4-.9,.9,.4,1.3,1.5,.9,2.4v.3c-.4,.7-1.1,1.1-1.7,1.1Zm-779.8,8.5c-.7,0-1.3-.4-1.7-1l1.6-.8-1.8,.5c-.4-.9,0-2,.8-2.4,.9-.4,2,0,2.4,.8,0,0,.2,.3,.2,.3,.4,.9,0,2-.9,2.4-.2,.1-.5,.2-.7,.2Zm785.7-22.1c-.2,0-.5,0-.7-.1-.9-.4-1.4-1.4-1-2.3l.2-.4c.4-.9,1.5-1.3,2.4-.9,.9,.4,1.3,1.5,.9,2.4v.3c-.4,.7-1,1.1-1.8,1.2Zm-791.9,8.7c-.7,0-1.4-.4-1.7-1.1l1.6-.7-1.8,.4c-.4-.9,0-2,.9-2.4,.9-.4,2,0,2.4,.9,0,0,.1,.3,.1,.3,.4,.9,0,2-.9,2.4-.2,0-.5,.1-.7,.2Zm797.4-22.4c-.2,0-.4,0-.6-.1-.9-.3-1.4-1.4-1.1-2.3v-.4c.5-.9,1.5-1.4,2.5-1,.9,.4,1.4,1.4,1,2.3v.3c-.4,.7-1,1.2-1.8,1.2Zm-803.1,8.9c-.7,0-1.4-.4-1.7-1.1v-.3c-.5-.9,0-2,.8-2.4,.9-.4,2,0,2.4,1v.4c.5,.9,0,2-.9,2.3-.2,0-.4,.1-.6,.1Zm808.1-22.8c-.2,0-.4,0-.6,0-.9-.3-1.5-1.3-1.2-2.3v-.4c.5-.9,1.5-1.4,2.4-1.1,.9,.3,1.4,1.4,1.1,2.3v.3c-.3,.8-1,1.2-1.8,1.3Zm-813.5,8.9c-.7,0-1.3-.3-1.6-1v-.4c-.5-.9,0-2,1-2.3,.9-.3,2,.2,2.3,1.1,.3,.9,0,2.1-1,2.5-.2,0-.5,.1-.7,.1Zm818-23c-.2,0-.4,0-.6,0-.9-.3-1.5-1.3-1.2-2.3,.3-1,1.3-1.7,2.3-1.4,1,.3,1.6,1.1,1.3,2.1v.4c-.4,.8-1.1,1.2-1.8,1.2Zm-822.7,9c-.7,0-1.3-.4-1.6-1.1,0,0-.1-.3-.1-.3-.3-.9,.2-2,1.2-2.3,.9-.3,2,.2,2.3,1.2s-.2,2.1-1.1,2.4c-.2,0-.4,.1-.6,.1Zm826.7-23.3c-.2,0-.3,0-.5,0-1-.3-1.5-1.3-1.2-2.2,.2-1,1.3-1.7,2.2-1.5,1,.2,1.6,1.1,1.3,2v.4c-.3,.8-1,1.3-1.8,1.3Zm-830.9,9.3c-.8,0-1.5-.5-1.8-1.3l1.7-.5-1.8,.2c-.3-1,.3-2,1.2-2.2,.9-.3,2,.3,2.2,1.2,0,0,.1,.4,.1,.4,.3,1-.3,2-1.3,2.2-.1,0-.3,0-.4,0Zm834.3-23.6c-.1,0-.3,0-.4,0-1-.2-1.6-1.2-1.4-2.1v-.4c.3-1,1.3-1.6,2.2-1.4,1,.2,1.6,1.2,1.4,2.1v.3c-.3,.8-1,1.4-1.8,1.4Zm-838.3,9.2c-.8,0-1.5-.4-1.7-1.2v-.4c-.3-1,.3-1.9,1.2-2.2,1-.2,1.9,.4,2.2,1.3,.2,1-.3,2.1-1.3,2.3-.2,0-.3,0-.5,0Zm-.6-205c-.1,0-.3,0-.4,0-1-.2-1.6-1-1.4-2,0,0,0-.4,0-.4,.2-1,1.2-1.6,2.2-1.3,1,.2,1.5,1.2,1.3,2.2-.2,.8-1,1.5-1.8,1.5Zm830.8-24.1c-.8,0-1.5-.5-1.7-1.2v-.4c-.4-1,.1-2,1.1-2.2,1-.3,2,.3,2.2,1.2v.3c.4,.9-.1,2-1.1,2.3-.2,0-.4,0-.5,0Zm-827,10c-.2,0-.4,0-.5,0-1-.3-1.5-1.3-1.2-2.2l1.7,.5-1.6-.8c.3-1,1.3-1.5,2.2-1.3,1,.3,1.5,1.2,1.3,2.2,0,0-.1,.4-.1,.4-.2,.8-.9,1.3-1.7,1.3Zm822.5-24.1c-.8,0-1.5-.4-1.7-1.2,0,0-.1-.4-.1-.4-.3-.9,.2-2,1.1-2.3,1-.3,2,.2,2.3,1.1l-1.7,.6,1.8-.3c.3,.9-.1,2-1.1,2.3-.2,0-.4,.1-.6,.1Zm-818.3,9.9c-.2,0-.4,0-.6,0-.9-.3-1.5-1.3-1.2-2.3v-.3c.4-.9,1.4-1.5,2.4-1.2,.9,.3,1.5,1.3,1.2,2.3v.3c-.3,.8-1,1.2-1.8,1.3Zm813.3-23.8c-.8,0-1.5-.4-1.7-1.2-.4-.9,0-2.1,1-2.5,.9-.4,1.9,0,2.3,.9l.2,.4c.3,.9-.1,2-1.1,2.3-.2,0-.4,.1-.6,.1Zm-808.6,9.7c-.2,0-.4,0-.6-.1-.9-.3-1.4-1.4-1.1-2.3v-.3c.4-.9,1.5-1.4,2.4-1.1,.9,.3,1.4,1.4,1.1,2.3v.4c-.4,.7-1.1,1.2-1.8,1.2Zm803.1-23.5c-.7,0-1.4-.4-1.7-1.1-.4-.9,0-2.1,.9-2.5,.9-.4,1.9-.1,2.3,.8l.2,.4c.4,.9,0,2-1,2.3-.2,0-.4,.1-.6,.1Zm-797.9,9.4c-.2,0-.4,0-.6-.1-.9-.4-1.4-1.2-1.1-2.2v-.3c.5-.9,1.6-1.4,2.5-1,.9,.4,1.4,1.4,1,2.3-.3,.7-1,1.3-1.8,1.3Zm792-22.9c-.7,0-1.4-.4-1.7-1.1-.4-.9,0-2.1,.8-2.5,.9-.4,1.9-.2,2.3,.7,0,0,.2,.4,.2,.4,.4,.9,0,2-.9,2.4-.2,0-.5,.1-.7,.1Zm-786.3,9.4c-.3,0-.5,0-.8-.2-.9-.4-1.3-1.5-.9-2.4v-.3c.5-.9,1.6-1.3,2.5-1,.9,.4,1.3,1.4,1,2.4l-.2,.4c-.3,.7-.9,1.1-1.6,1.1Zm779.9-22.6c-.7,0-1.3-.4-1.7-1-.4-.9-.1-2.1,.7-2.5,.9-.4,1.9-.2,2.3,.6,0,0,.2,.4,.2,.4,.4,.9,0,2-.9,2.4-.2,.1-.5,.2-.7,.2Zm-773.8,9.2c-.3,0-.6,0-.8-.2-.9-.4-1.3-1.5-.8-2.4v-.3c.6-.9,1.6-1.3,2.5-.9,.9,.4,1.3,1.5,.9,2.4l-.2,.4c-.3,.6-.9,1-1.6,1Zm766.9-22.2c-.7,0-1.3-.3-1.6-1-.5-.9-.2-2.1,.7-2.6,.9-.5,1.9-.3,2.3,.6,0,0,.2,.3,.2,.4,.5,.9,.1,2-.8,2.4-.3,.1-.5,.2-.8,.2Zm-760.3,8.9c-.3,0-.6,0-.9-.2-.9-.5-1.2-1.5-.8-2.4v-.3c.6-.9,1.7-1.2,2.6-.8,.9,.4,1.2,1.5,.8,2.4l-.2,.4c-.3,.6-.9,1-1.6,1Zm753-21.7c-.6,0-1.2-.3-1.6-.9-.5-.9-.3-2.1,.5-2.6,.9-.5,1.9-.4,2.4,.5l.2,.3c.5,.9,.2,2-.6,2.5-.3,.2-.6,.2-.9,.3Zm-745.9,8.7c-.3,0-.6,0-.9-.2-.9-.5-1.2-1.6-.7-2.5l.2-.3c.5-.9,1.6-1.2,2.4-.7,.9,.5,1.2,1.6,.7,2.4l-.2,.3c-.3,.6-.9,.9-1.5,.9Zm738.2-21.3c-.6,0-1.2-.3-1.5-.8-.5-.8-.4-2.1,.4-2.6,.8-.5,1.9-.5,2.4,.4l.2,.3c.5,.8,.3,1.9-.5,2.5-.3,.2-.6,.3-.9,.3Zm-730.7,8.5c-.3,0-.7,0-1-.3-.8-.5-1.1-1.6-.6-2.5l.2-.3c.5-.9,1.6-1.1,2.5-.6,.9,.5,1.1,1.6,.6,2.5l-.2,.3c-.3,.5-.9,.8-1.5,.9Zm722.5-20.8c-.6,0-1.2-.3-1.5-.8l-.2-.3c-.6-.8-.4-1.9,.4-2.5,.8-.6,1.9-.4,2.5,.4l.2,.3c.6,.8,.4,1.9-.5,2.5-.3,.2-.6,.3-1,.3Zm-714.6,8.3c-.4,0-.7,0-1-.3-.8-.6-1-1.7-.5-2.5l.2-.3c.5-.8,1.6-1.1,2.5-.5,.8,.5,1.1,1.6,.5,2.5l-.2,.3c-.3,.5-.9,.8-1.5,.8Zm706-20.3c-.6,0-1.1-.2-1.5-.7-.6-.8-.5-2.1,.3-2.6,.8-.6,1.8-.6,2.4,.2,0,0,.2,.3,.2,.3,.6,.8,.4,1.9-.4,2.5-.3,.2-.7,.3-1,.3Zm-697.7,8.1c-.4,0-.8-.1-1.1-.3-.8-.6-1-1.7-.4-2.5l.2-.3c.6-.8,1.7-1,2.5-.4,.8,.6,1,1.7,.4,2.5l-.2,.3c-.3,.5-.9,.7-1.4,.8Zm688.7-19.8c-.6,0-1.1-.2-1.5-.7-.6-.8-.6-2,.2-2.6,.8-.6,1.8-.6,2.4,.1l.3,.3c.6,.8,.4,1.9-.3,2.5-.3,.2-.7,.4-1.1,.4Zm-679.9,7.7c-.4,0-.7,0-1-.3-.8-.6-1.1-1.6-.5-2.4l.2-.3c.6-.8,1.7-.9,2.5-.3,.8,.6,.9,1.7,.3,2.5-.4,.5-1,.8-1.6,.8Zm670.5-19.1c-.5,0-1-.2-1.4-.6-.6-.8-.7-2,0-2.7,.8-.6,1.8-.7,2.4,0,0,0,.2,.3,.2,.3,.6,.8,.5,1.9-.2,2.5-.3,.3-.7,.4-1.1,.4Zm-661.3,7.4c-.4,0-.8-.1-1.1-.4-.8-.6-1-1.6-.4-2.4l.2-.3c.6-.8,1.8-.9,2.5-.2,.8,.6,.9,1.8,.2,2.5-.4,.5-1,.7-1.6,.7Zm651.6-18.5c-.5,0-1-.2-1.4-.6-.7-.7-.7-2,0-2.7,.7-.7,1.8-.8,2.4,0l.3,.3c.7,.7,.6,1.9-.2,2.5-.3,.3-.7,.4-1.2,.4Zm-642,7.2c-.4,0-.8-.1-1.1-.4-.8-.7-.9-1.7-.3-2.4l.2-.3c.7-.7,1.8-.8,2.5-.2,.7,.7,.8,1.8,.2,2.5-.4,.4-1,.7-1.5,.7Zm631.9-17.9c-.5,0-.9-.2-1.3-.5,0,0-.3-.3-.3-.3-.7-.7-.7-1.9,0-2.5,.7-.7,1.9-.7,2.5,0l-1.3,1.2,1.5-1c.7,.7,.7,1.8,0,2.5-.3,.3-.8,.5-1.2,.5Zm-622,7.1c-.5,0-.9-.2-1.3-.5-.7-.7-.8-1.8,0-2.5l.2-.2c.7-.7,1.8-.8,2.5-.1,.7,.7,.8,1.8,.1,2.5l-.3,.3c-.3,.4-.8,.6-1.3,.6Zm611.4-17.5c-.4,0-.9-.1-1.3-.5l-.3-.3c-.7-.7-.7-1.8,0-2.5,.7-.7,1.8-.7,2.5,0l.2,.2c.7,.7,.8,1.8,0,2.5-.3,.4-.8,.6-1.3,.6Zm-601.2,6.9c-.5,0-.9-.2-1.3-.5-.7-.7-.7-1.8,0-2.5l.3-.3c.7-.7,1.8-.7,2.5,0,.7,.7,.7,1.8,0,2.5l-.3,.3c-.3,.3-.8,.5-1.2,.5Zm590.3-16.9c-.4,0-.9-.1-1.2-.5-.7-.7-.9-1.9-.3-2.7,.7-.7,1.7-.9,2.4-.3,0,0,.3,.2,.3,.3,.7,.7,.8,1.8,.1,2.5-.3,.4-.8,.6-1.3,.6Zm-579.6,6.5c-.5,0-1-.2-1.3-.5-.7-.7-.8-1.7,0-2.4l.3-.3c.7-.7,1.9-.6,2.5,.1,.7,.7,.6,1.9-.1,2.5-.4,.3-.9,.5-1.4,.5Zm568.4-16.1c-.4,0-.8-.1-1.2-.4l-.3-.2c-.8-.6-.9-1.8-.2-2.5,.6-.8,1.8-.9,2.5-.2l.3,.2c.8,.6,.9,1.8,.3,2.5-.3,.4-.9,.7-1.4,.7Zm-557.4,6.2c-.5,0-1-.2-1.4-.6-.6-.7-.7-1.8,0-2.4,0,0,.3-.3,.3-.3,.8-.6,1.9-.5,2.5,.2,.6,.8,.5,1.9-.2,2.5-.4,.3-.8,.5-1.3,.5Zm545.8-15.5c-.4,0-.8-.1-1.2-.4-.8-.6-1.1-1.8-.5-2.6,.6-.8,1.6-1,2.4-.4l.3,.2c.8,.6,.9,1.8,.3,2.5-.4,.4-.9,.7-1.4,.7Zm-534.6,6.2c-.5,0-1.1-.2-1.4-.7-.6-.8-.5-1.9,.3-2.5l.3-.2c.8-.6,1.9-.5,2.5,.3,.6,.8,.5,1.9-.3,2.5l-.3,.2c-.3,.3-.7,.4-1.1,.4Zm522.8-15c-.4,0-.7,0-1.1-.3l-.3-.2c-.8-.6-1-1.7-.4-2.5,.6-.8,1.7-1,2.5-.4l.3,.2c.8,.6,1,1.7,.4,2.5-.3,.5-.9,.8-1.4,.8Zm-511,5.7c-.6,0-1.1-.2-1.5-.6-.6-.8-.6-1.8,.2-2.4l.3-.2c.8-.6,1.9-.4,2.5,.4,.6,.8,.4,1.9-.4,2.5-.3,.3-.8,.4-1.2,.4Zm498.9-14.2c-.4,0-.7,0-1.1-.3-.8-.6-1.2-1.8-.6-2.6,.6-.8,1.5-1.1,2.4-.6l.3,.2c.8,.6,1,1.7,.5,2.5-.3,.5-.9,.8-1.5,.8Zm-487.1,5.6c-.6,0-1.2-.3-1.5-.8-.6-.8-.4-1.9,.5-2.5l.3-.2c.8-.6,1.9-.4,2.5,.4,.6,.8,.4,1.9-.4,2.5l-.3,.2c-.3,.2-.6,.3-1,.3Zm474.7-13.7c-.3,0-.7,0-1-.3-.9-.5-1.2-1.7-.7-2.6,.5-.8,1.5-1.2,2.3-.7l.3,.2c.8,.5,1.1,1.7,.5,2.5-.3,.5-.9,.8-1.5,.8Zm-462.4,5.4c-.6,0-1.2-.3-1.5-.8-.5-.8-.3-1.9,.5-2.5l1,1.5-.7-1.7c.8-.6,1.9-.3,2.5,.5,.6,.8,.3,1.9-.5,2.5,0,0-.3,.2-.3,.2-.3,.2-.6,.3-.9,.3Zm449.7-13c-.3,0-.6,0-.9-.2l-.3-.2c-.9-.5-1.2-1.6-.7-2.5,.5-.9,1.6-1.2,2.5-.7l.3,.2c.9,.5,1.2,1.6,.7,2.5-.3,.6-.9,.9-1.5,.9Zm-437.3,5.1c-.6,0-1.2-.3-1.6-.9-.5-.9-.2-2,.6-2.5l.9,1.5-.6-1.7c.8-.5,1.9-.3,2.5,.6,.5,.8,.3,2-.6,2.5,0,0-.3,.2-.3,.2-.3,.2-.6,.3-.9,.3Zm424.3-12.3c-.3,0-.6,0-.9-.2-.9-.5-1.4-1.6-.9-2.5,.5-.9,1.4-1.3,2.3-.8l.3,.2c.9,.5,1.2,1.6,.7,2.4-.3,.6-.9,.9-1.5,.9Zm-411.4,4.7c-.7,0-1.3-.3-1.7-.9-.5-.9-.3-1.9,.5-2.4l.3-.2c.9-.5,2-.2,2.5,.7,.5,.9,.2,2-.7,2.5-.3,.2-.6,.2-1,.3Zm398.2-11.4c-.3,0-.6,0-.8-.2-.9-.4-1.4-1.6-1-2.5,.4-.9,1.4-1.3,2.2-.9l.3,.2c.9,.4,1.3,1.5,.8,2.4-.3,.6-.9,1-1.6,1Zm-385.2,4.4c-.7,0-1.4-.3-1.7-.9-.5-.9-.3-1.9,.6-2.3l.3-.2c.9-.4,2-.1,2.4,.8,.5,.9,.1,2-.8,2.4-.3,.1-.6,.2-.9,.2Zm371.7-10.7c-.3,0-.5,0-.8-.2h-.3c-.9-.6-1.3-1.6-.9-2.5,.4-.9,1.5-1.3,2.4-.9h.3c.9,.6,1.3,1.6,.9,2.5-.3,.7-.9,1.1-1.6,1.1Zm-358.5,4.1c-.7,0-1.4-.3-1.7-1-.4-.9-.2-1.9,.7-2.3l.3-.2c.9-.4,2,0,2.4,.9,.4,.9,0,2-.9,2.4-.3,.1-.5,.2-.8,.2Zm344.9-9.9c-.2,0-.5,0-.7-.1-.9-.4-1.5-1.5-1.2-2.4,.4-.9,1.3-1.4,2.2-1.1h.4c.9,.5,1.4,1.6,1,2.5-.3,.7-.9,1.1-1.6,1.1Zm-331.4,3.8c-.7,0-1.5-.3-1.8-1-.4-.9-.1-1.9,.8-2.3h.3c.9-.5,2-.1,2.4,.8,.4,.9,0,2-.9,2.4-.2,.1-.5,.2-.8,.2Zm317.6-9.2c-.2,0-.4,0-.6-.1h-.4c-.9-.5-1.4-1.5-1.1-2.4,.3-.9,1.4-1.4,2.3-1.1h.3c.9,.4,1.4,1.5,1.1,2.4-.3,.7-.9,1.2-1.7,1.2Zm-303.9,3.5c-.8,0-1.5-.4-1.8-1.1-.4-.9,0-1.9,.9-2.3h.4c.9-.5,2,0,2.3,.9,.4,.9-.1,2-1,2.3-.2,0-.5,.1-.7,.1Zm289.9-8.4c-.2,0-.4,0-.6,0-.9-.3-1.6-1.4-1.3-2.3,.3-.9,1.2-1.5,2.1-1.2h.4c.9,.4,1.5,1.4,1.2,2.4-.2,.7-.9,1.2-1.7,1.2Zm-276.3,3.3c-.8,0-1.5-.5-1.7-1.2-.3-.9,.2-2,1.1-2.3h.3c.9-.4,2,0,2.3,1,.3,.9-.1,2-1.1,2.3h-.4c-.2,.2-.4,.2-.6,.2Zm262.1-7.7c-.2,0-.4,0-.5,0-1-.3-1.7-1.3-1.4-2.3,.3-1,1.1-1.6,2.1-1.3h.4c1,.4,1.5,1.4,1.2,2.3-.2,.8-.9,1.3-1.7,1.3Zm-248.1,3c-.8,0-1.5-.5-1.8-1.3-.3-.9,.2-2,1.2-2.3h.3c.9-.4,2,.1,2.3,1,.3,.9-.2,2-1.1,2.3h-.4c-.2,.2-.3,.2-.5,.2Zm233.8-6.8c-.2,0-.3,0-.5,0h-.4c-1-.3-1.5-1.3-1.3-2.3,.2-1,1.2-1.6,2.2-1.3h.4c1,.3,1.5,1.3,1.3,2.3-.2,.8-.9,1.3-1.7,1.4Zm-219.3,2.6c-.8,0-1.7-.5-1.9-1.3-.3-1,.1-1.9,1.1-2.2h.4c1-.4,1.9,.2,2.2,1.2,.3,1-.3,1.9-1.3,2.2-.2,0-.3,0-.5,0Zm204.9-5.9c-.1,0-.3,0-.4,0h-.4c-1-.3-1.6-1.3-1.4-2.2,.2-1,1.2-1.6,2.1-1.4h.3c1,.3,1.6,1.2,1.4,2.2-.2,.8-.9,1.4-1.7,1.4Zm-190.6,2.2c-.9,0-1.7-.5-1.9-1.3-.2-1,.2-1.9,1.1-2.1,0,0,.4,0,.4,0,1-.2,1.9,.4,2.2,1.3,.2,1-.4,1.9-1.3,2.2-.1,0-.3,0-.4,0Zm176.1-5.1c-.1,0-.2,0-.4,0-1-.2-1.8-1.1-1.6-2.1,.2-1,.9-1.7,1.9-1.5h.4c1,.3,1.6,1.2,1.4,2.2-.2,.8-.9,1.4-1.7,1.5Zm-162,2c-.9,0-1.6-.6-1.8-1.4-.2-1,.4-1.9,1.4-2.1h.3c1-.3,1.9,.3,2.1,1.3,.2,1-.4,1.9-1.4,2.1h-.4c-.1,0-.2,.1-.3,.1Zm147.4-4.3c0,0-.2,0-.3,0-1-.1-1.8-1.1-1.7-2.1,.1-1,.9-1.7,1.9-1.6,0,0,.4,0,.4,0,1,.1,1.7,1.1,1.5,2-.1,.9-.9,1.5-1.7,1.5Zm-132.8,1.6c-.9,0-1.7-.6-1.8-1.5-.2-1,.5-1.9,1.5-2.1h.4c1-.2,1.9,.4,2.1,1.4,.2,1-.5,1.9-1.5,2.1h-.4c0,0-.2,0-.3,0Zm118.2-3.5c0,0-.1,0-.2,0h-.4c-1-.2-1.7-1-1.6-2,.1-1,1-1.7,2-1.6h.3c1,.1,1.7,1,1.6,2,0,.9-.9,1.6-1.8,1.6Zm-103.2,1.2c-.9,0-1.8-.6-2-1.5-.1-1,.4-1.9,1.4-2h.4c1-.2,1.9,.5,2,1.5,.1,1-.6,1.9-1.6,2,0,0-.1,0-.2,0Zm88.5-2.6c0,0-.1,0-.2,0-1,0-1.9-.9-1.8-1.9,0-1,.7-1.8,1.8-1.7h.4c1,.1,1.7,1,1.6,2,0,.9-.8,1.6-1.8,1.6Zm-74.2,.9c-.9,0-1.7-.7-1.8-1.6,0-1,.6-1.9,1.6-2h.3c1-.2,1.9,.6,2,1.6,.1,1-.6,1.9-1.6,2h-.4s0,0-.1,0Zm59.4-1.7s0,0-.1,0h-.4c-1,0-1.8-.9-1.7-1.9,0-1,.9-1.8,1.9-1.7h.4c1,0,1.8,.9,1.7,1.9,0,1-.8,1.7-1.8,1.7Zm-44.3,.5c-1,0-1.9-.7-2-1.7,0-1,.5-1.8,1.5-1.9h.4c1-.1,1.8,.7,1.9,1.7,0,1-.7,1.8-1.7,1.9,0,0,0,0,0,0Zm29.5-.8s0,0,0,0h-.4c-1,0-1.8-.8-1.8-1.8,0-1,.9-1.8,1.8-1.8h.3c1,0,1.8,.8,1.8,1.8,0,1-.8,1.8-1.8,1.8Zm-14.8,.2c-1,0-2-.7-2-1.7,0-1,.6-1.8,1.6-1.9h.4c1,0,1.8,.8,1.8,1.8,0,1-.8,1.8-1.8,1.8,0,0,0,0,0,0Z"/><g><path class="cls-4" d="M969.7,385.4c-1.1-1.3-1.4-2.4-1.3-3.9-2.9-9.2-6-18.4-9.4-27.4,0,2.3-.8,4.9-2.4,7.4,0-4.7-.2-8.8-.3-13.1,.3,.2,.6,.5,.8,.7-2-5.1-4.1-10.1-6.3-15.1-.5,1.9-1,3.4-1.5,4.9-.2,.6-1.2,1.1-1.8,1.2-.5,0-1.6-.7-1.5-1,.3-1.9,.6-3.9,1.5-5.6,.3-.6,1.3-.9,2.6-1.4-31.7-72.6-81.6-137-144.9-185.9-85.2-65.9-191.4-101-299.3-98.9-89.3,1.8-176.6,29-250.8,77.6,0,.2,0,.3,0,.5-.7,.9-1.3,2.2-2.2,2.7-3.3,1.8-6.6,3.4-10,5-11.1,7.8-21.9,16.1-32.4,24.8-19.1,16-36.8,33.5-53,52.2,.5,.3,1.1,.7,1.9,1.1-3,2.7-5.3,4.8-7.7,7-.2-.2-.3-.4-.5-.6-20.7,24.8-38.8,51.6-54.1,80,1.1,0,2.3,.4,3.8,1.3-1.7,2.4-4,3.5-6.1,3.1-20,38.2-35,79.2-43.9,121.6,0,0,29.6-.6,29.6-.6,0,0,0,0,0,0C125.9,222.3,300,80.1,506.5,76c33.6-.7,66.4,2.4,98.1,8.8-.3-.2-.5-.5-.8-.7,4.1-.9,7-1.5,10.7-2.3-.9,3.3-2.8,3.8-4.7,4,81.1,17.3,154.6,56.7,213.2,112.5,1,.5,2,1,3,1.4,.7,.4,1,1.5,1.5,2.3-.1,0-.3,.2-.4,.2,16.5,16.1,31.7,33.5,45.5,52.2,.1-.7,.4-1.4,.6-1.5,1.1-.3,2.5-.2,3.7,.2,2.2,.8,4.2,1.9,6.3,2.9-.2,.4-.5,.8-.7,1.1-2.1,.2-4.2,.7-6.3,.5-.5,0-1-.3-1.5-.5,2.2,3,4.3,6,6.5,9.1-.2-1.1-.4-2.2-.5-3.3-.1-1,.2-2.1,.3-3.1,1.2,.3,2.7,.3,3.5,1,1.2,1.1,1.9,2.7,3.1,4.6-.5,.4-1.2,1.1-2.6,2.4,1.1,.7,1.9,1.3,2.4,1.6-.4,1.4-.8,2.8-1.2,4.2,14.9,22.4,27.8,46.4,38.6,71.7,1.5,1.3,3.5,2.4,4.4,4.1,2,4,1.7,9.7,8.8,9.8-.1,.4-.2,.9-.3,1.3-1.4,1.2-2.9,2.3-5.1,4.1,4.9,13.3,9.3,26.9,13,40.9,0,0,0,.1,0,.1l29.6-.6c-1.7-6.7-3.5-13.4-5.5-20Zm-906.1-4c1-3.2,1.5-5.3,2.2-7.3,.2-.6,1.2-1.1,1.8-1.2,.5,0,1.6,.7,1.5,1-.3,1.9-.6,3.9-1.5,5.6-.4,.8-2,1-4.1,1.9Zm7.7,32.7c-3.5-2.2-3.6-8-.3-13.1,0,4.7,.2,8.8,.3,13.1Zm11.1-79.9c-.8-.5-.7-4.2,.2-5.2,2.3-2.3,4.9-1.4,7.3,1.9-3.1,.8-3.9,5.6-7.5,3.3Zm34.5-56.5c-.6,1.2-1.2,2.5-2,3.5-.6,.8-2,1.8-2.6,1.5-1-.4-2-1.6-2.2-2.6-.7-2.6,2.6-6.2,6.2-6.2,.2,0,1.2,.5,2.1,.8-.5,1-.9,2-1.5,3Zm12.1-15.9c-.6-.2-1.5-1.3-1.4-1.6,.4-.9,1-1.9,1.8-2.3,1.9-.9,4-1.4,6.3-2.2,.6,4.1-2.9,7.2-6.7,6Zm25.6-33.5c-.5,2.5-3.2,5.6-5.2,7.2-2.4,1.9-4.5,4-7.4,6.6,.5-3.4,.8-5.6,1.3-7.8,.1-.6,.7-1.5,1.1-1.5,4.3,0,5.1-3.2,6.5-6.2,.5-1,2.1-1.5,3.2-2.2,.2,1.3,.9,2.7,.6,3.9Zm105.7-91.2c-.5-.8-1.7-1.8-1.5-2.2,.5-1.3,1.5-2.4,2.5-3.3,.3-.2,1.6,.9,3.5,2-2.1,1.6-3.3,2.5-4.6,3.5Zm50.9-30.7c-1.2-1.5-2.4-2.9-3.7-4.4,.8-.6,1.8-1.9,2.2-1.7,1.4,.6,2.6,1.7,4.6,3.1-1.6,1.6-2.4,2.3-3.1,3Zm40.3-10.2c-3.8-.5-7-1-10.2-1.4,1.5-2.1,8.4-5.2,10.2-4.4,.9,.4,2.3,1.7,2.2,2.1-.6,1.5-1.7,2.9-2.2,3.7Zm41.3-15.4c2.6-4.5,7.4-5.4,11.3-3.3,1.4,.8,3.4,.6,5.1,.9,1.8,.3,3.6,.7,5.4,1.8-7.2,5.2-14.5-.8-21.7,.7Zm30.5-4.7c-1.8,2.3-4.1,3.5-6.8,.6-.8-.9-2.9-.4-4.2-1-1.3-.6-2.4-1.7-3.5-2.5,1.2-.7,2.4-2,3.7-2.1,2.3-.3,4.7,.4,6.9,0,1.5-.3,2.7-2.1,4.2-3,1.4-.8,3.1-1.2,4.7-1.7,.2,.4,.3,.7,.5,1.1-1.8,2.9-3.4,6-5.5,8.7Zm8.2-9.3q.1-2.6,7-3.2c.2,3.7-.6,4.1-7,3.2Zm14.4,.2c5.6-4,17.5-2.7,19.7,2.2-6.7-.8-12.7-1.5-19.7-2.2Zm55.8,3.7c-1.3-1.4-2.3-2.5-3.3-3.5,1.2-.7,2.5-2.1,3.6-2,1.5,.1,2.9,1.4,4.3,2.2-1.4,1-2.8,2-4.7,3.4Zm30.7-5.4c1.1-5.5-3.4-4.7-6.2-6.2,5.3-1.1,10-.6,13.9,3.8-1.5,3.7-4.8,1.6-7.6,2.4Zm21.4,3.1c-4.1-.1-7.4-.2-11-.3,3.7-5.9,6.6-5.9,11,.3Zm16.6,6.6c-2.8-.2-5.5-.8-8.3-1-2.4-.2-4.9,.2-7.3,0-1.3-.1-2.5-1-3.7-1.5,1-.9,1.9-2.2,3.2-2.7,1.8-.7,3.8-.7,5.3-1,2.6,.6,4.6,1.1,6.6,1.4,1.7,.3,3.6,.2,5.1,.8,.8,.3,1.2,1.8,1.8,2.8-.9,.4-1.8,1.2-2.6,1.2Zm18,1c-2.5-.5-4.9-1.6-8.5-2.9,1.6-1,2.6-1.7,3.5-2.4,0-.3,0-.7-.1-1-2.7-.3-5.4-.6-8.1-.9,4.4-2.2,8.8-5.3,12.8,.4,.4,.6,2.2,.3,2.6,.9,.9,1.4,1.4,3.2,2.1,4.8-1.4,.4-3,1.4-4.3,1.1Zm22.6-7.5c-1.8,1.4-3.6,2.9-5.7,3.6-1.4,.5-3.3-.4-5-.6,0-.5,0-1.1,0-1.6,3.1-1.5,6.1-3,9.3-4.3,.7-.3,1.7,.3,2.6,.5-.4,.9-.6,2-1.2,2.5Zm21.8,17.5c-1.6,.5-3.5,.2-4.6,.2-1.5-3.2-2.6-5.6-3.7-8,2.8-1.2,9.9,2.1,10.3,4.9,.1,.9-1.1,2.6-2,2.8Zm10.4-1.2c2.5-1.2,4.9-2.4,7.6-3.7-.8-.8-1.7-1.3-1.7-1.8,0-1,.5-2.8,.7-2.8,3.2,.2,6.3,.6,9.7,1-.8,2.5-1.3,4.3-2,6.6-1.3-.1-2.8-.6-4.1-.4-1.2,.1-2.6,.6-3.3,1.5-2.2,2.9-3.3,3-6.9-.4Zm14.8,10.8c-.5,.5-1.5,1-2.1,.8-2-.6-3.8-1.6-6.4-2.6,2.6-1.9,7.2-1.7,8.2,0,.3,.5,.5,1.6,.2,1.9Zm5.6-1.8c-1.4,.2-2.8,0-4.5,.1,.7-3.7,2.3-4.5,5.1-3.5,1.8,.7,3.6,1.2,5.4,1.8-2,.5-4,1.2-6,1.5Zm19.9,13.5c-2.8-2-5.6-4-9.7-6.8,3.1-1.4,7-3.7,7.4-3.3,1.9,2.4,2.9,5.6,4.3,8.4-.7,.5-1.3,1.1-2,1.6Zm10-2.8c-2.3-1.7-4.5-3.5-6.7-5.4-.8-.6-1.9-1.6-1.8-2.2,.1-1,1-2.2,1.9-2.7,2.7-1.6,7.6,1.1,7.7,4.3,0,2.7,.8,4,3.8,3.9,1.2,0,2.4,1.2,3.6,1.9-1.1,.9-2.2,1.8-3.6,2.9-1.9-1-3.5-1.7-4.8-2.7Zm16.9,10.8c-3.9-1.2-6.8-2.1-9.7-3,0-.5,.2-.9,.3-1.4,3.1-.7,6.3-1.4,9.3,.7,.6,.4,.1,2.2,.2,3.7Zm9-4.2c-.8,1.5-2.2,2.7-3.5,4.3-1.8-3.2-3.6-5.7-4.8-8.5-.5-1.2,.2-2.9,.3-4.3,1.2,.5,2.7,.8,3.7,1.5,1.5,1.1,2.9,2.5,4,4.1,.5,.7,.7,2.2,.3,3Zm25.5,23.8c-6.1-1.4-6.6-2.7-3.7-9.3,4,1.6,4.8,3.4,3.7,9.3Zm29.3,21.6c-2.5,.2-4-1-3.4-3.6,.7-3,1.6-6,2.7-10,3.9,3.9,3.7,8.4,4.8,12.5-1.4,.4-2.8,1-4.2,1.1Z"/><g><path class="cls-4" d="M216.5,874.5c-.4-.2-.7-.5-1-.8-.9-1.2-1.2-2.9-2.1-4.1-.8-1.1-2-2.1-3.1-2.9-.2-.1-1.7,1.1-1.7,1.4,.4,1.5,.8,3.2,1.8,4.4,1.4,1.7,3.2,3,4.8,4.5-.1-.7-.3-1.4-.5-2,.6-.2,1.2-.4,1.8-.6Z"/><path class="cls-4" d="M684.6,944.8c-.5-.3-.9-.5-1.3-.8,0,.7,0,1.3,0,1.8,.4-.2,.9-.5,1.3-1Z"/><path class="cls-4" d="M952.5,607s0,.1,0,.2c-.2,1.1-.4,2.1-.6,3.2-3.2,15.6-7.2,30.9-11.9,45.8,2-1.5,3.6-3.1,4.2-6.1,.3-1.4,3.5-2.3,5.7-3.5,2.7,4.6,2.2,5.9-2.2,6.2-.3,2.4-.5,4.8-.7,6.4-2.9,.3-4.9,.6-6.8,.7-.4,0-.9-.1-1.3-.3-4.8,14.7-10.4,29.1-16.7,43.1,.2,0,.4,.1,.6,.3,.8,.5,.7,4.2-.2,5.2-1.1,1.1-2.3,1.5-3.4,1.2-8.6,18.4-18.5,36-29.4,52.9,.9,.4,1.8,1.5,2.1,2.5,.7,2.6-2.6,6.2-6.2,6.2-.2,0-.7-.3-1.3-.5-11.6,17.1-24.4,33.3-38.2,48.5,.2,.3,.5,.7,.7,1-1.5,1.1-3.1,2.2-4.6,3.2-26.4,28.4-56.3,53.3-89,74.1,.3,.2,.6,.4,.8,.5-.7,1-1.3,3-2,3-4.5,.1-7.4,3.1-10.7,5.3-.7,.4-1.8,.2-2.8,.2-53.4,31.2-113.6,51.6-177,58.3-.2,1.6-1.1,1.7-6.9,2.2,0-.6,0-1.1,0-1.6-10.2,.9-20.4,1.5-30.7,1.7-209.4,4.1-394.4-139.6-442.3-342.6,0,0,0-.1,0-.1l-29.4,.5c4.2,18.8,9.5,37.1,15.7,54.9,.6,1.3,1.3,2.7,1.9,4-.1,.1-.3,.2-.4,.3,10.1,27.8,22.8,54.3,37.6,79.3,.3-.3,.6-.6,1-.9-1.1-.7-1.9-1.3-2.4-1.6,1-3.5,1.9-6.8,2.9-10.5,4.1,3.2,2.4,7.4,2.9,10.9,.3,2,.8,4.1,1,6.1,.1,1-.2,2.1-.3,3.1-.2,0-.5-.1-.7-.1,.5,.8,1,1.6,1.5,2.4,1.3-.2,2.6-.3,3.9-.2,1.3,.1,2.7,1.1,3.5,2.1,.4,.5,0,2.6-.5,2.7-1.1,.3-2.5,.2-3.7-.2-.3,0-.5-.2-.7-.3,87,135.8,240.7,222.4,409.2,219.1,108.4-2.1,213.7-41.8,296.4-111.6,81.5-68.8,138-164,159.1-267.9,.7-3.2,1.3-6.4,1.9-9.7l-29.4,.5ZM81.2,701.1c1.1-1.8,1.9-3.1,2.8-4.4,.5,0,1,0,1.5,0,.5,1.7,1.1,3.3,1.9,6-2.7-.7-4.1-1-6.2-1.6Zm16.4,29.3c0-1.7,.2-3.4,.2-5.1h2.7c.2,1.6,.3,3.3,.5,5-1.1,0-2.2,0-3.4,.1Zm8.9-4.7c-3.9-3.8-9.6-4.3-13.5-7.9,0,0,0,.1,0,.2,0,0,0-.2,0-.2,0,0,0,0,0,0,.7-3.6,2.9-4.6,6.4-3.9,4.5,.9,9.4,1.1,9.3,7.6,0,.5,.8,.9,.9,1.4,.4,1.2,.6,2.4,1,3.7-1.4-.2-3.2,0-4-.8Zm668.6,171.5c1.2-1.6,3.1-2.7,4.8-3.8,.2-.1,1.3,1.2,1.6,1.5-2.4,2.5-4.1,4.2-6.4,6.6,0-1.6-.7-3.4,0-4.3Zm-3.7-3.1c.4,.4,.8,.8,1.1,1.3-2.2,2.3-4.4,4.7-6.8,6.9-.2,.2-1.6-.8-3.6-1.9,3.8-2.5,6.5-4.4,9.3-6.2Zm-12.9,5.9c.3-.4,2.4-.3,2.6,0,.6,1.5,1.6,4.2,1,4.7-2.2,1.8-4.9,2.9-7.4,4.3-.4-.5-.8-1.1-1.2-1.6,1.7-2.5,3.2-5.1,5.1-7.5Zm-192.2,76.2c-3.7,2.9-6.1,1.1-8.7-1.3,3.9-3.3,6.3-3,8.7,1.3Zm-32,.8c0-.8,.2-2,.3-3.2,.5,.1,1,.3,1.5,.4-.6,1.9-.8,4.1-2,5.6-.7,.9-2.8,.7-4.3,1-.2-.7-.3-1.4-.5-2,1.6-.5,3.2-1.1,5-1.7Zm-296.5-103.1c2.6,.9,4.4,4,6.6,6-.3,.4-.5,.7-.8,1.1-5.2-.5-10.5-.7-15.7-1.5-3.9-.6-7.1-5.2-6.8-9.1,5.6,1.1,11.3,1.7,16.7,3.5Zm-32.5-19.6c-.4,2.2-.2,4.3-1,4.8-1.3,.7-3.9,1-4.6,.3-1-1.1-.8-3.4-1.2-5.1,2,0,4,0,6.8,0Zm-38.1-42c1.9,1.1,4,2,5.5,3.6,1.1,1.1,1.2,3.1,1.8,4.7-1.8,.1-3.9,.9-5.2,.2-4-2.1-4.7-5.5-2.1-8.5Zm-48.3-58.8c-.5-1.2,.2-2.9,.4-4.4,.6,0,1.3-.1,1.9-.2,.8,2.1,1.6,4.3,2.4,6.4-.4,.3-.8,.7-1.2,1-1.2-.9-3-1.6-3.6-2.8Zm5.7,18.2c-1.1-1-2.2-2-4-3.6,1.5-1.3,2.8-2.8,3.1-2.6,1.2,.7,2.6,1.8,2.8,2.9,.2,1-1.2,2.2-1.9,3.3Zm21.3,23.1c.6,4.1,1.1,7.5,1.6,11.1-4.4-1.4-5.1-6.1-1.6-11.1Zm8.3,6.2c2.2,2.1,4.3,4.2,6.5,6.3,0,.4,0,.8-.1,1.1-1.5,0-3.8,.4-4.5-.4-1.5-1.7-2.2-4.1-3.2-6.3,.4-.2,.9-.5,1.3-.7Zm1.9,11.9c.6-.1,1.2-.2,1.7-.3,1.4,1.9,2.8,3.7,4.2,5.6,0,.4-.1,.8-.2,1.2-1.5-.4-3.5-.4-4.3-1.4-1-1.3-1-3.3-1.4-5Zm10.2,16.8c-.3,0-.4,0-.7,0-2.2,.2-4.6-3.3-6.9-5.2,.2-.4,.3-.7,.5-1.1,1.2,.4,2.9,.4,3.7,1.3,2.3,2.3,4.2,3.3,6.6,.2,.5-.6,1.8-.6,2.2-.8,1.5,2,2.9,3.7,3.9,5.6,.1,.2,.2,.4,.3,.7,.9,.5,1.9,1,2.5,1.8,.6,.8,.4,2.1,.6,3.7-4.7-2.1-8.4-3.7-12-5.5-.2-.1-.4-.4-.6-.6Zm6.4,9.2c2.2-.8,4.3-2,4.9-1.5,1.4,1,2,3,2.2,5-1.9-.9-3.8-1.8-7.1-3.5Zm14.6,10.1c0-4.6-7.1-5.9-5.5-11.5,4.9,3,10.1,5.3,8.3,12.7-.7-.3-2.8-.7-2.8-1.2Zm4.9,10.3c-2.5-1.2-2.1-5.3,1-10.3,1.2,1.1,2.4,1.9,2.9,2.9,.3,.7-.5,2.8-.6,2.8-4.1-.7-2.9,2.6-3.3,4.6Zm4.5,4.8c-2.2-1.6-3.7-3.5-1-6.8,1.5,1.4,2.9,2.4,3.8,3.8,.5,.8,.2,2.2,.2,3.3-1,0-2.3,.3-3-.2Zm17.9,20.8s0,0,0,0c0,0-.2,0-.2,0,0,0,0,0,.1,0-.6-.9-1.3-1.8-1.7-2.8-1.2-3.3-3.5-4.6-6.9-4.1-.2-3-.2-5.8-.7-8.5-.7-4.4-4.9-.2-7.2-2.8,2.8-2.3,5.3-4.4,7.6-6.2,6.2,3.2,10.3,7.8,13.4,13.3,2.3,0,3.6,1.1,3.1,3.6-.7,3-1.6,6-2.7,10-1.5-1.5-2.4-3-3-4.6-.5,.7-1.1,1.4-2,2.1Zm20,4c-4.2-2-10-1.6-12.4-8.6,4.6,1.2,8.5,1.6,11.8,3.2,2.9,1.4,2.5,2.1,.5,5.4Zm14.3-2.4c-2.5,2.4-3.8,1.9-8.5-4.2,2.9,1.4,5.7,2.8,8.5,4.2Zm3.8,17.7c-.2,0-.4-.1-.6-.2-.1,.2-.2,.4-.3,.7-2.3-.9-3.5-1.9-3.9-3.6-1.2-1.1-2.4-2.2-3.7-3.1-4.1-2.8-1.3-6.3-1.9-10.8,2.3,3.1,4.2,5.7,6,8.2,1.2,.3,2.2,.6,3,.9-.7-1.3-1.4-2.6-2.1-3.9-.4-.8-.8-1.6-.9-2.5,0-.2,1.1-1,1.6-.9,.8,.2,1.9,.7,2.3,1.4,.6,1.1,.3,2.8,1,3.6,.9,1,2,2,3.1,2.9-.9-1-1.3-2.7-1.4-5.1,5.6,0,9,2.2,9.5,5.9-3.4,.7-5.6,.8-7.1,0,.5,.4,1,.8,1.5,1.2,1.2,.9,2.8,1.4,4.2,2.1,0,.6,0,1.2,0,1.9-3.4,.5-7.1,2.1-10.2,1.3Zm29,23.5c-1.2-.5-2.7-.8-3.7-1.5-1.5-1.1-2.9-2.5-4-4.1-.5-.7-.7-2.2-.3-3,.8-1.5,2.2-2.7,3.5-4.3,1.8,3.2,3.6,5.7,4.8,8.5,.5,1.2-.2,2.9-.3,4.3Zm1.2-9.2c-.5-.4-.2-1.8-.2-3.2-.5-.3-.8-.6-.9-1-.2-5.6-5.2-4.9-8.1-6.9-.7-.5-2.3,0-3.3,.4-3,1.4-5.2,.8-7.4-2.4,3.2-.8,6.6-2.7,9.6-2.2,2.8,.5,5.2,3.5,7.8,5.4,2.2,1.5,4.5,2.8,7.5,4.7,0,.3-.2,1.3-.5,2.9,1.8,.5,3.4,1,5,1.5,0,.5-.2,.9-.3,1.4-3.1,.7-6.3,1.4-9.3-.7Zm29,14.4c-.7-.9-1.3-1.9-1.8-2.9-.4,.9-1,2-1.8,3.6,0,0-.1,0-.2-.1-.2,.9-1,2-1.8,2.5-2.7,1.6-7.6-1.1-7.7-4.3,0,0,0-.1,0-.2-.8-.2-1.5-.3-2-.5,.2-1,.5-1.9,.7-2.7-.6-.4-1.4-.5-2.5-.5-1.2,0-2.4-1.2-3.6-1.9,1.1-.9,2.2-1.8,3.6-2.9,1.3,.7,2.4,1.2,3.4,1.8,1.4,0,3.4,0,5.4-.1,0,0,0,0,0,0-1.8-1.1-6.6,.3-4-4.7,0,0-.1,0-.2,0,0,0,.2,0,.2,0,0,0,0,0,0,0,1.4,0,2.7,0,4.1,.2,1,0,1.9,.4,2.8,.6-.6,.9-1.2,1.8-1.8,2.6-.3,.4-.7,.8-1.1,1.2,0,0,0,0,.1,0h0s0,0,0,0c1.4,0,2.9,.1,4.2,.2,0-.1,0-.2-.1-.3,.4-.3,.7-.6,1.1-.9,.4-.7,.8-1.5,1.2-2.3,.8,1.2,1.6,2.4,2.1,3.3,2.2,1,4.4,2,6.7,3-.2,.4-.4,.9-.6,1.4,.4,.3,.7,.5,1.1,.8-3.1,1.4-7,3.7-7.4,3.3Zm2.6,13.4c.1-1.2-1-2.5-1.7-4.1,4.7-1.2,5.7-.4,5.8,3.9,0,1.5,.5,3.1,.8,5.1-3.2-.7-5.3-1.3-5-4.9Zm3.6-13.9c0-.4,0-.8,.1-1.1,1.9,.3,3.7,.5,6.1,.9-.6,2.1-1.1,3.7-1.8,6-1.9-2.5-3.2-4.1-4.5-5.7Zm10.9,7.3c-1.8-.7-3.6-1.2-5.4-1.8,2-.5,4-1.2,6-1.5,1.4-.2,2.8,0,4.5-.1-.7,3.7-2.3,4.5-5.1,3.5Zm15,11.2c0,1-.5,2.8-.7,2.8-3.2-.2-6.3-.6-9.7-1,.8-2.5,1.3-4.3,2-6.6,1.3,.1,2.8,.6,4.1,.4,1.2-.1,2.6-.6,3.3-1.5,2.2-2.9,3.3-3,6.9,.4-2.5,1.2-4.9,2.4-7.6,3.7,.8,.8,1.7,1.3,1.7,1.8Zm11.6,16.1c-3.4-.2-4.6-2.5-5.1-4.8-.2-.8,1.9-2.1,3-3.2,.8,.9,2,1.7,2.3,2.7,.3,1.5,0,3.2-.1,5.3Zm4.4-14.2c1.7,.1,3.3,.5,4.9,.3,1.5-.2,3-.8,5-.5-3.8,4.3-1.1,6.5,1.7,9-6.5,.8-10.6-2.4-11.6-8.8Zm28.4,13.5c-1.1,1.2-2.3,2.4-4.5,4.7-.4-2.1-.7-3.2-.8-4.3,0-.6,0-1.3-.1-1.9-.6,0-1.4-.4-2.1-.5,.4-.9,.6-2,1.2-2.5,1.8-1.4,3.6-2.9,5.7-3.6,1.4-.5,3.3,.4,5,.6,0,.5,0,1.1,0,1.6-1.4,.6-2.7,1.3-4.1,1.9,2,.3,3.9,1,5.5,3,.8,1,2.5,1.5,3.8,1.9,1.6,.4,3.2,.3,5.5,.5-4.6,3.5-9,2.9-15.2-1.3Zm55.4,16.5c-2.3,2.4-4.1,2.6-6.4,.2-1.1-1.1-3-1.5-4.3-2.4-.8-.6-1.7-1.8-1.6-2.4,.2-.7,1.6-1.7,2.4-1.6,1.5,0,2.9,.8,4.3,1.2,1,.3,2.1,.7,3.1,.9,1.3,.2,2.6,0,3.9,0-.5,1.4-1,2.7-1.5,4.1Zm-4.4-20.9c4.1,.1,7.4,.2,11,.3-3.7,5.9-6.6,5.9-11-.3Zm26.1,19.3c-2.6,.1-5.3,.3-7.9,.4-.2-.4-.4-.9-.6-1.3,1.9-1,3.6-2.4,5.6-2.9,.9-.2,2.3,1.4,3.4,2.2-.2,.5-.4,1-.6,1.5Zm-12.3-13.7c1.5-3.7,4.8-1.6,7.6-2.4-1.1,5.5,3.4,4.7,6.2,6.2-5.3,1.1-10,.6-13.9-3.8Zm66.4,21.7c-.9,0-1.8-1.9-2.7-3,.2-.4,.5-.7,.7-1.1,1.8,.3,3.7,.6,5.5,.9,.1,.3,.2,.7,.4,1-1.3,.8-2.6,2.3-3.8,2.2Zm42-.9s-.2,0-.2,0c0,0,0,0,0,0-3.5-1.9-6.9-2.9-10.9-1.2-1.6,.7-4-.8-5.9-.6-2,.2-4.8,.8-5.7,2.2-1.6,2.6-3,1.7-4.8,.9-2.2-1-4.5-1.8-7.4-2.9-.8-5.3-10.3-4.5-16.8,.2-3.1-1.5-6.1-3-9.1-4.4,2.2-2.3,4.6-1.9,9,1.4,2.2-1,4.3-1.9,7.3-3.2-1.3-1.6-2.6-3.2-4.2-5.2,.9-.2,2-.7,2.8-.4,2.8,1,4.8,.3,6.8-1.9,.8-.8,2.7-.6,4.1-.7,.2,0,.5,.8,.8,1.2-1.2,.4-2.4,.8-3.7,1.2-.5,.1-1.1,0-1.7,.1-2.3,5.4-.3,8.1,5.4,8,2.1,0,4.2,.9,6.3,1.4,.9,.2,2,.7,2.8,.5,2.1-.5,4.4-1,6.2-2.2,1.2-.8,1.7-2.7,2.6-4.3,4.7-.5,9.4,0,13.7,3.4,.6,.5,2.2-.2,3.3-.5,1.2-.4,2.4-1,4.5-1.9-2.1,3.6-3.7,6.3-5.2,8.9,0,0,0,0,.1,0Zm13.5-8.2c-.2-.3-.4-.7-.6-1-.9,.3-1.9,.5-3.1,.6,1-1.1,1.8-1.7,2.2-2.6,.1-.2,.2-.5,.4-.7-1.1-.4-2.4-2.1-4.6-5.1,1.7,0,3.4,0,4.9-.1-.7-3.2,.5-3.7,5.1-2.9-.2,3-.7,5.3-1.3,7,1.2-1.1,2.4-2.2,3.8-3.5,.9,2.6,1.3,3.8,1.8,5.3-3,1-5.8,2-8.5,3Zm15.4-.7c.4-2.7,6.1-5.9,10.7-5.8-1.8,5.5-4.3,6.8-10.7,5.8Zm26.6-5.1c-5.2,4.7-8.7,4.5-11.8-1.5,3.9-.9,7.2-1.8,10.6-2.3,.7-.1,1.9,.8,2.4,1.6,.2,.4-.6,1.6-1.2,2.2Zm12.7,.3c2.3-2.5,5.5-3.5,9-2.8,0,0,.2,0,.3,0-3.1,1-6.2,1.9-9.3,2.8Zm19.7-18.8c-.7-4,2.4-5.9,4.6-6.9,1.2-.6,3.9,1.9,5.9,3-.2,.5-.3,1.1-.5,1.6-3.3,.8-6.5,1.5-10,2.3Zm21.2-1.3c0,.3,0,.6-.3,.7-.7,.6-1.5,1.6-2.2,1.6-2.8,0-5.5-.4-8.3-.7,.6-1,1.4-3,1.9-2.9,3.7,.3,5.4-1.2,5.1-4.9,1.8,0,3.4,0,4.5,0-.3,2.2-.6,4.2-.9,6.2Zm3.9-5.9c.1-.2,.2-.4,.4-.6-.4,0-.7,.1-1.1,.2-.1-.6-.3-1.2-.4-1.9,1-.3,2.1-.6,3.1-.9,.6-.9,1.2-1.9,1.8-2.9,.5,.7,.9,1.4,1.3,2,1-.3,1.9-.6,3-.9-1-.6-1.9-1.2-2.9-1.8,.4-2.4,1.9-2.8,3.5-2.9,0-.4,0-.8,.1-1.1,.3-.7,2.1-.8,3.2-1.2,.6-.2,1.3-.5,1.9-.5,.9,0,1.7,.5,2.5,.7-.5,.8-.9,1.9-1.6,2.4-.5,.3-.9,.5-1.5,.8-1.4,1.5-1.9,2.8,5,3-3.4,3.1-5.4,5.5-7.9,7.1-1.1,.7-3.2,.3-4.8,0-1.7-.3-3.3-.9-5.6-1.6Zm20,6.1c-.8,.4-2.2,1.1-2.7,.8-3.2-2-6.3-3.4-10.2-.4,0-.5-.1-1-.2-1.5,3.6-2.3,7.2-4.6,11.3-7.2-.6,1.8-1.2,3.4-1.9,5.4,3-.2,5.1-.4,7.3-.5,0,.4,.1,.7,.2,1.1-1.3,.8-2.5,1.7-3.8,2.4Zm3.7-9.4c-1.6,.2-2.9,.3-4.9,.5,1.3-3.6-2.2-7.5,2.2-9.8,1.5-.8,4-.8,3.8,2.4-5.5,1-5.6,1.4-1.1,6.8Zm9.9-13.3c.3,.3,.6,.6,.8,1-2.1,1.1-4.2,2.3-6.5,3.2-.3,.1-1.3-1.7-2.2-2.8,3.2-.5,5.5-.9,7.8-1.3Zm-6.2,12.2c-.4-1.1-1.5-2.7-1.2-3.1,1.1-1.3,2.7-2.1,4.1-3.1,.5,.8,1,1.5,1.5,2.3-1.5,1.3-3,2.6-4.5,3.8Zm14.6-7.5c-2.9,.1-5.8,.7-9.4,1.1,2.3-4.3,4.4-8,9.5-8.8,0,0,0,0-.1,0,0,0,.2,0,.2,0,0,0,0,0,0,0,3.8,.5,5.9-1.4,7.4-4.8,2.4-5.3,4.2-6.5,10.2-7.4,0,1.5,0,2.9,0,3.6-3.7,2.8-6.8,5.1-10,7.5,1.3,6.9-.2,8.5-7.7,8.8Zm24-17.6c-.5,.7-2.1,.6-3.2,.8-.2-.4-.4-.8-.5-1.2,1.4-1.6,2.7-3.1,4.1-4.7,.4,.2,.9,.4,1.3,.6-.5,1.5-.7,3.2-1.6,4.5Zm4.8-5.8c.2-3.1,.3-6,.6-8.9,0-.5,1.2-1.1,2-1.2,.5,0,1.2,.5,1.5,1,1.3,2.2-1.2,7.9-4.1,9.1Zm7.3,.8c1.5-1.4,3-3,4.6-4.2,.3-.2,1.5,.7,2.3,1.1-.5,.6-.8,1.3-1.4,1.7-1.5,.9-3.1,1.6-4.7,2.4-.3-.3-.6-.6-.8-.9Zm1.3,6.5c.3-4.3,2.3-6,6.4-5.9,.3,3.1-.8,4.2-6.4,5.9Zm7.1-7.7c.5-1.8,.7-3.7,1-5.8,1.8,.7,3.5,1.5,5.1,2.2-2.2,1.5-4.4,3.1-6.7,4.6,.3-.3,.5-.6,.6-.9Zm11.2-3.3c-1.3-.6-3.5,.7-5.3,1.1,.2-2.8,1.6-3.5,11.4-4.6-1.3,2.2-1.7,5.7-6.2,3.5Zm8.1,1.9c-.4-.3-.8-.6-1.1-.9,0-.5,0-1.3,.2-1.6,1.3-1.4,2.7-2.8,4-4.2,.4,.5,1.1,1.3,1,1.5-1.3,1.8-2.7,3.5-4.1,5.2Zm7.3-18.9c-1.5,.4-3.1,.3-4.6,.4,0-1,.1-1.9,.2-3.5,1.9,0,3.4,.2,4.9,.2-.2,1,0,2.8-.5,2.9Zm27.9-27.4c-.2-.2-.4-.4-.6-.6,2.3-2.4,4.6-4.8,6.9-7.2,0,0,0,0,0,0,0,0,.2,0,.2,0,0,0,0,0,0,0,.7,.8,1.5,1.6,2.4,2.5-3.1,1.9-5.8,3.6-8.6,5.3Zm32.9-10.3c-1.9,.6-4,1-5.7,1.9-1.8,.9-3.4,2.4-5.3,3.3,1.3-4.1,1.8-8.3,7.4-9.3,2-.3,3.6-2.7,6-4.6-1,3.3-1.8,6-2.5,8.7,0,0,.2,0,.2,0Zm3.2-21.1c-1.3,4.8-6.2,7.6-12.6,6.8,3.3-3.4,6.1-6.5,9.1-9.4,.7-.6,2-.6,3-.8,.2,1.1,.8,2.4,.5,3.4Zm33.3-47.8c.3,0,.6,.2,.8,.3,1.2-1.4,2.3-2.9,3.7-4.1,.6-.5,2.2-.7,2.7-.3,.6,.5,1,2.2,.6,2.7-1.5,1.8-3.2,3.5-5.1,5-.6,.5-1.9,0-2.9-.1,0-1.1,.2-2.3,.3-3.4Zm-6.7,14.1c3,3.2,0,4.7-1.5,6-1.1,.9-3,.6-4.6,.8,0-.4-.1-.8-.2-1.2,2-1.8,4-3.6,6.3-5.6Zm-14.1,14.2c-1.3,1.6-2.1,3.6-3.3,5.8-4.7-6.4-4.4-7.5,2.2-11.5,2.6,1.4,3.3,3,1.1,5.7Zm1.9,5.6c2.2-5.6,4.8-7.2,8.9-5.1-3.3,1.7-3.9,6.9-8.9,5.1Zm11.3-1.6s-.2,0-.2,0c0,0,0,0,.1-.1-.6-1.8-1.2-3.6-2.3-6.5-1.7,.2-4.4,.6-7.2,1,.2-2.4,2.6-3.8,5-3.5,3.2,.4,6.3,2.1,9.9,3.4-2,2.1-3.7,3.9-5.4,5.7,0,0,0,0,0,.1Zm17.3-22.2c-1,.7-2.7,.7-3.4,1.5-1.8,2.2-6.2,3.6-3.1,7.9,.2,.3-.8,2.2-1.3,2.2-.9,0-2.2-.5-2.7-1.2-1.9-2.5-2.1-5.3-.1-7.8,1.9-2.4,3.6-5.8,7.7-2.9,.3-.9,.4-1.8,.9-2.2,.6-.5,1.4-.9,2.2-1,.3,0,1.1,1,1.1,1.4-.1,.7-.6,1.6-1.2,2Zm3.5-17.7c1.7-3.1,3.1-6.4,5.1-9.3,.5-.7,2.8-.2,5.1-.4-3,4.9-4.8,9.1-10.2,9.7Z"/></g></g></g><g><path class="cls-4" d="M505.1,341.8c-.1-1.8-.3-3.6-.3-5.4,0-.3,1.1-1,1.3-.9,.9,.5,2.3,1.4,2.2,1.9-.4,1.7-1.3,3.2-2,4.8-.4-.1-.8-.2-1.2-.3Z"/><path class="cls-4" d="M458.2,316.8c-1.3,1.6-2.5,3.1-3.9,4.8-1.8-1.7-1-3.7-.3-5,.4-.7,2.6-.5,3.9-.8,.1,.3,.2,.6,.4,1Z"/><path class="cls-4" d="M584,302.8c.2,1.5,1.3,3.4-1.6,3.9-.8,.2-1.4,1.6-2.1,2.5-1-1.4-.5-2.3,3.8-6.4Z"/><path class="cls-4" d="M654.8,712c1-.5,1.9-1.1,2.9-1.6,.2,.1,.4,.2,.6,.4-.3,.9-.4,2-1,2.5-.4,.3-1.6-.3-2.4-.4v-.8Z"/><path class="cls-4" d="M573.1,665.7c-2.7,1.7-5.3,3.6-8,5.1-2.1,1.1-5.3,.1-6.6-1.8,3.1-1.5,6-3.4,9.2-4.5,1.5-.5,3.6,.3,5.4,.5,0,.3,0,.5,0,.8Z"/><path class="cls-4" d="M439,653.5c-1.1-2-.4-3.3,1.6-4.3,2.5-1.2,4.9-2.9,7.2,.2,.2,.2,.7,.1,1,.3,.6,.4,1.2,.9,1.8,1.4-.7,.4-1.5,1.2-2.2,1.1-3.3-.4-6.2,1.5-9.4,1.2,0,0,0,0,0,0Z"/><path class="cls-4" d="M588.7,321.8c1.2-1.6,2.2-3.7,3.8-4.6,1.5-.8,3.8-.2,5.7-.3,1.6,0,3.2-.3,5.3-.5,0,.2,.5,1,1.2,2.2-1.5,.2-3.3,.9-3.7,.5-2.1-2.6-4.3-.4-6.4-.3-.5,0-1.1,.8-1.4,1.4-.9,1.8-2.2,2.3-4.4,1.6Z"/><path class="cls-4" d="M705,693.2c1.4,.4,2.7,.7,3.9,1.2,.7,.3,1.3,1,1.9,1.5-.7,.3-1.4,1-2,1-1.7,0-3-.2-4.6,1.2-1,.9-3.4,0-5.2,0,0-.2-.1-.4-.2-.7,.7-.3,1.5-.8,2.2-.7,1.9,.3,3.2,0,3.2-2.3,0-.5,.6-1,.8-1.2Z"/><path class="cls-4" d="M915.5,597.2c1.3-.1,2.7-.5,4-.3,.9,.1,1.7,1,2.6,1.6-.8,.7-1.5,1.8-2.4,2-2.7,.5-4.3-.9-4.1-3.3Z"/><path class="cls-4" d="M713.9,611.6c3.5-.4,6.8-1.2,8.6,3-.4,.1-1.6,.7-1.8,.5-1.7-2.2-5.6-.2-6.9-3.5Z"/><path class="cls-4" d="M363.3,357.7c1,.1,1.8,0,2.5,.3,.4,.2,.8,1.5,.8,1.6-2.2,1.2-.4,2.3,.1,3.4-1.6,.3-3-1.7-3.3-5.3Z"/><path class="cls-4" d="M478.6,368.1c1.2,.1,2.3,0,3.2,.4,.5,.2,.9,1,1.3,1.5-.5,.4-1,1-1.5,1-1.6,0-3.1-.3-3-2.9Z"/><path class="cls-4" d="M444.2,715.8c-1.3,0-3.1,2.7-3.7-.7,0,0,0,0,0,0,.7-.5,1.4-1,2.1-1.5,.5-.3,1.1-.5,1.6-.7,0,.6,0,1.3,.1,1.9,0,.3,0,.7,0,1,0,0,0,0,0,0Z"/><path class="cls-4" d="M519.1,710.7c1.9-.4,3.8-.8,5.6-1.1-.3,2-1.1,2.3-5.6,1.1Z"/><path class="cls-4" d="M398.8,734.4c-2.1,1.2-2.3,2.9-1.8,5,.8,3.4,.4,4.7-2.1,7.3-.6-.7-1.1-1.3-1.4-1.7,.7-2.7,1.4-4.9,2-7.2-3.2-2.8-3.1-4.1,.4-7,1.3-1.1,2.5-2.5,4-4,.5,2.9,.9,5.5-1.3,7.7,0,0,0,0,0,0Z"/><path class="cls-4" d="M613.2,827.9c.5-2.7,.6-4.6,1.2-6.3,.3-.8,1.4-1.3,2.2-1.8,.9-.5,1.9-.8,3.2-1.3,.1,1.1,.3,2.6,.5,4.3-1.8-.5-3.4-1.9-4,1.2,1.3-.1,2.4-.3,3.6-.4,1.7,3.3-4.1,3-2.6,6.1-2.1-.1,1.9-6.2-4.1-1.8Z"/><path class="cls-4" d="M581.2,732.8c-.3,2.9-.5,5.4-.9,7.8,0,.5-.7,1-1.1,1.5-.5-.5-1.2-.8-1.5-1.4-1.2-2.8,.2-5.9,3.5-7.9Z"/><path class="cls-4" d="M568.1,640.1c.1,1.8,.3,3.6,.3,5.4,0,.3-1.1,1-1.3,.9-.9-.5-2.3-1.4-2.2-1.9,.4-1.7,1.3-3.2,2-4.8,.4,.1,.8,.2,1.2,.3Z"/><path class="cls-4" d="M614.9,665.1c1.3-1.6,2.5-3.1,3.9-4.8,1.8,1.7,1,3.7,.3,5-.4,.7-2.6,.5-3.9,.8-.1-.3-.2-.6-.4-1Z"/><path class="cls-4" d="M489.2,679.1c-.2-1.5-1.3-3.4,1.6-3.9,.8-.2,1.4-1.6,2.1-2.5,1,1.4,.5,2.3-3.8,6.4Z"/><path class="cls-4" d="M581.7,766.8c2.3-2.5,2.2-2.7-2-3.7,.7-.7,1.3-1.2,2.1-2,.7,2.2,3.8,2.8,2.6,5.5-.4,.9-1.6,1.8-2.7,.2Z"/><path class="cls-4" d="M500,316.2c2.7-1.7,5.3-3.6,8-5.1,2.1-1.1,5.3-.1,6.6,1.8-3.1,1.5-6,3.4-9.2,4.5-1.5,.5-3.6-.3-5.4-.5,0-.3,0-.5,0-.8Z"/><path class="cls-4" d="M634.1,328.4c1.1,2,.4,3.3-1.6,4.3-2.5,1.2-4.9,2.9-7.2-.2-.2-.2-.7-.1-1-.3-.6-.4-1.2-.9-1.8-1.4,.7-.4,1.5-1.2,2.2-1.1,3.3,.4,6.2-1.5,9.4-1.2,0,0,0,0,0,0Z"/><path class="cls-4" d="M484.4,660.1c-1.2,1.6-2.2,3.7-3.8,4.6-1.5,.8-3.8,.2-5.7,.3-1.6,0-3.2,.3-5.3,.5,0-.2-.5-1-1.2-2.2,1.5-.2,3.3-.9,3.7-.5,2.1,2.6,4.3,.4,6.4,.3,.5,0,1.1-.8,1.4-1.4,.9-1.8,2.2-2.3,4.4-1.6Z"/><path class="cls-4" d="M348.4,657.6c2.8-2.7,6-2.7,8.8,0-.9,.6-1.8,1-2.4,1.6-.7,.6-1.1,1.5-2.2,2.1,.2-3.5-1.9-3.5-4.1-3.7Z"/><path class="cls-4" d="M632.6,713.6c2.7-.6,5.3-2.9,9.1-.4-2.6,1.1-4.7,2.4-6.8,2.8-1.9,.4-2,0-2.2-2.4Z"/><path class="cls-4" d="M359.2,370.3c-3.5,.4-6.8,1.2-8.6-3,.4-.1,1.6-.7,1.8-.5,1.7,2.2,5.6,.2,6.9,3.5Z"/><path class="cls-4" d="M295.6,706.7c-2.6,2.1-5.1,2.3-6.7,.7,2.9-3.4,4.2-3.6,6.7-.7Z"/><path class="cls-4" d="M884.2,632.1c-.6-1.2-1.5-2.1-1.3-2.7,.3-.8,1.5-2,2.1-1.8,.9,.2,1.6,1.3,2.5,2-1,.7-1.9,1.5-3.3,2.5Z"/><path class="cls-4" d="M709.9,624.2c-1-.1-1.8,0-2.5-.3-.4-.2-.8-1.5-.8-1.6,2.2-1.2,.4-2.3-.1-3.4,1.6-.3,3,1.7,3.3,5.3Z"/><path class="cls-4" d="M440.1,743.1c.8-.5,1.7-1.6,2.3-1.5,1.3,.3,2.6,1.2,3.8,1.8-.1,.3-.2,.5-.4,.8-1.8-.2-3.6-.4-5.4-.6-.1-.2-.2-.4-.4-.6Z"/></g></g><circle class="cls-1" cx="516.5" cy="521.5" r="245.4"/><circle class="cls-3" cx="516.5" cy="521.5" r="228.6"/><g><path class="cls-4" d="M451.8,737l112-279.6c-2.8-1-5.6-2.1-8.3-3.1-4.6,11.5-10.4,19.3-13.6,18.2s-3-11.3,.6-23.6c.2-.6,.4-1.2,.5-1.8,.3-.8,.5-1.7,.8-2.5v-.2c.2-.5,.4-1.1,.6-1.6,4.8-13.4,11.4-23.1,15-21.9,3.7,1.3,2.9,13.4-1.7,27.4,0,0,.1,0,.2,0,2.6,1,5.4,2.1,8.3,3.1h0s10.2-25.6,10.2-25.6c2.7-6.6-3-14.9-12.5-18.1-9.3-3.2-18.6-.3-20.8,6.2,0,.2-.1,.3-.1,.5l-6.9,24.4-.5,1.9-.7,2.6-.5,1.8h0s-82.4,291.7-82.4,291.7"/><path class="cls-2" d="M707,627.3c-.2-.7-.9-1.2-1.6-1-.7,.2-1.2,.9-1,1.6,5.7,22.2-5.5,47.7-26.7,60.6-19.4,11.8-46.4,13.4-70.3,4-32.9-12.8-57-44.5-60-78.7-1.8-20.2,3.3-42.6,15.4-68.5,4.6-9.9,9.9-19.7,15-29.1,6.1-11.2,12.4-22.8,17.6-34.7,2.3-5.1,4.2-10.1,5.9-15,49.7,12.8,100.7,19.6,151.9,20.4,.7,0,1.3-.6,1.3-1.3,0-.7-.6-1.3-1.4-1.3-51-.7-101.6-7.5-151-20.2,6.3-19.2,8.2-36.7,5.6-52.9-1.9-12.3-6.8-24.1-14.2-34-7.8-10.6-17.9-18.3-29.2-22.3-.2,0-.4-.1-.6-.2-12.5-4.2-27.1-3.3-39.4,2.7-10.9,5.3-18.6,13.8-21.7,24-2.6,8.7-2,18.4,1.7,28.1,3.4,8.8,9.4,17.3,16.9,23.9,4.4,3.9,9.2,7.2,14.1,10.1l.8-2.6c-4.6-2.7-9.1-5.8-13.1-9.4-12.9-11.3-23.4-31-17.9-49.3,2.9-9.5,10.1-17.5,20.3-22.5,11.6-5.6,25.5-6.6,37.3-2.6,.2,0,.4,.1,.6,.2,21.3,7.6,37.6,28.8,41.6,54.2,2.5,15.8,.6,32.9-5.6,51.8-8.4-2.2-16.8-4.6-25.1-7.1-4.8-1.5-9.9-3.1-14.9-4.9-.6-.2-1.2-.4-1.8-.7-1.8-.7-3.7-1.4-5.5-2.1-.6-.2-1.2-.5-1.8-.7-1.7-.7-3.4-1.5-5.1-2.3-.3,.9-.6,1.7-.8,2.5,1.7,.8,3.4,1.6,5.1,2.3,.6,.3,1.2,.5,1.8,.7,1.8,.7,3.6,1.5,5.5,2.1,.6,.2,1.2,.5,1.8,.7,5.1,1.8,10.2,3.5,15.1,4.9,8.3,2.5,16.6,4.9,25,7.1-1.7,4.8-3.6,9.6-5.8,14.6-5.2,11.8-11.5,23.3-17.5,34.5-5.1,9.5-10.5,19.3-15.1,29.2-12.3,26.3-17.5,49.1-15.6,69.8,1.5,17.2,8.2,34,19.4,48.7,11.2,14.7,25.8,25.8,42.4,32.3,1.2,.5,2.5,.9,3.8,1.4,10.8,3.7,22.3,5.3,33.5,4.8,13.1-.6,25.3-4.2,35.5-10.4,22.1-13.5,33.8-40.1,27.9-63.4Z"/></g><text class="cls-5" transform="translate(454.6 820.1) rotate(-162)"><tspan x="0" y="0">T</tspan></text><text class="cls-5" transform="translate(385.6 799.1) rotate(-147.4)"><tspan x="0" y="0">H</tspan></text><text class="cls-5" transform="translate(315.7 753.9) rotate(-133.3)"><tspan x="0" y="0">E</tspan></text><text class="cls-5" transform="translate(269.4 702.6) rotate(-124.5)"><tspan x="0" y="0"> </tspan></text><text class="cls-5" transform="translate(253.3 683.2) rotate(-115.2)"><tspan x="0" y="0">C</tspan></text><text class="cls-5" transform="translate(222.8 618) rotate(-102.6)"><tspan x="0" y="0">L</tspan></text><text class="cls-5" transform="translate(208.1 563.7) rotate(-89.8)"><tspan x="0" y="0">O</tspan></text><text class="cls-5" transform="translate(208.5 478.8) rotate(-75.3)"><tspan x="0" y="0">T</tspan></text><text class="cls-5" transform="translate(225.6 408.7) rotate(-60.6)"><tspan x="0" y="0">H</tspan></text><text class="cls-5" transform="translate(269 336.5) rotate(-50.4)"><tspan x="0" y="0"> </tspan></text><text class="cls-5" transform="translate(281 314.6) rotate(-38.3)"><tspan x="0" y="0">M</tspan></text><text class="cls-5" transform="translate(364.1 251.5) rotate(-22.2)"><tspan x="0" y="0">E</tspan></text><text class="cls-5" transform="translate(426.6 225) rotate(-8.6)"><tspan x="0" y="0">R</tspan></text><text class="cls-5" transform="translate(500 213.4) rotate(4.8)"><tspan x="0" y="0">C</tspan></text><text class="cls-5" transform="translate(571.5 218.1) rotate(19.4)"><tspan x="0" y="0">H</tspan></text><text class="cls-5" transform="translate(649.9 245.4) rotate(34.6)"><tspan x="0" y="0">A</tspan></text><text class="cls-5" transform="translate(715.4 289.2) rotate(49.9)"><tspan x="0" y="0">N</tspan></text><text class="cls-5" transform="translate(770.2 354.7) rotate(64.6)"><tspan x="0" y="0">T</tspan></text><text class="cls-5" transform="translate(800.1 421.7) rotate(73.9)"><tspan x="0" y="0"> </tspan></text><text class="cls-5" transform="translate(810.1 444.7) rotate(84.5)"><tspan x="0" y="0">O</tspan></text><text class="cls-5" transform="translate(817.6 530.6) rotate(98.6)"><tspan x="0" y="0">F</tspan></text><text class="cls-5" transform="translate(806.4 596) rotate(107.2)"><tspan x="0" y="0"> </tspan></text><text class="cls-5" transform="translate(799 621) rotate(113.2)"><tspan x="0" y="0">I</tspan></text><text class="cls-5" transform="translate(787.9 654.6) rotate(124.6)"><tspan x="0" y="0">N</tspan></text><text class="cls-5" transform="translate(739.7 725) rotate(140.1)"><tspan x="0" y="0">D</tspan></text><text class="cls-5" transform="translate(675.4 776.2) rotate(151.1)"><tspan x="0" y="0">I</tspan></text><text class="cls-5" transform="translate(645.6 795.5) rotate(162)"><tspan x="0" y="0">A</tspan></text><g><path class="cls-4" d="M512,857.6c-9.6,0-17.3,7.7-17.3,17.3s7.7,17.3,17.3,17.3,17.3-7.7,17.3-17.3-7.7-17.3-17.3-17.3Zm0,31.4c-7.7,0-14.1-6.3-14.1-14.1s6.3-14.1,14.1-14.1,14.1,6.3,14.1,14.1-6.3,14.1-14.1,14.1Z"/><path class="cls-4" d="M512,863c-6.6,0-11.9,5.4-11.9,11.9s5.4,11.9,11.9,11.9,11.9-5.4,11.9-11.9-5.4-11.9-11.9-11.9Zm-4.3,18.4c-1.2,0-2.2-1-2.2-2.2s1-2.2,2.2-2.2,2.2,1,2.2,2.2-1,2.2-2.2,2.2Zm0-8.7c-1.2,0-2.2-1-2.2-2.2s1-2.2,2.2-2.2,2.2,1,2.2,2.2-1,2.2-2.2,2.2Zm8.7,8.7c-1.2,0-2.2-1-2.2-2.2s1-2.2,2.2-2.2,2.2,1,2.2,2.2-1,2.2-2.2,2.2Zm0-8.7c-1.2,0-2.2-1-2.2-2.2s1-2.2,2.2-2.2,2.2,1,2.2,2.2-1,2.2-2.2,2.2Z"/></g></svg>