<svg xmlns="http://www.w3.org/2000/svg" width="41" height="52.165" viewBox="0 0 41 52.165">
  <path id="Machine-Icon" d="M38.7,0H2.3A2.347,2.347,0,0,0,.675.653,2.189,2.189,0,0,0,0,2.225v44.1A2.191,2.191,0,0,0,.675,47.9a2.347,2.347,0,0,0,1.628.652h1.62v2.941a.682.682,0,0,0,.691.671H8.766a.705.705,0,0,0,.492-.2.659.659,0,0,0,.2-.475V48.554H31.535v2.941a.659.659,0,0,0,.2.475.7.7,0,0,0,.492.2h4.153a.707.707,0,0,0,.491-.2.659.659,0,0,0,.2-.474V48.554H38.7a2.345,2.345,0,0,0,1.627-.652A2.191,2.191,0,0,0,41,46.329V2.225A2.19,2.19,0,0,0,40.324.652,2.346,2.346,0,0,0,38.695,0ZM8.072,50.825H5.307V48.554H8.072Zm27.619,0H32.926V48.554h2.765Zm3.92-4.5h0a.9.9,0,0,1-.915.884H2.3a.9.9,0,0,1-.915-.884V2.226A.9.9,0,0,1,2.3,1.341H38.7a.9.9,0,0,1,.915.885ZM20.5,8.943A2.677,2.677,0,0,0,22.358,8.2a2.481,2.481,0,0,0,0-3.592,2.694,2.694,0,0,0-3.718,0,2.477,2.477,0,0,0,0,3.591A2.677,2.677,0,0,0,20.5,8.943Zm0-3.739a1.242,1.242,0,0,1,1.147.74,1.17,1.17,0,0,1-.269,1.307,1.272,1.272,0,0,1-1.352.26A1.2,1.2,0,0,1,19.259,6.4,1.222,1.222,0,0,1,20.5,5.2Zm14.233-.53h-4.7a1.606,1.606,0,0,0-1.115.447A1.5,1.5,0,0,0,28.459,6.2V7.548a1.5,1.5,0,0,0,.462,1.077,1.608,1.608,0,0,0,1.115.447h4.695a1.607,1.607,0,0,0,1.115-.447,1.5,1.5,0,0,0,.462-1.077V6.2a1.5,1.5,0,0,0-.462-1.077A1.608,1.608,0,0,0,34.732,4.675Zm.19,2.873a.189.189,0,0,1-.19.184h-4.7a.19.19,0,0,1-.19-.184V6.2a.189.189,0,0,1,.19-.183h4.695a.189.189,0,0,1,.19.183ZM5.573,6.873a.659.659,0,0,1,.2-.475.7.7,0,0,1,.491-.2h5.05a.67.67,0,1,1,0,1.34H6.267A.682.682,0,0,1,5.573,6.873ZM20.5,16.229a11.613,11.613,0,0,0-8.055,3.229A10.84,10.84,0,0,0,9.1,27.242c0,.334.016.665.047.992h0c0,.015,0,.03,0,.045A10.9,10.9,0,0,0,13.1,35.616a11.679,11.679,0,0,0,15.831-.963,10.749,10.749,0,0,0-.5-15.32A11.609,11.609,0,0,0,20.5,16.229Zm0,20.684a10.231,10.231,0,0,1-6.571-2.383,9.6,9.6,0,0,1-3.343-5.963,9.02,9.02,0,0,1,9.111.2,10.6,10.6,0,0,0,5.368,1.52A11.485,11.485,0,0,0,30.358,28.9a9.621,9.621,0,0,1-3.422,5.737A10.24,10.24,0,0,1,20.5,36.911Zm10-9.352a.715.715,0,0,0-.576.044,9.106,9.106,0,0,1-9.515.012h0a10.4,10.4,0,0,0-9.917-.5,9.626,9.626,0,0,1,5.091-8.249,10.311,10.311,0,0,1,9.939.06,9.616,9.616,0,0,1,4.984,8.31C30.508,27.347,30.506,27.454,30.5,27.561Zm-10-15.288A15.767,15.767,0,0,0,9.548,16.656a14.614,14.614,0,0,0,0,21.166,15.872,15.872,0,0,0,21.9,0,14.6,14.6,0,0,0,0-21.161A15.784,15.784,0,0,0,20.5,12.274Zm0,28.59a14.357,14.357,0,0,1-9.972-3.992,13.3,13.3,0,0,1,0-19.272,14.452,14.452,0,0,1,19.944.005,13.293,13.293,0,0,1-.01,19.264A14.37,14.37,0,0,1,20.5,40.863ZM23.52,21.7a.654.654,0,0,1,.01.957.71.71,0,0,1-.99-.01l-.053-.051a.654.654,0,0,1,.009-.94.711.711,0,0,1,.973-.008ZM17.645,23a.655.655,0,0,1,0,.948.711.711,0,0,1-.981,0l-.053-.051a.654.654,0,0,1,.025-.925.711.711,0,0,1,.957-.019Zm8.489,3.173h0a.654.654,0,0,1-.009.94.711.711,0,0,1-.973.008l-.052-.051h0a.654.654,0,0,1,0-.948.711.711,0,0,1,.981,0Z" fill="#ae1917"/>
</svg>
