<svg xmlns="http://www.w3.org/2000/svg" width="20" height="14" viewBox="0 0 20 14">
  <g id="noun-mail-953556" transform="translate(1117.9 -490.3)">
    <path id="Path_28630" data-name="Path 28630" d="M-928.43,969.392a2.633,2.633,0,0,0-.632-.642,2.526,2.526,0,0,0-1.427-.449h-14.862a2.526,2.526,0,0,0-1.427.449,2.314,2.314,0,0,0-.632.642,2.786,2.786,0,0,0-.489,1.584v8.648a2.718,2.718,0,0,0,.489,1.563,2.635,2.635,0,0,0,.632.642,2.453,2.453,0,0,0,1.448.471h14.862a2.452,2.452,0,0,0,1.447-.471,3.071,3.071,0,0,0,.632-.642,2.768,2.768,0,0,0,.489-1.563v-8.648A3.166,3.166,0,0,0-928.43,969.392Zm-16.922-.171h14.862a1.483,1.483,0,0,1,.795.214l-7.034,7.385a1.628,1.628,0,0,1-1.182.514,1.627,1.627,0,0,1-1.182-.514l-7.034-7.385A1.325,1.325,0,0,1-945.352,969.221Zm-1.692,10.4v-8.648a1.823,1.823,0,0,1,.245-.92l4.974,5.223L-946.8,980.5A1.752,1.752,0,0,1-947.044,979.624Zm16.534,1.755h-14.862a1.641,1.641,0,0,1-.8-.214l1.529-1.606,3.445-3.618,1.448,1.52a2.469,2.469,0,0,0,1.814.792,2.469,2.469,0,0,0,1.814-.792l1.448-1.52,4.974,5.223A1.72,1.72,0,0,1-930.51,981.38Zm-3.527-6.079,4.975-5.223a1.692,1.692,0,0,1,.245.9v8.648a1.693,1.693,0,0,1-.245.9Z" transform="translate(-170 -478)" fill="#ae1919"/>
  </g>
</svg>
