<svg xmlns="http://www.w3.org/2000/svg" width="20.2" height="16.2" viewBox="0 0 20.2 16.2">
  <g id="noun-message-6930440" transform="translate(-57.56 -182.399)">
    <g id="Group_989" data-name="Group 989" transform="translate(57.66 182.499)">
      <path id="Path_28625" data-name="Path 28625" d="M22.273,12.5H7.1a2.377,2.377,0,0,0-2.414,2.333V28.166a.334.334,0,0,0,.234.317.4.4,0,0,0,.11.017.349.349,0,0,0,.272-.13L8.4,24.5H22.273a2.377,2.377,0,0,0,2.414-2.333V14.833A2.377,2.377,0,0,0,22.273,12.5ZM24,22.166a1.7,1.7,0,0,1-1.724,1.667H8.232a.344.344,0,0,0-.272.13L5.377,27.189V14.832A1.7,1.7,0,0,1,7.1,13.166H22.273A1.7,1.7,0,0,1,24,14.832Z" transform="translate(-4.687 -12.499)" fill="#ae1919" stroke="#ae1919" stroke-width="0.2"/>
      <path id="Path_28626" data-name="Path 28626" d="M35.095,39.062h-11.3a.333.333,0,1,0,0,.666h11.3a.333.333,0,1,0,0-.666Z" transform="translate(-19.443 -33.395)" fill="#ae1919" stroke="#ae1919" stroke-width="0.2"/>
      <path id="Path_28627" data-name="Path 28627" d="M35.095,29.688h-11.3a.333.333,0,1,0,0,.666h11.3a.333.333,0,1,0,0-.666Z" transform="translate(-19.443 -26.021)" fill="#ae1919" stroke="#ae1919" stroke-width="0.2"/>
      <path id="Path_28628" data-name="Path 28628" d="M35.095,48.438h-11.3a.333.333,0,1,0,0,.666h11.3a.333.333,0,1,0,0-.666Z" transform="translate(-19.443 -40.771)" fill="#ae1919" stroke="#ae1919" stroke-width="0.2"/>
    </g>
  </g>
</svg>
