<svg xmlns="http://www.w3.org/2000/svg" width="73.642" height="83.768" viewBox="0 0 73.642 83.768">
  <g id="noun-thank-you-854669" transform="translate(-171.66 -850.999)">
    <g id="Group_922" data-name="Group 922" transform="translate(171.66 850.999)">
      <path id="Path_28451" data-name="Path 28451" d="M69.864,40.838c-.328.015-.65.023-.97.023-6.34.037-13.372-3.135-18.686-6.488a68.152,68.152,0,0,1-6.45-4.593c-.777-.625-1.384-1.143-1.79-1.5-.2-.177-.356-.314-.454-.4l-.106-.1-.022-.02a3.58,3.58,0,0,0-.715-.517,4.982,4.982,0,0,0-2.591-.712h-.592a11.046,11.046,0,0,1-21.792,0h-.591a5.082,5.082,0,0,0-1.705.294c-.037.009-.074.015-.11.026a44.351,44.351,0,0,0-5.875,2.231,21.082,21.082,0,0,0-4.445,2.7,9.5,9.5,0,0,0-1.937,2.132A6.752,6.752,0,0,0,.6,34.69,6,6,0,0,0,0,37.275a5.737,5.737,0,0,0,.287,1.786h0v0a.091.091,0,0,1,0,.01l.009.021a7.241,7.241,0,0,0,2.292,3.213,19.218,19.218,0,0,0,5.956,3.1,71.714,71.714,0,0,0,9.9,2.573,3.607,3.607,0,1,0,1.4-7.076A52.2,52.2,0,0,1,9.169,37.9a11.381,11.381,0,0,1-1.387-.727,6.988,6.988,0,0,1,.647-.451c.057-.037.12-.073.179-.11a22.47,22.47,0,0,1,2.885-1.452l.627,2.894a69.258,69.258,0,0,0,7.907,1.968,4.509,4.509,0,1,1-1.753,8.846c-1.432-.284-2.759-.573-4-.869l.122.566V92.76a5.576,5.576,0,0,0,11.151,0V52.051h2.09V92.759a5.576,5.576,0,0,0,11.151,0V48.566L41.3,37c1.44,1.077,3.152,2.28,5.085,3.491,5.932,3.685,13.888,7.552,22.513,7.588q.66,0,1.31-.032a3.607,3.607,0,1,0-.341-7.206Z" transform="translate(0 -14.567)"/>
      <circle id="Ellipse_4" data-name="Ellipse 4" cx="10.146" cy="10.146" r="10.146" transform="translate(16.446)"/>
    </g>
  </g>
</svg>
