<svg xmlns="http://www.w3.org/2000/svg" width="16.373" height="16.438" viewBox="0 0 16.373 16.438">
  <path id="phone" d="M19.008,14.138a5.6,5.6,0,0,0-3.908-3.1.913.913,0,0,0-.8.179l-1.544,1.257a.914.914,0,0,1-1.057.071A11.975,11.975,0,0,1,7.756,8.577.916.916,0,0,1,7.832,7.52L9.095,5.98a.915.915,0,0,0,.183-.8A5.6,5.6,0,0,0,6.2,1.257a.9.9,0,0,0-.81.016A17.747,17.747,0,0,0,3.1,2.722a.926.926,0,0,0-.362.894,17.116,17.116,0,0,0,4.875,9.056,17.1,17.1,0,0,0,9.026,4.921.925.925,0,0,0,.895-.358,17.747,17.747,0,0,0,1.459-2.287.9.9,0,0,0,.02-.811Z" transform="translate(-2.721 -1.168)" fill="#fff"/>
</svg>
