<svg xmlns="http://www.w3.org/2000/svg" width="38.013" height="38.013" viewBox="0 0 38.013 38.013">
  <g id="Pinterset" transform="translate(-1375.5 -1044)">
    <rect id="Rectangle_6747" data-name="Rectangle 6747" width="37.013" height="37.013" rx="2" transform="translate(1376 1044.5)" fill="none" stroke="#fff" stroke-width="1"/>
    <path id="Path_28533" data-name="Path 28533" d="M308.427,163.39c-.016.055-.031.1-.045.149-.707,2.774-.786,3.39-1.513,4.678a14.5,14.5,0,0,1-1.171,1.748c-.049.063-.094.143-.191.124s-.115-.118-.127-.2a15.038,15.038,0,0,1-.153-2.538c.037-1.109.175-1.489,1.6-7.5a.414.414,0,0,0-.034-.251,4.237,4.237,0,0,1-.111-2.808c.647-2.05,2.971-2.207,3.377-.516.25,1.046-.412,2.415-.92,4.438-.421,1.669,1.543,2.856,3.224,1.637,1.549-1.123,2.15-3.816,2.035-5.725-.225-3.8-4.4-4.628-7.046-3.4-3.035,1.4-3.726,5.166-2.355,6.884.174.219.307.353.25.575-.088.344-.166.691-.261,1.034a.367.367,0,0,1-.542.242,3.11,3.11,0,0,1-1.268-.949,6.007,6.007,0,0,1,.042-6.7,8.054,8.054,0,0,1,7.771-3.427,6.581,6.581,0,0,1,6.053,5.436,9.048,9.048,0,0,1-1.662,6.36c-1.971,2.446-5.168,2.608-6.643,1.107C308.629,163.663,308.538,163.528,308.427,163.39Z" transform="translate(1084.814 902.683)" fill="#fff" stroke="#fff" stroke-width="0.7" fill-rule="evenodd"/>
  </g>
</svg>
