<svg xmlns="http://www.w3.org/2000/svg" xmlns:xlink="http://www.w3.org/1999/xlink" width="81" height="24" viewBox="0 0 81 24">
  <defs>
    <clipPath id="clip-path">
      <rect id="Rectangle_595" data-name="Rectangle 595" width="81" height="24" fill="#fff"/>
    </clipPath>
  </defs>
  <g id="Mask_Group_33" data-name="Mask Group 33" clip-path="url(#clip-path)">
    <g id="Group_372" data-name="Group 372">
      <path id="star-solid" d="M39.112.844a1.707,1.707,0,0,0-2.945,0l-3.288,6.2-7.342.994a1.6,1.6,0,0,0-1.314,1.017,1.421,1.421,0,0,0,.4,1.533l5.328,4.832L28.7,22.249a1.45,1.45,0,0,0,.66,1.467,1.774,1.774,0,0,0,1.728.108l6.56-3.211,6.56,3.211a1.762,1.762,0,0,0,1.728-.108,1.453,1.453,0,0,0,.66-1.467L45.33,15.42l5.328-4.832a1.412,1.412,0,0,0,.4-1.533,1.609,1.609,0,0,0-1.314-1.017L42.4,7.045Z" transform="translate(-24.144 0)" fill="#388e3c"/>
      <path id="star-solid-2" data-name="star-solid" d="M39.112.844a1.707,1.707,0,0,0-2.945,0l-3.288,6.2-7.342.994a1.6,1.6,0,0,0-1.314,1.017,1.421,1.421,0,0,0,.4,1.533l5.328,4.832L28.7,22.249a1.45,1.45,0,0,0,.66,1.467,1.774,1.774,0,0,0,1.728.108l6.56-3.211,6.56,3.211a1.762,1.762,0,0,0,1.728-.108,1.453,1.453,0,0,0,.66-1.467L45.33,15.42l5.328-4.832a1.412,1.412,0,0,0,.4-1.533,1.609,1.609,0,0,0-1.314-1.017L42.4,7.045Z" transform="translate(2.856 0)" fill="#f16462"/>
      <path id="star-solid-3" data-name="star-solid" d="M39.112.844a1.707,1.707,0,0,0-2.945,0l-3.288,6.2-7.342.994a1.6,1.6,0,0,0-1.314,1.017,1.421,1.421,0,0,0,.4,1.533l5.328,4.832L28.7,22.249a1.45,1.45,0,0,0,.66,1.467,1.774,1.774,0,0,0,1.728.108l6.56-3.211,6.56,3.211a1.762,1.762,0,0,0,1.728-.108,1.453,1.453,0,0,0,.66-1.467L45.33,15.42l5.328-4.832a1.412,1.412,0,0,0,.4-1.533,1.609,1.609,0,0,0-1.314-1.017L42.4,7.045Z" transform="translate(29.856 0)" fill="#f59f0a"/>
    </g>
  </g>
</svg>
