<svg xmlns="http://www.w3.org/2000/svg" width="54.501" height="52.663" viewBox="0 0 54.501 52.663">
  <g id="Seasoon-icon" transform="translate(-0.8 -0.8)">
    <path id="Path_28773" data-name="Path 28773" d="M11.757,45.4A8.489,8.489,0,0,0,14.3,45v3.817a.444.444,0,0,0,.887,0V45a8.552,8.552,0,0,0,5.783-.24,8.168,8.168,0,0,0,4.207-3.841.784.784,0,0,0,.005-.706.817.817,0,0,0-.558-.433,14.128,14.128,0,0,0-3.542-.428,11.523,11.523,0,0,0,.994-3.188.775.775,0,0,0-.2-.675.848.848,0,0,0-.683-.267,7.592,7.592,0,0,0-3.333,1.031,7.8,7.8,0,0,0-2.395-5.234,1.051,1.051,0,0,0-1.449,0,7.8,7.8,0,0,0-2.395,5.234A7.594,7.594,0,0,0,8.3,35.219a.845.845,0,0,0-.679.263.783.783,0,0,0-.2.68,11.529,11.529,0,0,0,.99,3.189,14.151,14.151,0,0,0-3.541.428.815.815,0,0,0-.558.433.781.781,0,0,0,.005.706,8.105,8.105,0,0,0,3.059,3.27A8.5,8.5,0,0,0,11.757,45.4ZM8.424,40.213a.834.834,0,0,0,.8-.363.773.773,0,0,0,0-.853A9.383,9.383,0,0,1,8.3,36.08a6.678,6.678,0,0,1,2.936.946.852.852,0,0,0,.83.035.8.8,0,0,0,.443-.68,6.957,6.957,0,0,1,2.141-4.757.141.141,0,0,1,.195,0,6.955,6.955,0,0,1,2.14,4.758.8.8,0,0,0,.442.68.851.851,0,0,0,.831-.035,6.913,6.913,0,0,1,2.939-.965A9.416,9.416,0,0,1,20.271,39a.773.773,0,0,0,0,.852.836.836,0,0,0,.8.364,12.672,12.672,0,0,1,3.284.382,7.3,7.3,0,0,1-3.891,3.436,7.633,7.633,0,0,1-5.272.056V39.4a.444.444,0,0,0-.887,0V44.09a7.659,7.659,0,0,1-5.28-.054A7.327,7.327,0,0,1,5.12,40.6a12.8,12.8,0,0,1,3.3-.387Z" fill="#ae1917" stroke="#d05335" stroke-width="0.5"/>
    <path id="Path_28774" data-name="Path 28774" d="M4.561,14.7H6.629L5.26,16.02h0a.418.418,0,0,0-.006.611.455.455,0,0,0,.633-.005l2-1.928h3.6a3.02,3.02,0,0,0,.621,1.441L9.554,18.605H6.737a.429.429,0,1,0,0,.857H8.667l-1.459,1.41a.418.418,0,0,0-.006.611.455.455,0,0,0,.633,0L9.3,20.064v1.87a.444.444,0,0,0,.887,0V19.207l2.549-2.463a3.259,3.259,0,0,0,1.491.6v3.485l-1.993,1.923a.418.418,0,0,0,.005.6.454.454,0,0,0,.622,0l1.364-1.318v1.994h0a.444.444,0,0,0,.887,0v-2l1.369,1.322a.454.454,0,0,0,.622,0,.418.418,0,0,0,.006-.6l-2-1.928V17.342a3.252,3.252,0,0,0,1.491-.6l2.552,2.465v2.721a.444.444,0,0,0,.887,0V20.066L21.5,21.477h0a.455.455,0,0,0,.622-.005.418.418,0,0,0,.006-.6l-1.463-1.414H22.6a.429.429,0,1,0,0-.857H19.779L17.23,16.139a3.027,3.027,0,0,0,.621-1.441h3.605l1.992,1.924h0a.455.455,0,0,0,.622-.005.418.418,0,0,0,.005-.6L22.71,14.7h2.064a.429.429,0,1,0,0-.857H22.706l1.369-1.322a.418.418,0,0,0-.005-.6.455.455,0,0,0-.622-.005l-2,1.928h-3.6a3.035,3.035,0,0,0-.621-1.44l2.551-2.466H22.6a.429.429,0,1,0,0-.857H20.668l1.461-1.411h0a.418.418,0,0,0-.005-.6.455.455,0,0,0-.622-.005L20.038,8.475V6.606a.444.444,0,0,0-.887,0V9.333L16.6,11.794a3.253,3.253,0,0,0-1.492-.6V7.712L17.1,5.788h0a.418.418,0,0,0-.01-.6.454.454,0,0,0-.617-.01L15.111,6.5V4.507a.444.444,0,0,0-.887,0v2L12.856,5.182h0a.454.454,0,0,0-.632-.005.418.418,0,0,0,.006.611l2,1.928V11.2a3.255,3.255,0,0,0-1.492.6L10.179,9.33V6.611a.444.444,0,0,0-.887,0V8.475L7.833,7.062a.455.455,0,0,0-.609.018.417.417,0,0,0-.016.588L8.671,9.082H6.734a.429.429,0,1,0,0,.857H9.558L12.107,12.4a3.029,3.029,0,0,0-.619,1.44H7.879L5.887,11.917h0a.455.455,0,0,0-.614.012.418.418,0,0,0-.013.593L6.625,13.84H4.561a.429.429,0,1,0,0,.857Zm10.1-2.677h.007a2.371,2.371,0,0,1,1.642.659A2.215,2.215,0,0,1,17,14.266v.007a2.215,2.215,0,0,1-.683,1.586,2.372,2.372,0,0,1-1.642.659h-.005a2.373,2.373,0,0,1-1.643-.659,2.213,2.213,0,0,1-.682-1.587v-.006h0a2.213,2.213,0,0,1,.682-1.587A2.373,2.373,0,0,1,14.664,12.021Z" fill="#ae1917" stroke="#d05335" stroke-width="0.2"/>
    <path id="Path_28775" data-name="Path 28775" d="M36.562,19.1a7.187,7.187,0,0,0,4.349,1.529V23.32a.444.444,0,0,0,.887,0V20.63a7.605,7.605,0,0,0,4.338-1.517c.01-.008.019-.017.029-.026,2.668-2.577,2.668-5.908.012-8.474a19.565,19.565,0,0,1-3.606-5.206,1.343,1.343,0,0,0-1.225-.735,1.314,1.314,0,0,0-1.192.76,15.026,15.026,0,0,1-3.61,5.169C33.875,13.179,33.876,16.509,36.562,19.1Zm.611-7.9h0A15.787,15.787,0,0,0,40.965,5.78a.43.43,0,0,1,.394-.251h.006a.446.446,0,0,1,.407.248,20.4,20.4,0,0,0,3.769,5.43c2.317,2.239,2.322,5.02.014,7.261h0a6.708,6.708,0,0,1-3.755,1.3V12.631a.444.444,0,0,0-.887,0v7.146a6.235,6.235,0,0,1-3.74-1.3c-2.323-2.242-2.323-5.029,0-7.275Z" fill="#ae1917" stroke="#d05335" stroke-width="0.5"/>
    <path id="Path_28776" data-name="Path 28776" d="M41.354,34.727a5.539,5.539,0,0,0-3.848,1.54,5.131,5.131,0,0,0,0,7.434,5.577,5.577,0,0,0,7.7,0,5.127,5.127,0,0,0,0-7.432,5.547,5.547,0,0,0-3.846-1.541Zm0,9.657h0a4.636,4.636,0,0,1-3.221-1.289,4.294,4.294,0,0,1,0-6.222,4.668,4.668,0,0,1,6.441,0,4.292,4.292,0,0,1,0,6.221,4.646,4.646,0,0,1-3.219,1.29Z" fill="#ae1917" stroke="#d05335" stroke-width="0.5"/>
    <path id="Path_28777" data-name="Path 28777" d="M41.354,33.633a.452.452,0,0,0,.314-.125.421.421,0,0,0,.13-.3V31.491a.444.444,0,0,0-.887,0V33.2a.422.422,0,0,0,.13.3A.452.452,0,0,0,41.354,33.633Z" fill="#ae1917" stroke="#d05335" stroke-width="0.5"/>
    <path id="Path_28778" data-name="Path 28778" d="M36.076,35.486a.454.454,0,0,0,.644.018.418.418,0,0,0-.018-.622L35.448,33.67a.455.455,0,0,0-.633-.005.418.418,0,0,0,.006.611Z" fill="#ae1917" stroke="#d05335" stroke-width="0.5"/>
    <path id="Path_28779" data-name="Path 28779" d="M34.333,39.555H32.559a.429.429,0,1,0,0,.857h1.774a.429.429,0,1,0,0-.857Z" fill="#ae1917" stroke="#d05335" stroke-width="0.5"/>
    <path id="Path_28780" data-name="Path 28780" d="M36.077,44.475l-1.254,1.212a.418.418,0,0,0-.005.611.454.454,0,0,0,.632-.005L36.7,45.08a.418.418,0,0,0,.006-.611.455.455,0,0,0-.633.005Z" fill="#ae1917" stroke="#d05335" stroke-width="0.5"/>
    <path id="Path_28781" data-name="Path 28781" d="M41.354,46.336a.436.436,0,0,0-.443.428v1.714a.444.444,0,0,0,.887,0V46.764a.421.421,0,0,0-.13-.3A.452.452,0,0,0,41.354,46.336Z" fill="#ae1917" stroke="#d05335" stroke-width="0.5"/>
    <path id="Path_28782" data-name="Path 28782" d="M46.632,44.475A.455.455,0,0,0,46,44.469.418.418,0,0,0,46,45.08l1.255,1.212a.454.454,0,0,0,.632.005.418.418,0,0,0-.006-.611Z" fill="#ae1917" stroke="#d05335" stroke-width="0.5"/>
    <path id="Path_28783" data-name="Path 28783" d="M50.149,39.555H48.375a.429.429,0,1,0,0,.857h1.774a.429.429,0,1,0,0-.857Z" fill="#ae1917" stroke="#d05335" stroke-width="0.5"/>
    <path id="Path_28784" data-name="Path 28784" d="M46.32,35.613a.45.45,0,0,0,.314-.126l1.254-1.212a.418.418,0,0,0,.006-.611.454.454,0,0,0-.632.005l-1.257,1.213a.417.417,0,0,0-.1.467.443.443,0,0,0,.409.265Z" fill="#ae1917" stroke="#d05335" stroke-width="0.5"/>
    <path id="Path_28785" data-name="Path 28785" d="M4.06,1.956H27.507V26.6H1.987V4a2.008,2.008,0,0,1,.62-1.442Zm0,0a2.159,2.159,0,0,0-1.454.6ZM4.1,53.363H52a3.263,3.263,0,0,0,2.263-.907,3.05,3.05,0,0,0,.941-2.191h0V4h0a3.05,3.05,0,0,0-.941-2.191l-.069.072.069-.072A3.263,3.263,0,0,0,52,.9H4.1a3.263,3.263,0,0,0-2.263.907h0A3.05,3.05,0,0,0,.9,4h0V50.264h0a3.051,3.051,0,0,0,.941,2.191A3.263,3.263,0,0,0,4.1,53.363Zm49.39-1.656a2.159,2.159,0,0,1-1.454.6H28.594V27.66h25.52v22.6A2.008,2.008,0,0,1,53.494,51.707Zm0-49.15a2.01,2.01,0,0,1,.619,1.4V26.6H28.594V1.957H52A2.16,2.16,0,0,1,53.5,2.557ZM1.986,27.66h25.52V52.306H4.1a2.16,2.16,0,0,1-1.5-.6,2.008,2.008,0,0,1-.62-1.442Z" fill="#ae1917" stroke="#d05335" stroke-width="0.2"/>
  </g>
</svg>
