<svg xmlns="http://www.w3.org/2000/svg" xmlns:xlink="http://www.w3.org/1999/xlink" width="221" height="261" viewBox="0 0 221 261">
  <defs>
    <clipPath id="clip-path">
      <rect id="Rectangle_10" data-name="Rectangle 10" width="221" height="261" transform="translate(150 122)" fill="#fff"/>
    </clipPath>
    <clipPath id="clip-path-2">
      <rect id="Rectangle_9" data-name="Rectangle 9" width="285" height="232" transform="matrix(0.932, 0.363, -0.363, 0.932, 84.779, 0.213)" fill="#fff"/>
    </clipPath>
  </defs>
  <g id="Mask_Group_9" data-name="Mask Group 9" transform="translate(-150 -122)" clip-path="url(#clip-path)">
    <g id="subscribe-arrow" transform="translate(75.372 90.787)" clip-path="url(#clip-path-2)">
      <path id="Path_116" data-name="Path 116" d="M266.361,286.917c-.059.281,1.963,1.068,4.51,1.806,2.564.7,4.7,1.071,4.71.773.059-.28-1.875-1.033-4.334-1.737l-.132-.052C268.551,287.012,266.419,286.637,266.361,286.917Zm-19.1-8.142c-.146.246,1.766,1.445,4.413,2.577s4.965,1.679,5.067,1.416c.147-.246-1.956-1.216-4.559-2.33C249.619,279.341,247.4,278.529,247.258,278.775ZM231.9,266.991c-.173.185,1.165,1.817,3.1,3.479s3.688,2.749,3.835,2.5c.129-.2-1.356-1.589-3.291-3.251C233.655,268.078,232.075,266.806,231.9,266.991Zm-13.088-15.143c-.261.151.661,2.075,2.242,4.256,1.6,2.137,3.241,3.635,3.459,3.467s-1.027-1.914-2.581-4.034C220.441,253.39,219.076,251.7,218.814,251.848Zm35.015-15.054c-.6.119-1.267.264-1.975.393l-.166.036c-2.7.565-4.9,1.021-4.882,1.23s1.892.081,4.243-.368l.332-.073a1.952,1.952,0,0,1,.481-.065c2.744-.548,4.856-1.291,4.836-1.5a8.618,8.618,0,0,0-2.6.3ZM226.5,238.731c-.014.3,2.242.873,5.143,1.093s5.227-.036,5.2-.35-2.318-.549-5.174-.752c-.491-.039-.982-.079-1.429-.1l-.3-.015C227.961,238.492,226.543,238.495,226.5,238.731Zm42.8-8.389c-2.553,1.228-4.635,2.286-4.51,2.486s2.412-.475,5.026-1.73,4.457-2.608,4.332-2.808C273.978,228.073,271.869,229.07,269.3,230.342ZM211.16,232.76a6.773,6.773,0,0,0,.209,2.455c-1.756-.431-3.106-.6-3.174-.428-.086.22,1.348.828,3.394,1.423.11.5.264,1.011.4,1.57.7,2.747,1.617,4.82,1.817,4.7.183-.08-.382-2.27-1.1-4.973-.1-.393-.218-.742-.292-1.073l.281.059c2.564.7,4.7,1.07,4.781.851.042-.237-1.743-.982-4.158-1.67l-.325-.076c-.325-.076-.589-.178-.87-.237C211.661,233.814,211.326,232.724,211.16,232.76Zm74.683-16.834-.242.36c-.258.4-.561.792-.837,1.24l-.258.4-.1.115-.1.114-.207.273-.449.633-.146.246-.1.115-.146.246c-.966,1.442-1.674,2.479-1.488,2.652.169.217,1.87-1.292,3.448-3.657,1.623-2.348,2.432-4.558,2.2-4.748A7.751,7.751,0,0,0,285.843,215.926Zm-95.55,9.066c-.13.2,1.5,1.342,3.685,2.495l.132.051c2.271,1.187,4.145,1.966,4.291,1.72.085-.219-1.59-1.376-3.818-2.546S190.439,224.746,190.293,224.992Zm19.964-6.167c-.172,2.912.193,5.226.508,5.2.359-.012.5-2.33.7-5.181.031-.342.046-.639.06-.936l.015-.3c.108-2.23.144-3.882-.137-3.941C211.062,213.634,210.412,215.956,210.257,218.825ZM292.01,200.6c-.2,2.852-.474,5.118-.227,5.265.22.085.88-2.132,1.1-5.027.233-2.939-.081-5.384-.291-5.365C292.351,195.432,292.252,197.767,292.01,200.6ZM173.52,213.464c-.234.212,1.471,1.684,3.8,3.246,2.31,1.606,4.362,2.708,4.552,2.479s-1.444-1.623-3.683-3.151l-.115-.1C175.745,214.381,173.755,213.252,173.52,213.464Zm40.162-15.273c-1.085,2.658-1.509,4.917-1.228,4.976.237.042.881-1.223,1.641-3.047l.1-.263c.171-.439.385-.86.573-1.343,1.068-2.614,1.9-4.763,1.641-4.865C216.1,193.529,214.767,195.533,213.682,198.191Zm73.891-22.343c-.278.194.924,2.177,2.1,4.755s1.993,4.765,2.325,4.692c.288-.09-.06-2.447-1.3-5.1C289.42,177.475,287.79,175.68,287.573,175.848ZM159.32,200.009c-.234.212,1.142,2.01,3.177,4.064,1.991,2.038,3.783,3.543,4,3.375.234-.211-1.186-2.026-3.176-4.064S159.538,199.841,159.32,200.009ZM223,180.76c-1.561,2.321-2.519,4.523-2.273,4.67.186.173,1.213-1.3,2.543-3.152l.354-.518.207-.273c1.544-2.277,2.83-4.15,2.618-4.385C226.216,176.912,224.6,178.456,223,180.76Zm49.4-15.212c-.1.263,2.086,1.014,4.689,2.128,2.62,1.07,4.645,2.111,4.835,1.882s-1.575-1.674-4.284-2.778C274.9,165.614,272.5,165.285,272.4,165.548ZM148.762,182.921c-.306.134.738,2,2.336,4.142,1.537,2.163,3.1,3.732,3.364,3.581s-.844-1.994-2.4-4.114C150.555,184.427,149.067,182.788,148.762,182.921Zm89.592-14.566c-2.615,1.255-4.474,2.652-4.306,2.869s2.251-.841,4.8-2.069,4.663-2.225,4.555-2.469S240.985,167.057,238.354,168.355Zm14.7-4.732c.02.21,2.286-.019,5.032-.314,2.73-.25,4.978-.435,5-.628s-2.176-.392-5.01-.132a26.53,26.53,0,0,0-2.676.372l-.271.047C253.863,163.232,253,163.5,253.052,163.623Zm-113.389,1.971c-.3.134.514,2.321,1.775,4.933s2.463,4.6,2.768,4.461c.245-.107-.352-1.955-1.408-4.184l-.134-.305a2.7,2.7,0,0,0-.233-.444C141.153,167.487,139.907,165.487,139.663,165.594Zm-7.926-19.042c-.183.08.321,2.3,1.146,4.991s1.633,4.776,1.816,4.7c.061-.027.032-.341-.035-.821l-.036-.166a37.715,37.715,0,0,0-1.074-4C132.713,148.6,131.92,146.472,131.737,146.552ZM126.81,126.96a5.18,5.18,0,0,0,.17,2.035l.063.227c.157.768.377,1.763.6,2.758.658,2.73,1.346,4.866,1.573,4.8a5.185,5.185,0,0,0-.17-2.036l-.063-.226c-.157-.768-.324-1.641-.561-2.592l-.037-.166C127.707,129.077,126.993,126.88,126.81,126.96Zm-4.3-18.741c-.332.073-.109,2.23.452,4.822s1.221,4.666,1.553,4.594c.288-.09.108-2.23-.452-4.822S122.845,108.147,122.513,108.219ZM118.9,88.38c-.315.029-.2,2.2.242,4.841.455,2.6,1.054,4.7,1.386,4.63.315-.029.2-2.2-.285-4.858C119.828,90.409,119.212,88.351,118.9,88.38Z" fill="rgba(0,0,0,0.1)" stroke="rgba(0,0,0,0.39)" stroke-width="0.5" fill-rule="evenodd"/>
      <path id="Path_117" data-name="Path 117" d="M76.849,34.242c-.01-.1.024-.193.015-.3l.034-.088.085-.219L77,33.594l.156-.141a.959.959,0,0,1,.383-.2l.1-.01a.245.245,0,0,1,.21-.019l.166-.036,60.692,20.542a.892.892,0,0,1,.6.79.969.969,0,0,1-.43.843l-14.528,8.586-2.715,18.94c-.034.088-.007.149-.085.219-.034.088-.113.158-.147.246l-.061.027a.825.825,0,0,1-.261.151l-.166.036a.876.876,0,0,1-.342-.032l-.088-.034a.6.6,0,0,1-.246-.146l-.061.027L108.837,73,96.381,81.334a.753.753,0,0,1-.752.111.961.961,0,0,1-.557-.52L76.913,34.469A.649.649,0,0,1,76.849,34.242Zm7.361,3.067,39.327,25.1,12.778-7.6C136.3,54.856,84.21,37.309,84.21,37.309Zm30.377,31.972-4.332,2.808,8.334,7.587Zm1.022-1.976a.988.988,0,0,1,.2.278.046.046,0,0,0,.027.061l4.549,11.719,2.234-15.492L86.126,40.58C86.082,40.563,115.609,67.306,115.609,67.306ZM96.3,79.333l12.116-8.111,5.228-3.419L79.91,37.3Z" fill="rgba(0,0,0,0.27)"/>
    </g>
  </g>
</svg>
