<svg xmlns="http://www.w3.org/2000/svg" width="52.404" height="52.4" viewBox="0 0 52.404 52.4">
  <path id="Thread-Icon" d="M29.937,0H19.084A.788.788,0,0,0,18.3.788V4.66H14.07a2.69,2.69,0,0,0-2.642,2.728V30.554L.42,36.373a.788.788,0,1,0,.736,1.393l10.271-5.429V44.612A2.69,2.69,0,0,0,14.07,47.34H18.3v3.872a.788.788,0,0,0,.788.788H29.937a.788.788,0,0,0,.788-.788V47.34h4.226a2.69,2.69,0,0,0,2.643-2.728v-26.1l3.148-1.665a2.138,2.138,0,0,0,1.48.594,2.2,2.2,0,0,0,1.031-.26l2.1-1.161c1.2,1,4.819,4.254,5.055,7.534A4.263,4.263,0,0,1,49.04,27c-5.486,5.536-4.851,16.3-4.821,16.758a.788.788,0,0,0,.786.736l.052,0a.788.788,0,0,0,.735-.838c-.007-.1-.624-10.508,4.368-15.545a5.829,5.829,0,0,0,1.825-4.666c-.254-3.527-3.514-6.8-5.151-8.235l1.773-.978a2.2,2.2,0,0,0,.919-2.948,2.174,2.174,0,0,0-2.945-.915l-.012.006-5.354,2.954a2.194,2.194,0,0,0-1.159,2.1l-2.462,1.3V7.388A2.69,2.69,0,0,0,34.951,4.66H31.927c-.008,0-.015,0-.024,0s-.008,0-.013,0H30.725V.788A.788.788,0,0,0,29.937,0ZM19.872,1.576h9.277v3.08H19.872Zm9.277,48.849H19.872v-3.08h9.277ZM41.964,14.714l5.359-2.956a.6.6,0,0,1,.807.254.618.618,0,0,1-.271.833l-2.811,1.551-.005,0L42.5,15.8a.6.6,0,0,1-.812-.252A.618.618,0,0,1,41.964,14.714ZM31.542,28.793c-1.089.1-2.208.158-3.337.192.025-9.46-.289-19.821-.385-22.75H31.17c.094,2.833.408,13.13.372,22.558ZM13,35.707a119.479,119.479,0,0,0,12.736.75A52.429,52.429,0,0,0,36.017,35.6V39.84c-7.659,1.7-19.994.471-23.014.129Zm23.014-1.717c-7.659,1.7-19.994.471-23.014.129V29.857a119.458,119.458,0,0,0,12.736.75,52.421,52.421,0,0,0,10.278-.858Zm-9.388-4.974c-1.13.011-2.253,0-3.347-.029.035-9.464-.276-19.822-.371-22.751h3.332c.094,2.848.412,13.278.387,22.78Zm-5.3-22.781c.093,2.839.406,13.213.372,22.7-1.183-.049-2.31-.113-3.348-.184.035-9.381-.275-19.605-.371-22.513Zm-7.264,0H16.41c.093,2.812.406,13.012.372,22.4-1.695-.137-3.027-.277-3.78-.362V7.387A1.113,1.113,0,0,1,14.07,6.235Zm20.881,39.53H14.07A1.113,1.113,0,0,1,13,44.612V41.557a119.458,119.458,0,0,0,12.736.75,52.421,52.421,0,0,0,10.278-.858v3.163a1.113,1.113,0,0,1-1.067,1.153ZM36.018,7.388V28.14c-.909.2-1.881.365-2.9.491.032-9.349-.276-19.5-.372-22.395h2.2a1.113,1.113,0,0,1,1.067,1.153Z" transform="translate(0.203 0.2)" fill="#ae1917" stroke="#fff" stroke-width="0.4"/>
</svg>
