<svg xmlns="http://www.w3.org/2000/svg" width="37.944" height="38.014" viewBox="0 0 37.944 38.014">
  <g id="Tumblr" transform="translate(-1318 -1043.5)">
    <g id="Tumblr-2" data-name="Tumblr" transform="translate(-26.5 43)">
      <g id="Tumblr-3" data-name="Tumblr" transform="translate(1344.76 1000.832)">
        <g id="Group_905" data-name="Group 905" transform="translate(0.24 0.168)">
          <rect id="Rectangle_6800" data-name="Rectangle 6800" width="36.944" height="37.014" rx="2" transform="translate(0)" fill="none" stroke="#fff" stroke-width="1"/>
        </g>
      </g>
    </g>
    <path id="Tumblr-4" data-name="Tumblr" d="M12.585,19.366a4.416,4.416,0,0,1-1.813.362,2.037,2.037,0,0,1-2.175-2.3V10.3H13.19V6.8H8.6V1H5.213a.118.118,0,0,0-.121.121A7.057,7.057,0,0,1,.5,7.283V10.3H2.8v7.491c0,2.537,1.934,6.283,6.889,6.162,1.692,0,3.626-.725,3.988-1.329l-1.088-3.262Z" transform="translate(1329.885 1050)" fill="#fff"/>
  </g>
</svg>
