<svg xmlns="http://www.w3.org/2000/svg" width="100" height="95.755" viewBox="0 0 100 95.755">
  <g id="Group_10" data-name="Group 10" transform="translate(-70 -42)">
    <g id="Star-5" transform="translate(70 42)">
      <path id="Path_130" data-name="Path 130" d="M51.882,2.238c-2.855,0-5.77,1.775-7.5,5.31L33.766,29.411,9.56,32.847C1.775,33.93-.747,41.567,4.875,47.057l17.49,17.025-4.06,23.895c-1.337,7.735,5.078,12.41,12.025,8.745,2.684-1.42,16.485-8.57,21.551-11.245L73.432,96.722c6.955,3.665,13.39-1.005,12.025-8.745L81.241,64.082,98.732,47.057c5.648-5.47,3.256-13.1-4.529-14.21L69.841,29.411,59.377,7.548C57.654,4.012,54.736,2.24,51.882,2.238Zm0,12.962L62.188,36.283a4.811,4.811,0,0,0,3.748,2.655l23.426,3.434-17.022,16.4a4.812,4.812,0,0,0-1.406,4.37l4.061,23.115L54.224,75.327a5.038,5.038,0,0,0-4.685,0c-2.591,1.365-15.258,8.02-20.771,10.93l3.9-22.955a5.184,5.184,0,0,0-1.405-4.53L14.4,42.372,37.67,39.094a5.231,5.231,0,0,0,3.9-2.811Z" transform="translate(-1.833 -2.238)" fill="#d3d8dc"/>
      <path id="Path_131" data-name="Path 131" d="M46.362,4.614,57.97,28.359a5.419,5.419,0,0,0,4.222,2.99l26.383,3.867L69.4,53.686a5.419,5.419,0,0,0-1.583,4.922l4.573,26.033L49,72.331a5.678,5.678,0,0,0-5.276,0c-2.919,1.538-17.184,9.033-23.393,12.31l4.4-25.853a5.839,5.839,0,0,0-1.583-5.1l-19-18.47,26.206-3.692a5.892,5.892,0,0,0,4.4-3.166Z" transform="translate(3.748 3.854)" fill="#d3d8dc"/>
    </g>
  </g>
</svg>
