<svg xmlns="http://www.w3.org/2000/svg" width="30.07" height="27.589" viewBox="0 0 30.07 27.589">
  <g id="Group_30" data-name="Group 30" transform="translate(772.976 -3916.978)">
    <g id="favorite_border-24px" transform="translate(-772.976 3916.978)">
      <path id="Path_13" data-name="Path 13" d="M25.134,5a9,9,0,0,0-6.766,3.142A9,9,0,0,0,11.6,5a8.189,8.189,0,0,0-8.269,8.269c0,5.683,5.112,10.314,12.855,17.35l2.18,1.97,2.18-1.985C28.291,23.583,33.4,18.952,33.4,13.269A8.189,8.189,0,0,0,25.134,5ZM18.519,28.379l-.15.15-.15-.15C11.061,21.9,6.34,17.614,6.34,13.269A5.138,5.138,0,0,1,11.6,8.007a5.878,5.878,0,0,1,5.367,3.548h2.812a5.841,5.841,0,0,1,5.352-3.548A5.138,5.138,0,0,1,30.4,13.269C30.4,17.614,25.675,21.9,18.519,28.379Z" transform="translate(-3.333 -5)" fill="#b2b2b2"/>
    </g>
  </g>
</svg>
