<svg xmlns="http://www.w3.org/2000/svg" width="30.07" height="27.59" viewBox="0 0 30.07 27.59">
  <g id="noun-wishlist-6789944" transform="translate(-1347.773 -12.123)">
    <path id="Path_28631" data-name="Path 28631" d="M20.651,13.047a8.038,8.038,0,0,0-8.136,7.906c0,4.66,3.655,9.363,7.16,13.061a65.422,65.422,0,0,0,7,6.36h0a1.322,1.322,0,0,0,1.576,0,65.09,65.09,0,0,0,7.087-6.35c3.544-3.7,7.243-8.4,7.243-13.071a8.037,8.037,0,0,0-8.136-7.906,8.2,8.2,0,0,0-6.9,3.719,8.2,8.2,0,0,0-6.9-3.719Z" transform="translate(1335.258 -0.924)" fill="#ae1919"/>
  </g>
</svg>
