<svg xmlns="http://www.w3.org/2000/svg" width="20" height="17.614" viewBox="0 0 20 17.614">
  <g id="Wishlist" transform="translate(-2230 -23)">
    <g id="noun-heart-6840309" transform="translate(2198.067 3.364)">
      <path id="Path_28612" data-name="Path 28612" d="M24.783,37.209a1.761,1.761,0,0,0,2.5,0l7.04-7.04a5.893,5.893,0,0,0-.036-8.37,5.973,5.973,0,0,0-8.252,0,5.9,5.9,0,0,0-8.332.077,5.978,5.978,0,0,0,.136,8.39l6.944,6.944ZM18.547,22.7a4.717,4.717,0,0,1,6.7-.032l.374.374a.606.606,0,0,0,.833,0l.277-.277a4.8,4.8,0,0,1,6.732-.127,4.717,4.717,0,0,1,.032,6.7l-7.04,7.04a.6.6,0,0,1-.833,0L18.675,29.43a4.8,4.8,0,0,1-.127-6.732Z" transform="translate(15.885 -0.477)"/>
    </g>
  </g>
</svg>
