<svg xmlns="http://www.w3.org/2000/svg" width="38.013" height="38.013" viewBox="0 0 38.013 38.013">
  <g id="YT" transform="translate(-1375.5 -1043.5)">
    <g id="Youtube" transform="translate(187.359 -1308.783)">
      <rect id="Rectangle_6747" data-name="Rectangle 6747" width="37.013" height="37.013" rx="2" transform="translate(1188.641 2352.783)" fill="none" stroke="#fff" stroke-width="1"/>
    </g>
    <g id="noun-youtube-5288426" transform="translate(1363.222 1037)">
      <path id="Path_28448" data-name="Path 28448" d="M8.159,18.281A3.3,3.3,0,0,0,5.131,21.46C5.063,22.845,5,24.44,5,25.54s.065,2.732.133,4.128a3.3,3.3,0,0,0,2.976,3.169c1.832.169,4.483.339,7.732.339s5.886-.169,7.718-.338a3.31,3.31,0,0,0,2.984-3.184c.071-1.47.139-3.153.139-4.114s-.067-2.608-.137-4.067a3.315,3.315,0,0,0-3.036-3.194c-1.8-.141-4.4-.28-7.667-.28S9.963,18.139,8.159,18.281Zm5.513,4.041,5.589,3.218-5.589,3.218Z" transform="translate(15.779 0)" fill="#fff" fill-rule="evenodd"/>
    </g>
  </g>
</svg>
